<?xml version="1.0" encoding="utf-8"?>
<!-- Generator: Adobe Illustrator 27.7.0, SVG Export Plug-In . SVG Version: 6.00 Build 0)  -->
<svg version="1.1" id="레이어_1" xmlns="http://www.w3.org/2000/svg" xmlns:xlink="http://www.w3.org/1999/xlink" x="0px"
	 y="0px" viewBox="0 0 327 545" style="enable-background:new 0 0 327 545;" xml:space="preserve">
<style type="text/css">
	.st0{fill:#5D5EA8;fill-opacity:0.2;}
	.st1{fill:#5D5EA8;fill-opacity:0.3;}
	.st2{fill:#5D5EA8;fill-opacity:0.4;}
	.st3{fill:#5D5EA8;fill-opacity:0.5;}
	.st4{fill:#5D5EA8;fill-opacity:0.6;}
	.st5{fill:#5D5EA8;fill-opacity:0.7;}
</style>
<path class="st0" d="M163.5,64.83V1.98H30.01C13.44,1.98,0,15.42,0,31.99v150.99h47.36c0-18.99,15.4-34.38,34.39-34.38
	s34.38,15.39,34.39,34.38h47.36v-49.36c18.99,0,34.39-15.4,34.39-34.39s-15.4-34.39-34.39-34.39V64.83z"/>
<path class="st1" d="M327,31.99c0-16.57-13.44-30.01-30.01-30.01H163.5v62.85c18.99,0,34.39,15.4,34.39,34.39
	s-15.4,34.39-34.39,34.39v49.36h47.36c0,0,0,0,0,0.01c0,18.99,15.4,34.39,34.39,34.39s34.39-15.4,34.39-34.39c0,0,0,0,0-0.01H327
	V31.99z"/>
<path class="st2" d="M163.5,239.1v-56.11h-47.36c0-18.99-15.4-34.39-34.39-34.39S47.36,164,47.36,182.99H0v181h47.36c0,0,0,0,0,0.01
	c0,18.99,15.4,34.39,34.39,34.39s34.39-15.4,34.39-34.39c0,0,0,0,0-0.01h47.36v-56.11c-18.99,0-34.39-15.4-34.39-34.39
	S144.51,239.1,163.5,239.1z"/>
<path class="st3" d="M279.64,182.99c0,18.99-15.4,34.39-34.39,34.39s-34.39-15.4-34.39-34.39H163.5v56.11
	c-18.99,0-34.39,15.4-34.39,34.39s15.4,34.39,34.39,34.39v56.11h47.36c0-18.99,15.4-34.38,34.39-34.38s34.38,15.39,34.39,34.38H327
	v-181H279.64z"/>
<path class="st4" d="M163.5,420.11V364h-47.36c0,18.99-15.4,34.39-34.39,34.39S47.36,382.99,47.36,364H0v150.96
	c0,16.59,13.45,30.04,30.04,30.04H163.5v-56.11c18.99,0,34.39-15.4,34.39-34.39C197.89,435.51,182.49,420.11,163.5,420.11z"/>
<path class="st5" d="M279.64,364.01c0-18.99-15.4-34.39-34.39-34.39s-34.39,15.4-34.39,34.39H163.5v56.11
	c18.99,0,34.39,15.4,34.39,34.39s-15.4,34.39-34.39,34.39v56.11h133.46c16.59,0,30.04-13.45,30.04-30.04V364.01H279.64z"/>
</svg>
