<?xml version="1.0" encoding="utf-8"?>
<!-- Generator: Adobe Illustrator 27.7.0, SVG Export Plug-In . SVG Version: 6.00 Build 0)  -->
<svg version="1.1" id="레이어_1" xmlns="http://www.w3.org/2000/svg" xmlns:xlink="http://www.w3.org/1999/xlink" x="0px"
	 y="0px" viewBox="0 0 272 258" style="enable-background:new 0 0 272 258;" xml:space="preserve">
<style type="text/css">
	.st0{clip-path:url(#SVGID_00000103260753418541558260000010178204948455593882_);}
	.st1{clip-path:url(#SVGID_00000158023853877492439020000003778687606863782323_);}
	.st2{fill:#8E8E8E;}
	.st3{fill:#585A5B;}
	.st4{fill:#F4A892;}
	.st5{fill:#24558F;}
	.st6{fill:#2C69A4;}
	.st7{fill:#F8C7B8;}
	.st8{fill:#E67E6B;}
	.st9{fill:#6D331B;}
	.st10{fill:#040000;}
	.st11{clip-path:url(#SVGID_00000049908218507677475680000007486688322268665770_);}
	.st12{fill:#EF8694;}
	.st13{fill:#8C4551;}
	.st14{fill:#9F4B58;}
	.st15{fill:#81403D;}
	.st16{fill:#DB7271;}
	.st17{fill:#BC5E63;}
</style>
<g>
	<defs>
		<path id="SVGID_1_" d="M252.02,258H19.98C8.95,258,0,249.05,0,238.02V19.98C0,8.95,8.95,0,19.98,0h232.04
			C263.05,0,272,8.95,272,19.98v218.04C272,249.05,263.05,258,252.02,258z"/>
	</defs>
	<use xlink:href="#SVGID_1_"  style="overflow:visible;fill:#D6CFE6;"/>
	<clipPath id="SVGID_00000159464741477259864020000009293558631047785640_">
		<use xlink:href="#SVGID_1_"  style="overflow:visible;"/>
	</clipPath>
	<g style="clip-path:url(#SVGID_00000159464741477259864020000009293558631047785640_);">
		<defs>
			<rect id="SVGID_00000111914178113209779150000017532214801785369786_" y="-14" width="272" height="272"/>
		</defs>
		<clipPath id="SVGID_00000145059691804599758590000004707823963453614770_">
			<use xlink:href="#SVGID_00000111914178113209779150000017532214801785369786_"  style="overflow:visible;"/>
		</clipPath>
		<g style="clip-path:url(#SVGID_00000145059691804599758590000004707823963453614770_);">
			<g>
				<g>
					<g>
						<path class="st2" d="M95.34,371.54c2.48-16.27,3.36-100.45,5.13-122.74c0-2.12,0.35-4.24,0.35-6.37
							c12.73,1.42,67.38,6.72,77.29,0c0,0,1.59,19.45,0.88,28.65c-0.71,9.2,3.89,95.86,4.95,100.81l0,0
							c-4.6-0.35-23.7-0.35-29.01-0.71c-1.06-6.37-8.49-70.39-8.49-83.83c-4.95-0.35-10.97-0.71-15.92-0.35
							c-0.35,7.43-3.89,82.41-5.66,86.3L95.34,371.54z"/>
					</g>
					<g>
						<g>
							<path class="st3" d="M101.89,262.42c4.57-0.7,8.1-4.15,10.06-8.16c0.63-1.36,1.07-2.81,1.26-4.4
								C114.84,256.15,108.45,263.76,101.89,262.42L101.89,262.42z"/>
						</g>
						<g>
							<path class="st3" d="M177.97,262.42c-6.56,1.34-12.95-6.27-11.32-12.56c0.19,1.59,0.62,3.04,1.26,4.4
								C169.87,258.28,173.39,261.72,177.97,262.42L177.97,262.42z"/>
						</g>
						<g>
							<path class="st3" d="M133.72,253.76c0.48,11.12-0.79,22.27-0.02,33.38c0,0-0.68-0.68-0.68-0.68
								c3.25,0.15,8.13-0.12,11.46-0.18c0,0-0.69,0.6-0.69,0.6c0.95-8.13,0.29-17.49,0.17-25.73c-0.25-2.9,0.43-5.79-0.15-8.62
								c0.88,2.8,0.34,5.76,0.8,8.59c0.27,2.87,0.45,5.75,0.64,8.63c0.29,5.83,0.74,11.54-0.01,17.41c0,0-0.09,0.58-0.09,0.58
								c-4.3,0.16-8.53,0.39-12.86,0.16C131.54,276.47,133.22,265.13,133.72,253.76L133.72,253.76z"/>
						</g>
						<g>
							<path class="st3" d="M121.87,287.18c6.17-0.39,12.33-0.77,18.51-0.75c6.16,0.12,12.49,0.03,18.45,1.81
								C146.73,287.29,133.95,288.68,121.87,287.18L121.87,287.18z"/>
						</g>
					</g>
				</g>
				<g>
					<g>
						<path class="st4" d="M84.91,170.81c-1.95,9.02-15.91,44.16-18.04,52c-2.83,10.43,5.48,16.8,14.15,12.56
							c7.96-3.89,25.47-53.94,26.88-59.78L84.91,170.81z"/>
						<g>
							<path class="st5" d="M98.7,180.54c-5.31,0-14.33-2.65-19.1-5.13c-1.42-0.71-4.07-1.77-4.07-3.54c0-0.71,1.24-2.12,1.59-2.83
								c0.53-1.24,0.53-2.12,0.71-3.36c0.35-2.65,1.41-3.18,2.83-5.31c1.06-1.41,1.06-3.71,1.77-5.48
								c1.95-5.3,4.24-10.61,6.37-15.74c1.06-2.83,2.3-4.95,5.48-5.66c1.42-0.35,5.84-0.71,6.37,0.35L98.7,180.54z"/>
						</g>
					</g>
					<g>
						<path class="st4" d="M187.98,170.81c1.95,9.02,15.91,44.16,18.04,52c2.83,10.43-5.48,16.8-14.15,12.56
							c-7.96-3.89-25.47-53.94-26.88-59.78L187.98,170.81z"/>
						<g>
							<path class="st5" d="M174.19,180.54c5.31,0,14.33-2.65,19.1-5.13c1.42-0.71,4.07-1.77,4.07-3.54c0-0.71-1.24-2.12-1.59-2.83
								c-0.53-1.24-0.53-2.12-0.71-3.36c-0.35-2.65-1.42-3.18-2.83-5.31c-1.06-1.41-1.06-3.71-1.77-5.48
								c-1.95-5.3-4.28-9.58-6.4-14.71c-1.06-2.83-3.75-6.68-6.93-7.39c-1.41-0.35-6.37-0.88-6.37-0.88L174.19,180.54z"/>
						</g>
					</g>
					<g>
						<g>
							<path class="st6" d="M95.25,250.49c0-3.18-0.53-6.1,0.27-9.55c1.06-3.45,0.27-4.51-0.27-7.69c-0.8-3.18,1.86-5.04,2.12-8.22
								c0.53-6.37-1.06-13-1.06-19.37c0-5.84-0.53-11.67-0.8-17.51c-0.53-10.88-2.12-21.75-2.92-32.9
								c-0.53-5.31-1.33-10.61-1.33-15.92c-0.27-7.16,6.9-7.16,12.2-7.69c11.94-1.06,24.41-1.06,36.61-1.06
								c10.61,0,23.87-0.8,34.49,1.59c3.45,0.8,4.78,3.18,5.57,7.16c0.8,4.24-0.27,5.84-0.27,10.08c0,7.96-1.86,27.06-2.39,35.02
								c-1.07,12.79-0.06,20.43-1.06,35.55c-0.23,3.48-1.06,6.63-0.8,9.82c0.27,3.98,3.45,4.78,3.71,8.49c0.53,6.1,1.86,13,1.86,13
								h-1.06c-12.73,4.77-27.06,5.04-40.59,5.84c-12.2,1.06-24.14-3.18-36.08-4.51c-2.65-0.27-5.57-0.79-8.22-1.06V250.49z"/>
						</g>
						<g>
							<path class="st5" d="M123.15,131.05c-5.46,3.03-5.46,12.44-4.55,18.21c2.12,13.96,24.28,22.76,33.99,10.92
								c5.76-6.68,6.68-27.01-4.25-30.04L123.15,131.05z"/>
						</g>
						<path class="st4" d="M126.36,134.84c-4.24,2.35-4.24,9.65-3.53,14.12c1.65,10.83,18.83,17.66,26.37,8.48
							c4.47-5.18,5.18-20.95-3.3-23.3L126.36,134.84z"/>
					</g>
					<g>
						<path class="st7" d="M97.93,186.06c-2.07,3.52-5.18,6.22-7.88,9.33c-3.94,4.56-7.67,9.23-11.92,13.58
							c-1.97,1.97-3.73,4.35-5.91,6.22c-1.87,1.76-3.52,3.73-4.66,6.01c-2.18,4.04-1.76,9.12,1.14,12.65
							c3.21,3.94,8.83,4.3,13.4,1.6c4.67-2.9,25.79-43.9,25.58-45.56L97.93,186.06z"/>
						<g>
							<path class="st4" d="M97.82,163.39c0.21-0.97,1.16-2.12,1.68-3.1c1.26-2.03,2.73-4.07,5.26-5.13
								c2.94-1.24,6.41,2.92,5.89,4.95L97.82,163.39z"/>
							<path class="st7" d="M98.24,189.27c0-4.77-0.73-9.64-1.04-14.51c-0.21-2.59-0.41-5.29-0.31-7.98c0.1-2.8,1.14-4.35,3.52-5.91
								c2.38-1.56,4.87-2.59,7.78-3.01c2.9-0.52,4.46,0.21,5.29,3.01c3.11-0.83,4.98,3.11,4.04,5.7c2.38,0.52,1.97,6.53,1.55,8.19
								c-0.31,1.55-1.04,3.01-2.38,4.04c-1.35,1.04-2.59,0.93-4.15,1.24c-0.41,3.32,0.62,6.74-0.21,10.06
								c-0.52,2.18-1.76,3.32-3.94,3.94c-0.83,0.31-3.42,0.83-3.94-0.21L98.24,189.27z"/>
							<g>
								<path class="st8" d="M112.54,184.71c-1.11-3.32-0.78-6.73-0.73-10.16c0.63,0.68,0.89,1.6,1.09,2.44
									C113.45,179.55,113.39,182.21,112.54,184.71L112.54,184.71z"/>
							</g>
							<g>
								<path class="st8" d="M107.98,173.1c1.27,0.31,2.42,0.97,3.6,1.28c1.77,0.02,2.68-2.49,3.35-3.98
									c0.29,0.89,0.22,1.88-0.06,2.78C113.42,177.34,110.07,176,107.98,173.1L107.98,173.1z"/>
							</g>
							<g>
								<path class="st8" d="M115.72,161.13c-5.18,0.08-9.96,2.07-14.72,3.93C104.3,161.48,111.1,159.02,115.72,161.13
									L115.72,161.13z"/>
							</g>
							<g>
								<path class="st8" d="M118.36,167.08c-3.69-1.39-7.67-0.26-11.2,1.05c-1.2,0.46-2.38,0.99-3.59,1.63
									C106.6,165.54,114.19,163.48,118.36,167.08L118.36,167.08z"/>
							</g>
						</g>
					</g>
					<g>
						<path class="st7" d="M175.19,186.06c2.07,3.52,5.18,6.22,7.88,9.33c3.94,4.56,7.67,9.23,11.92,13.58
							c1.97,1.97,3.73,4.35,5.91,6.22c1.87,1.76,3.52,3.73,4.66,6.01c2.18,4.04,1.76,9.12-1.14,12.65c-3.21,3.94-8.84,4.3-13.4,1.6
							c-4.67-2.9-25.79-43.9-25.58-45.56L175.19,186.06z"/>
						<g>
							<path class="st4" d="M175.29,163.39c-0.21-0.97-1.16-2.12-1.68-3.1c-1.26-2.03-2.73-4.07-5.26-5.13
								c-2.94-1.24-6.41,2.92-5.89,4.95L175.29,163.39z"/>
							<path class="st7" d="M174.87,189.27c0-4.77,0.73-9.64,1.04-14.51c0.21-2.59,0.41-5.29,0.31-7.98
								c-0.1-2.8-1.14-4.35-3.52-5.91c-2.38-1.56-4.87-2.59-7.77-3.01c-2.9-0.52-4.46,0.21-5.29,3.01c-3.11-0.83-4.98,3.11-4.04,5.7
								c-2.38,0.52-1.97,6.53-1.55,8.19c0.31,1.55,1.04,3.01,2.38,4.04c1.35,1.04,2.59,0.93,4.15,1.24
								c0.42,3.32-0.62,6.74,0.21,10.06c0.52,2.18,1.76,3.32,3.94,3.94c0.83,0.31,3.42,0.83,3.94-0.21L174.87,189.27z"/>
							<g>
								<path class="st8" d="M160.57,184.71c-0.84-2.5-0.9-5.16-0.36-7.72c0.2-0.84,0.45-1.75,1.09-2.44
									C161.35,177.98,161.68,181.39,160.57,184.71L160.57,184.71z"/>
							</g>
							<g>
								<path class="st8" d="M165.13,173.1c-2.09,2.91-5.43,4.24-6.89,0.09c-0.28-0.91-0.35-1.89-0.06-2.78
									c0.68,1.5,1.56,3.98,3.35,3.98C162.71,174.07,163.86,173.41,165.13,173.1L165.13,173.1z"/>
							</g>
							<g>
								<path class="st8" d="M157.39,161.13c4.62-2.11,11.42,0.35,14.72,3.93C167.35,163.2,162.57,161.22,157.39,161.13
									L157.39,161.13z"/>
							</g>
							<g>
								<path class="st8" d="M154.76,167.08c4.16-3.59,11.76-1.54,14.79,2.68c-1.21-0.64-2.38-1.17-3.59-1.63
									C162.42,166.82,158.44,165.68,154.76,167.08L154.76,167.08z"/>
							</g>
						</g>
					</g>
				</g>
				<g>
					<path class="st7" d="M113.74,97.42c1.41,9.55,0.71,19.28,1.95,28.83c1.24,9.55,5.48,16.62,14.5,20.34
						c8.14,3.18,16.8,2.12,22.99-4.6c5.48-6.01,6.72-15.56,6.72-23.52c0-8.13,1.06-16.8-1.06-24.58
						c-2.83-10.43-12.38-18.04-23.34-18.04c-3.89,0-7.96,1.24-11.14,3.54c-3.71,2.48-5.31,4.78-6.9,9.02L113.74,97.42z"/>
					<path class="st7" d="M118,111.39c-2.3-4.6-9.55-4.07-11.5,0.71c-1.41,3.71-1.06,8.84,2.83,10.97c3.18,1.59,7.6,0.53,10.08-1.95
						v-0.18L118,111.39z"/>
					<path class="st7" d="M156.25,108.85c3.54-3.71,8.49-2.83,11.14,1.77c2.12,3.71,0.53,8.49-3.01,10.79
						c-1.59,1.06-7.96,2.3-8.31-0.71L156.25,108.85z"/>
					<g>
						<path class="st9" d="M117.26,74.94c-0.63-2.01-3.36-3.15-5.29-3.34c-4.95-0.88-6.72,3.01-7.07,7.07
							c-0.35,3.89,1.24,8.84-2.12,11.5c-1.94,1.59-3.71,2.12-4.6,4.6c-0.71,1.59-0.82,3.68-0.71,5.48
							c0.53,8.39,7.96,9.55,12.73,9.73c3.01,0,4.78-1.59,6.01-4.07c1.41-2.48,0.88-4.07,0.53-6.72c4.95-0.35,6.19-1.59,6.37-6.9
							c0-2.12-0.88-3.89-0.88-5.84c0-1.95,1.95-2.12,4.07-2.3c5.84-0.53,5.13,5.13,4.6,9.02c-0.71,5.13,3.71,7.78,8.31,6.19
							c2.48-0.71,4.07-3.89,6.72-3.89c3.01,0,3.71,3.01,4.07,5.31c0.71,4.07,6.19,9.55,9.55,4.42c-0.43,0.66,1.71,2.91,2.19,3.24
							c3.59,2.49,10.84,2.24,12.85-2.19c1.38-3.03,0.64-7.3-2.3-9.19c5.48-3.01,3.36-14.5-3.36-14.15v-0.18
							c2.3-2.3,3.89-6.01,1.94-9.2c-1.94-3.01-6.01-3.36-9.2-3.54c3.36-2.65,1.95-9.2-1.06-11.5c-4.25-3.54-8.31-1.41-11.5,2.12
							c-5.53,6.1-12.11,0.71-18.4-0.38c-3.91-0.68-7.93,0.53-10.85,3.16C116.13,66.77,115.81,70.29,117.26,74.94z"/>
					</g>
					<g>
						<g>
							<g>
								<path class="st9" d="M120.32,104.45c4.06,1.47,7.93,1.86,11.67,4.19C128.33,110.67,121.21,108.97,120.32,104.45
									L120.32,104.45z"/>
							</g>
							<g>
								<path class="st9" d="M153.75,104.45c-0.88,4.52-8,6.23-11.67,4.19C145.82,106.31,149.69,105.92,153.75,104.45L153.75,104.45
									z"/>
							</g>
						</g>
						<g>
							<path class="st10" d="M128.15,115.92c0,1.43-0.92,2.59-2.06,2.59c-1.14,0-2.06-1.16-2.06-2.59c0-1.43,0.92-2.59,2.06-2.59
								C127.23,113.34,128.15,114.49,128.15,115.92z"/>
							<path class="st10" d="M150.43,115.92c0,1.43-0.92,2.59-2.06,2.59c-1.13,0-2.06-1.16-2.06-2.59c0-1.43,0.92-2.59,2.06-2.59
								C149.51,113.34,150.43,114.49,150.43,115.92z"/>
						</g>
						<g>
							<path class="st8" d="M137.3,113.34c1.21,3.09-1.54,5.82-2.49,8.52c-0.91,2.87,1.4,4.8,3.95,5.94
								c-3.62,0.46-7.08-2.69-5.87-6.5C133.85,118.25,136.81,116.6,137.3,113.34L137.3,113.34z"/>
						</g>
						<g>
							<path class="st8" d="M132,138.67c0.57-6.67,11.19-6.22,11.94,0.13C140.87,135.11,134.95,134.58,132,138.67L132,138.67z"/>
						</g>
					</g>
				</g>
			</g>
		</g>
	</g>
	<g style="clip-path:url(#SVGID_00000159464741477259864020000009293558631047785640_);">
		<defs>
			<rect id="SVGID_00000059292381723205563490000005912815632950543019_" y="-14" width="272" height="272"/>
		</defs>
		<clipPath id="SVGID_00000093864974058556673020000009274854550705693863_">
			<use xlink:href="#SVGID_00000059292381723205563490000005912815632950543019_"  style="overflow:visible;"/>
		</clipPath>
		<g style="clip-path:url(#SVGID_00000093864974058556673020000009274854550705693863_);">
			<g>
				<g>
					<g>
						<path class="st12" d="M43.16,67.96c-2.81-5.63-5.37-9.72-3.84-16.11c1.03-4.3,1.34-9.37,0.91-13.77
							c-0.2-2.07-0.66-3.99-1.32-5.78c-7.18-0.23-13.99-1.3-20.94-2.83c-0.38,5.75-0.38,11.7-0.19,17.26c-2.3,0-7.29,0.19-7.29,0.19
							c0,3.84,0.58,8.63,1.73,12.47c-2.88,0.19-5.76,0.77-8.63,0.96c-3.45,0.19-6.71-0.58-9.98-0.38l2.69,11.51
							c0,0-4.97,4.13-8.24,6.49c2.32,9.5-6.79,24.53-6.79,24.53l20.97,11.25c-0.26-0.26,6.14-17.14,8.44-21.23
							c0,0,12.54,6.45,14.07,3.38c2.73-5.46,7.92-16.94,7.92-16.94C38.05,76.65,46.23,75.12,43.16,67.96z"/>
					</g>
					<g>
						<path class="st12" d="M3.78,52.1c-4.99-3.26-12.28-1.53-13.62,4.8c-1.92,9.21,9.21,14.77,15.73,8.82c0.19,0,0.19,0,0.38-0.19
							L3.78,52.1z"/>
					</g>
				</g>
				<g>
					<g>
						<g>
							<path class="st12" d="M20.41,150.8c0,0,6.8,24.73,11.59,36.67c7.41,17.55,47.54,73.63,49.26,77.08
								c-2.76,3.55-14.55,1.79-14.55,1.79c-2.92,1.84-47.48-50.9-50.92-61.42c-3.65-10.85-17.51-50.17-17.51-50.17L20.41,150.8z"/>
						</g>
						<g>
							<path class="st13" d="M11.98,116.31c4.77,13.85,12.04,28.83,18.44,41.82c-4.74,3.63-11.64,5.76-17.27,8.02
								c-1.91,1.09-5.96,2.99-7.99,2.79c-2.8-0.28-4.7-4.33-5.74-6.75c-4.62-10.24-10.48-23.43-5.98-34.8
								c2.09-5.44,7.29-8.52,12.89-7.95L11.98,116.31z"/>
						</g>
					</g>
					<g>
						<path class="st14" d="M-20.78,97.63c-4.86,7.93-11.25,15.35-13.56,24.81c-2.05,7.16-2.81,15.35-2.05,22.76
							c1.02,8.18,2.81,15.86,3.07,24.04c0.51,14.58-1.28,29.16-1.79,43.74c-0.26,7.67,1.44,50.92,2.72,51.94
							c2.05,1.79,34.53,1.54,46.29,1.28c7.67-0.26,15.35-0.26,23.02-0.26c0,0-5.28-50.66-6.04-56.8
							c-1.53-12.79-2.05-25.58-4.6-38.11c-2.05-11-10.24-44.25-16.11-59.85L-20.78,97.63z"/>
					</g>
					<g>
						<g>
							<path class="st12" d="M-10.06,157.85c0,0-7.42,24.55-9.72,37.22c-3.07,18.8,7.29,64.45,6.91,68.29
								c-4.22,1.54-6.52,3.84-11.13,3.84c-3.45,0-21.48-55.24-18.8-65.99c2.69-11.12,11.89-51.79,11.89-51.79L-10.06,157.85z"/>
						</g>
						<g>
							<path class="st12" d="M-27.69,261.1c-0.95,1.98-1.03,4.25,0.39,6.26c2.14,3.48,9.51,8.98,13.17,12.14
								c0.32,1.42,0.67,2.85,0.91,4.95c0.16,2.61-0.41,3.38,0.76,6.84c1.14,1.92,2.17-1.65,2.38-3.85c0.24-2.97,0.3-7.14,1.69-9.68
								c2.09,0.84-2.26,17.61,1.52,17.34c1.19,0.47,1.9-5.4,2.25-7.72c0.23-2.97,1.12-5.79,1.49-8.63
								c1.78,4.35-2.41,17.17,0.42,17.22c2.12-0.01,3.64-11.5,3.81-15.9c1.65,5.37-1.34,11.49,0.73,15.07
								c1.8,0.56,3.85-9.14,3.32-12.4c-0.77-3.79-0.91-5.02-2.87-8.2c-2.2-3.42-5.42-6.4-8.42-9.1c-1.85-1.68-3.83-3.21-5.79-4.76
								c-1.84-1.46-3.68-3.24-5.88-4.14C-21.62,254.97-26.02,257.61-27.69,261.1z"/>
						</g>
						<g>
							<path class="st14" d="M-39.19,162.07c1.92-13.65,5.37-31.86,16.88-39.72c7.29-5.38,17.26-1.66,20.72,7.45
								c2.69,7.03,1.53,18.2,0.77,26.07c-0.77,6.21-2.69,12.41-3.45,18.62L-39.19,162.07z"/>
						</g>
					</g>
				</g>
				<g>
					<g>
						<path class="st15" d="M38.28,15.48c-2.99-0.5-9.29,2.14-12.28,2.39c-3.49,0.25-7.35,0.12-10.84-0.5
							C8.18,16.37,1.2,14-6.03,14.88c-2.74,0.25-4.24,1.5-6.36,2.99c-0.21,0.17-0.51,0.42-0.86,0.69c-1.26,1.15-2.76,2.52-3.88,4.77
							c-1.15,2.49-2.67,7.82-2.67,7.82c-1.36,2.92-2.22,6.06-2.51,9.23c-0.61,6.65,0.11,13.28,1.99,19.68
							c1.77,5.98,6.47,11.41,8.24,17.36c0.05,0.18,0.09,0.36,0.14,0.54c3.27-2.36,8.24-6.49,8.24-6.49l-2.69-11.51
							c3.26-0.19,6.52,0.58,9.98,0.38c2.88-0.19,5.76-0.77,8.63-0.96c-1.15-3.84-1.73-8.63-1.73-12.47c0,0,4.99-0.19,7.29-0.19
							c-0.19-5.56-0.19-11.51,0.19-17.26c6.95,1.53,13.76,2.6,20.94,2.83c0.79,0.02,4.84-2.36,5.18-2.95
							C46.91,24.6,43.21,16.15,38.28,15.48z"/>
					</g>
				</g>
			</g>
			<g>
				<g>
					<path class="st16" d="M263.51,103.63l-6.49-18.55l-10.58,3.64c-2.75,0.42-4.09,0.48-5.53-2.65c-1.2-2.65-3.37-8.18-4.33-10.82
						c0,0-0.96-0.96-3.61-2.4c-1.68-0.72-6.57-3.14-6.73-4.09c-0.44-2.62,4.45-4.14,6.13-5.34c3.85-3.37,0.36-8.85-0.36-12.94
						c-2.16-13.47,4.57-21.4,17.31-25.01c11.3-3.37,23.32-4.09,31.98,5.77c7.94,8.9,5.05,21.88,1.44,31.98
						c-1.44,3.61-3.36,6.49-5.53,9.62c-0.48,0.72-2.89,3.13-3.13,4.09c0,0.96,10.82,20.68,11.06,22.12L263.51,103.63z"/>
				</g>
				<g>
					<g>
						<path class="st17" d="M260.85,301.2c-1.9-17.34-2.49-42.43-3.29-59.5c-0.22-8.56-2.08-18.95,2.51-26.08
							c4.54-7.53,14.54-10.86,22.08-10.61c42.62,0.66,25.93,66.51,16.06,90.67c-0.57,1.3-1.46,3.05-2.03,4.35L260.85,301.2z"/>
					</g>
					<g>
						<path class="st14" d="M253.29,223.51c0,0,3.25-22.72,3.61-29.22c0.36-7.57,0.72-15.87-1.8-22.72
							c-2.16-6.85-6.13-14.79-5.77-21.64c0.72-8.66,6.13-16.95,8.66-24.89c3.25-9.02,3.97-12.98,1.08-22c0,0,18.03-6.49,27.05-10.1
							l4.64,7.78c5.1,3.91,8.81,8.56,11.7,14.3c2.31,4.59,2.52,9.55,2.45,14.6c-0.2,14.11-4.86,27.79-6.9,41.66
							c-0.59,4.04-0.98,8.1-1.07,12.18c-0.36,16.59,7.94,30.66,15.15,44.73L253.29,223.51z"/>
					</g>
				</g>
				<g>
					<g>
						<path class="st16" d="M292.31,119.56c-2.65-2.94-7.18-2.78-10.57-1.26c-4.33,1.99-6.44,5.43-7.71,9.84
							c-1.06,3.89-10.25,39.44-13.7,48.36c-6.77,16.58-39.06,51.37-39.06,51.37c2.63,3.3,3.35,6.28,7.04,8.54
							c0,0,44.35-33.75,47.47-43.68c3.31-10.24,17.41-51.93,18.02-54.39C295.37,132.49,297.14,124.49,292.31,119.56z"/>
					</g>
					<g>
						<path class="st16" d="M232.53,233.52c-0.16,1.93-1.1,3.69-3.08,4.6c-3.18,1.7-11.24,2.62-15.43,3.41
							c-0.87,0.95-1.78,1.87-2.89,3.36c-1.28,1.92-1.19,2.76-3.62,4.88c-1.72,0.96-0.92-2.22-0.1-3.99
							c1.13-2.37,2.94-5.58,3.01-8.13c-1.97-0.29-6.1,14.42-8.86,12.54c-1.12-0.16,0.95-4.96,1.71-6.88
							c1.14-2.37,1.72-4.91,2.7-7.24c-3.29,2.52-5.79,14.16-7.97,12.94c-1.61-0.96,2.33-10.38,4.16-13.81
							c-3.64,3.36-4.08,9.36-7.25,11.16c-1.62-0.37,1.12-8.67,2.97-10.93c2.27-2.55,2.92-3.42,5.82-4.98
							c3.2-1.63,6.97-2.47,10.46-3.2c2.16-0.45,4.34-0.75,6.53-1.06c2.05-0.3,4.25-0.83,6.32-0.55
							C230.62,226.16,232.81,230.12,232.53,233.52z"/>
					</g>
				</g>
				<g>
					<path class="st12" d="M237.81,20.02c-8.11,3.17-14.7,8.73-14.7,18.69c0,14.94,18.85,13.51,28.24,19.07
						c4.48,2.65,7.95,6.35,11.57,10.01c12.06,12.18,6.25,30.33,13.93,44.52c2,3.69,4.76,6.72,8.54,8.64
						c11.78,5.77,29.82,2.16,37.51-8.42c7.7-10.82,6.49-23.32,1.44-35.11c-2.65-6.25-7.21-10.82-12.5-14.91
						c-5.53-4.57-9.86-10.1-13.95-15.87c-5.93-8.37-9.11-17.51-17.68-23.93c-7.62-5.7-16.93-7.47-26.26-6.38
						C248.85,16.94,243.02,17.99,237.81,20.02z"/>
				</g>
			</g>
		</g>
	</g>
</g>
</svg>
