<?xml version="1.0" encoding="utf-8"?>
<!-- Generator: Adobe Illustrator 27.7.0, SVG Export Plug-In . SVG Version: 6.00 Build 0)  -->
<svg version="1.1" id="레이어_1" xmlns="http://www.w3.org/2000/svg" xmlns:xlink="http://www.w3.org/1999/xlink" x="0px"
	 y="0px" viewBox="0 0 272 258" style="enable-background:new 0 0 272 258;" xml:space="preserve">
<style type="text/css">
	.st0{clip-path:url(#SVGID_00000167378535226489089190000002378661397010248585_);}
	.st1{fill:#2F5AA4;}
	.st2{fill:#223663;}
	.st3{fill:#15203D;}
	.st4{opacity:0.7;fill:#223663;}
	.st5{opacity:0.6;fill:#223663;}
	.st6{fill:#070001;}
	.st7{fill:#7EA6D8;}
	.st8{fill:#FFFFFF;}
	.st9{fill:#D2E2F1;}
	.st10{fill:#A0293B;}
	.st11{fill:#F3A37C;}
	.st12{fill:#B83848;}
	.st13{fill:#DC675B;}
	.st14{fill:#F5B417;}
	.st15{fill:#E5811C;}
</style>
<g>
	<defs>
		<path id="SVGID_1_" d="M252.02,258H19.98C8.95,258,0,249.05,0,238.02V19.98C0,8.95,8.95,0,19.98,0h232.04
			C263.05,0,272,8.95,272,19.98v218.04C272,249.05,263.05,258,252.02,258z"/>
	</defs>
	<clipPath id="SVGID_00000026164018001766444330000011836233220413392556_">
		<use xlink:href="#SVGID_1_"  style="overflow:visible;"/>
	</clipPath>
	<g style="clip-path:url(#SVGID_00000026164018001766444330000011836233220413392556_);">
		<rect x="-106.28" y="-5.76" class="st1" width="432.83" height="288.55"/>
		<rect x="-106.28" y="220.03" class="st1" width="432.83" height="62.76"/>
		<rect x="-106.28" y="241.68" class="st2" width="432.83" height="41.12"/>
	</g>
	<g style="clip-path:url(#SVGID_00000026164018001766444330000011836233220413392556_);">
		<path class="st3" d="M325.24,48.93c-1.69,1.63-1.8,4.23-2.34,6.51c-0.25,1.01-0.59,1.99-1.04,2.93c-1.73,3.66-6.23,3.38-8.61,6.2
			c-0.77,0.92-1.13,2.11-1.44,3.28c-0.06,0.27-0.13,0.53-0.19,0.79c-0.07-0.29-0.14-0.58-0.22-0.87c-0.31-1.16-0.66-2.35-1.44-3.27
			c-1.51-1.8-4.16-2.08-6.07-3.45c-0.34-0.25-0.66-0.53-0.83-0.92c-0.19-0.44-0.15-0.94-0.1-1.41c0.35-3.09,1.7-8.27-1.52-10.3
			c-1.51-0.95-3.95-1.27-5.53-0.27c-1.53,0.96-2.36,3.17-2.63,4.87c-0.28,1.75-0.11,3.55,0.19,5.3c0.09,0.53,0.19,1.1,0.04,1.62
			c-0.17,0.6-0.66,1.06-1.19,1.4c-1.84,1.18-4.38,1.31-5.76,3.01c-0.54,0.66-0.82,1.48-1,2.34c-0.18-0.68-0.45-1.32-0.89-1.86
			c-0.68-0.83-1.78-1.11-2.73-1.51c-1.15-0.48-2.22-1.13-3.4-1.57c-0.34-0.12-0.69-0.25-0.97-0.47c-0.28-0.22-0.5-0.57-0.45-0.93
			c0.07-0.52,0.65-0.82,1.18-0.87c0.53-0.04,1.05,0.09,1.58,0.03c0.91-0.11,1.5-0.76,1.83-1.57c0.21-0.4,0.17-0.95,0.25-1.39
			c0.11-0.58,0.35-0.89,0.72-1.36c0.1-0.13,0.2-0.27,0.21-0.43c0-0.19-0.13-0.35-0.25-0.49c-0.64-0.79-0.44-1.35-0.64-2.29
			c-0.14-0.66-0.36-1.31-0.67-1.93c-0.91-1.79-2.99-2.34-4.85-2.5c-1.98-0.17-4.06,0.81-5.12,2.51c-0.28,0.45-0.52,0.96-0.97,1.24
			c-0.25,0.15-0.53,0.22-0.8,0.31c-1.57,0.5-2.91,1.75-3.41,3.31c-0.22,0.68-0.28,1.41-0.57,2.06c-0.46,1.05-1.44,1.77-2.34,2.49
			c-0.9,0.71-1.82,1.55-2.08,2.67c-0.1,0.45-0.09,0.95-0.27,1.38c-0.42,1-1.73,1.46-1.99,2.51c-0.28,1.12,0.78,1.94,0.83,3.04
			c0.04,1.03-1,2.45-1.42,3.36c-0.01,0.04-0.03,0.07-0.04,0.11c-0.28-1.66-0.58-3.31-1-4.95c-0.36-1.37-1.51-2.71-1.72-4
			c-0.17-1.03,0.93-2.03,0.34-3.02c-0.07-0.12-0.17-0.25-0.3-0.38c-0.52-0.49-1.37-0.56-1.82-1.11c-0.43-0.53-0.33-1.3-0.28-1.98
			c0.05-0.69-0.05-1.51-0.66-1.81c-0.25-0.12-0.53-0.14-0.81-0.18c-0.91-0.16-1.72-0.76-2.14-1.58c-0.4-0.78-0.42-1.67-0.48-2.55
			c-0.06-0.87-0.17-1.77-0.69-2.47c-2.67-3.56-10.14-0.16-10.55,3.59c-0.06,0.6-0.04,1.23-0.31,1.76c-0.58,1.1-2.16,1.24-2.95,2.21
			c-0.92,1.11-0.94,3.15-1.59,4.47c-0.6,1.2-1.07,2-1.39,3.32c-0.41,1.75-0.67,3.53-0.88,5.34c-0.13-0.54-0.26-1.08-0.4-1.62
			c-0.3-1.16-0.66-2.35-1.43-3.28c-1.51-1.79-4.16-2.08-6.07-3.45c-0.34-0.24-0.66-0.53-0.83-0.91c-0.19-0.44-0.16-0.95-0.1-1.42
			c0.35-3.09,1.7-8.26-1.53-10.29c-1.51-0.96-3.94-1.28-5.53-0.27c-1.52,0.96-2.35,3.18-2.63,4.87c-0.28,1.75-0.11,3.55,0.19,5.3
			c0.09,0.54,0.2,1.1,0.05,1.62c-0.18,0.61-0.67,1.06-1.2,1.4c-1.84,1.18-4.37,1.31-5.76,3.01c-0.89,1.09-1.07,2.57-1.23,3.96
			c-0.04,0.41-0.09,0.82-0.14,1.24c-0.14-0.6-0.29-1.19-0.44-1.77c-0.31-1.16-0.66-2.35-1.44-3.28c-1.51-1.79-4.16-2.08-6.06-3.45
			c-0.34-0.24-0.66-0.53-0.84-0.91c-0.19-0.44-0.15-0.95-0.1-1.42c0.35-3.09,1.7-8.26-1.52-10.29c-1.51-0.96-3.94-1.28-5.53-0.27
			c-1.52,0.96-2.36,3.18-2.63,4.87c-0.28,1.75-0.11,3.55,0.19,5.3c0.09,0.54,0.19,1.1,0.04,1.62c-0.17,0.61-0.66,1.06-1.19,1.4
			c-1.84,1.18-4.37,1.31-5.76,3.01c-0.89,1.09-1.08,2.57-1.23,3.96c-0.05,0.41-0.09,0.82-0.14,1.24c-0.14-0.6-0.29-1.19-0.45-1.77
			c-0.3-1.16-0.66-2.35-1.43-3.28c-1.51-1.79-4.16-2.08-6.07-3.45c-0.34-0.24-0.66-0.53-0.83-0.91c-0.19-0.44-0.16-0.95-0.1-1.42
			c0.35-3.09,1.7-8.26-1.53-10.29c-1.51-0.96-3.94-1.28-5.53-0.27c-1.53,0.96-2.36,3.18-2.63,4.87c-0.28,1.75-0.12,3.55,0.19,5.3
			c0.09,0.54,0.19,1.1,0.04,1.62c-0.17,0.61-0.66,1.06-1.19,1.4c-1.85,1.18-4.38,1.31-5.76,3.01c-0.89,1.09-1.07,2.57-1.23,3.96
			c-0.04,0.41-0.09,0.82-0.14,1.24c-0.14-0.6-0.28-1.19-0.44-1.77c-0.3-1.16-0.66-2.35-1.44-3.28c-1.51-1.79-4.16-2.08-6.06-3.45
			c-0.34-0.24-0.66-0.53-0.83-0.91c-0.19-0.44-0.16-0.95-0.11-1.42c0.35-3.09,1.7-8.26-1.52-10.29c-1.51-0.96-3.94-1.28-5.53-0.27
			c-1.52,0.96-2.35,3.18-2.63,4.87c-0.28,1.75-0.11,3.55,0.19,5.3c0.09,0.54,0.2,1.1,0.05,1.62c-0.18,0.61-0.67,1.06-1.2,1.4
			c-1.84,1.18-4.37,1.31-5.76,3.01c-0.89,1.09-1.08,2.57-1.23,3.96c-0.04,0.41-0.09,0.82-0.14,1.24c-0.14-0.6-0.29-1.19-0.44-1.77
			c-0.34-1.28-0.88-1.81-1.49-2.78c-0.59-0.95-0.54-2.24-1.28-3.09c-0.45-0.53-1.19-0.78-1.54-1.38c-0.5-0.87,0.05-2.01-0.27-2.96
			c-0.41-1.25-2.11-1.7-2.56-2.92c-0.51-1.38,0.76-3.05-0.01-4.31c-1.11-1.82-4.68-2.98-6.7-2.7c-2.29,0.32-4.22,2-4.34,4.39
			c-0.04,0.72,0.08,1.48-0.2,2.14c-0.29,0.66-0.93,1.09-1.46,1.58c-1.39,1.27-2.17,3.18-2.07,5.06c0.03,0.45,0.09,0.95-0.13,1.34
			c-0.43,0.79-1.68,1-2.32,1.66c-0.62,0.65-1.1,1.62-1.36,2.47c-0.27,0.88-0.45,1.82-0.58,2.78c-0.1-0.43-0.2-0.85-0.32-1.27
			c-0.3-1.16-0.66-2.35-1.43-3.28c-1.51-1.79-4.16-2.08-6.07-3.45c-0.34-0.24-0.66-0.53-0.83-0.91c-0.19-0.44-0.16-0.95-0.1-1.42
			c0.35-3.09,1.7-8.26-1.53-10.29c-1.51-0.96-3.94-1.28-5.53-0.27c-1.53,0.96-2.36,3.18-2.63,4.87c-0.28,1.75-0.11,3.55,0.2,5.3
			c0.09,0.54,0.19,1.1,0.04,1.62c-0.17,0.61-0.66,1.06-1.2,1.4c-1.84,1.18-4.37,1.31-5.76,3.01c-0.89,1.09-1.07,2.57-1.23,3.96
			c-0.12,1.13-0.25,2.26-0.38,3.39c-0.12-1.1-0.25-2.21-0.37-3.31c-0.15-1.4-0.34-2.88-1.23-3.96c-1.15-1.41-5.34-1.72-5.14-3.92
			c0.06-0.64,0.43-1.2,0.74-1.76c1.23-2.23,1.71-4.87,1.33-7.39c-0.19-1.26-0.66-2.6-1.73-3.3c-0.73-0.48-1.64-0.61-2.51-0.59
			c-1.49,0.02-3.02,0.45-4.09,1.49c-1.69,1.63-1.8,4.23-2.34,6.51c-0.25,1.01-0.59,2-1.04,2.94c-1.74,3.66-6.23,3.38-8.61,6.2
			c-0.77,0.92-1.13,2.11-1.44,3.27c-0.06,0.27-0.13,0.53-0.19,0.8c-0.07-0.3-0.14-0.58-0.22-0.87c-0.31-1.16-0.66-2.35-1.44-3.28
			c-1.51-1.79-4.16-2.08-6.07-3.45c-0.34-0.24-0.66-0.53-0.83-0.91c-0.19-0.44-0.16-0.95-0.1-1.42c0.35-3.09,1.7-8.26-1.52-10.29
			c-1.51-0.96-3.95-1.28-5.53-0.27c-1.53,0.96-2.36,3.18-2.63,4.87c-0.28,1.75-0.11,3.55,0.19,5.3c0.09,0.54,0.19,1.1,0.04,1.62
			c-0.17,0.61-0.66,1.06-1.19,1.4c-1.84,1.18-4.38,1.31-5.76,3.01c-0.54,0.67-0.82,1.49-1,2.34c-0.18-0.68-0.45-1.32-0.89-1.86
			c-0.68-0.83-1.78-1.11-2.73-1.51c-1.15-0.48-2.21-1.13-3.39-1.57c-0.34-0.13-0.69-0.25-0.97-0.47c-0.29-0.22-0.5-0.58-0.45-0.94
			c0.07-0.52,0.65-0.82,1.18-0.87c0.53-0.04,1.05,0.09,1.57,0.03c0.92-0.11,1.51-0.75,1.83-1.57c0.2-0.41,0.17-0.95,0.25-1.39
			c0.11-0.58,0.35-0.89,0.71-1.35c0.11-0.13,0.21-0.27,0.22-0.44c0-0.19-0.14-0.35-0.25-0.49c-0.64-0.79-0.44-1.35-0.64-2.28
			c-0.14-0.67-0.36-1.32-0.67-1.93c-0.91-1.8-2.99-2.35-4.85-2.51c-1.98-0.17-4.06,0.82-5.12,2.51c-0.28,0.45-0.52,0.96-0.97,1.24
			c-0.25,0.15-0.53,0.22-0.81,0.31c-1.57,0.5-2.9,1.75-3.4,3.31c-0.22,0.68-0.28,1.41-0.57,2.06c-0.46,1.05-1.44,1.77-2.34,2.49
			s-1.82,1.55-2.08,2.67c-0.1,0.46-0.09,0.95-0.27,1.38c-0.42,1-1.73,1.46-1.99,2.51c-0.05,0.2-0.05,0.39-0.03,0.57
			c-0.32-0.78-0.71-1.5-1.22-2.11c-1.51-1.79-4.16-2.08-6.06-3.45c-0.34-0.24-0.66-0.53-0.84-0.91c-0.19-0.44-0.15-0.95-0.1-1.42
			c0.35-3.09,1.7-8.26-1.52-10.29c-1.51-0.96-3.94-1.28-5.53-0.27c-1.52,0.96-2.36,3.18-2.63,4.87c-0.28,1.75-0.11,3.55,0.19,5.3
			c0.09,0.54,0.19,1.1,0.04,1.62c-0.17,0.61-0.66,1.06-1.19,1.4c-1.84,1.18-4.37,1.31-5.76,3.01c-0.89,1.09-1.08,2.57-1.23,3.96
			c-0.05,0.41-0.09,0.82-0.14,1.24c-0.14-0.6-0.29-1.19-0.45-1.77c-0.3-1.16-0.66-2.35-1.43-3.28c-1.51-1.79-4.16-2.08-6.07-3.45
			c-0.34-0.24-0.66-0.53-0.83-0.91c-0.19-0.44-0.16-0.95-0.1-1.42c0.35-3.09,1.7-8.26-1.53-10.29c-1.51-0.96-3.94-1.28-5.53-0.27
			c-1.53,0.96-2.36,3.18-2.63,4.87c-0.28,1.75-0.12,3.55,0.19,5.3c0.09,0.54,0.19,1.1,0.04,1.62c-0.17,0.61-0.66,1.06-1.19,1.4
			c-1.85,1.18-4.38,1.31-5.76,3.01c-0.89,1.09-1.07,2.57-1.23,3.96c-0.04,0.41-0.09,0.82-0.14,1.24c-0.14-0.6-0.28-1.19-0.44-1.77
			c-0.3-1.16-0.66-2.35-1.44-3.28c-1.51-1.79-4.16-2.08-6.06-3.45c-0.34-0.24-0.66-0.53-0.83-0.91c-0.19-0.44-0.16-0.95-0.11-1.42
			c0.35-3.09,1.7-8.26-1.52-10.29c-1.51-0.96-3.94-1.28-5.53-0.27c-1.52,0.96-2.35,3.18-2.63,4.87c-0.28,1.75-0.11,3.55,0.19,5.3
			c0.09,0.54,0.2,1.1,0.05,1.62c-0.18,0.61-0.67,1.06-1.2,1.4c-1.84,1.18-4.37,1.31-5.76,3.01c-0.89,1.09-1.08,2.57-1.23,3.96
			c-0.04,0.41-0.09,0.82-0.14,1.24c-0.14-0.6-0.29-1.19-0.44-1.77c-0.34-1.28-0.88-1.81-1.49-2.78c-0.59-0.95-0.54-2.24-1.28-3.09
			c-0.45-0.53-1.19-0.78-1.54-1.38c-0.5-0.87,0.05-2.01-0.27-2.96c-0.41-1.25-2.11-1.7-2.56-2.92c-0.51-1.38,0.76-3.05-0.01-4.31
			c-1.11-1.82-4.68-2.98-6.7-2.7c-2.29,0.32-4.22,2-4.34,4.39c-0.04,0.64,0.06,1.31-0.13,1.91v52.13h354.89c0.92,0,1.84,0.01,2.76,0
			c0.53,0,1.05,0.01,1.57-0.04c0.04-0.01,2.29-0.17,1.77,0.46c0.2-0.19,0.39-0.39,0.58-0.59c2.08,0.71,4.88,0.34,6.85,0.34h64.41
			V48.05C326.06,48.27,325.62,48.56,325.24,48.93z M-7.46,69.25c-0.11-0.59-0.25-1.16-0.42-1.72c0.22,0.44,0.45,0.87,0.47,1.37
			C-7.41,69.04-7.43,69.14-7.46,69.25z"/>
		<path class="st2" d="M326.55,79.12v29.26c-0.67-0.06-1.35-0.12-2.02-0.17c-3.35-0.24-6.68-0.4-9.99-0.43h-0.07
			c-4.7-0.04-9.36,0.17-13.98,0.74c-2.05,0.26-4.09,0.59-6.12,1c-2.29,0.47-4.56,1.05-6.84,1.59c-0.06,0.01-0.12,0.03-0.18,0.04
			c-2.66,0.62-5.71,1.7-8.45,1.42c-0.95-0.09-2.06-0.15-3.12-0.36v1.97c-1.19-0.02-2.38-0.06-3.56-0.11
			c-3.41-0.12-6.81-0.29-10.21-0.47c-0.99-0.06-1.97-0.11-2.96-0.17c-0.2-0.01-0.4-0.02-0.61-0.04c-0.28-0.01-0.57-0.04-0.85-0.05
			c-0.19-0.01-0.37-0.02-0.56-0.04c-0.34-0.02-0.68-0.04-1.02-0.06c-8.05-0.5-16.09-1.08-24.12-1.66c-0.84-0.06-1.69-0.12-2.52-0.18
			c-8.14-0.57-16.29-1.11-24.44-1.49c-0.22-0.01-0.43-0.02-0.65-0.04c-6.67-0.3-13.34-0.5-20.02-0.52c-1.98-0.01-3.95,0-5.93,0.03
			c-0.21,0-0.43,0-0.63,0.01c-8.65,0.11-17.31,0.48-25.96,0.94h-0.05c-0.32,0.01-0.63,0.04-0.94,0.05c-8.45,0.45-16.91,1-25.36,1.47
			c-0.42,0.02-0.84,0.05-1.26,0.07c-8.4,0.46-16.79,0.86-25.17,1.03c-0.54,0.01-1.06,0.02-1.59,0.03c-0.43,0.01-0.87,0.01-1.3,0.02
			c-7.96,0.12-15.9,0.01-23.83-0.42c-0.48-0.03-0.97-0.06-1.45-0.09c-2.46-0.14-4.93-0.33-7.39-0.55c-2.61-0.23-5.23-0.5-7.86-0.8
			c-3.48-0.39-6.96-0.82-10.45-1.23c-0.22-0.02-0.43-0.05-0.65-0.08c-3.62-0.43-7.25-0.84-10.86-1.19c-1.85-0.17-3.7-0.33-5.55-0.47
			c-3.35-0.24-6.68-0.4-9.99-0.43h-0.07c-4.7-0.04-9.36,0.17-13.98,0.74c-2.05,0.26-4.09,0.59-6.12,1
			c-2.29,0.47-4.56,1.05-6.84,1.59c-0.06,0.01-0.12,0.03-0.18,0.04c-2.73,0.61-5.53,1.43-8.33,1.61c-1.69,0.11-2.63-0.75-3.45-1.92
			c-1.29-0.13-2.56-0.37-3.15-0.4c-3.17-0.19-6.35-0.36-9.52-0.5c-0.22-0.01-0.43-0.02-0.65-0.04c-6.67-0.3-13.34-0.5-20.02-0.52
			c-1.98-0.01-3.95,0-5.93,0.03c-0.21,0-0.43,0-0.63,0.01c-8.65,0.11-17.31,0.48-25.96,0.94h-0.05c-0.32,0.01-0.63,0.04-0.93,0.05
			c-6.17,0.33-12.35,0.71-18.52,1.07V75.77c1.36,0.56,2.73,1.1,3.66,2.21c0.77,0.92,1.13,2.11,1.44,3.27
			c0.15,0.59,0.3,1.18,0.44,1.77c0.04-0.41,0.09-0.82,0.14-1.23c0.15-1.4,0.34-2.88,1.23-3.96c1.39-1.7,3.92-1.83,5.76-3.01
			c0.53-0.34,1.02-0.8,1.19-1.4c0.16-0.52,0.05-1.08-0.04-1.62c-0.3-1.75-0.48-3.55-0.19-5.3c0.27-1.7,1.1-3.91,2.63-4.87
			c1.59-1,4.02-0.69,5.53,0.27c3.22,2.03,1.88,7.21,1.52,10.3c-0.05,0.48-0.09,0.97,0.11,1.41c0.17,0.38,0.49,0.67,0.83,0.92
			c1.9,1.37,4.55,1.65,6.06,3.45c0.78,0.92,1.13,2.11,1.44,3.27c0.17,0.67,0.34,1.34,0.5,2.01c0.05-0.49,0.11-0.98,0.16-1.47
			c0.16-1.4,0.35-2.88,1.23-3.96c1.15-1.41,5.35-1.72,5.14-3.92c-0.06-0.64-0.43-1.2-0.74-1.76c-1.23-2.23-1.71-4.87-1.33-7.39
			c0.19-1.27,0.66-2.6,1.73-3.31c0.73-0.48,1.64-0.61,2.51-0.59c1.49,0.02,3.02,0.45,4.09,1.49c1.69,1.63,1.8,4.23,2.34,6.51
			c0.25,1.01,0.59,2,1.04,2.94c1.73,3.66,6.23,3.38,8.61,6.2c0.77,0.92,1.13,2.11,1.44,3.27c0.13,0.52,0.26,1.03,0.38,1.55
			c0.04-0.34,0.07-0.67,0.12-1.01c0.15-1.4,0.34-2.88,1.23-3.96c1.39-1.7,3.92-1.83,5.76-3.01c0.53-0.34,1.02-0.8,1.19-1.4
			c0.15-0.52,0.05-1.08-0.04-1.62c-0.3-1.75-0.48-3.55-0.19-5.3c0.27-1.7,1.1-3.91,2.63-4.87c1.59-1,4.02-0.69,5.53,0.27
			c3.22,2.03,1.88,7.21,1.52,10.3c-0.05,0.48-0.09,0.97,0.1,1.41c0.17,0.38,0.49,0.67,0.83,0.92c1.9,1.37,4.56,1.65,6.07,3.45
			c0.17,0.19,0.31,0.41,0.45,0.63c0.82-1.39,1.72-2.73,2.65-4.11c1.59-2.36,0.3-5.57,2.02-7.75c0.62-0.79,1.67-1.17,2.25-1.98
			c0.89-1.24,0.53-3.22,1.77-4.11c0.71-0.5,1.69-0.42,2.5-0.11c1.4,0.54,2.49-0.02,3.95,0.19c0.87,0.13,1.73,0.58,2.14,1.36
			c0.55,1.04,0.17,2.42,0.82,3.4c0.69,1.02,2.31,1.25,2.76,2.4c0.44,1.13-0.55,2.53,0.09,3.58c0.44,0.74,1.51,0.92,1.93,1.67
			c0.4,0.71,0.05,1.61,0.29,2.38c0.17,0.56,0.66,0.95,0.87,1.49c0.21,0.55,0.04,0.99,0.15,1.51c0.23,1.13,0.96,2.22,1.26,3.38
			c0.32,1.24,0.62,2.49,0.88,3.74c0.08,0.01,0.16,0.01,0.24,0.01c0.14-1.28,0.28-2.56,0.43-3.84c0.15-1.4,0.34-2.88,1.23-3.96
			c1.39-1.7,3.92-1.83,5.76-3.01c0.53-0.34,1.02-0.8,1.19-1.4c0.16-0.52,0.05-1.08-0.04-1.62c-0.3-1.75-0.48-3.55-0.19-5.3
			c0.27-1.7,1.1-3.91,2.63-4.87c1.59-1,4.02-0.69,5.53,0.27c3.22,2.03,1.88,7.21,1.52,10.3c-0.05,0.48-0.09,0.97,0.11,1.41
			c0.17,0.38,0.49,0.67,0.83,0.92c1.9,1.37,4.55,1.65,6.06,3.45c0.78,0.92,1.13,2.11,1.44,3.27c0.15,0.59,0.3,1.18,0.44,1.77
			c0.05-0.41,0.09-0.82,0.14-1.23c0.16-1.4,0.35-2.88,1.23-3.96c1.39-1.7,3.92-1.83,5.76-3.01c0.53-0.34,1.02-0.8,1.19-1.4
			c0.15-0.52,0.04-1.08-0.04-1.62c-0.31-1.75-0.48-3.55-0.2-5.3c0.27-1.7,1.1-3.91,2.63-4.87c1.59-1,4.02-0.69,5.53,0.27
			c3.22,2.03,1.88,7.21,1.53,10.3c-0.06,0.48-0.09,0.97,0.1,1.41c0.17,0.38,0.49,0.67,0.83,0.92c1.9,1.37,4.56,1.65,6.07,3.45
			c0.77,0.92,1.13,2.11,1.43,3.27c0.16,0.59,0.3,1.18,0.45,1.77c0.04-0.41,0.09-0.82,0.14-1.23c0.15-1.4,0.34-2.88,1.23-3.96
			c1.39-1.7,3.92-1.83,5.76-3.01c0.53-0.34,1.02-0.8,1.19-1.4c0.15-0.52,0.05-1.08-0.04-1.62c-0.3-1.75-0.48-3.55-0.19-5.3
			c0.27-1.7,1.1-3.91,2.63-4.87c2.62-1.65,7.96-0.08,8.62,3.12c0.24,1.16,0,2.36,0.01,3.55c0.02,1.18,0.4,2.5,1.44,3.07
			c0.5,0.27,1.13,0.35,1.58,0.7c1.1,0.87,0.54,2.72,1.27,3.92c0.39,0.63,1.11,1.04,1.31,1.75c0.37,1.23,0.92,2.26,1.26,3.52
			c0.15,0.59,0.3,1.18,0.44,1.77c0.04-0.41,0.09-0.82,0.14-1.23c0.15-1.4,0.35-2.88,1.23-3.96c1.39-1.7,3.92-1.83,5.76-3.01
			c0.53-0.34,1.02-0.8,1.2-1.4c0.15-0.52,0.04-1.08-0.05-1.62c-0.3-1.75-0.48-3.55-0.19-5.3c0.27-1.7,1.1-3.91,2.63-4.87
			c1.59-1,4.02-0.69,5.53,0.27c3.22,2.03,1.88,7.21,1.52,10.3c-0.05,0.48-0.09,0.97,0.11,1.41c0.17,0.38,0.49,0.67,0.83,0.92
			c1.9,1.37,4.55,1.65,6.07,3.45c0.77,0.92,1.13,2.11,1.43,3.27c0.16,0.59,0.3,1.18,0.44,1.77c0.05-0.41,0.09-0.82,0.14-1.23
			c0.16-1.4,0.35-2.88,1.23-3.96c1.39-1.7,3.92-1.83,5.76-3.01c0.53-0.34,1.02-0.8,1.19-1.4c0.15-0.52,0.05-1.08-0.04-1.62
			c-0.31-1.75-0.48-3.55-0.19-5.3c0.27-1.7,1.1-3.91,2.63-4.87c1.59-1,4.02-0.69,5.53,0.27c3.22,2.03,1.87,7.21,1.52,10.3
			c-0.06,0.48-0.09,0.97,0.1,1.41c0.17,0.38,0.49,0.67,0.83,0.92c1.9,1.37,4.56,1.65,6.07,3.45c0.77,0.92,1.13,2.11,1.43,3.27
			c0.16,0.59,0.3,1.18,0.45,1.77c0.04-0.41,0.09-0.82,0.14-1.23c0.15-1.4,0.34-2.88,1.23-3.96c1.39-1.7,3.92-1.83,5.76-3.01
			c0.53-0.34,1.02-0.8,1.19-1.4c0.15-0.52,0.05-1.08-0.04-1.62c-0.3-1.75-0.48-3.55-0.19-5.3c0.27-1.7,1.1-3.91,2.63-4.87
			c1.59-1,4.02-0.69,5.53,0.27c3.22,2.03,1.88,7.21,1.52,10.3c-0.05,0.48-0.09,0.97,0.1,1.41c0.17,0.38,0.5,0.67,0.84,0.92
			c1.9,1.37,4.55,1.65,6.06,3.45c0.78,0.92,1.13,2.11,1.44,3.27c0.17,0.67,0.34,1.34,0.5,2.01c0.05-0.49,0.11-0.98,0.16-1.47
			c0.16-1.4,0.35-2.88,1.23-3.96c1.15-1.41,5.35-1.72,5.14-3.92c-0.06-0.64-0.43-1.2-0.74-1.76c-1.23-2.23-1.71-4.87-1.33-7.39
			c0.19-1.27,0.66-2.6,1.73-3.31c0.73-0.48,1.64-0.61,2.51-0.59c1.49,0.02,3.02,0.45,4.09,1.49c1.69,1.63,1.8,4.23,2.34,6.51
			c0.24,1.01,0.59,2,1.03,2.94c1.74,3.66,6.24,3.38,8.61,6.2c0.77,0.92,1.13,2.11,1.43,3.27c0.14,0.52,0.27,1.03,0.39,1.55
			c0.04-0.34,0.07-0.67,0.11-1.01c0.16-1.4,0.35-2.88,1.23-3.96c1.39-1.7,3.92-1.83,5.76-3.01c0.53-0.34,1.02-0.8,1.19-1.4
			c0.15-0.52,0.05-1.08-0.04-1.62c-0.3-1.75-0.48-3.55-0.19-5.3c0.27-1.7,1.1-3.91,2.63-4.87c1.59-1,4.02-0.69,5.53,0.27
			c3.22,2.03,1.87,7.21,1.52,10.3c-0.06,0.48-0.09,0.97,0.1,1.41c0.17,0.38,0.49,0.67,0.83,0.92c1.9,1.37,4.56,1.65,6.07,3.45
			c0.77,0.92,1.13,2.11,1.44,3.27c0.22,0.88,0.43,1.76,0.63,2.65c0.3,0,0.59,0.01,0.88,0.01c0.25-1.33,0.42-2.68,0.32-4.04
			c-0.19-2.71-1.97-4.69-4.23-6.02c-0.63-0.38-1.3-0.71-1.85-1.2c-0.94-0.83-0.89-1.93-1.37-2.99c-0.54-1.21-1.02-2.45-1.44-3.71
			c-0.82-2.46-1.39-5.01-1.71-7.57c-0.06-0.5-0.06-1.02-0.04-1.52c0-0.09,0.01-0.2,0.07-0.28c0.05-0.07,0.13-0.12,0.21-0.16
			c0.32-0.17,0.65-0.35,0.99-0.48c-0.04-0.19-0.09-0.38-0.13-0.57c-0.15-0.7-0.3-1.45-0.79-1.98c-1.36-1.44-2.41-3.15-3.65-4.78
			c-0.22-0.3-0.6-0.84-0.17-0.99c0.07-0.02,0.16-0.04,0.27-0.04c0.45-0.01,0.95,0.63,1.23,0.92c0.44,0.45,0.88,0.89,1.32,1.34
			c-0.39-0.59-0.79-1.18-1.18-1.77c-0.35-0.53-1.01-1.12-1.08-1.79c-0.12-1.12,1.2-0.1,1.46,0.29c0.48,0.71,0.95,1.41,1.42,2.13
			c-0.74-1.28-1.6-2.62-2.04-4.03c-0.07-0.24,0.38-0.44,0.56-0.42c0.52,0.05,0.76,0.53,1.02,0.93c0.29,0.45,0.55,0.92,0.82,1.39
			c0.24,0.4,0.48,0.79,0.76,1.17c-0.39-0.98-0.86-1.93-1.41-2.84c-0.1-0.17,0.28-0.37,0.38-0.39c0.4-0.11,0.68,0.04,0.9,0.38
			c0.28,0.42,0.53,0.87,0.76,1.31c0.38,0.69,0.72,1.38,1.03,2.09c0.13,0,0.25,0.04,0.35,0.13c0.02,0.01,0.04,0.03,0.05,0.05
			c0.09-0.29,0.14-0.58,0.22-0.87c0.09-0.36,0.22-0.71,0.51-0.97c0.27-0.24,0.76-0.47,1.12-0.29c0.37,0.19,0.24,0.67,0.15,0.98
			c-0.13,0.44-0.25,0.89-0.34,1.33c-0.19,0.87-0.16,1.81-0.38,2.65c-0.24,0.92,0.22,1.86,0.46,2.78c0.08,0.32,0.17,0.65,0.25,0.97
			c0.11-0.02,0.22-0.04,0.33-0.03c1.07,0.05,1.57,3.33,1.85,4.19l1.77,5.39c0.77,2.35,2.6,4.28,4.18,6.11
			c0.76,0.88,4.1,3.65,4.78,1.33c0.51-1.76-0.28-3.76,0.01-5.56c0.27-1.69,1.1-3.9,2.63-4.86c1.59-1,4.02-0.69,5.53,0.27
			c3.22,2.03,1.88,7.21,1.52,10.3c-0.05,0.48-0.09,0.97,0.1,1.41c0.17,0.38,0.49,0.67,0.83,0.92c1.9,1.36,4.56,1.65,6.07,3.45
			c0.77,0.92,1.13,2.11,1.44,3.27c0.27,1.05,0.52,2.11,0.75,3.17h0.09c0.1-0.87,0.19-1.75,0.3-2.63c0.15-1.4,0.34-2.88,1.23-3.96
			c1.39-1.7,3.92-1.83,5.76-3.01c0.53-0.34,1.02-0.8,1.19-1.4c0.15-0.52,0.05-1.08-0.04-1.62c-0.3-1.75-0.48-3.55-0.19-5.3
			c0.27-1.7,1.1-3.91,2.63-4.87c1.59-1,4.02-0.69,5.53,0.27c3.22,2.03,1.88,7.21,1.52,10.3c-0.05,0.48-0.09,0.97,0.1,1.41
			c0.17,0.38,0.5,0.67,0.83,0.92c1.9,1.37,4.56,1.65,6.07,3.45c0.77,0.92,1.13,2.11,1.44,3.27c0.39,1.49,0.73,2.99,1.02,4.49
			c0.17-1.31,0.31-2.63,0.46-3.95c0.05-0.51,0.12-1.04,0.22-1.55c0.04-0.24,0.1-0.48,0.17-0.71c0.18-0.62,0.44-1.2,0.85-1.7
			c0.18-0.22,0.38-0.42,0.61-0.59c0.91-1.44,2.02-2.76,2.61-4.36c0.71-1.9-0.17-4.49,1.13-6.14c0.62-0.79,1.67-1.17,2.25-1.98
			c0.89-1.24,0.53-3.22,1.77-4.11c0.71-0.5,1.69-0.42,2.5-0.11c1.4,0.54,2.49-0.02,3.95,0.19c0.87,0.13,1.73,0.58,2.14,1.36
			c0.55,1.04,0.17,2.42,0.82,3.4c0.69,1.02,2.31,1.25,2.76,2.4c0.44,1.13-0.55,2.53,0.09,3.58c0.44,0.74,1.51,0.92,1.93,1.67
			c0.4,0.71,0.05,1.61,0.29,2.38c0.17,0.56,0.66,0.95,0.87,1.49c0.21,0.55,0.04,0.99,0.15,1.51c0.23,1.13,0.96,2.22,1.26,3.38
			c0.32,1.24,0.62,2.49,0.88,3.74c0.08,0.01,0.16,0.01,0.24,0.01c0.14-1.28,0.28-2.56,0.43-3.84c0.15-1.4,0.34-2.88,1.23-3.96
			c1.39-1.7,3.92-1.83,5.76-3.01c0.53-0.34,1.02-0.8,1.19-1.4c0.16-0.52,0.05-1.08-0.04-1.62c-0.3-1.75-0.48-3.55-0.19-5.3
			c0.27-1.7,1.1-3.91,2.63-4.87c1.59-1,4.02-0.69,5.53,0.27c3.22,2.03,1.88,7.21,1.52,10.3c-0.05,0.48-0.09,0.97,0.11,1.41
			c0.17,0.38,0.49,0.67,0.83,0.92c1.9,1.37,4.55,1.65,6.06,3.45C326.12,78.32,326.35,78.71,326.55,79.12z"/>
		<path class="st3" d="M326.55,143.57h-50.78c0.01,0.06,0.01,0.14,0.01,0.2c0,0-281.74,0-290.55,0c-4.34,1.02-10.17,0-13.73,0
			h-77.78V89.54c0.43-1.18,1.13-2.32,2.11-2.94c1.59-1,4.02-0.69,5.53,0.27c3.22,2.03,1.88,7.21,1.52,10.29
			c-0.05,0.48-0.09,0.98,0.1,1.42c0.17,0.38,0.49,0.67,0.83,0.92c1.9,1.36,4.56,1.65,6.07,3.45c0.77,0.92,1.13,2.11,1.44,3.27
			c0.15,0.59,0.3,1.18,0.44,1.77c0.04-0.41,0.09-0.82,0.14-1.23c0.15-1.4,0.35-2.88,1.23-3.97c1.39-1.69,3.92-1.82,5.76-3
			c0.53-0.34,1.02-0.8,1.2-1.4c0.15-0.53,0.04-1.08-0.05-1.62c-0.3-1.75-0.48-3.55-0.19-5.31c0.27-1.69,1.1-3.9,2.63-4.86
			c1.59-1,4.02-0.69,5.53,0.27c3.22,2.03,1.88,7.21,1.52,10.29c-0.05,0.48-0.09,0.98,0.11,1.42c0.17,0.38,0.49,0.67,0.83,0.92
			c1.9,1.36,4.55,1.65,6.06,3.45c0.78,0.92,1.13,2.11,1.44,3.27c0.11,0.41,0.21,0.83,0.31,1.24c0.06-0.59,0.13-1.18,0.19-1.78
			c0.16-1.39,0.35-2.87,1.23-3.96c1.15-1.41,5.35-1.71,5.14-3.92c-0.06-0.63-0.43-1.2-0.74-1.75c-1.23-2.24-1.71-4.87-1.33-7.39
			c0.19-1.27,0.66-2.6,1.73-3.31c0.73-0.48,1.64-0.61,2.51-0.58c1.49,0.02,3.02,0.45,4.09,1.48c1.69,1.63,1.8,4.23,2.34,6.51
			c0.24,1.01,0.59,2,1.03,2.94c1.74,3.66,6.24,3.37,8.61,6.19c0.77,0.92,1.13,2.11,1.43,3.28c0.21,0.78,0.4,1.56,0.58,2.34
			c0.02-0.25,0.05-0.49,0.08-0.73c0.15-1.4,0.34-2.88,1.23-3.97c1.39-1.69,3.92-1.82,5.76-3c0.53-0.34,1.02-0.8,1.19-1.4
			c0.15-0.53,0.05-1.08-0.04-1.62c-0.3-1.75-0.48-3.55-0.19-5.31c0.27-1.69,1.1-3.9,2.63-4.86c1.59-1,4.02-0.69,5.53,0.27
			c3.22,2.03,1.88,7.21,1.52,10.29c-0.05,0.48-0.09,0.98,0.1,1.42c0.17,0.38,0.5,0.67,0.84,0.92c1.9,1.36,4.55,1.65,6.06,3.45
			c0.87,1.04,1.38,2.47,1.66,4.08c0.01,0.05,0.01,0.11,0.02,0.16c0.02-0.14,0.04-0.28,0.05-0.43c0.16-1.4,0.35-2.88,1.23-3.97
			c1.39-1.69,3.92-1.82,5.76-3c0.53-0.34,1.02-0.8,1.2-1.4c0.15-0.53,0.04-1.08-0.05-1.62c-0.3-1.75-0.48-3.55-0.19-5.31
			c0.27-1.69,1.1-3.9,2.63-4.86c1.59-1,4.01-0.69,5.53,0.27c3.22,2.03,1.88,7.21,1.53,10.29c-0.06,0.48-0.09,0.98,0.1,1.42
			c0.17,0.38,0.49,0.67,0.83,0.92c1.9,1.36,4.56,1.65,6.07,3.45c0.77,0.92,1.13,2.11,1.43,3.27c0.16,0.59,0.3,1.18,0.45,1.77
			l0.13-1.23c0.16-1.4,0.35-2.88,1.23-3.97c1.39-1.69,3.92-1.82,5.76-3c0.53-0.34,1.02-0.8,1.19-1.4c0.15-0.53,0.05-1.08-0.04-1.62
			c-0.3-1.75-0.48-3.55-0.19-5.31c0.18-1.15,0.58-2.17,1.1-3.2c0.4-0.79,0.64-1.98,1.15-2.65c0.37-0.48,0.9-0.82,1.45-1.1
			c0.23-0.12,0.49-0.22,0.75-0.21c0.27,0.02,0.53,0.22,0.56,0.48c0.53-0.23,0.79-0.84,1.27-1.15c0.47-0.3,1.13-0.28,1.58,0.06
			c0.45,0.34,0.65,0.97,0.48,1.51c0.56,0.07,1.11,0.14,1.67,0.22c0.16,0.02,0.33,0.05,0.44,0.17c0.09,0.11,0.1,0.26,0.09,0.4
			c-0.03,0.61-0.28,1.19-0.7,1.62c0.65,0.03,1.33,0.27,1.71,0.8c0.38,0.52,0.38,1.34-0.1,1.77c-0.36,0.31-0.95,0.45-1.03,0.92
			c-0.04,0.2,0.05,0.4,0.11,0.61c0.47,1.51-0.66,3.88-0.84,5.47c-0.06,0.48-0.09,0.98,0.1,1.42c0.17,0.38,0.49,0.67,0.83,0.92
			c1.9,1.36,4.56,1.65,6.07,3.45c0.77,0.92,1.13,2.11,1.44,3.27c0.15,0.59,0.3,1.18,0.44,1.77c0.04-0.41,0.09-0.82,0.14-1.23
			c0.15-1.4,0.34-2.88,1.23-3.97c0.93-1.13,2.36-1.41,3.31-2.52c0.89-1.03,1.49-2.38,1.76-3.71c0.71-3.43,2.59-7.27,6.68-7.65
			c1.56-0.14,3.22,0.53,4.03,1.85c0.71,1.17,0.69,2.63,1.13,3.93c0.74,2.21,2.66,3.69,4.27,5.26c1.85,1.82,2.98,3.74,3.64,6.25
			c0.15,0.59,0.3,1.18,0.44,1.77c0.05-0.41,0.09-0.82,0.14-1.23c0.16-1.4,0.35-2.88,1.23-3.97c1.39-1.69,3.92-1.82,5.76-3
			c0.53-0.34,1.02-0.8,1.2-1.4c0.15-0.53,0.04-1.08-0.04-1.62c-0.31-1.75-0.48-3.55-0.2-5.31c0.27-1.69,1.1-3.9,2.63-4.86
			c1.59-1,4.02-0.69,5.53,0.27c3.22,2.03,1.88,7.21,1.53,10.29c-0.06,0.48-0.09,0.98,0.1,1.42c0.17,0.38,0.49,0.67,0.83,0.92
			c1.9,1.36,4.56,1.65,6.07,3.45c0.77,0.92,1.13,2.11,1.43,3.27c0.16,0.59,0.3,1.18,0.45,1.77c0.04-0.41,0.09-0.82,0.14-1.23
			c0.15-1.4,0.34-2.88,1.23-3.97c1.39-1.69,3.92-1.82,5.76-3c0.53-0.34,1.02-0.8,1.19-1.4c0.15-0.53,0.05-1.08-0.04-1.62
			c-0.3-1.75-0.48-3.55-0.19-5.31c0.27-1.69,1.1-3.9,2.63-4.86c1.59-1,4.02-0.69,5.53,0.27c3.22,2.03,1.88,7.21,1.52,10.29
			c-0.05,0.48-0.09,0.98,0.1,1.42c0.17,0.38,0.49,0.67,0.83,0.92c1.9,1.36,4.56,1.65,6.07,3.45c0.77,0.92,1.13,2.11,1.44,3.27
			c0.15,0.59,0.3,1.18,0.44,1.77c0.04-0.41,0.09-0.82,0.14-1.23c0.15-1.4,0.35-2.88,1.23-3.97c1.39-1.69,3.92-1.82,5.76-3
			c0.53-0.34,1.02-0.8,1.2-1.4c0.15-0.53,0.04-1.08-0.05-1.62c-0.3-1.75-0.48-3.55-0.19-5.31c0.27-1.69,1.1-3.9,2.63-4.86
			c1.59-1,4.02-0.69,5.53,0.27c3.22,2.03,1.88,7.21,1.52,10.29c-0.05,0.48-0.09,0.98,0.11,1.42c0.17,0.38,0.49,0.67,0.83,0.92
			c1.9,1.36,4.55,1.65,6.06,3.45c0.78,0.92,1.13,2.11,1.44,3.27c0.11,0.41,0.21,0.83,0.31,1.24c0.06-0.59,0.13-1.18,0.19-1.78
			c0.16-1.39,0.35-2.87,1.23-3.96c1.15-1.41,5.35-1.71,5.14-3.92c-0.06-0.63-0.43-1.2-0.74-1.75c-1.23-2.24-1.71-4.87-1.33-7.39
			c0.19-1.27,0.66-2.6,1.73-3.31c0.73-0.48,1.64-0.61,2.51-0.58c1.49,0.02,3.02,0.45,4.09,1.48c1.69,1.63,1.8,4.23,2.34,6.51
			c0.24,1.01,0.59,2,1.03,2.94c1.74,3.66,6.24,3.37,8.61,6.19c0.77,0.92,1.13,2.11,1.43,3.28c0.21,0.78,0.4,1.56,0.58,2.34
			c0.02-0.25,0.05-0.49,0.08-0.73c0.15-1.4,0.34-2.88,1.23-3.97c1.39-1.69,3.92-1.82,5.76-3c0.53-0.34,1.02-0.8,1.19-1.4
			c0.15-0.53,0.05-1.08-0.04-1.62c-0.3-1.75-0.48-3.55-0.19-5.31c0.27-1.69,1.1-3.9,2.63-4.86c1.59-1,4.02-0.69,5.53,0.27
			c3.22,2.03,1.88,7.21,1.52,10.29c-0.05,0.48-0.09,0.98,0.1,1.42c0.17,0.38,0.5,0.67,0.84,0.92c1.9,1.36,4.55,1.65,6.06,3.45
			c0.77,0.92,1.13,2.11,1.44,3.27c0.15,0.59,0.3,1.18,0.44,1.77c0.04-0.41,0.09-0.82,0.14-1.23c0.16-1.4,0.35-2.88,1.23-3.97
			c1.39-1.69,3.92-1.82,5.76-3c0.53-0.34,1.02-0.8,1.2-1.4c0.15-0.53,0.04-1.08-0.05-1.62c-0.3-1.75-0.48-3.55-0.19-5.31
			c0.27-1.69,1.1-3.9,2.63-4.86c1.59-1,4.02-0.69,5.53,0.27c3.22,2.03,1.88,7.21,1.53,10.29c-0.06,0.48-0.09,0.98,0.1,1.42
			c0.17,0.38,0.49,0.67,0.83,0.92c1.9,1.36,4.56,1.65,6.07,3.45c0.54,0.65,0.87,1.44,1.13,2.25c0.15-0.33,0.34-0.65,0.57-0.94
			c1.39-1.7,3.92-1.83,5.76-3.01c0.53-0.34,1.02-0.79,1.2-1.4c0.15-0.52,0.04-1.07-0.04-1.62c-0.31-1.75-0.48-3.55-0.2-5.3
			c0.27-1.69,1.1-3.91,2.63-4.87c2.62-1.64,7.95-0.08,8.61,3.12c0.25,1.15,0.01,2.36,0.02,3.54c0.01,1.18,0.39,2.5,1.44,3.07
			c0.5,0.28,1.12,0.35,1.57,0.71c1.1,0.87,0.54,2.72,1.28,3.92c0.38,0.62,1.11,1.04,1.31,1.74c0.36,1.24,0.92,2.26,1.25,3.53
			c0.21,0.8,0.4,1.6,0.59,2.41c0.12-1.13,0.25-2.24,0.37-3.34c0.03-0.29,0.06-0.58,0.1-0.87c0.16-1.12,0.43-2.24,1.13-3.1
			c0.93-1.13,2.36-1.41,3.31-2.52c0.89-1.04,1.49-2.38,1.76-3.71c0.17-0.83,0.41-1.68,0.74-2.5c1.01-2.58,2.84-4.86,5.94-5.14
			c0.95-0.09,1.94,0.12,2.75,0.61c0.48,0.28,0.89,0.66,1.2,1.13c0.03,0.04,0.06,0.08,0.08,0.12c0.36,0.6,0.53,1.26,0.67,1.95
			c0.14,0.66,0.24,1.34,0.45,1.98c1.06,3.16,3.51,5.19,5.97,7.24c1.44-1.1,3.5-1.35,5.06-2.35c0.53-0.34,1.02-0.8,1.2-1.4
			c0.15-0.52,0.04-1.08-0.04-1.62c-0.31-1.75-0.48-3.55-0.2-5.3c0.27-1.7,1.1-3.91,2.63-4.87c1.59-1,4.01-0.69,5.53,0.27
			c3.22,2.03,1.88,7.21,1.53,10.29c-0.06,0.48-0.09,0.98,0.1,1.42c0.17,0.38,0.49,0.67,0.83,0.92c1.9,1.36,4.56,1.65,6.07,3.45
			c0.77,0.92,1.13,2.11,1.43,3.27c0.16,0.59,0.3,1.18,0.45,1.77c0.04-0.41,0.09-0.82,0.14-1.23c0.15-1.4,0.34-2.88,1.23-3.96
			c1.39-1.7,3.92-1.83,5.76-3.01c0.53-0.34,1.02-0.8,1.19-1.4c0.15-0.52,0.05-1.08-0.04-1.62c-0.3-1.75-0.48-3.55-0.19-5.3
			c0.18-1.15,0.58-2.18,1.1-3.21c0.4-0.79,0.64-1.98,1.15-2.65c0.37-0.49,0.9-0.83,1.45-1.1c0.24-0.12,0.49-0.22,0.75-0.2
			c0.27,0.01,0.53,0.21,0.56,0.47c0.53-0.23,0.79-0.84,1.27-1.15c0.47-0.3,1.13-0.28,1.58,0.06c0.45,0.34,0.65,0.97,0.48,1.51
			c0.56,0.07,1.11,0.14,1.67,0.22c0.16,0.02,0.33,0.05,0.44,0.17c0.09,0.11,0.1,0.27,0.09,0.41c-0.02,0.6-0.28,1.18-0.69,1.62
			c0.65,0.03,1.32,0.27,1.7,0.8c0.38,0.52,0.38,1.34-0.1,1.77c-0.36,0.31-0.95,0.45-1.03,0.92c-0.04,0.2,0.05,0.41,0.11,0.61
			c0.47,1.51-0.66,3.88-0.84,5.47c-0.05,0.48-0.09,0.98,0.1,1.42c0.17,0.38,0.49,0.67,0.83,0.92c0.74,0.53,1.59,0.89,2.45,1.25
			V143.57z"/>
		<path class="st2" d="M326.55,129.42v34.79c-3.55,0.17-7.09,0.32-10.63,0.45c-0.72,0.03-1.44,0.05-2.16,0.07
			c-0.43,0.01-0.85,0.03-1.28,0.04c-0.69,0.02-1.39,0.04-2.08,0.06c-6.57,0.18-13.14,0.26-19.7,0.17c-0.58-0.01-1.17-0.02-1.75-0.03
			c-0.54-0.01-1.07-0.02-1.6-0.04c-0.5-0.01-1.01-0.02-1.51-0.04c-0.69-0.02-1.38-0.04-2.07-0.06c-3.49-0.12-6.98-0.3-10.47-0.54
			c-1.01,1.53-2.58,1.7-4.93,1.73c-1.15,0.02-2.29,0.02-3.43,0.01c-1.03-0.01-2.06-0.04-3.08-0.06c-0.63-0.02-1.26-0.04-1.88-0.06
			c-0.03-0.01-0.06-0.01-0.09-0.01c-1.05-0.04-2.11-0.07-3.16-0.12c-7.38-0.29-14.74-0.7-22.11-1.15c-0.52-0.03-1.04-0.06-1.56-0.09
			c-0.77-0.05-1.54-0.09-2.31-0.14c-1.48-0.09-2.95-0.19-4.42-0.28c-6.76-0.43-13.52-0.87-20.28-1.25
			c-0.21-0.01-0.41-0.02-0.62-0.03c-8.74-0.48-17.5-0.86-26.27-0.98h-0.24c-1.54-0.02-3.08-0.04-4.62-0.04
			c-7.23-0.01-14.45,0.15-21.68,0.43c-0.13,0-0.26,0.01-0.38,0.01c-8.66,0.32-17.31,0.79-25.95,1.25c-0.28,0.02-0.57,0.04-0.86,0.05
			c-7.78,0.41-15.57,0.82-23.34,1.1c-0.72,0.03-1.44,0.05-2.16,0.07c-0.43,0.01-0.85,0.03-1.28,0.04c-0.7,0.02-1.39,0.04-2.09,0.06
			c-6.57,0.18-13.14,0.26-19.7,0.17c-0.58-0.01-1.17-0.02-1.75-0.03c-0.53-0.01-1.07-0.02-1.6-0.04c-0.5-0.01-1-0.02-1.51-0.04
			c-0.69-0.02-1.39-0.04-2.07-0.06c-4.45-0.15-8.89-0.4-13.33-0.75c-3.42-0.27-6.85-0.61-10.3-0.97c-0.1-0.01-0.21-0.02-0.31-0.04
			c-8.76-0.92-17.56-1.96-26.28-2.42c-0.14-0.01-0.29-0.01-0.44-0.02c-5.84-0.3-11.66-0.31-17.41,0.15
			c-2.6,4.39-9.04,2.66-14.05,2.18c-0.75,0.16-1.5,0.32-2.25,0.48c-1.54,0.33-3.09,0.64-4.65,0.9c-0.06,0.01-0.13,0.02-0.19,0.03
			v-1.82c-6.97-0.34-13.94-0.6-20.91-0.7h-0.24c-1.54-0.02-3.08-0.04-4.62-0.04c-7.23-0.01-14.45,0.15-21.68,0.43
			c-0.13,0-0.26,0.01-0.38,0.01c-8.66,0.32-17.31,0.79-25.95,1.25c-0.28,0.02-0.57,0.04-0.86,0.05c-4.11,0.22-8.22,0.43-12.32,0.63
			v-35.14c1.44-1.16,3.56-1.4,5.17-2.43c0.53-0.34,1.02-0.79,1.19-1.4c0.15-0.52,0.05-1.07-0.04-1.62c-0.31-1.75-0.48-3.55-0.2-5.3
			c0.27-1.69,1.1-3.9,2.63-4.87c1.59-1,4.02-0.69,5.53,0.27c3.22,2.03,1.88,7.21,1.53,10.29c-0.06,0.48-0.09,0.98,0.1,1.42
			c0.17,0.38,0.49,0.67,0.83,0.91c1.9,1.37,4.56,1.66,6.07,3.45c0.77,0.92,1.13,2.11,1.43,3.28c0.16,0.59,0.3,1.18,0.45,1.77
			c0.04-0.41,0.09-0.83,0.14-1.24c0.15-1.39,0.34-2.87,1.23-3.96c1.39-1.69,3.92-1.83,5.76-3.01c0.53-0.34,1.02-0.79,1.19-1.4
			c0.15-0.52,0.05-1.07-0.04-1.62c-0.3-1.75-0.48-3.55-0.19-5.3c0.27-1.69,1.1-3.9,2.63-4.87c1.59-1,4.02-0.69,5.53,0.27
			c3.22,2.03,1.88,7.21,1.52,10.29c-0.05,0.48-0.09,0.98,0.1,1.42c0.17,0.38,0.5,0.67,0.84,0.91c1.9,1.37,4.55,1.66,6.06,3.45
			c0.77,0.92,1.13,2.11,1.44,3.28c0.15,0.59,0.3,1.18,0.44,1.77c0.04-0.41,0.09-0.83,0.14-1.24c0.15-1.39,0.35-2.87,1.23-3.96
			c1.39-1.69,3.92-1.83,5.76-3.01c0.53-0.34,1.02-0.79,1.2-1.4c0.15-0.52,0.04-1.07-0.05-1.62c-0.3-1.75-0.48-3.55-0.19-5.3
			c0.27-1.69,1.1-3.9,2.63-4.87c1.59-1,4.02-0.69,5.53,0.27c3.22,2.03,1.88,7.21,1.53,10.29c-0.06,0.48-0.09,0.98,0.1,1.42
			c0.17,0.38,0.49,0.67,0.83,0.91c1.9,1.37,4.56,1.66,6.07,3.45c0.77,0.92,1.13,2.11,1.43,3.28c0.16,0.59,0.3,1.18,0.44,1.77
			c0.05-0.41,0.09-0.83,0.14-1.24c0.12-1.1,0.24-2.32,0.8-3.3c0.46-0.8,1.48-1.12,1.93-2.06c0.38-0.79,0.14-1.58,0.39-2.39
			c0.2-0.66,0.73-1.17,1.05-1.78c0.96-1.89-0.18-4.49,1.13-6.15c0.62-0.79,1.67-1.16,2.26-1.98c0.88-1.23,0.53-3.22,1.76-4.11
			c0.71-0.5,1.7-0.42,2.51-0.11c1.4,0.54,2.48-0.01,3.94,0.2c0.87,0.13,1.73,0.58,2.14,1.36c0.54,1.05,0.16,2.42,0.82,3.4
			c0.69,1.02,2.3,1.25,2.75,2.4c0.44,1.13-0.54,2.53,0.09,3.57c0.44,0.74,1.51,0.92,1.93,1.67c0.4,0.7,0.06,1.61,0.29,2.38
			c0.17,0.56,0.67,0.94,0.87,1.48c0.2,0.55,0.04,0.99,0.15,1.51c0.7,3.44,2.16,6.55,4.16,9.37c0.2-0.89,0.41-1.79,0.64-2.67
			c0.31-1.16,0.66-2.36,1.44-3.28c1.51-1.79,4.16-2.08,6.07-3.45c0.33-0.24,0.66-0.53,0.83-0.92c0.19-0.43,0.15-0.94,0.1-1.41
			c-0.35-3.09-1.7-8.26,1.52-10.3c1.51-0.95,3.94-1.27,5.53-0.27c0.9,0.57,1.56,1.57,2.01,2.65c0.3,0.74,0.51,1.53,0.62,2.22
			c0.48,2.96-1.75,6.43,1.88,7.87c0.97,0.38,2,0.59,2.91,1.1c1.57,0.87,2.56,2.51,3.14,4.21c0.6,1.78,1.8,5,2.14,7.7
			c0.03,0.01,0.06,0.01,0.09,0.01c0.27,0.02,0.55,0.04,0.82,0.06c-0.06-0.51-0.01-1.06,0.04-1.57c0.27-2.47,0.54-4.93,0.82-7.41
			c0.16-1.39,0.35-2.87,1.23-3.96c1.39-1.69,3.92-1.83,5.76-3.01c0.53-0.34,1.02-0.79,1.19-1.4c0.15-0.52,0.04-1.07-0.04-1.62
			c-0.31-1.75-0.48-3.55-0.2-5.3c0.27-1.69,1.1-3.9,2.63-4.87c1.59-1,4.02-0.69,5.53,0.27c3.22,2.03,1.88,7.21,1.53,10.29
			c-0.06,0.48-0.09,0.98,0.1,1.42c0.17,0.38,0.49,0.67,0.83,0.91c1.9,1.37,4.56,1.66,6.07,3.45c0.77,0.92,1.13,2.11,1.43,3.28
			c0.43,1.6,0.79,3.22,1.1,4.85c0.08-0.74,0.16-1.48,0.25-2.22c0.15-1.39,0.34-2.87,1.23-3.96c0.68-0.83,1.78-1.11,2.73-1.51
			c1.15-0.48,2.22-1.13,3.4-1.57c0.34-0.13,0.69-0.25,0.97-0.47c0.28-0.22,0.5-0.58,0.45-0.94c-0.07-0.52-0.65-0.82-1.18-0.87
			s-1.05,0.09-1.58,0.03c-0.91-0.11-1.5-0.75-1.83-1.57c-0.21-0.41-0.17-0.95-0.25-1.39c-0.11-0.58-0.35-0.89-0.72-1.35
			c-0.1-0.13-0.21-0.27-0.21-0.44c0-0.19,0.13-0.35,0.25-0.49c0.64-0.79,0.44-1.35,0.64-2.28c0.14-0.67,0.36-1.32,0.67-1.93
			c0.91-1.8,2.99-2.35,4.84-2.51c1.99-0.17,4.07,0.82,5.13,2.51c0.28,0.45,0.52,0.96,0.97,1.24c0.25,0.15,0.53,0.22,0.8,0.31
			c1.57,0.5,2.91,1.75,3.41,3.31c0.22,0.68,0.28,1.41,0.57,2.06c0.46,1.05,1.44,1.77,2.34,2.49c0.9,0.71,1.82,1.55,2.08,2.67
			c0.1,0.46,0.09,0.95,0.27,1.38c0.23,0.55,0.72,0.94,1.17,1.34c0.17-0.78,0.45-1.52,0.95-2.14c1.39-1.69,3.92-1.83,5.76-3.01
			c0.53-0.34,1.02-0.79,1.2-1.4c0.15-0.52,0.04-1.07-0.05-1.62c-0.3-1.75-0.48-3.55-0.19-5.3c0.27-1.69,1.1-3.9,2.63-4.87
			c1.59-1,4.02-0.69,5.53,0.27c3.22,2.03,1.88,7.21,1.52,10.29c-0.05,0.48-0.09,0.98,0.11,1.42c0.17,0.38,0.49,0.67,0.83,0.91
			c1.9,1.37,4.55,1.66,6.07,3.45c0.77,0.92,1.13,2.11,1.43,3.28c0.16,0.59,0.3,1.18,0.44,1.77c0.05-0.41,0.09-0.83,0.14-1.24
			c0.16-1.39,0.35-2.87,1.23-3.96c1.39-1.69,3.92-1.83,5.76-3.01c0.53-0.34,1.02-0.79,1.19-1.4c0.15-0.52,0.05-1.07-0.04-1.62
			c-0.31-1.75-0.48-3.55-0.19-5.3c0.27-1.69,1.1-3.9,2.63-4.87c1.59-1,4.02-0.69,5.53,0.27c3.22,2.03,1.87,7.21,1.52,10.29
			c-0.06,0.48-0.09,0.98,0.1,1.42c0.17,0.38,0.49,0.67,0.83,0.91c1.9,1.37,4.56,1.66,6.07,3.45c0.77,0.92,1.13,2.11,1.43,3.28
			c0.16,0.59,0.3,1.18,0.45,1.77c0.04-0.41,0.09-0.83,0.14-1.24c0.15-1.39,0.34-2.87,1.23-3.96c1.39-1.69,3.92-1.83,5.76-3.01
			c0.53-0.34,1.02-0.79,1.19-1.4c0.15-0.52,0.05-1.07-0.04-1.62c-0.3-1.75-0.48-3.55-0.19-5.3c0.27-1.69,1.1-3.9,2.63-4.87
			c1.59-1,4.02-0.69,5.53,0.27c3.22,2.03,1.88,7.21,1.52,10.29c-0.05,0.48-0.09,0.98,0.1,1.42c0.17,0.38,0.5,0.67,0.84,0.91
			c1.9,1.37,4.55,1.66,6.06,3.45c0.78,0.92,1.13,2.11,1.44,3.28c0.15,0.59,0.3,1.18,0.44,1.77c0.04-0.41,0.09-0.83,0.14-1.24
			c0.16-1.39,0.35-2.87,1.23-3.96c1.39-1.69,3.92-1.83,5.76-3.01c0.53-0.34,1.02-0.79,1.2-1.4c0.15-0.52,0.04-1.07-0.05-1.62
			c-0.3-1.75-0.48-3.55-0.19-5.3c0.27-1.69,1.1-3.9,2.63-4.87c1.59-1,4.01-0.69,5.53,0.27c3.22,2.03,1.88,7.21,1.53,10.29
			c-0.06,0.48-0.09,0.98,0.1,1.42c0.17,0.38,0.49,0.67,0.83,0.91c1.9,1.37,4.56,1.66,6.07,3.45c0.77,0.92,1.13,2.11,1.43,3.28
			c0.16,0.59,0.3,1.18,0.45,1.77c0.04-0.41,0.09-0.83,0.13-1.24c0.12-1.1,0.24-2.32,0.8-3.3c0.46-0.8,1.48-1.12,1.93-2.06
			c0.38-0.79,0.14-1.58,0.4-2.39c0.2-0.66,0.72-1.17,1.04-1.78c0.96-1.89-0.18-4.49,1.13-6.15c0.62-0.79,1.67-1.16,2.26-1.98
			c0.88-1.23,0.53-3.22,1.76-4.11c0.71-0.5,1.7-0.42,2.51-0.11c1.4,0.54,2.48-0.01,3.94,0.2c0.87,0.13,1.73,0.58,2.14,1.36
			c0.54,1.05,0.16,2.42,0.82,3.4c0.69,1.02,2.3,1.25,2.75,2.4c0.44,1.13-0.54,2.53,0.09,3.57c0.44,0.74,1.51,0.92,1.93,1.67
			c0.4,0.7,0.06,1.61,0.29,2.38c0.17,0.56,0.67,0.94,0.87,1.48c0.2,0.55,0.04,0.99,0.15,1.51c0.23,1.13,0.95,2.22,1.26,3.38
			c0.15,0.59,0.3,1.18,0.44,1.77c0.04-0.41,0.09-0.83,0.14-1.24c0.15-1.39,0.34-2.87,1.23-3.96c1.39-1.69,3.92-1.83,5.76-3.01
			c0.53-0.34,1.02-0.79,1.19-1.4c0.16-0.52,0.05-1.07-0.04-1.62c-0.3-1.75-0.48-3.55-0.19-5.3c0.27-1.69,1.1-3.9,2.63-4.87
			c1.59-1,4.02-0.69,5.53,0.27c3.22,2.03,1.88,7.21,1.52,10.29c-0.05,0.48-0.09,0.98,0.11,1.42c0.17,0.38,0.49,0.67,0.83,0.91
			c1.9,1.37,4.55,1.66,6.06,3.45c0.78,0.92,1.13,2.11,1.44,3.28c0.56,2.11,1.02,4.26,1.39,6.42c0.14-1.26,0.27-2.5,0.41-3.75
			c0.16-1.4,0.35-2.88,1.23-3.97c1.39-1.69,3.92-1.82,5.76-3c0.53-0.34,1.02-0.8,1.2-1.4c0.15-0.53,0.04-1.08-0.05-1.62
			c-0.3-1.75-0.48-3.55-0.19-5.31c0.19-1.15,0.59-2.17,1.11-3.2c0.4-0.79,0.64-1.98,1.15-2.65c0.37-0.48,0.89-0.82,1.44-1.1
			c0.24-0.12,0.49-0.22,0.76-0.21c0.27,0.02,0.53,0.22,0.56,0.48c0.53-0.23,0.79-0.84,1.27-1.15c0.47-0.3,1.13-0.28,1.58,0.06
			c0.45,0.34,0.64,0.97,0.47,1.51c0.56,0.07,1.12,0.14,1.67,0.22c0.16,0.02,0.33,0.05,0.43,0.17c0.09,0.11,0.11,0.27,0.1,0.41
			c-0.03,0.6-0.28,1.18-0.7,1.62c0.65,0.03,1.32,0.27,1.71,0.8c0.38,0.52,0.38,1.34-0.11,1.77c-0.35,0.31-0.95,0.45-1.02,0.92
			c-0.04,0.2,0.04,0.41,0.11,0.61c0.46,1.51-0.66,3.88-0.84,5.47c-0.06,0.48-0.09,0.98,0.1,1.42c0.17,0.38,0.49,0.67,0.83,0.92
			c1.9,1.36,4.56,1.65,6.07,3.45c0.61,0.74,0.97,1.64,1.24,2.58c0.06,0.23,0.13,0.46,0.19,0.69c0.19,0.74,0.39,1.49,0.58,2.24
			c0.14-0.58,0.25-1.15,0.31-1.74c0.16-1.39,0.35-2.87,1.23-3.96c0.68-0.83,1.79-1.11,2.73-1.51c1.15-0.48,2.21-1.13,3.39-1.57
			c0.34-0.13,0.69-0.25,0.97-0.47c0.28-0.22,0.49-0.58,0.44-0.94c-0.07-0.52-0.65-0.82-1.17-0.87c-0.53-0.04-1.06,0.09-1.58,0.03
			c-0.91-0.11-1.51-0.75-1.83-1.57c-0.2-0.41-0.17-0.95-0.25-1.39c-0.1-0.58-0.35-0.89-0.71-1.35c-0.1-0.13-0.21-0.27-0.21-0.44
			c0-0.19,0.13-0.35,0.25-0.49c0.64-0.79,0.44-1.35,0.64-2.28c0.14-0.67,0.36-1.32,0.67-1.93c0.92-1.8,2.99-2.35,4.85-2.51
			c1.98-0.17,4.06,0.82,5.13,2.51c0.28,0.45,0.51,0.96,0.96,1.24c0.25,0.15,0.53,0.22,0.81,0.31c1.57,0.5,2.9,1.75,3.4,3.31
			c0.22,0.68,0.28,1.41,0.57,2.06c0.47,1.05,1.44,1.77,2.34,2.49c0.9,0.71,1.82,1.55,2.08,2.67c0.11,0.46,0.09,0.95,0.28,1.38
			c0.22,0.55,0.72,0.94,1.16,1.34c0.17-0.78,0.45-1.52,0.95-2.14c1.39-1.69,3.92-1.83,5.76-3.01c0.53-0.34,1.02-0.79,1.19-1.4
			c0.15-0.52,0.05-1.07-0.04-1.62c-0.3-1.75-0.48-3.55-0.19-5.3c0.27-1.69,1.1-3.9,2.63-4.87c1.59-1,4.02-0.69,5.53,0.27
			c3.22,2.03,1.87,7.21,1.52,10.29c-0.06,0.48-0.09,0.98,0.1,1.42c0.17,0.38,0.49,0.67,0.83,0.91c1.9,1.37,4.56,1.66,6.07,3.45
			c0.77,0.92,1.13,2.11,1.44,3.28c0.15,0.59,0.3,1.18,0.44,1.77c0.04-0.41,0.09-0.83,0.14-1.24c0.15-1.39,0.34-2.87,1.23-3.96
			C326.41,129.56,326.48,129.49,326.55,129.42z"/>
		<path class="st3" d="M326.55,138.53v53.37h-56.81c-2.14,0-5.13,0.57-7.42-0.04c-3.54,0.75-8.02,0.12-10.96,0.12H-10.51
			c-0.08,0-0.17-0.01-0.26,0c-7.14,1.16-15.55,0-22.51,0h-73v-38.94c1.77-0.79,3.51-1.61,4.45-3.58c0.44-0.94,0.79-1.93,1.03-2.94
			c0.55-2.28,0.66-4.88,2.34-6.51c1.07-1.03,2.6-1.46,4.09-1.48c0.87-0.01,1.78,0.11,2.51,0.59c1.07,0.71,1.54,2.03,1.73,3.3
			c0.38,2.52-0.1,5.16-1.33,7.39c-0.31,0.56-0.68,1.12-0.74,1.75c-0.2,2.21,3.99,2.52,5.14,3.92c0.61,0.76,0.89,1.7,1.06,2.68
			c0.16-1.02,0.43-2.03,1.08-2.82c1.39-1.69,3.92-1.83,5.76-3.01c0.53-0.33,1.02-0.79,1.2-1.39c0.15-0.53,0.04-1.08-0.05-1.62
			c-0.3-1.75-0.48-3.55-0.19-5.31c0.27-1.69,1.1-3.9,2.63-4.87c1.59-1,4.02-0.69,5.53,0.27c3.22,2.03,1.88,7.21,1.52,10.29
			c-0.05,0.48-0.09,0.98,0.11,1.42c0.17,0.38,0.49,0.67,0.83,0.92c1.9,1.36,4.55,1.65,6.06,3.44c0.78,0.92,1.13,2.11,1.44,3.28
			c0.16,0.59,0.3,1.18,0.44,1.77c0.05-0.41,0.09-0.82,0.14-1.24c0.16-1.39,0.35-2.87,1.23-3.96c1.39-1.69,3.92-1.83,5.76-3.01
			c0.53-0.33,1.02-0.79,1.19-1.39c0.15-0.53,0.05-1.08-0.04-1.62c-0.31-1.75-0.48-3.55-0.2-5.31c0.27-1.69,1.1-3.9,2.63-4.87
			c1.59-1,4.02-0.69,5.53,0.27c3.22,2.03,1.88,7.21,1.53,10.29c-0.06,0.48-0.09,0.98,0.1,1.42c0.17,0.38,0.49,0.67,0.83,0.92
			c1.9,1.36,4.56,1.65,6.07,3.44c0.77,0.92,1.13,2.11,1.43,3.28c0.16,0.59,0.3,1.18,0.45,1.77c0.04-0.41,0.09-0.82,0.14-1.24
			c0.15-1.39,0.34-2.87,1.23-3.96c1.39-1.69,3.92-1.83,5.76-3.01c0.53-0.33,1.02-0.79,1.19-1.39c0.15-0.53,0.05-1.08-0.04-1.62
			c-0.3-1.75-0.48-3.55-0.19-5.31c0.27-1.69,1.1-3.9,2.63-4.87c0.84-0.53,1.93-0.68,2.98-0.57c0.97,0.06,1.92,0.38,2.65,0.84
			c3.22,2.03,1.88,7.21,1.53,10.29c-0.06,0.48-0.09,0.98,0.1,1.42c0.17,0.38,0.49,0.67,0.83,0.92c0.92,0.66,2,1.06,3.05,1.51
			c0.22,0.09,0.44,0.19,0.66,0.3c0.89,0.41,1.72,0.89,2.36,1.64c0.55,0.66,0.88,1.45,1.14,2.27c0.23,0.55,0.43,1.11,0.61,1.67
			c0.17-1.19,0.38-2.37,0.65-3.54c0.31-1.31,0.78-2.12,1.38-3.32c0.66-1.31,0.68-3.35,1.59-4.47c0.79-0.96,2.38-1.1,2.95-2.2
			c0.28-0.53,0.25-1.17,0.31-1.77c0.42-3.75,7.88-7.16,10.55-3.59c0.53,0.7,0.64,1.61,0.7,2.47c0.06,0.87,0.09,1.77,0.48,2.54
			c0.41,0.82,1.23,1.43,2.14,1.58c0.27,0.05,0.56,0.06,0.82,0.18c0.61,0.31,0.71,1.13,0.66,1.81c-0.05,0.69-0.15,1.44,0.27,1.98
			c0.45,0.56,1.3,0.62,1.83,1.12c1.18,1.12-0.22,2.24-0.04,3.4c0.17,1.06,0.96,2.14,1.44,3.25c0.15-1.26,0.39-2.55,1.18-3.53
			c1.39-1.69,3.92-1.83,5.76-3.01c2.34-1.5-0.17-3.48-0.75-5.3c-0.5-1.57,0.2-3.24,1.02-4.67c1.97-3.44,6.06-4.33,9.31-1.77
			c1.19,0.93,2.25,2.09,2.8,3.5c0.56,1.41,0.53,3.09-0.3,4.36c-3.15,4.8,3.13,4.18,5.55,7.05c0.77,0.92,1.13,2.11,1.43,3.28
			c0.28,1.05,0.53,2.11,0.76,3.17c0.22-1.01,0.46-2.03,0.73-3.03c0.3-1.16,0.66-2.35,1.43-3.28c2.37-2.82,6.87-2.53,8.61-6.19
			c0.44-0.94,0.79-1.93,1.03-2.94c0.55-2.28,0.66-4.88,2.34-6.51c1.07-1.03,2.6-1.46,4.09-1.48c0.87-0.01,1.78,0.11,2.51,0.59
			c1.07,0.71,1.54,2.03,1.73,3.3c0.38,2.52-0.1,5.16-1.33,7.39c-0.31,0.56-0.68,1.12-0.74,1.75c-0.2,2.21,3.99,2.52,5.14,3.92
			c0.61,0.76,0.89,1.7,1.06,2.68c0.16-1.02,0.43-2.03,1.08-2.82c1.39-1.69,3.92-1.83,5.76-3.01c0.53-0.33,1.02-0.79,1.2-1.39
			c0.15-0.53,0.04-1.08-0.05-1.62c-0.3-1.75-0.48-3.55-0.19-5.31c0.27-1.69,1.1-3.9,2.63-4.87c1.59-1,4.02-0.69,5.53,0.27
			c3.22,2.03,1.88,7.21,1.52,10.29c-0.05,0.48-0.09,0.98,0.11,1.42c0.17,0.38,0.49,0.67,0.83,0.92c1.9,1.36,4.55,1.65,6.06,3.44
			c0.78,0.92,1.13,2.11,1.44,3.28c0.16,0.59,0.3,1.18,0.44,1.77c0.05-0.41,0.09-0.82,0.14-1.24c0.16-1.39,0.35-2.87,1.23-3.96
			c1.39-1.69,3.92-1.83,5.76-3.01c0.53-0.33,1.02-0.79,1.19-1.39c0.15-0.53,0.05-1.08-0.04-1.62c-0.31-1.75-0.48-3.55-0.2-5.31
			c0.27-1.69,1.1-3.9,2.63-4.87c1.59-1,4.02-0.69,5.53,0.27c3.22,2.03,1.88,7.21,1.53,10.29c-0.06,0.48-0.09,0.98,0.1,1.42
			c0.17,0.38,0.49,0.67,0.83,0.92c1.9,1.36,4.56,1.65,6.07,3.44c0.77,0.92,1.13,2.11,1.43,3.28c0.16,0.59,0.3,1.18,0.45,1.77
			c0.04-0.41,0.09-0.82,0.14-1.24c0.15-1.39,0.34-2.87,1.23-3.96c1.39-1.69,3.92-1.83,5.76-3.01c0.53-0.33,1.02-0.79,1.19-1.39
			c0.15-0.53,0.05-1.08-0.04-1.62c-0.3-1.75-0.48-3.55-0.19-5.31c0.27-1.69,1.1-3.9,2.63-4.87c1.59-1,4.02-0.69,5.53,0.27
			c3.22,2.03,1.88,7.21,1.52,10.29c-0.05,0.48-0.09,0.98,0.1,1.42c0.17,0.38,0.5,0.67,0.84,0.92c1.9,1.36,4.55,1.65,6.06,3.44
			c0.77,0.92,1.13,2.11,1.44,3.28c0.15,0.59,0.3,1.18,0.44,1.77c0.04-0.41,0.09-0.82,0.14-1.24c0.16-1.39,0.35-2.87,1.23-3.96
			c1.39-1.69,3.92-1.83,5.76-3.01c0.53-0.33,1.02-0.79,1.2-1.39c0.15-0.53,0.04-1.08-0.05-1.62c-0.3-1.75-0.48-3.55-0.19-5.31
			c0.27-1.69,1.1-3.9,2.63-4.87c1.59-1,4.01-0.69,5.53,0.27c3.22,2.03,1.88,7.21,1.53,10.29c-0.06,0.48-0.09,0.98,0.1,1.42
			c0.17,0.38,0.49,0.67,0.83,0.92c1.9,1.36,4.56,1.65,6.07,3.44c0.77,0.92,1.13,2.11,1.43,3.28c0.16,0.59,0.3,1.18,0.44,1.77
			c0.05-0.41,0.09-0.82,0.14-1.24c0.16-1.39,0.35-2.87,1.23-3.96c1.39-1.69,3.92-1.83,5.76-3.01c0.53-0.33,1.02-0.79,1.19-1.39
			c0.15-0.53,0.05-1.08-0.04-1.62c-0.3-1.75-0.48-3.55-0.19-5.31c0.27-1.69,1.1-3.9,2.63-4.87c1.59-1,4.02-0.69,5.53,0.27
			c3.22,2.03,1.87,7.21,1.52,10.29c-0.06,0.48-0.09,0.98,0.1,1.42c0.17,0.38,0.49,0.67,0.83,0.92c1.9,1.36,4.56,1.65,6.07,3.44
			c0.77,0.92,1.13,2.11,1.44,3.28c0.15,0.59,0.3,1.18,0.44,1.77c0.04-0.41,0.09-0.82,0.14-1.24c0.15-1.39,0.34-2.87,1.23-3.96
			c1.39-1.69,3.92-1.83,5.76-3.01c0.53-0.33,1.02-0.79,1.19-1.39c0.16-0.53,0.05-1.08-0.04-1.62c-0.3-1.75-0.48-3.55-0.19-5.31
			c0.27-1.69,1.1-3.9,2.63-4.87c1.59-1,4.02-0.69,5.53,0.27c3.22,2.03,1.88,7.21,1.52,10.29c-0.05,0.48-0.09,0.98,0.11,1.42
			c0.17,0.38,0.49,0.67,0.83,0.92c1.9,1.36,4.55,1.65,6.06,3.44c0.78,0.92,1.13,2.11,1.44,3.28c0.38,1.46,0.71,2.93,1.01,4.41
			c0.57,0.04,1.13,0.08,1.7,0.12c0.28-1.62,0.64-3.22,1.16-4.71c0.43-1.24,1-2.49,1.98-3.37c1.66-1.46,3.92-1.89,4.75-4.21
			c0.58-1.63-0.12-3.27,0.15-4.94c0.27-1.7,1.1-3.91,2.63-4.87c1.59-1,4.02-0.69,5.53,0.27c3.22,2.04,1.88,7.21,1.53,10.3
			c-0.06,0.48-0.09,0.97,0.1,1.41c0.17,0.38,0.49,0.68,0.83,0.92c1.81,1.31,4.31,1.62,5.84,3.2c0.07,0.08,0.15,0.16,0.22,0.25
			c0.89,1.07,1.64,2.32,2.28,3.66c0.18-0.8,0.35-1.59,0.56-2.37c0.3-1.16,0.66-2.35,1.43-3.28c2.37-2.82,6.87-2.53,8.61-6.19
			c0.44-0.94,0.79-1.93,1.03-2.94c0.55-2.28,0.66-4.88,2.34-6.51c1.07-1.04,2.6-1.46,4.09-1.49c0.87-0.01,1.78,0.11,2.51,0.59
			c1.07,0.71,1.54,2.04,1.73,3.3c0.38,2.52-0.1,5.17-1.33,7.39c-0.31,0.56-0.68,1.12-0.74,1.75c-0.2,2.21,3.99,2.52,5.14,3.92
			c0.61,0.76,0.89,1.7,1.06,2.68c0.16-1.02,0.43-2.03,1.08-2.82c1.39-1.69,3.92-1.83,5.76-3c0.53-0.34,1.02-0.8,1.2-1.4
			c0.15-0.53,0.04-1.08-0.05-1.62c-0.3-1.75-0.48-3.55-0.19-5.31c0.27-1.69,1.1-3.9,2.63-4.86c1.59-1,4.02-0.69,5.53,0.27
			c3.22,2.03,1.88,7.21,1.53,10.29c-0.06,0.48-0.09,0.98,0.1,1.42c0.17,0.38,0.49,0.67,0.83,0.92c1.9,1.36,4.56,1.65,6.07,3.44
			c0.77,0.92,1.13,2.11,1.43,3.28c0.16,0.59,0.3,1.18,0.44,1.77c0.05-0.41,0.09-0.82,0.14-1.24c0.16-1.39,0.35-2.87,1.23-3.96
			c1.39-1.69,3.92-1.83,5.76-3c0.53-0.34,1.02-0.8,1.19-1.4c0.15-0.53,0.05-1.08-0.04-1.62c-0.3-1.75-0.48-3.55-0.19-5.31
			c0.27-1.69,1.1-3.9,2.63-4.86C325.47,138.8,326,138.62,326.55,138.53z"/>
		<path class="st2" d="M326.55,181.61v26.16h-38.89c-3.31,0-13.46,1.28-19.06,0h-374.88v-41.68c1.4,2.46,0.45,6.36,0.17,8.87
			c-0.05,0.48-0.09,0.98,0.11,1.42c0.17,0.38,0.49,0.67,0.83,0.92c1.9,1.36,4.55,1.65,6.06,3.45c0.04,0.05,0.07,0.11,0.12,0.16
			c0.07-0.11,0.14-0.22,0.22-0.32c1.39-1.69,3.92-1.82,5.76-3c0.53-0.34,1.02-0.8,1.2-1.4c0.15-0.53,0.04-1.08-0.05-1.62
			c-0.3-1.75-0.48-3.55-0.19-5.31c0.27-1.69,1.1-3.9,2.63-4.86c1.59-1,4.02-0.69,5.53,0.27c3.22,2.03,1.88,7.21,1.52,10.29
			c-0.05,0.48-0.09,0.98,0.11,1.42c0.17,0.38,0.49,0.67,0.83,0.92c1.9,1.36,4.55,1.65,6.06,3.45c0.78,0.92,1.13,2.11,1.44,3.27
			c0.16,0.59,0.3,1.18,0.44,1.77c0.05-0.41,0.09-0.82,0.14-1.23c0.16-1.4,0.35-2.88,1.23-3.97c1.15-1.41,5.35-1.71,5.14-3.92
			c-0.06-0.64-0.43-1.2-0.74-1.76c-1.23-2.23-1.71-4.87-1.33-7.39c0.19-1.26,0.66-2.6,1.73-3.3c0.73-0.48,1.64-0.61,2.51-0.59
			c1.49,0.02,3.02,0.45,4.09,1.49c1.69,1.63,1.8,4.23,2.34,6.51c0.24,1.01,0.59,2,1.03,2.94c1.74,3.66,6.24,3.38,8.61,6.2
			c0.77,0.92,1.13,2.11,1.43,3.27c0.5,1.89,0.92,3.8,1.27,5.73h0.07c0.19-1.73,0.38-3.46,0.57-5.19c0.16-1.4,0.35-2.88,1.23-3.97
			c1.39-1.69,3.92-1.82,5.76-3c0.53-0.34,1.02-0.8,1.2-1.4c0.15-0.53,0.04-1.08-0.05-1.62c-0.3-1.75-0.48-3.55-0.19-5.31
			c0.27-1.69,1.1-3.9,2.63-4.86c1.59-1,4.01-0.69,5.53,0.27c3.22,2.03,1.88,7.21,1.53,10.29c-0.06,0.48-0.09,0.98,0.1,1.42
			c0.17,0.38,0.49,0.67,0.83,0.92c1.9,1.36,4.56,1.65,6.07,3.45c0.77,0.92,1.13,2.11,1.43,3.27c0.01,0.04,0.02,0.09,0.04,0.13v-3.31
			c0.33-0.27,0.66-0.57,0.86-1c0.38-0.79,0.14-1.58,0.4-2.39c0.2-0.66,0.72-1.16,1.04-1.78c0.96-1.89-0.18-4.48,1.13-6.15
			c0.62-0.79,1.67-1.17,2.26-1.99c0.88-1.23,0.53-3.22,1.76-4.1c0.71-0.51,1.7-0.43,2.51-0.11c1.4,0.53,2.48-0.02,3.94,0.19
			c0.87,0.13,1.74,0.58,2.14,1.36c0.55,1.05,0.17,2.43,0.82,3.4c0.69,1.02,2.31,1.25,2.75,2.4c0.44,1.13-0.54,2.53,0.09,3.57
			c0.45,0.74,1.51,0.92,1.93,1.67c0.39,0.71,0.05,1.61,0.29,2.38c0.17,0.56,0.66,0.95,0.87,1.48c0.21,0.56,0.04,1,0.15,1.51
			c0.23,1.13,0.95,2.22,1.26,3.38c0.39,1.49,0.73,2.99,1.03,4.51c0.17-1.54,0.34-3.07,0.5-4.61c0.16-1.4,0.35-2.88,1.23-3.97
			c1.39-1.69,3.92-1.82,5.76-3c0.53-0.34,1.02-0.8,1.19-1.4c0.15-0.53,0.05-1.08-0.04-1.62c-0.3-1.75-0.48-3.55-0.19-5.31
			c0.27-1.69,1.1-3.9,2.63-4.86c1.59-1,4.02-0.69,5.53,0.27c3.22,2.03,1.87,7.21,1.52,10.29c-0.06,0.48-0.09,0.98,0.1,1.42
			c0.17,0.38,0.49,0.67,0.83,0.92c1.9,1.36,4.56,1.65,6.07,3.45c0.77,0.92,1.13,2.11,1.43,3.27c0.16,0.59,0.3,1.18,0.45,1.77
			c0.04-0.41,0.09-0.82,0.14-1.23c0.15-1.4,0.34-2.88,1.23-3.97c1.39-1.69,3.92-1.82,5.76-3c0.53-0.34,1.02-0.8,1.19-1.4
			c0.15-0.53,0.05-1.08-0.04-1.62c-0.3-1.75-0.48-3.55-0.19-5.31c0.27-1.69,1.1-3.9,2.63-4.86c1.59-1,4.02-0.69,5.53,0.27
			c3.22,2.03,1.88,7.21,1.52,10.29c-0.05,0.48-0.09,0.98,0.1,1.42c0.17,0.38,0.5,0.67,0.84,0.92c1.9,1.36,4.55,1.65,6.06,3.45
			c0.77,0.92,1.13,2.11,1.44,3.27c0.15,0.59,0.3,1.18,0.44,1.77c0.04-0.41,0.09-0.82,0.14-1.23c0.16-1.4,0.35-2.88,1.23-3.97
			c1.39-1.69,3.92-1.82,5.76-3c0.53-0.34,1.02-0.8,1.2-1.4c0.15-0.53,0.04-1.08-0.05-1.62c-0.3-1.75-0.48-3.55-0.19-5.31
			c0.27-1.69,1.1-3.9,2.63-4.86c2.62-1.65,7.95-0.08,8.61,3.12c0.25,1.16,0.01,2.36,0.02,3.54c0.01,1.19,0.39,2.5,1.44,3.07
			c0.5,0.27,1.12,0.35,1.57,0.7c1.1,0.87,0.54,2.72,1.28,3.92c0.38,0.63,1.1,1.04,1.31,1.75c0.36,1.23,0.92,2.26,1.25,3.52
			c0.16,0.59,0.3,1.18,0.45,1.77c0.04-0.41,0.09-0.82,0.14-1.23c0.15-1.4,0.34-2.88,1.23-3.97c1.39-1.69,3.92-1.82,5.76-3
			c0.53-0.34,1.02-0.8,1.19-1.4c0.15-0.53,0.05-1.08-0.04-1.62c-0.3-1.75-0.48-3.55-0.19-5.31c0.27-1.69,1.1-3.9,2.63-4.86
			c1.59-1,4.02-0.69,5.53,0.27c3.22,2.03,1.87,7.21,1.52,10.29c-0.06,0.48-0.09,0.98,0.1,1.42c0.17,0.38,0.49,0.67,0.83,0.92
			c1.9,1.36,4.56,1.65,6.07,3.45c0.77,0.92,1.13,2.11,1.44,3.27c0.41,1.58,0.76,3.17,1.07,4.77c0.16-1.41,0.32-2.82,0.47-4.23
			c0.16-1.4,0.35-2.88,1.23-3.97c1.39-1.69,3.92-1.82,5.76-3c0.53-0.34,1.02-0.8,1.19-1.4c0.15-0.53,0.04-1.08-0.04-1.62
			c-0.31-1.75-0.48-3.55-0.2-5.31c0.27-1.69,1.1-3.9,2.63-4.86c1.59-1,4.02-0.69,5.53,0.27c3.22,2.03,1.88,7.21,1.53,10.29
			c-0.06,0.48-0.09,0.98,0.1,1.42c0.17,0.38,0.49,0.67,0.83,0.92c1.9,1.36,4.56,1.65,6.07,3.45c0.73,0.86,1.07,1.97,1.37,3.06
			c0.16-1.16,0.41-2.32,1.14-3.22c1.39-1.69,3.92-1.82,5.76-3c0.53-0.34,1.02-0.8,1.19-1.4c0.15-0.53,0.05-1.08-0.04-1.62
			c-0.3-1.75-0.48-3.55-0.19-5.31c0.27-1.69,1.1-3.9,2.63-4.86c1.59-1,4.02-0.69,5.53,0.27c3.22,2.03,1.88,7.21,1.52,10.29
			c-0.05,0.48-0.09,0.98,0.1,1.42c0.17,0.38,0.49,0.67,0.83,0.92c1.9,1.36,4.56,1.65,6.07,3.45c0.77,0.92,1.13,2.11,1.44,3.27
			c0.5,1.89,0.92,3.8,1.26,5.73h1.41c0.19-1.73,0.38-3.46,0.58-5.19c0.15-1.4,0.34-2.88,1.23-3.97c1.39-1.69,3.92-1.82,5.76-3
			c0.53-0.34,1.02-0.8,1.19-1.4c0.16-0.53,0.05-1.08-0.04-1.62c-0.3-1.75-0.48-3.55-0.19-5.31c0.27-1.69,1.1-3.9,2.63-4.86
			c1.59-1,4.02-0.69,5.53,0.27c3.22,2.03,1.88,7.21,1.52,10.29c-0.05,0.48-0.09,0.98,0.11,1.42c0.17,0.38,0.49,0.67,0.83,0.92
			c1.9,1.36,4.55,1.65,6.06,3.45c0.04,0.05,0.07,0.11,0.12,0.16c0.07-0.11,0.14-0.22,0.22-0.32c1.39-1.69,3.92-1.82,5.76-3
			c0.53-0.34,1.02-0.8,1.2-1.4c0.15-0.53,0.04-1.08-0.05-1.62c-0.3-1.75-0.48-3.55-0.19-5.31c0.27-1.69,1.1-3.9,2.63-4.86
			c1.59-1,4.02-0.69,5.53,0.27c3.22,2.03,1.88,7.21,1.52,10.29c-0.05,0.48-0.09,0.98,0.11,1.42c0.17,0.38,0.49,0.67,0.83,0.92
			c1.9,1.36,4.55,1.65,6.06,3.45c0.78,0.92,1.13,2.11,1.44,3.27c0.16,0.59,0.3,1.18,0.44,1.77c0.05-0.41,0.09-0.82,0.14-1.23
			c0.16-1.4,0.35-2.88,1.23-3.97c1.15-1.41,5.35-1.71,5.14-3.92c-0.06-0.64-0.43-1.2-0.74-1.76c-1.23-2.23-1.71-4.87-1.33-7.39
			c0.19-1.26,0.66-2.6,1.73-3.3c0.73-0.48,1.64-0.61,2.51-0.59c1.49,0.02,3.02,0.45,4.09,1.49c1.69,1.63,1.8,4.23,2.34,6.51
			c0.24,1.01,0.59,2,1.03,2.94c1.74,3.66,6.24,3.38,8.61,6.2c0.77,0.92,1.13,2.11,1.43,3.27c0.5,1.89,0.92,3.8,1.27,5.73h0.07
			c0.19-1.73,0.38-3.46,0.57-5.19c0.16-1.4,0.35-2.88,1.23-3.97c1.39-1.69,3.92-1.82,5.76-3c0.53-0.34,1.02-0.8,1.2-1.4
			c0.15-0.53,0.04-1.08-0.05-1.62c-0.3-1.75-0.48-3.55-0.19-5.31c0.27-1.69,1.1-3.9,2.63-4.86c1.59-1,4.01-0.69,5.53,0.27
			c3.22,2.03,1.88,7.21,1.53,10.29c-0.06,0.48-0.09,0.98,0.1,1.42c0.17,0.38,0.49,0.67,0.83,0.92c1.9,1.36,4.56,1.65,6.07,3.45
			c0.73,0.87,1.08,1.98,1.38,3.09c2.47-2.65,4.78-4.03,8.23-6.25c0.53-0.34,1.02-0.8,1.19-1.4c0.15-0.53,0.05-1.08-0.04-1.62
			c-0.3-1.75-0.48-3.55-0.19-5.31c0.27-1.69,1.1-3.9,2.63-4.86c1.59-1,4.02-0.69,5.53,0.27c3.22,2.03,1.88,7.21,1.52,10.29
			c-0.05,0.48-0.09,0.98,0.1,1.42c0.17,0.38,0.5,0.67,0.84,0.92c1.9,1.36,4.55,1.65,6.06,3.45c0.77,0.92,1.13,2.11,1.44,3.27
			c0.15,0.59,0.3,1.18,0.44,1.77c0.04-0.41,0.09-0.82,0.14-1.23c0.16-1.4,0.35-2.88,1.23-3.97c1.39-1.69,3.92-1.82,5.76-3
			c0.53-0.34,1.02-0.8,1.2-1.4c0.15-0.53,0.04-1.08-0.05-1.62c-0.3-1.75-0.48-3.55-0.19-5.31c0.27-1.69,1.1-3.9,2.63-4.86
			c2.62-1.65,7.95-0.08,8.61,3.12c0.25,1.16,0.01,2.36,0.02,3.54c0.01,1.19,0.39,2.5,1.44,3.07c0.5,0.27,1.12,0.35,1.57,0.7
			c1.1,0.87,0.54,2.72,1.28,3.92c0.38,0.63,1.1,1.04,1.31,1.75C326.27,180.88,326.4,181.25,326.55,181.61z"/>
		<path class="st3" d="M326.55,202.69v24.7h-432.83V184.8c1.18-0.03,2.42,0.32,3.32,0.89c3.22,2.03,1.88,7.21,1.52,10.29
			c-0.05,0.48-0.09,0.98,0.1,1.42c0.17,0.38,0.49,0.67,0.83,0.92c1.9,1.36,4.56,1.65,6.07,3.45c0.77,0.92,1.13,2.11,1.44,3.27
			c0.15,0.59,0.3,1.18,0.44,1.77c0.04-0.41,0.09-0.82,0.14-1.23c0.15-1.4,0.35-2.88,1.23-3.97c1.39-1.69,3.92-1.82,5.76-3
			c0.53-0.34,1.02-0.8,1.2-1.4c0.15-0.53,0.04-1.08-0.05-1.62c-0.3-1.75-0.48-3.55-0.19-5.31c0.27-1.69,1.1-3.9,2.63-4.86
			c1.59-1,4.02-0.69,5.53,0.27c3.22,2.03,1.88,7.21,1.52,10.29c-0.05,0.48-0.09,0.98,0.11,1.42c0.17,0.38,0.49,0.67,0.83,0.92
			c1.9,1.36,4.55,1.65,6.06,3.45c0.78,0.92,1.13,2.11,1.44,3.27c0.11,0.41,0.21,0.83,0.31,1.24c0.06-0.59,0.13-1.18,0.19-1.78
			c0.16-1.39,0.35-2.87,1.23-3.96c1.15-1.41,5.35-1.71,5.14-3.92c-0.06-0.63-0.43-1.2-0.74-1.75c-1.23-2.24-1.71-4.87-1.33-7.39
			c0.19-1.27,0.66-2.6,1.73-3.31c0.73-0.48,1.64-0.61,2.51-0.58c1.49,0.02,3.02,0.45,4.09,1.48c1.69,1.63,1.8,4.23,2.34,6.51
			c0.24,1.01,0.59,2,1.03,2.94c1.74,3.66,6.24,3.37,8.61,6.19c0.77,0.92,1.13,2.11,1.43,3.28c0.21,0.78,0.4,1.56,0.58,2.34
			c0.02-0.25,0.05-0.49,0.08-0.73c0.15-1.4,0.34-2.88,1.23-3.97c1.39-1.69,3.92-1.82,5.76-3c0.53-0.34,1.02-0.8,1.19-1.4
			c0.15-0.53,0.05-1.08-0.04-1.62c-0.3-1.75-0.48-3.55-0.19-5.31c0.27-1.69,1.1-3.9,2.63-4.86c1.59-1,4.02-0.69,5.53,0.27
			c3.22,2.03,1.88,7.21,1.52,10.29c-0.05,0.48-0.09,0.98,0.1,1.42c0.17,0.38,0.5,0.67,0.84,0.92c1.9,1.36,4.55,1.65,6.06,3.45
			c0.87,1.04,1.38,2.47,1.66,4.08c0.01,0.05,0.01,0.11,0.02,0.16c0.02-0.14,0.04-0.28,0.05-0.43c0.16-1.4,0.35-2.88,1.23-3.97
			c1.39-1.69,3.92-1.82,5.76-3c0.53-0.34,1.02-0.8,1.2-1.4c0.15-0.53,0.04-1.08-0.05-1.62c-0.3-1.75-0.48-3.55-0.19-5.31
			c0.27-1.69,1.1-3.9,2.63-4.86c1.59-1,4.01-0.69,5.53,0.27c3.22,2.03,1.88,7.21,1.53,10.29c-0.06,0.48-0.09,0.98,0.1,1.42
			c0.17,0.38,0.49,0.67,0.83,0.92c1.9,1.36,4.56,1.65,6.07,3.45c0.77,0.92,1.13,2.11,1.43,3.27c0.16,0.59,0.3,1.18,0.45,1.77
			l0.13-1.23c0.16-1.4,0.35-2.88,1.23-3.97c1.39-1.69,3.92-1.82,5.76-3c0.53-0.34,1.02-0.8,1.19-1.4c0.15-0.53,0.05-1.08-0.04-1.62
			c-0.3-1.75-0.48-3.55-0.19-5.31c0.18-1.15,0.58-2.17,1.1-3.2c0.4-0.79,0.64-1.98,1.15-2.65c0.37-0.48,0.9-0.82,1.45-1.1
			c0.23-0.12,0.49-0.22,0.75-0.21c0.27,0.02,0.53,0.22,0.56,0.48c0.53-0.23,0.79-0.84,1.27-1.15c0.47-0.3,1.13-0.28,1.58,0.06
			c0.45,0.34,0.65,0.97,0.48,1.51c0.56,0.07,1.11,0.14,1.67,0.22c0.16,0.02,0.33,0.05,0.44,0.17c0.09,0.11,0.1,0.26,0.09,0.4
			c-0.03,0.61-0.28,1.19-0.7,1.62c0.65,0.03,1.33,0.27,1.71,0.8c0.38,0.52,0.38,1.34-0.1,1.77c-0.36,0.31-0.95,0.45-1.03,0.92
			c-0.04,0.2,0.05,0.4,0.11,0.61c0.47,1.51-0.66,3.88-0.84,5.47c-0.06,0.48-0.09,0.98,0.1,1.42c0.17,0.38,0.49,0.67,0.83,0.92
			c1.9,1.36,4.56,1.65,6.07,3.45c0.77,0.92,1.13,2.11,1.44,3.27c0.15,0.59,0.3,1.18,0.44,1.77c0.04-0.41,0.09-0.82,0.14-1.23
			c0.15-1.4,0.34-2.88,1.23-3.97c0.93-1.13,2.36-1.41,3.31-2.52c0.89-1.03,1.49-2.38,1.76-3.71c0.71-3.43,2.59-7.27,6.68-7.65
			c1.56-0.14,3.22,0.53,4.03,1.85c0.71,1.17,0.69,2.63,1.13,3.93c0.74,2.21,2.66,3.69,4.27,5.26c1.85,1.82,2.98,3.74,3.64,6.25
			c0.15,0.59,0.3,1.18,0.44,1.77c0.05-0.41,0.09-0.82,0.14-1.23c0.16-1.4,0.35-2.88,1.23-3.97c1.39-1.69,3.92-1.82,5.76-3
			c0.53-0.34,1.02-0.8,1.2-1.4c0.15-0.53,0.04-1.08-0.04-1.62c-0.31-1.75-0.48-3.55-0.2-5.31c0.27-1.69,1.1-3.9,2.63-4.86
			c1.59-1,4.02-0.69,5.53,0.27c3.22,2.03,1.88,7.21,1.53,10.29c-0.06,0.48-0.09,0.98,0.1,1.42c0.17,0.38,0.49,0.67,0.83,0.92
			c1.9,1.36,4.56,1.65,6.07,3.45c0.77,0.92,1.13,2.11,1.43,3.27c0.16,0.59,0.3,1.18,0.45,1.77c0.04-0.41,0.09-0.82,0.14-1.23
			c0.15-1.4,0.34-2.88,1.23-3.97c1.39-1.69,3.92-1.82,5.76-3c0.53-0.34,1.02-0.8,1.19-1.4c0.15-0.53,0.05-1.08-0.04-1.62
			c-0.3-1.75-0.48-3.55-0.19-5.31c0.27-1.69,1.1-3.9,2.63-4.86c1.59-1,4.02-0.69,5.53,0.27c3.22,2.03,1.88,7.21,1.52,10.29
			c-0.05,0.48-0.09,0.98,0.1,1.42c0.17,0.38,0.49,0.67,0.83,0.92c1.9,1.36,4.56,1.65,6.07,3.45c0.77,0.92,1.13,2.11,1.44,3.27
			c0.15,0.59,0.3,1.18,0.44,1.77c0.04-0.41,0.09-0.82,0.14-1.23c0.15-1.4,0.35-2.88,1.23-3.97c1.39-1.69,3.92-1.82,5.76-3
			c0.53-0.34,1.02-0.8,1.2-1.4c0.15-0.53,0.04-1.08-0.05-1.62c-0.3-1.75-0.48-3.55-0.19-5.31c0.27-1.69,1.1-3.9,2.63-4.86
			c1.59-1,4.02-0.69,5.53,0.27c3.22,2.03,1.88,7.21,1.52,10.29c-0.05,0.48-0.09,0.98,0.11,1.42c0.17,0.38,0.49,0.67,0.83,0.92
			c1.9,1.36,4.55,1.65,6.06,3.45c0.78,0.92,1.13,2.11,1.44,3.27c0.11,0.41,0.21,0.83,0.31,1.24c0.06-0.59,0.13-1.18,0.19-1.78
			c0.16-1.39,0.35-2.87,1.23-3.96c1.15-1.41,5.35-1.71,5.14-3.92c-0.06-0.63-0.43-1.2-0.74-1.75c-1.23-2.24-1.71-4.87-1.33-7.39
			c0.19-1.27,0.66-2.6,1.73-3.31c0.73-0.48,1.64-0.61,2.51-0.58c1.49,0.02,3.02,0.45,4.09,1.48c1.69,1.63,1.8,4.23,2.34,6.51
			c0.24,1.01,0.59,2,1.03,2.94c1.74,3.66,6.24,3.37,8.61,6.19c0.77,0.92,1.13,2.11,1.43,3.28c0.21,0.78,0.4,1.56,0.58,2.34
			c0.02-0.25,0.05-0.49,0.08-0.73c0.15-1.4,0.34-2.88,1.23-3.97c1.39-1.69,3.92-1.82,5.76-3c0.53-0.34,1.02-0.8,1.19-1.4
			c0.15-0.53,0.05-1.08-0.04-1.62c-0.3-1.75-0.48-3.55-0.19-5.31c0.27-1.69,1.1-3.9,2.63-4.86c1.59-1,4.02-0.69,5.53,0.27
			c3.22,2.03,1.88,7.21,1.52,10.29c-0.05,0.48-0.09,0.98,0.1,1.42c0.17,0.38,0.5,0.67,0.84,0.92c1.9,1.36,4.55,1.65,6.06,3.45
			c0.77,0.92,1.13,2.11,1.44,3.27c0.15,0.59,0.3,1.18,0.44,1.77c0.04-0.41,0.09-0.82,0.14-1.23c0.16-1.4,0.35-2.88,1.23-3.97
			c1.39-1.69,3.92-1.82,5.76-3c0.53-0.34,1.02-0.8,1.2-1.4c0.15-0.53,0.04-1.08-0.05-1.62c-0.3-1.75-0.48-3.55-0.19-5.31
			c0.27-1.69,1.1-3.9,2.63-4.86c1.59-1,4.02-0.69,5.53,0.27c3.22,2.03,1.88,7.21,1.53,10.29c-0.06,0.48-0.09,0.98,0.1,1.42
			c0.17,0.38,0.49,0.67,0.83,0.92c1.9,1.36,4.56,1.65,6.07,3.45c0.54,0.65,0.87,1.44,1.13,2.25c0.15-0.33,0.34-0.65,0.57-0.94
			c1.39-1.7,3.92-1.83,5.76-3.01c0.53-0.34,1.02-0.79,1.2-1.4c0.15-0.52,0.04-1.07-0.04-1.62c-0.31-1.75-0.48-3.55-0.2-5.3
			c0.27-1.69,1.1-3.91,2.63-4.87c2.62-1.64,7.95-0.08,8.61,3.12c0.25,1.15,0.01,2.36,0.02,3.54c0.01,1.18,0.39,2.5,1.44,3.07
			c0.5,0.28,1.12,0.35,1.57,0.71c1.1,0.87,0.54,2.72,1.28,3.92c0.38,0.62,1.11,1.04,1.31,1.74c0.36,1.24,0.92,2.26,1.25,3.53
			c0.21,0.8,0.4,1.6,0.59,2.41c0.12-1.13,0.25-2.24,0.37-3.34c0.03-0.29,0.06-0.58,0.1-0.87c0.16-1.12,0.43-2.24,1.13-3.1
			c0.93-1.13,2.36-1.41,3.31-2.52c0.89-1.04,1.49-2.38,1.76-3.71c0.17-0.83,0.41-1.68,0.74-2.5c1.01-2.58,2.84-4.86,5.94-5.14
			c0.95-0.09,1.94,0.12,2.75,0.61c0.48,0.28,0.89,0.66,1.2,1.13c0.03,0.04,0.06,0.08,0.08,0.12c0.36,0.6,0.53,1.26,0.67,1.95
			c0.14,0.66,0.24,1.34,0.45,1.98c1.06,3.16,3.51,5.19,5.97,7.24c1.44-1.1,3.5-1.35,5.06-2.35c0.53-0.34,1.02-0.8,1.2-1.4
			c0.15-0.52,0.04-1.08-0.04-1.62c-0.31-1.75-0.48-3.55-0.2-5.3c0.27-1.7,1.1-3.91,2.63-4.87c1.59-1,4.01-0.69,5.53,0.27
			c3.22,2.03,1.88,7.21,1.53,10.29c-0.06,0.48-0.09,0.98,0.1,1.42c0.17,0.38,0.49,0.67,0.83,0.92c1.9,1.36,4.56,1.65,6.07,3.45
			c0.77,0.92,1.13,2.11,1.43,3.27c0.16,0.59,0.3,1.18,0.45,1.77c0.04-0.41,0.09-0.82,0.14-1.23c0.15-1.4,0.34-2.88,1.23-3.96
			c1.39-1.7,3.92-1.83,5.76-3.01c0.53-0.34,1.02-0.8,1.19-1.4c0.15-0.52,0.05-1.08-0.04-1.62c-0.3-1.75-0.48-3.55-0.19-5.3
			c0.18-1.15,0.58-2.18,1.1-3.21c0.4-0.79,0.64-1.98,1.15-2.65c0.37-0.49,0.9-0.83,1.45-1.1c0.24-0.12,0.49-0.22,0.75-0.2
			c0.27,0.01,0.53,0.21,0.56,0.47c0.53-0.23,0.79-0.84,1.27-1.15c0.47-0.3,1.13-0.28,1.58,0.06c0.45,0.34,0.65,0.97,0.48,1.51
			c0.56,0.07,1.11,0.14,1.67,0.22c0.16,0.02,0.33,0.05,0.44,0.17c0.09,0.11,0.1,0.27,0.09,0.41c-0.02,0.6-0.28,1.18-0.69,1.62
			c0.65,0.03,1.32,0.27,1.7,0.8c0.38,0.52,0.38,1.34-0.1,1.77c-0.36,0.31-0.95,0.45-1.03,0.92c-0.04,0.2,0.05,0.41,0.11,0.61
			c0.47,1.51-0.66,3.88-0.84,5.47c-0.05,0.48-0.09,0.98,0.1,1.42c0.17,0.38,0.49,0.67,0.83,0.92c1.9,1.36,4.56,1.65,6.07,3.45
			C326.13,201.91,326.35,202.28,326.55,202.69z"/>
	</g>
	<g style="clip-path:url(#SVGID_00000026164018001766444330000011836233220413392556_);">
		<path class="st4" d="M202.71,258.65c0,4.57-42.09,8.27-94.02,8.27s-94.02-3.7-94.02-8.27c0-0.09,0.02-0.17,0.05-0.25L61.69,15.63
			l4.13-21.39h85.74l4.13,21.39l46.96,242.76C202.69,258.48,202.71,258.56,202.71,258.65z"/>
		<ellipse class="st5" cx="108.69" cy="258.65" rx="94.01" ry="8.27"/>
	</g>
	<g style="clip-path:url(#SVGID_00000026164018001766444330000011836233220413392556_);">
		<g>
			<g>
				<path class="st6" d="M129.3,153.34h-25.03l4.17-15c0.13-0.47,0.55-0.79,1.04-0.79h22.8c0.71,0,1.23,0.68,1.04,1.36L129.3,153.34
					z"/>
				<polygon class="st7" points="128.26,152.93 105.5,152.93 109.49,138.57 132.25,138.57 				"/>
				<rect x="99.14" y="152.11" class="st6" width="30.14" height="1.23"/>
				<polygon class="st8" points="128.7,145.19 119.7,145.19 121.28,139.52 130.28,139.52 				"/>
				<polygon class="st2" points="130.1,140.16 130.28,139.52 121.28,139.52 121.1,140.16 				"/>
				<polygon class="st2" points="119.83,144.74 119.7,145.19 128.7,145.19 128.83,144.74 				"/>
				<polygon class="st1" points="122.59,150.25 110.96,150.25 113,142.92 124.63,142.92 				"/>
			</g>
			<rect x="134.53" y="160.08" class="st1" width="28.26" height="2.12"/>
			<g>
				<path class="st6" d="M159.34,160.08h-20.66l3.44-12.38c0.11-0.38,0.46-0.65,0.86-0.65h18.82c0.59,0,1.01,0.56,0.86,1.13
					L159.34,160.08z"/>
				<polygon class="st7" points="158.48,159.57 139.7,159.57 142.99,147.73 161.78,147.73 				"/>
				<polygon class="st2" points="157.06,157.63 146.86,157.63 148.65,151.2 158.85,151.2 				"/>
				<polygon class="st8" points="153.9,156.52 141.3,156.52 143.51,148.58 156.11,148.58 				"/>
				<polygon class="st1" points="155.81,149.67 156.11,148.58 143.51,148.58 143.21,149.67 				"/>
				<polygon class="st1" points="141.45,155.98 141.3,156.52 153.9,156.52 154.05,155.98 				"/>
			</g>
			<rect x="92.14" y="153.31" class="st7" width="44.6" height="104.47"/>
			<rect x="97.13" y="159.66" class="st1" width="34.1" height="34.13"/>
			<path class="st1" d="M131.47,254.11H96.8v-55.46h34.67V254.11z M97.46,253.45h33.34v-54.13H97.46V253.45z"/>
			<rect x="97.13" y="173.7" class="st7" width="34.1" height="1.61"/>
			<path class="st2" d="M129.96,173.7h-18.73c-0.5,0-0.9-0.4-0.9-0.9v-1.33c0-0.5,0.4-0.9,0.9-0.9h18.73V173.7z"/>
			<path class="st9" d="M129.96,173.31h-14.52c-0.35,0-0.63-0.28-0.63-0.63v-0.93c0-0.35,0.28-0.63,0.63-0.63h14.52V173.31z"/>
			<path class="st7" d="M128.61,170.57h-18.73c-0.5,0-0.9-0.4-0.9-0.9v-0.15c0-0.5,0.4-0.9,0.9-0.9h18.73V170.57z"/>
			<path class="st9" d="M128.61,170.33h-14.52c-0.35,0-0.63-0.28-0.63-0.63v-0.1c0-0.35,0.28-0.63,0.63-0.63h14.52V170.33z"/>
		</g>
		<g>
			<g>
				<path class="st10" d="M101.88,185.79c-0.06-0.12-0.11-0.24-0.18-0.37c-0.85-1.69-2.13-3.1-3.48-4.38
					c-0.69-0.65-1.43-1.3-2.33-1.54c-0.91-0.24-1.88-0.04-2.77,0.28c-1.66,0.6-3.2,1.61-4.29,3.04c-2.27,2.96-1.18,6.62-1.24,10.11
					c-0.02,1.05-0.25,12.51-0.54,12.51c0,0,12.93,0,12.93,0c-0.06,0,1.53-9.84,1.81-10.74
					C102.74,191.61,103.26,188.83,101.88,185.79z"/>
				<g>
					<path class="st11" d="M111.83,220.37c0-1.38,0-2.77-0.01-4.15c-0.03-5.88-0.13-11.76-0.3-17.64
						c-0.11-3.89,1.04-9.92-2.23-12.79c-2.58-2.26-6.98-1.5-9.14,1.16c-1.66,2.05-1.95,4.68-1.55,7.2c0.38,2.34,0.08,4.66,0.56,7.01
						c0.9,4.36,1.9,8.65,1.86,13.14c-0.02,2.72-0.4,5.43-0.36,8.15c0.05,3.81,0.9,7.56,1.74,11.28c0.92,4.07,1.84,8.13,2.77,12.2
						c0.69,3.06,0.54,7.08,3.45,8.88c0.47,0.29,2.92,1.04,2.96-0.12c0.18-5.96-0.08-12.07,0.06-18.11
						C111.76,231.18,111.82,225.77,111.83,220.37z"/>
					<path class="st12" d="M114.63,259.45c-0.17,0.43-0.59,0.64-1.05,0.77c-0.17,0.04-0.33,0.07-0.5,0.1
						c-1.89,0.28-3.83,0.28-5.73,0c-0.21-0.03-0.43-0.08-0.55-0.26c-0.07-0.11-0.07-0.26-0.08-0.4c0-1,0.11-2.03-0.19-2.99
						c-0.05-0.14-0.67-1.37-0.72-1.27c-0.07,0.13-0.13,0.27-0.18,0.4c-0.49,1.29-0.14,2.8-0.21,4.21c-0.01,0.11-0.01,0.23-0.07,0.34
						c-0.18,0.35-0.75,0.26-0.98-0.06c-0.23-0.32-0.21-0.75-0.2-1.14c0.07-2.18-0.19-4.37-0.78-6.47c-0.25-0.92-0.57-1.82-0.7-2.77
						c-0.35-2.56,1.53-5.13,3.95-2.73c0.7,0.69,1.16,1.58,1.7,2.4c0.89,1.37,2.01,2.58,3.12,3.78
						C112.79,254.79,115.52,257.13,114.63,259.45z"/>
					<path class="st6" d="M113.58,260.22c-0.17,0.04-0.33,0.07-0.5,0.1c-1.89,0.28-3.83,0.28-5.73,0c-0.21-0.03-0.43-0.08-0.55-0.26
						c-0.07-0.11-0.07-0.26-0.08-0.4c0-1,0.11-2.03-0.19-2.99c-0.05-0.14-0.67-1.37-0.72-1.27c-0.07,0.13-0.13,0.27-0.18,0.4
						c-0.01-0.46,0.15-0.88,0.78-1.17c0.61-0.29,1.33-0.17,1.94,0.13c1.35,0.66,2.17,2.06,2.79,3.44c0.25,0.57,0.52,1.18,1.05,1.51
						c0.37,0.23,0.81,0.29,1.23,0.43C113.47,260.17,113.53,260.19,113.58,260.22z"/>
				</g>
				<g>
					<path class="st11" d="M88.72,221.85c1.22-3.23,2.93-6.27,3.97-9.62c2.23-7.14,2.57-14.97,3.15-22.39
						c0.26-3.33,0.44-6.77-0.71-9.9c-0.4-1.08-0.99-2.15-1.94-2.81c-0.83-0.57-1.86-0.78-2.86-0.79c-2.53-0.04-5.05,1.09-6.7,3.01
						c-2.14,2.48-2.17,6.3-2.51,9.38c-0.59,5.34-0.5,10.62-0.45,15.94c0.06,5.37-1.97,10.96-3.35,16.09
						c-0.99,3.68-1.19,7.52-1.39,11.33c-0.22,4.16-0.43,8.33-0.65,12.49c-0.16,3.13-1.41,6.96,0.91,9.49
						c0.37,0.41,2.53,1.79,2.88,0.69c1.79-5.69,3.2-11.63,4.98-17.41c1.4-4.56,2.69-9.16,4.07-13.73
						C88.3,223.03,88.5,222.44,88.72,221.85z"/>
					<path class="st12" d="M81.84,260.36c-0.36,0.48-1.05,0.49-1.65,0.42c-0.03,0-0.05,0-0.08-0.01c-1.9-0.25-3.76-0.77-5.51-1.56
						c-0.19-0.08-0.4-0.19-0.45-0.39c-0.04-0.13-0.01-0.27,0.03-0.41c0.27-0.97,0.66-1.93,0.62-2.93c-0.01-0.12-0.19-1.09-0.3-1.35
						c-0.02-0.05-0.04-0.07-0.05-0.06c-1.08,1.12-1.13,2.85-1.62,4.33c-0.03,0.11-0.07,0.22-0.15,0.31
						c-0.27,0.29-0.8,0.05-0.93-0.32c-0.13-0.37,0-0.78,0.12-1.15c0.66-2.08,1-4.26,1.01-6.45c0-0.95-0.05-1.91,0.07-2.85
						c0.36-2.56,2.86-4.52,4.55-1.55c0.49,0.85,0.69,1.83,0.98,2.77c0.49,1.56,1.23,3.03,1.98,4.49
						C81.33,255.38,83.33,258.37,81.84,260.36z"/>
					<path class="st6" d="M80.19,260.78c-0.03,0-0.05,0-0.08-0.01c-1.9-0.25-3.76-0.77-5.51-1.56c-0.19-0.08-0.4-0.19-0.45-0.39
						c-0.04-0.13-0.01-0.27,0.03-0.41c0.27-0.97,0.66-1.93,0.62-2.93c-0.01-0.12-0.19-1.09-0.3-1.35c0.18-0.12,0.42-0.21,0.74-0.27
						c0.4-0.07,0.84-0.09,1.18,0.14c0.35,0.23,0.51,0.67,0.62,1.08c0.39,1.43,0.5,3.03,1.47,4.17
						C78.99,259.83,79.67,260.24,80.19,260.78z"/>
				</g>
				<path class="st12" d="M111.22,177.07c-0.79-9.9-1.08-20.26-2.84-30.03c-0.09-0.52-0.21-1.04-0.33-1.56
					c-0.25-1.04-0.55-2.07-0.8-3.11c-0.08-0.33-0.16-0.65-0.27-0.97c-0.17-0.5-0.37-1.32-0.77-1.66c-0.42-0.36-1.2-0.39-1.71-0.42
					c-1.99-0.11-3.99,0.21-5.98,0.21c-3.48-0.01-6.98-1-10.4-0.34c-0.26,0.05-0.52,0.11-0.74,0.27c-0.41,0.29-0.55,0.8-0.76,1.24
					c-0.22,0.45-0.5,0.84-0.78,1.25c-4.97,7.31-6.24,16.94-6.3,25.69c-0.1,12.65,0.54,25.5-0.47,38.14h12.93
					c0.23-1.87,0.32-3.68,0.71-5.54c0.5-2.38,1.01-4.76,1.51-7.14c0.52,2.31,1.09,4.61,1.73,6.89c0.1,0.34,1.76,5.79,1.52,5.8
					c1.41-0.06,15.09,0.13,15.1-0.01C113,196.27,111.92,186.48,111.22,177.07z"/>
			</g>
			<g>
				<g>
					<path class="st1" d="M118.92,114.29l-6.48-8.91l-2.53,1.98l7.09,8.43c0.37,0.44,1.03,0.51,1.49,0.16l0.23-0.18
						C119.17,115.41,119.27,114.76,118.92,114.29z"/>
					<path class="st7" d="M113.42,106.95c-0.17,0.56-0.51,1.04-1.06,1.35c-2,1.14-5.86-1.7-5.25-3.99c0.45-1.71,2.2-2.74,3.91-2.29
						C112.78,102.47,113.99,105.13,113.42,106.95z"/>
					<path class="st1" d="M107.89,107.22c-0.11-0.03-0.17-0.14-0.14-0.24c0.03-0.11,0.14-0.17,0.24-0.15
						c1.06,0.26,2.2,0.09,3.14-0.47c0.94-0.56,1.62-1.49,1.89-2.55c0.03-0.11,0.14-0.17,0.24-0.15c0.11,0.03,0.17,0.14,0.15,0.24
						c-0.29,1.16-1.04,2.18-2.07,2.8C110.31,107.33,109.06,107.51,107.89,107.22C107.89,107.22,107.89,107.22,107.89,107.22z"/>
				</g>
				<path class="st11" d="M112.16,113.55c0,0.24,0.01,0.48,0.01,0.66c-0.01,0.45-0.01,0.91,0.01,1.36c0.09,1.73,0.47,3.47,1.36,4.96
					c0.12,0.2,0.26,0.41,0.44,0.55c0.4,0.32,1,0.31,1.46,0.09c0.46-0.22,0.81-0.62,1.1-1.05c0.24-0.36,0.46-0.7,0.45-1.13
					c-0.04-0.99-0.11-1.97-0.21-2.95c-0.09-0.83-0.07-1.75-0.42-2.53c-0.37-0.81-1.21-1.39-2.1-1.43c-0.61-0.03-1.72,0.26-2,0.89
					C112.18,113.11,112.16,113.33,112.16,113.55z"/>
				<path class="st8" d="M112.03,116.8c-0.09,0.03-0.17,0.06-0.25,0.1c-1.01,0.53-1.13,2.03-1.29,3.01c-0.14,0.83-0.3,1.66-0.4,2.5
					c-0.19,1.65-0.05,3.31,0.89,4.72c1.04,2.1,0.93,4.71,2.37,6.56c0.39,0.5,0.88,0.92,1.37,1.32c0.73,0.59,1.5,1.16,2.4,1.43
					c3.71,1.1,3.24-4.52,2.66-6.65c-0.76-2.75-1.93-5.35-1.81-8.26c0.03-0.7,0.11-1.47-0.29-2.05c-0.11-0.17-0.26-0.31-0.36-0.48
					c-0.31-0.52-0.17-1.18-0.31-1.76c-0.03-0.14-0.08-0.27-0.19-0.37c-0.15-0.14-0.38-0.15-0.59-0.15c-1.08,0-2.15-0.01-3.23-0.01
					C112.68,116.7,112.35,116.7,112.03,116.8z"/>
				<path class="st11" d="M111.24,108.91c-0.06-0.1-0.12-0.2-0.23-0.24c-0.13-0.05-0.28,0-0.38,0.1c-0.19,0.19-0.31,0.52-0.32,0.79
					c-0.05,0.87,0.16,1.76,0.58,2.53c0.68,1.24,1.2,2.52,2.51,3.26c0.81,0.45,1.86,0.57,2.67,0.11c1.29-0.72,1.92-2.54,2.03-3.94
					c0.03-0.34,0.02-0.69-0.08-1.02c-0.11-0.32-0.33-0.62-0.65-0.76c0.04-0.35,0.02-0.72-0.16-1.03c-0.19-0.32-0.51-0.48-0.88-0.46
					c0.02-0.34-0.07-0.76-0.35-0.98c-0.19-0.15-0.46-0.19-0.7-0.12c-0.05-0.24-0.2-0.46-0.41-0.59c-0.21-0.13-0.49-0.15-0.71-0.03
					c-0.3,0.16-0.32,0.42-0.32,0.71c0,0.29-0.08,0.61-0.16,0.89c-0.16,0.56-0.45,1.09-0.9,1.47c-0.09,0.08-0.19,0.15-0.31,0.16
					c-0.1,0.01-0.19-0.02-0.28-0.06c-0.38-0.15-0.71-0.43-0.93-0.78C111.26,108.93,111.25,108.92,111.24,108.91z"/>
				<g>
					<path class="st13" d="M115.47,107.15c-0.03-0.08-0.28-0.06-0.24,0.03c0.23,0.58,0.1,1.21-0.03,1.8c-0.02,0.08,0.23,0.09,0.25,0
						C115.58,108.39,115.71,107.75,115.47,107.15z"/>
					<path class="st13" d="M116.51,108.32c-0.01-0.09-0.27-0.08-0.25,0c0.08,0.53,0.02,1.08-0.18,1.58
						c-0.04,0.09,0.21,0.11,0.24,0.03C116.52,109.42,116.58,108.86,116.51,108.32z"/>
					<path class="st13" d="M117.46,109.81c-0.01-0.09-0.26-0.09-0.25,0c0.04,0.46-0.06,0.92-0.3,1.32c-0.05,0.08,0.2,0.11,0.24,0.03
						C117.39,110.76,117.5,110.28,117.46,109.81z"/>
					<path class="st13" d="M116.92,114.74c-0.02-0.02-0.05-0.03-0.08-0.03c-0.05-0.01-0.12,0-0.16,0.05
						c-0.18,0.23-0.43,0.41-0.7,0.49c-0.04,0.01-0.09,0.05-0.05,0.09c0.04,0.04,0.12,0.04,0.17,0.02c0.32-0.1,0.61-0.3,0.82-0.57
						C116.95,114.78,116.93,114.75,116.92,114.74z"/>
					<path class="st13" d="M112.58,109.76c-0.05-0.02-0.13-0.03-0.18,0c-0.18,0.11-0.36,0.21-0.54,0.32
						c-0.02,0.01-0.04,0.02-0.04,0.05c0,0.02,0.02,0.04,0.04,0.05c0.05,0.02,0.13,0.03,0.18,0c0.18-0.11,0.36-0.21,0.54-0.32
						c0.02-0.01,0.04-0.02,0.04-0.05C112.62,109.79,112.6,109.77,112.58,109.76z"/>
				</g>
			</g>
			<g>
				<path class="st11" d="M103.87,94.13c0.06,1.52,0.09,3.03,0.01,4.55c-0.05,0.92-0.13,1.84-0.28,2.76
					c-0.13,0.8-0.21,1.92-0.7,2.59c-0.04,0.06-0.09,0.12-0.15,0.17c-0.38,0.36-0.97,0.45-1.51,0.48c-0.22,0.01-0.47,0.04-0.59,0.22
					c-0.04,0.06-0.06,0.13-0.06,0.2c-0.01,0.11,0.02,0.23,0.06,0.33c0.17,0.5,0.51,0.92,0.71,1.4c0.2,0.48,0.25,1.1-0.12,1.48
					c-0.15,0.16-0.36,0.26-0.57,0.34c-2.08,0.83-4.46,0.69-6.59-0.02c-0.31-0.1-0.56-0.23-0.82-0.42c-0.21-0.15-0.45-0.23-0.67-0.37
					c-0.56-0.35-1.05-0.82-1.47-1.34c-0.94-1.15-1.45-2.59-1.46-4.08c-0.01-1.25,0.25-2.49,0.57-3.69c0.35-1.34,0.77-2.66,1.27-3.95
					c1.06-2.71,2.56-5.32,4.69-7.33c0.93-0.87,2.07-1.68,3.4-1.58c1.38,0.1,2.61,1.08,3.18,2.3c0.71,1.52,0.98,3.25,1.05,4.92
					C103.84,93.44,103.85,93.78,103.87,94.13z"/>
				<path class="st14" d="M87.71,101.08c-0.15-0.43-0.22-0.89-0.28-1.33c-0.23-1.81-0.34-3.63-0.31-5.45
					c0.02-1.7,0.17-3.45,0.93-4.97c0.83-1.68,2.37-2.97,4.11-3.68c1.74-0.71,3.67-0.88,5.54-0.68c0.57,0.06,1.13,0.15,1.67,0.33
					c1.25,0.41,2.33,1.29,3.01,2.41c0.84,1.37,0.71,2.61,0.41,4.13c-0.51,2.62-1.07,5.22-1.81,7.78c-0.16,0.54-0.32,1.08-0.6,1.56
					c-0.19,0.34-0.44,0.64-0.7,0.93c-1,1.11-2.25,2.02-3.67,2.47c-1.42,0.44-3.04,0.37-4.34-0.36c-1.03-0.58-1.79-1.64-2.87-2.1
					c-0.44-0.19-0.68-0.18-0.93-0.65C87.82,101.34,87.76,101.21,87.71,101.08z"/>
				<g>
					<path class="st13" d="M102.29,94.48c-0.4,0.17-0.48,0.63-0.55,1.01c-0.18,0.91-0.26,1.84-0.31,2.77
						c-0.01,0.23-0.05,0.47-0.02,0.7c0.02,0.19,0.13,0.33,0.33,0.37c0.07,0.01,0.22,0.03,0.27-0.05c0.04-0.07-0.05-0.13-0.11-0.14
						c0,0,0,0.01-0.01,0c0,0,0,0,0,0c0,0,0,0,0,0c0,0,0,0,0,0c-0.01-0.02-0.02-0.04-0.03-0.07c-0.02-0.06-0.02-0.12-0.02-0.18
						c0-0.18,0.02-0.36,0.03-0.54c0.02-0.37,0.05-0.75,0.08-1.12c0.03-0.37,0.08-0.73,0.13-1.1c0.05-0.36,0.1-0.73,0.22-1.08
						c0.05-0.15,0.15-0.32,0.3-0.39c0.02-0.01,0.04-0.01,0.06-0.02c0.01,0,0.01,0.01,0.02,0.01c0.06,0.04,0.09,0.1,0.09,0.17
						c0,0.16,0.42,0.19,0.42,0.05C103.14,94.48,102.6,94.35,102.29,94.48z"/>
					<path class="st13" d="M101.86,99.14C101.87,99.14,101.87,99.14,101.86,99.14C101.87,99.14,101.87,99.14,101.86,99.14z"/>
				</g>
			</g>
			<path class="st8" d="M105.31,109.52c-0.25-0.08-0.49-0.18-0.73-0.27c-0.17-0.07-0.35-0.15-0.47-0.29
				c-0.13-0.16-0.17-0.39-0.22-0.59c-0.28-0.97-1.37-1.58-2.3-1.82c-0.74-0.19-1.5-0.27-2.26-0.31c-2.97-0.13-5.96,0.1-8.87,0.69
				c-0.9,0.18-1.57,1.51-2.14,2.14c-0.52,0.58-1.43,0.75-2.15,1c-1.8,0.62-3.7,1.01-5.41,1.86c-1.09,0.54-2.37,1.08-3.14,2.09
				c-0.85,1.11-0.9,3.12-0.84,4.46c0.06,1.31,0.76,2.42,1.48,3.47c1.31,1.91,3.02,3.59,3.93,5.72c0.65,1.54,0.7,3.2,1.03,4.83
				c0.4,1.99,0.71,4,0.91,6.03c0.08,0.81,0.17,1.67,0.69,2.29c0.82,0.97,2.28,0.94,3.55,1c2.69,0.14,5.28,1.07,7.96,1.3
				c3.21,0.28,6.41-0.45,9.55-1.17c0.32-0.07,0.64-0.15,0.93-0.3c1.11-0.59,1.09-2.23,1.09-3.32c0-1.67,0.04-3.35,0.31-5
				c0.27-1.64,0.77-3.22,1.03-4.86c0.24-1.5,0.28-3.03,0.85-4.47c0.68-1.71,1.97-3.09,2.87-4.7c1.29-2.31,1.88-5.51-0.6-7.3
				c-0.3-0.22-0.63-0.39-0.96-0.55C109.47,110.54,107.32,110.21,105.31,109.52z"/>
			<g>
				<path class="st11" d="M71.92,145.37c0.05-0.16,0.07-0.33,0.04-0.51c-0.1-0.69-1-1.31-1.54-1.66c-0.57-0.37-1.24-0.61-1.93-0.64
					c-0.54-0.03-1.04,0.1-1.54,0.3c-0.56,0.23-1.08,0.12-1.61-0.15c-0.38-0.19-0.74-0.43-1.15-0.56c-1.43-0.46-2.88,0.45-4.32,0.24
					c-0.46-0.07-0.91-0.2-1.37-0.15c-0.43,0.05-1.18,0.44-1,0.98c0.05,0.15,0.16,0.27,0.27,0.39c0.09,0.1,0.19,0.2,0.3,0.28
					c0.48,0.34,1.35,0.36,1.91,0.35c0.63-0.01,1.56-0.02,1.99,0.51c0.07,0.08,0.11,0.19,0.1,0.29c-0.01,0.07-0.05,0.14-0.09,0.2
					c-0.27,0.41-0.67,0.53-1.1,0.72c-0.5,0.22-1.04,0.36-1.59,0.39c-0.56,0.04-1.22,0.22-0.83,0.91c0.15,0.27,0.42,0.45,0.7,0.57
					c0.55,0.22,1.16,0.2,1.74,0.13c0.53-0.06,1.06-0.17,1.57-0.31c0.11-0.03,0.27-0.04,0.3,0.07c0.02,0.05-0.01,0.11-0.03,0.16
					c-0.14,0.27-0.35,0.48-0.55,0.71c-0.2,0.22-0.39,0.47-0.46,0.76c-0.07,0.29,0.01,0.64,0.26,0.8c0.28,0.19,0.66,0.08,0.97-0.06
					c0.31-0.14,0.61-0.31,0.89-0.5c-0.25,0.23-0.56,0.69-0.27,1.02c0.15,0.17,0.42,0.16,0.65,0.1c0.32-0.09,0.62-0.25,0.86-0.47
					c-0.02,0.15-0.04,0.3-0.07,0.44c-0.01,0.07-0.02,0.14,0.03,0.19c0.03,0.03,0.07,0.05,0.11,0.06c0.21,0.05,0.44,0.01,0.65-0.05
					c0.67-0.19,1.12-0.63,1.62-1.09c0.51-0.47,0.93-1.02,1.41-1.53c0.59-0.62,1.4-1.09,2.05-1.66
					C71.28,146.27,71.76,145.88,71.92,145.37z"/>
				<path class="st8" d="M81.74,138.79c0.91-2.84,1.64-5.74,2.18-8.68c0.5-2.76,1-5.59,0.74-8.38c-0.15-1.58-0.47-3.21-1.32-4.52
					c-0.16-0.25-0.34-0.48-0.54-0.71c-0.94-1.04-2.29-1.74-3.72-1.61c-0.62,0.06-1.24,0.28-1.68,0.71
					c-0.78,0.75-0.86,1.91-0.89,2.92c-0.03,1.24-0.25,2.51-0.38,3.76c-0.26,2.61-0.5,5.22-0.76,7.83c-0.13,1.33-0.27,2.66-0.41,3.99
					c-0.07,0.61-0.06,1.23-0.2,1.83c-0.13,0.59-0.62,0.85-1.06,1.24c-0.95,0.82-1.91,1.63-2.86,2.45c-0.73,0.62-1.46,1.26-2.23,1.81
					c-0.73,0.52-1.26,1.3-1.37,2.2c-0.08,0.67,0.06,1.36,0.33,1.99c0.21,0.49,0.5,0.95,0.85,1.35c0.42,0.48,0.99,0.91,1.62,0.89
					c0.24-0.01,0.47-0.08,0.69-0.15c1.18-0.37,2.22-0.94,3.35-1.43c1.2-0.52,2.47-0.88,3.61-1.52
					C79.94,143.5,80.99,141.13,81.74,138.79z"/>
			</g>
			<path class="st8" d="M111.06,114.32c-0.83,0.46-1.5,1.18-1.97,2c-0.51,0.89-0.81,1.88-0.99,2.89c-0.35,1.96-0.27,4,0.24,5.92
				c0.1,0.37,0.34,0.58,0.47,0.9c0.18,0.42,0.19,1,0.32,1.44c0.28,0.99,0.64,1.95,0.92,2.94c0.2,0.72,0.4,1.44,0.69,2.12
				c0.91,2.12,2.82,4.48,5.11,5.16c0.9,0.27,1.96,0.18,2.65-0.45c0.47-0.42,0.73-1.04,0.89-1.66c0.63-2.5-0.02-5.16-1.09-7.43
				c-0.7-1.5-1.55-2.93-2.19-4.46c-0.55-1.3-0.94-2.66-1.22-4.04c-0.31-1.53-0.57-3.07-0.82-4.62c-0.03-0.21-0.07-0.43-0.19-0.61
				c-0.14-0.22-0.38-0.36-0.63-0.45c-0.65-0.22-1.38-0.07-2,0.23C111.19,114.25,111.13,114.28,111.06,114.32z"/>
			<path class="st13" d="M102.75,104.19c-0.38,0.36-0.97,0.45-1.51,0.48c-0.22,0.01-0.47,0.04-0.59,0.22
				c-0.04,0.06-0.06,0.13-0.06,0.2c-0.03-0.07-0.03-0.14-0.03-0.21c0-0.04,0-0.08,0.01-0.11c0.05-0.39,0.34-0.62,0.75-0.7
				c0.33-0.06,0.67-0.01,1,0.05C102.46,104.14,102.61,104.16,102.75,104.19z"/>
			<g>
				<path class="st14" d="M85.07,107.17c0.01-0.02,0.02-0.05,0.03-0.07c0.33-0.9,0.91-1.68,1.38-2.52c1.09-1.97,0.81-4.44,0.73-6.61
					c-0.06-1.65-0.13-3.32,0.19-4.94s1.04-3.22,2.31-4.28c1.27-1.06,3.14-1.47,4.63-0.75c0.87,0.42,1.53,1.16,2.09,1.94
					c0.62,0.87,1.14,1.82,1.4,2.85c0.19,0.76,0.23,1.54,0.27,2.32c0.09,1.61,0.54,3.39-0.49,4.78c-0.97,1.32-1.54,2.58-1.53,4.3
					c0.01,2.03,0.84,3.96,1.53,5.87c0.83,2.31,1.25,4.61,0.43,6.98c-0.7,2.03-2.35,3.61-2.9,5.71c-0.33,1.28-0.21,2.63,0.15,3.88
					c0.12,0.44,0.23,0.88,0.36,1.32c0.12,0.41,0.59,1.03,0.53,1.43c-2.57,0.1-4.87-1.67-6.42-3.72c-0.8-1.06-1.5-2.3-1.43-3.63
					c0.04-0.82,0.38-1.61,0.41-2.43c0.1-2.21-2.11-3.32-3.11-5.05c-0.78-1.34-1.04-2.87-0.98-4.4
					C84.69,109.13,84.74,108.11,85.07,107.17z"/>
				<g>
					<path class="st15" d="M98.22,96.84c-0.02-0.67-0.07-1.35-0.13-2.02c-0.06-0.66-0.14-1.32-0.27-1.96
						c-0.24-1.18-0.65-2.33-1.36-3.3c-0.64-0.87-1.49-1.58-2.51-1.94c-0.12-0.04-0.25-0.08-0.38-0.11c-0.06-0.02-0.14-0.02-0.21,0
						c-0.59-0.18-1.22-0.17-1.82-0.02c-0.63,0.16-1.2,0.48-1.7,0.89c-0.96,0.77-1.7,1.82-2.14,2.96c-0.25,0.65-0.41,1.33-0.46,2.02
						c-0.01,0.14,0.41,0.15,0.42,0c0.09-1.15,0.47-2.26,1.08-3.23c0.61-0.97,1.49-1.87,2.57-2.31c0.63-0.26,1.35-0.32,1.99-0.07
						c0.08,0.03,0.18,0.05,0.27,0.01c0.93,0.29,1.72,0.91,2.33,1.66c0.73,0.91,1.17,2.01,1.43,3.14c0.29,1.28,0.39,2.6,0.45,3.9
						c0.03,0.67,0.04,1.35-0.07,2.02c-0.1,0.59-0.29,1.16-0.52,1.72c-0.43,1.08-0.97,2.16-1.04,3.33c-0.01,0.14-0.01,0.29,0,0.43
						c0.01,0.15,0.43,0.15,0.42,0c-0.06-1.21,0.45-2.32,0.9-3.41c0.23-0.55,0.44-1.11,0.58-1.7C98.22,98.19,98.24,97.52,98.22,96.84
						z"/>
					<path class="st15" d="M95.84,114.33c-0.06-1.77-0.83-3.43-1.64-4.97c-0.21-0.4-0.44-0.8-0.7-1.18
						c-0.25-0.37-0.54-0.71-0.83-1.06c-0.55-0.64-1.07-1.3-1.51-2.02c-0.83-1.35-1.42-2.85-1.73-4.41c-0.31-1.56-0.35-3.17-0.1-4.74
						c0.03-0.19,0.07-0.39,0.11-0.58c0.03-0.13-0.39-0.16-0.42,0c-0.32,1.55-0.36,3.16-0.12,4.72c0.24,1.56,0.75,3.09,1.5,4.47
						c0.38,0.7,0.83,1.36,1.33,1.98c0.57,0.71,1.18,1.37,1.66,2.16c0.47,0.77,0.86,1.59,1.21,2.42c0.35,0.81,0.64,1.66,0.75,2.54
						c0.2,1.62-0.13,3.29-0.94,4.71c-0.1,0.17-0.21,0.35-0.32,0.51c-0.05,0.08,0.1,0.13,0.15,0.13c0.08,0.01,0.21,0,0.26-0.08
						C95.44,117.59,95.9,115.95,95.84,114.33z"/>
					<path class="st15" d="M96.36,112.25c-0.06-0.13-0.48-0.09-0.41,0.06c0.45,0.95,0.56,2.05,0.28,3.07
						c-0.04,0.17,0.37,0.19,0.41,0.06C96.93,114.37,96.83,113.24,96.36,112.25z"/>
					<path class="st15" d="M87.34,113.7c-1.25-1.12-1.46-2.93-1.12-4.49c0.11-0.51,0.27-1.01,0.46-1.49
						c0.06-0.15-0.36-0.19-0.41-0.06c-0.63,1.62-0.95,3.49-0.11,5.1c0.21,0.39,0.48,0.75,0.81,1.05c0.07,0.06,0.2,0.07,0.29,0.04
						C87.33,113.83,87.41,113.76,87.34,113.7z"/>
					<path class="st15" d="M89.14,113.76c-0.83-0.47-1.28-1.5-1.1-2.43c0.03-0.13-0.39-0.16-0.42,0c-0.19,1.02,0.33,2.08,1.22,2.59
						c0.08,0.05,0.22,0.05,0.3,0C89.22,113.87,89.22,113.8,89.14,113.76z"/>
					<path class="st15" d="M92.87,125.65c-1.22-0.18-2.03-1.32-2.21-2.47c-0.06-0.37-0.06-0.74-0.02-1.11
						c0.02-0.14-0.41-0.16-0.42,0c-0.08,0.69,0.01,1.4,0.29,2.03c0.26,0.58,0.69,1.07,1.24,1.39c0.31,0.18,0.66,0.31,1.02,0.36
						c0.07,0.01,0.22,0.01,0.26-0.08C93.06,125.7,92.93,125.66,92.87,125.65z"/>
					<path class="st15" d="M95.43,91.13c-0.25-0.55-0.57-1.06-0.94-1.53c-0.06-0.08-0.17-0.09-0.26-0.08
						c-0.04,0.01-0.21,0.06-0.15,0.13c1.3,1.63,1.86,3.8,1.57,5.86c-0.08,0.59-0.24,1.16-0.46,1.71c-0.06,0.15,0.35,0.19,0.41,0.06
						C96.4,95.32,96.31,93.05,95.43,91.13z"/>
					<path class="st15" d="M94.83,93.21c-0.05-0.13-0.47-0.1-0.41,0.06c0.32,0.85,0.34,1.8,0.06,2.66
						c-0.05,0.16,0.37,0.19,0.41,0.06C95.18,95.08,95.16,94.1,94.83,93.21z"/>
					<path class="st15" d="M102.02,90.77c-0.08-0.97-0.31-1.94-0.76-2.8c-0.25-0.48-0.58-0.92-0.98-1.3
						c-0.07-0.07-0.2-0.06-0.29-0.04c-0.07,0.02-0.15,0.08-0.08,0.15c0.69,0.65,1.14,1.51,1.4,2.42c0.13,0.46,0.21,0.93,0.26,1.41
						c0.05,0.5,0.07,1.01,0.02,1.51c-0.05,0.57-0.2,1.12-0.51,1.61c-0.08,0.13,0.33,0.18,0.41,0.06
						C102.06,92.89,102.1,91.79,102.02,90.77z"/>
					<path class="st15" d="M100.84,90.62c-0.04-0.13-0.46-0.11-0.41,0.06c0.26,0.87,0.19,1.83-0.19,2.65
						c-0.07,0.15,0.35,0.19,0.41,0.06C101.05,92.52,101.11,91.53,100.84,90.62z"/>
					<path class="st15" d="M100,99.85c-0.3,0.73-0.69,1.5-1.4,1.91c-0.07,0.04-0.08,0.11,0,0.15c0.08,0.04,0.22,0.05,0.3,0
						c0.75-0.44,1.18-1.23,1.5-2.01C100.47,99.76,100.06,99.72,100,99.85z"/>
					<path class="st15" d="M95.64,85.11c-0.06-0.07-0.21-0.06-0.29-0.04c-0.93,0.27-1.74,0.91-2.21,1.76
						c-0.08,0.14,0.34,0.18,0.41,0.06c0.43-0.78,1.16-1.38,2.02-1.63C95.63,85.23,95.7,85.17,95.64,85.11z"/>
				</g>
			</g>
			<g>
				<path class="st7" d="M110.34,118.52c-0.28,2.35-0.61,4.69-0.99,7.02c-0.11,0.66-0.22,1.32-0.34,1.99c-0.02,0.13,0.4,0.16,0.42,0
					c0.41-2.33,0.77-4.66,1.08-7.01c0.09-0.67,0.17-1.33,0.25-2C110.77,118.38,110.35,118.36,110.34,118.52z"/>
				<path class="st7" d="M117.93,126.64c-0.47-1.01-1.03-1.98-1.52-2.99c-0.49-1.02-0.87-2.08-1.12-3.18
					c-0.1-0.44-0.19-0.88-0.26-1.32c0.31-0.07,0.63-0.1,0.94-0.08c0.16,0.01,0.32,0.03,0.48,0.07c0.09,0.02,0.17,0.04,0.26,0.07
					c0.04,0.01,0.07,0.02,0.11,0.04c0.02,0.01,0.03,0.01,0.05,0.02c0.02,0.14,0.24,0.14,0.34,0.11c0.12-0.04,0.16-0.14,0.05-0.22
					c-0.11-0.07-0.25-0.1-0.37-0.14c-0.14-0.04-0.28-0.07-0.42-0.1c-0.49-0.09-0.99-0.08-1.47,0.01c-0.12-0.74-0.21-1.49-0.31-2.24
					c-0.02-0.15-0.44-0.14-0.42,0c0.28,2.25,0.59,4.52,1.54,6.6c0.46,1.02,1.02,1.99,1.52,2.99c0.5,1.01,0.9,2.05,1.18,3.14
					c0.32,1.22,0.49,2.48,0.51,3.74c0,0.15,0.43,0.15,0.42,0C119.4,130.91,118.88,128.68,117.93,126.64z"/>
				<path class="st7" d="M83.82,132.45c-0.34-1.53-0.7-3.05-1.1-4.56c-0.4-1.51-0.82-3.01-1.28-4.5c-0.26-0.84-0.52-1.68-0.8-2.51
					c-0.04-0.13-0.46-0.1-0.41,0.06c0.49,1.47,0.94,2.95,1.37,4.44c0.43,1.49,0.83,3,1.19,4.5c0.21,0.85,0.41,1.71,0.59,2.57
					C83.43,132.6,83.85,132.58,83.82,132.45z"/>
				<path class="st7" d="M74.81,135.44c-0.28,1.32-0.31,2.68-0.1,4.01c0.02,0.16,0.45,0.14,0.42,0c-0.21-1.33-0.18-2.69,0.1-4.01
					C75.26,135.31,74.84,135.28,74.81,135.44z"/>
				<path class="st7" d="M70.43,147.19c-0.14-0.05-0.26-0.18-0.35-0.3c-0.11-0.14-0.21-0.29-0.3-0.43c-0.2-0.31-0.37-0.63-0.52-0.97
					c-0.29-0.67-0.49-1.37-0.57-2.1c-0.05-0.4-0.06-0.81-0.04-1.22c0.01-0.15-0.42-0.15-0.42,0c-0.08,1.52,0.33,3.06,1.14,4.34
					c0.22,0.34,0.45,0.71,0.85,0.86c0.08,0.03,0.23,0.03,0.29-0.04C70.58,147.27,70.5,147.21,70.43,147.19z"/>
				<path class="st7" d="M103.76,109.18c-1.54-0.2-3.09-0.33-4.64-0.41c-0.44-0.02-0.87-0.04-1.31-0.05c-0.06,0-0.21,0.02-0.21,0.11
					c0,0.09,0.15,0.11,0.21,0.11c1.52,0.04,3.05,0.14,4.56,0.3c0.43,0.05,0.86,0.1,1.28,0.15c0.07,0.01,0.22,0.01,0.26-0.08
					C103.95,109.22,103.82,109.18,103.76,109.18z"/>
				<path class="st7" d="M104.03,133.28c-0.47,2.34-1.4,4.59-2.73,6.58c-0.37,0.56-0.78,1.1-1.21,1.62
					c-0.13,0.15,0.28,0.21,0.37,0.11c0.78-0.93,1.47-1.93,2.05-2.99c0.58-1.06,1.06-2.18,1.43-3.34c0.21-0.65,0.38-1.31,0.51-1.98
					C104.48,133.15,104.06,133.13,104.03,133.28z"/>
				<path class="st7" d="M99.86,139.4c-0.03-0.03-0.09-0.04-0.13-0.05c-0.09-0.01-0.2,0-0.26,0.08c-0.25,0.3-0.47,0.62-0.67,0.96
					c-0.05,0.08,0.1,0.13,0.15,0.13c0.08,0.01,0.21,0.01,0.26-0.08c0.2-0.33,0.43-0.65,0.67-0.96
					C99.91,139.45,99.88,139.41,99.86,139.4z"/>
				<path class="st7" d="M90.54,139.43c-0.91-1.72-1.66-3.53-2.23-5.39c-0.16-0.53-0.31-1.06-0.44-1.6c-0.04-0.15-0.45-0.13-0.42,0
					c0.47,1.91,1.12,3.77,1.95,5.55c0.23,0.5,0.48,1,0.74,1.49C90.2,139.61,90.61,139.57,90.54,139.43z"/>
				<path class="st7" d="M73.53,145.8c-0.03-0.08-0.19-0.08-0.26-0.08c-0.62,0.06-1.25-0.01-1.86-0.14
					c-0.31-0.07-0.61-0.15-0.91-0.24c-0.28-0.09-0.59-0.16-0.83-0.34c-0.08-0.06-0.2-0.07-0.29-0.04c-0.06,0.02-0.16,0.09-0.08,0.15
					c0.27,0.2,0.59,0.29,0.9,0.39c0.34,0.11,0.69,0.2,1.04,0.28c0.7,0.15,1.42,0.22,2.14,0.15
					C73.44,145.93,73.56,145.89,73.53,145.8z"/>
				<path class="st7" d="M71.04,144.03c-0.52-0.07-1.04-0.1-1.57-0.11c-0.06,0-0.21,0.02-0.21,0.11c0,0.09,0.15,0.11,0.21,0.11
					c0.49,0,0.97,0.04,1.45,0.1c0.08,0.01,0.22,0.01,0.26-0.08C71.23,144.08,71.1,144.03,71.04,144.03z"/>
				<path class="st7" d="M112.16,129.35c-0.55-1.24-1.05-2.51-1.48-3.8c-0.04-0.13-0.46-0.1-0.41,0.06c0.43,1.29,0.92,2.56,1.48,3.8
					C111.81,129.54,112.22,129.5,112.16,129.35z"/>
			</g>
			<path class="st13" d="M66.51,143.9c-0.17-0.34-0.42-0.63-0.73-0.84c-0.08-0.06-0.2-0.07-0.29-0.04c-0.04,0.01-0.08,0.03-0.1,0.06
				c-0.01,0.03-0.01,0.06,0.02,0.08c0.15,0.1,0.28,0.22,0.4,0.36c0.01,0.01,0.01,0.02,0.02,0.03c0.01,0.02,0,0,0.01,0.01
				c0.01,0.02,0.03,0.03,0.04,0.05c0.03,0.04,0.05,0.07,0.08,0.11c0.05,0.08,0.1,0.16,0.14,0.24
				C66.17,144.08,66.58,144.04,66.51,143.9z"/>
		</g>
	</g>
</g>
</svg>
