<?xml version="1.0" encoding="utf-8"?>
<!-- Generator: Adobe Illustrator 27.7.0, SVG Export Plug-In . SVG Version: 6.00 Build 0)  -->
<svg version="1.1" id="레이어_1" xmlns="http://www.w3.org/2000/svg" xmlns:xlink="http://www.w3.org/1999/xlink" x="0px"
	 y="0px" viewBox="0 0 272 258" style="enable-background:new 0 0 272 258;" xml:space="preserve">
<style type="text/css">
	.st0{fill:#E8C0A4;}
	.st1{opacity:0.25;fill:#040000;}
	.st2{fill:#A4C9B5;}
	.st3{fill:#F5B08E;}
	.st4{fill:#3B2412;}
	.st5{fill:#4C291A;}
	.st6{fill:#BF8772;}
	.st7{fill:#795F72;}
	.st8{fill:#C0CCE5;}
	.st9{fill:#ECD77E;}
	.st10{fill:#FFFFFF;}
</style>
<g>
	<defs>
		<path id="SVGID_1_" d="M252.36,258.52H20.32c-11.04,0-19.98-8.95-19.98-19.98V20.51c0-11.04,8.95-19.98,19.98-19.98h232.04
			c11.04,0,19.98,8.95,19.98,19.98v218.04C272.34,249.58,263.4,258.52,252.36,258.52z"/>
	</defs>
	<use xlink:href="#SVGID_1_"  style="overflow:visible;fill:#D8D1E8;"/>
	<clipPath id="SVGID_00000086684933651036374340000012385902355433620125_">
		<use xlink:href="#SVGID_1_"  style="overflow:visible;"/>
	</clipPath>
</g>
<g>
	<g>
		<polygon class="st0" points="262.96,238.71 166,222.92 166,18.83 262.96,34.61 		"/>
		<path class="st1" d="M258.59,234.37c-0.01,0-0.02,0-0.03,0l-88.22-15.78c-0.09-0.02-0.15-0.09-0.15-0.18V23.35
			c0-0.06,0.02-0.11,0.07-0.14c0.04-0.04,0.1-0.05,0.15-0.04l88.22,15.78c0.09,0.02,0.15,0.09,0.15,0.18v195.05
			c0,0.06-0.02,0.11-0.07,0.14C258.67,234.36,258.63,234.37,258.59,234.37z M170.56,218.25l87.84,15.71V39.29l-87.84-15.71V218.25z"
			/>
		<path class="st1" d="M251.79,128.61c-0.96-0.16-1.89,0.22-2.47,0.93l-16.49-2.68v2.62l16.05,2.65c0.32,0.86,1.07,1.52,2.03,1.69
			c1.43,0.24,2.79-0.73,3.03-2.16C254.19,130.21,253.23,128.85,251.79,128.61z"/>
	</g>
	<g>
		<polygon class="st2" points="112.73,222.92 15.77,238.71 15.77,34.61 112.73,18.83 		"/>
		<path class="st1" d="M20.14,234.37c-0.04,0-0.09-0.02-0.12-0.04c-0.04-0.04-0.07-0.09-0.07-0.14V39.13c0-0.09,0.06-0.17,0.15-0.18
			l88.22-15.78c0.05-0.01,0.11,0.01,0.15,0.04c0.04,0.04,0.07,0.09,0.07,0.14V218.4c0,0.09-0.06,0.17-0.15,0.18l-88.22,15.78
			C20.16,234.37,20.15,234.37,20.14,234.37z M20.33,39.29v194.67l87.84-15.71V23.58L20.33,39.29z M108.36,218.4L108.36,218.4
			L108.36,218.4z"/>
		<path class="st1" d="M100.44,128.74c-0.94,0.26-1.62,1-1.85,1.88l-12.81,3.36v2.62l13.5-3.45c0.65,0.64,1.61,0.93,2.55,0.68
			c1.4-0.38,2.23-1.83,1.85-3.24C103.29,129.18,101.84,128.35,100.44,128.74z"/>
	</g>
	<g>
		<g>
			<g>
				<path class="st3" d="M145.19,76.58c0,0,1.36-4.29,2.12-4.6c0.76-0.32,3.47,0.19,4.08-0.51c0.61-0.7,0.29-5.07,0.41-5.43
					c0.13-0.35,1.15-0.48,1.3-1.2c0.14-0.72-1.61-3.23-2.02-4.65c-0.14-0.5-0.03-1.29-0.16-2.09c-0.22-1.41-0.22-3.01-1.08-4.31
					c-1.23-1.88-4.9-3.56-9.37-3.11c-3.51,0.35-6.29,2.79-6.86,5.03c-0.57,2.23-0.38,8.78,1.02,10.63c1.4,1.85,2.11,4.82,2.23,6.29
					c0.13,1.47-0.49,4.35-0.49,4.35L145.19,76.58z"/>
				<path class="st4" d="M150.32,61.35c-0.01-0.49-0.26-0.88-0.57-0.87c-0.3,0.01-0.54,0.41-0.53,0.89
					c0.01,0.49,0.26,0.88,0.57,0.87S150.33,61.84,150.32,61.35z"/>
				<path class="st5" d="M150.54,59.41c0.42-0.19,0.59-0.75,0.19-0.97c-0.4-0.22-1.12-0.12-1.89,0.11
					c-0.77,0.23-1.44,0.72-1.24,0.96c0.2,0.24,0.58,0.01,1.59-0.1C150.21,59.29,150.13,59.6,150.54,59.41z"/>
			</g>
			<path class="st6" d="M151.44,67.31c-0.62,0-1.16-0.36-1.19-0.38c-0.07-0.05-0.08-0.14-0.04-0.2c0.05-0.07,0.14-0.08,0.2-0.04
				c0.01,0,0.61,0.41,1.2,0.32c0.08-0.01,0.15,0.04,0.17,0.12c0.01,0.08-0.04,0.15-0.12,0.17C151.58,67.3,151.51,67.31,151.44,67.31
				z"/>
			<path class="st5" d="M146.53,56.24c1.57-0.04,3.02-0.71,4.59-0.75c0.03,0-0.05-1.14-0.34-1.78c-0.64-1.4-2.04-3.04-3.7-3.8
				c-2.42-1.11-4.46-1.46-7.88-0.9c-4.44,0.73-7.56,4.8-7.44,9.33c0.02,0.98,0.22,1.95,0.22,2.93c0,1.38-0.39,2.73-0.5,4.09
				c-0.1,1.28,0.64,2.48,0.42,3.77c-0.21,1.25-1.34,2.4-0.94,3.6c1.91,0.78,4.05-0.57,6.11-0.41c1.06,0.09,2.09,0.58,3.15,0.5
				c0.56-0.04,1.08-0.24,1.61-0.43c0.38-1.83-0.07-4.53-0.07-4.53c0.91,1.47,1.3,3.1,1.46,4.11c1.3-0.23,2.69,0.05,3.79,0.78
				c0.05-1.11-0.04-2.25-0.55-3.23c-0.43-0.83-1.15-1.54-1.33-2.45c-0.21-1.07,0.35-2.13,0.53-3.21c0.23-1.39-0.2-2.78-0.15-4.18
				C145.57,58.4,146.27,57.46,146.53,56.24z"/>
		</g>
		<path class="st5" d="M134.43,51.89c0,0-2.21-3.68-4.91-0.12c-2.7,3.56,1.1,5.89,3.31,4.17C135.05,54.22,134.43,51.89,134.43,51.89
			z"/>
	</g>
	<g>
		<g>
			<g>
				<path class="st3" d="M119.06,248.84l1,1.91l11.56,0.13l0.89-1.73c-2.03-0.57-4.14-1.21-5.25-2.67c-0.9-1.19-0.56-2.91-0.34-4.54
					l-6.27-1.11C120.63,242.79,119.76,246.7,119.06,248.84z"/>
			</g>
			<path class="st7" d="M131.99,248.87c0,0-2.95,2.32-12.55-1.46c0,0-0.18-0.2-0.35,0.08c-0.18,0.28-1.29,2.02-0.35,3.79
				c0,0,0.13,0.71,1.46,0.81c1.34,0.1,13.13,0,14.22,0c1.29,0,2.42-0.66,2.55-1.39C137.09,249.96,131.99,248.87,131.99,248.87z"/>
		</g>
		<g>
			<g>
				<path class="st3" d="M151.61,248.84l1,1.91l11.56,0.13l0.89-1.73c-2.03-0.57-4.23-1.29-5.89-2.6c-1.17-0.93-1.18-3.58-1.18-5.8
					l-6.88-0.22C151.55,243.23,152.32,246.7,151.61,248.84z"/>
			</g>
			<path class="st7" d="M164.55,248.87c0,0-2.95,2.32-12.55-1.46c0,0-0.18-0.2-0.35,0.08s-1.29,2.02-0.35,3.79
				c0,0,0.13,0.71,1.46,0.81c1.34,0.1,13.13,0,14.22,0c1.29,0,2.42-0.66,2.55-1.39S164.55,248.87,164.55,248.87z"/>
		</g>
		<path class="st8" d="M159.61,144.35c0,0,3.55,80.48,3.66,98.92h-16.31c0,0-1.5-22.16-3.12-34.29
			c-1.62-12.14-5.09-28.43-5.09-28.43s-3.7,34.74-4.14,43.34c-0.44,8.59-3.98,19.39-3.98,19.39h-15.04c0,0,0.56-14.89,1.23-28.42
			c0.6-12.05,2.71-24.89,2.44-32.61c-1.1-31.07,1.8-40.41,1.8-40.41L159.61,144.35z"/>
		<path class="st1" d="M138.61,180.71c-0.07,0-0.13-0.05-0.15-0.12l-3.9-16.06c-0.02-0.08,0.03-0.17,0.11-0.19
			c0.08-0.02,0.17,0.03,0.19,0.11l3.9,16.06c0.02,0.08-0.03,0.17-0.11,0.19C138.64,180.7,138.63,180.71,138.61,180.71z"/>
	</g>
	<g>
		<path class="st3" d="M121.45,121.83c0,0,5.49,2.09,6.66,1.95l-2.17,7.18c0,0-2.15,0.34-3.31-0.62c-1.17-0.96-2.86-1.66-2.86-1.66
			L121.45,121.83z"/>
		<path class="st9" d="M155.37,77.56c-2.5-1.17-5.6-1.57-9.81-2.09c0,0-1.83-0.98-4.65-0.98c-2.82,0-4.36,0.83-4.36,0.83
			c-3.4,0.35-6.47,1.16-9.46,2.36c-4.51,1.8-26.04,20.85-25.9,27.89c0.14,6.77,16.05,24.25,18.7,24.03
			c2.64-0.22,4.57-4.52,3.39-7.31c-1.18-2.79-10.25-15.75-10.25-15.75l11.36-11.1c-0.33,0.21,0.72,6.97,0.71,12.06
			c-0.01,5.09,0.45,12.51-0.81,17.45c-0.58,2.27-1.45,4.48-1.74,6.81c-0.24,1.9-3.02,11.5-3.03,11.55c-0.01,0.04,2.4-0.38,2.57-0.41
			c1.37-0.28,2.78-0.41,4.19-0.43c2.84-0.04,5.66,0.36,8.44,0.88c4.56,0.86,9.09,2.03,13.72,2.11c1.98,0.03,3.96-0.14,5.91-0.5
			c2-0.38,3.43-0.88,5.45-0.62c1.5-2.66,0.98-2.84,0.04-5.42c-0.78-2.13-3.18-10.58-2.97-20.75c0.06-2.83,1.25-12.73,1.35-16.96
			c0.1-4.07-0.85-7.63-0.85-7.63l1.98,2.38c1.4-3.85,3.71-6.36,5.9-9.21C161.45,82.42,157.5,78.56,155.37,77.56z"/>
		<path class="st1" d="M124.39,95.6c-0.08,0-0.14-0.06-0.15-0.13c-0.01-0.06-0.72-5.59,0.59-9.34c0.03-0.08,0.11-0.12,0.2-0.09
			c0.08,0.03,0.12,0.12,0.09,0.2c-1.29,3.68-0.58,9.14-0.57,9.19c0.01,0.08-0.05,0.16-0.13,0.17C124.4,95.6,124.4,95.6,124.39,95.6z
			"/>
		<path class="st3" d="M161.81,117.82c0,0-0.84,1.85-1.37,2.2c-0.53,0.35-2.4,1.26-3.69,1.29c-1.3,0.04-2.61-0.05-3.46-0.87
			c0,0-0.59-0.27-0.6,0.53c-0.01,0.8,0.77,1.7,1.34,1.82c0.57,0.11,2.14,0.17,2.31,0.4c0.16,0.23,0.29,1.47,0.45,2.95
			c0.16,1.48,0.53,3.6,0.77,3.77c0.94-0.16,4.08-2.7,4.39-3.01c0.31-0.31,1.3-1.36,1.6-2.04c0.31-0.68,2.34-3.27,2.58-4.41
			L161.81,117.82z"/>
		<path class="st9" d="M158.37,120.73c2.25,4.44,4.24,7.24,5.69,6.48c0,0,10.52-21.7,10.82-26.19c0.13-1.93-4.61-8.51-9.63-14.26
			c-2.19,2.85-4.5,5.36-5.9,9.21l6.05,7.24L158.37,120.73z"/>
	</g>
	<g>
		<g>
			<path class="st10" d="M126.14,37.88c-0.5-0.12-0.87-0.36-1.1-0.73c-0.14-0.22-0.19-0.43-0.15-0.65c0.04-0.22,0.19-0.46,0.45-0.73
				l1.34-1.42c0.86-0.9,1.4-1.78,1.62-2.65c0.22-0.86,0.08-1.71-0.45-2.55c-0.46-0.74-1.13-1.21-2-1.41
				c-0.87-0.2-1.87,0.05-2.99,0.76c-0.62,0.39-1.18,0.87-1.69,1.46c-0.5,0.59-0.85,1.15-1.02,1.69c-0.52-0.04-0.91-0.26-1.16-0.66
				c-0.15-0.23-0.18-0.51-0.12-0.83c0.07-0.32,0.23-0.67,0.49-1.05c0.26-0.38,0.6-0.76,1.02-1.16c0.42-0.39,0.93-0.77,1.51-1.14
				c0.76-0.47,1.52-0.8,2.29-0.98c0.77-0.18,1.5-0.22,2.19-0.13c0.69,0.09,1.33,0.33,1.91,0.71c0.58,0.38,1.07,0.88,1.47,1.52
				c0.82,1.31,1.09,2.62,0.79,3.91c-0.3,1.3-1.12,2.65-2.48,4.06L126.14,37.88z M128.14,41.64c-0.23-0.37-0.31-0.76-0.24-1.16
				c0.07-0.4,0.31-0.73,0.71-0.98c0.4-0.25,0.8-0.33,1.2-0.22c0.4,0.11,0.72,0.34,0.95,0.71c0.23,0.37,0.31,0.76,0.22,1.15
				c-0.08,0.4-0.33,0.72-0.73,0.97c-0.4,0.25-0.8,0.33-1.18,0.22C128.68,42.25,128.37,42.01,128.14,41.64z"/>
		</g>
		<g>
			<path class="st10" d="M137.78,33.97c-0.51-0.51-0.76-1.07-0.76-1.68c0-0.36,0.1-0.65,0.31-0.88c0.2-0.23,0.56-0.41,1.07-0.53
				l2.63-0.69c1.68-0.43,2.97-1.07,3.87-1.93c0.9-0.85,1.36-1.97,1.36-3.34c0-1.22-0.44-2.27-1.32-3.15
				c-0.88-0.88-2.25-1.32-4.1-1.32c-1.02,0-2.04,0.16-3.07,0.48c-1.03,0.32-1.85,0.73-2.46,1.24c-0.59-0.43-0.88-0.98-0.88-1.64
				c0-0.38,0.16-0.74,0.48-1.07c0.32-0.33,0.77-0.62,1.35-0.88c0.59-0.25,1.27-0.46,2.06-0.61c0.79-0.15,1.67-0.23,2.63-0.23
				c1.25,0,2.39,0.18,3.43,0.53c1.04,0.36,1.94,0.85,2.69,1.47c0.75,0.62,1.33,1.37,1.74,2.25c0.41,0.88,0.61,1.84,0.61,2.88
				c0,2.16-0.66,3.9-1.97,5.21c-1.31,1.31-3.29,2.3-5.94,2.96L137.78,33.97z M137.36,39.89c0-0.61,0.19-1.13,0.57-1.55
				c0.38-0.42,0.9-0.63,1.56-0.63c0.66,0,1.19,0.21,1.58,0.63c0.39,0.42,0.59,0.94,0.59,1.55c0,0.61-0.2,1.12-0.59,1.53
				c-0.39,0.41-0.92,0.61-1.58,0.61c-0.66,0-1.18-0.2-1.56-0.61C137.55,41.01,137.36,40.5,137.36,39.89z"/>
		</g>
		<g>
			<path class="st10" d="M148.79,40.01c0.16-0.27,0.39-0.46,0.67-0.54c0.28-0.09,0.58-0.04,0.87,0.14c0.3,0.18,0.48,0.41,0.54,0.71
				c0.06,0.29,0.01,0.58-0.15,0.85c-0.16,0.27-0.39,0.45-0.68,0.53c-0.29,0.08-0.58,0.03-0.88-0.15c-0.3-0.18-0.48-0.41-0.54-0.69
				C148.57,40.57,148.62,40.29,148.79,40.01z M150.56,37.47c-0.09-0.37-0.06-0.69,0.11-0.96c0.1-0.16,0.22-0.26,0.37-0.31
				c0.15-0.05,0.36-0.03,0.62,0.05l1.37,0.4c0.87,0.26,1.62,0.31,2.26,0.17c0.63-0.14,1.14-0.52,1.51-1.14
				c0.33-0.55,0.41-1.14,0.25-1.77c-0.16-0.63-0.66-1.19-1.49-1.69c-0.46-0.27-0.96-0.48-1.51-0.61c-0.55-0.13-1.03-0.17-1.44-0.1
				c-0.15-0.35-0.13-0.68,0.05-0.97c0.1-0.17,0.27-0.29,0.5-0.35c0.23-0.06,0.51-0.07,0.84-0.03c0.33,0.04,0.69,0.14,1.09,0.28
				c0.4,0.14,0.81,0.34,1.25,0.6c0.56,0.33,1.03,0.72,1.4,1.16c0.37,0.44,0.65,0.9,0.82,1.38c0.17,0.48,0.23,0.97,0.18,1.48
				c-0.05,0.5-0.22,0.99-0.5,1.46c-0.58,0.97-1.34,1.58-2.28,1.82c-0.94,0.24-2.1,0.15-3.46-0.26L150.56,37.47z"/>
		</g>
	</g>
</g>
</svg>
