<?xml version="1.0" encoding="utf-8"?>
<!-- Generator: Adobe Illustrator 27.7.0, SVG Export Plug-In . SVG Version: 6.00 Build 0)  -->
<svg version="1.1" id="레이어_1" xmlns="http://www.w3.org/2000/svg" xmlns:xlink="http://www.w3.org/1999/xlink" x="0px"
	 y="0px" viewBox="0 0 272 258" style="enable-background:new 0 0 272 258;" xml:space="preserve">
<style type="text/css">
	.st0{fill:#2B2730;}
	.st1{enable-background:new    ;}
	.st2{fill:#383340;}
	.st3{fill:#2B2E31;}
	.st4{fill:#F2F2F2;}
	.st5{fill:#D3CFC7;}
	.st6{fill:#F5B91B;}
	.st7{fill:#EA5B5A;}
	.st8{fill:#FAD3BD;}
	.st9{fill:#F8FAFD;}
	.st10{fill:#4E4D4D;}
	.st11{fill:#211F26;}
	.st12{fill:#AB7D6B;}
	.st13{opacity:0.2;fill:#AB7D6B;}
	.st14{fill:#1D0D08;}
	.st15{fill:#250906;}
	.st16{fill:#137AAB;}
	.st17{opacity:0.2;fill:#2663AF;}
	.st18{fill:#1B8FCD;}
	.st19{fill:#1E4B68;}
	.st20{fill:#F0BFA4;}
	.st21{opacity:0.4;fill:#F0BFA4;}
	.st22{fill:#5C5469;}
	.st23{fill:#3C3E52;}
	.st24{fill:#094388;}
	.st25{fill:#299CD3;}
	.st26{fill:#FBDDCC;}
</style>
<g>
	<defs>
		<path id="SVGID_1_" d="M252.02,258H19.98C8.95,258,0,249.05,0,238.02V19.98C0,8.95,8.95,0,19.98,0h232.04
			C263.05,0,272,8.95,272,19.98v218.04C272,249.05,263.05,258,252.02,258z"/>
	</defs>
	<use xlink:href="#SVGID_1_"  style="overflow:visible;fill:#D2CBE0;"/>
	<clipPath id="SVGID_00000116233782892649391340000006574881403490703010_">
		<use xlink:href="#SVGID_1_"  style="overflow:visible;"/>
	</clipPath>
</g>
<g>
	<g>
		<g>
			<g>
				<g>
					<g>
						<polygon class="st0" points="182.83,198.34 182.81,204.05 176.85,200.64 176.87,194.92 						"/>
					</g>
				</g>
				<g class="st1">
					<g>
						<polygon class="st0" points="170.95,198.34 170.93,200.04 154.4,190.58 154.42,188.87 						"/>
					</g>
					<g>
						<polygon class="st0" points="193.45,211.21 193.43,212.91 170.93,200.04 170.95,198.34 						"/>
					</g>
					<g>
						<polygon class="st2" points="199.37,207.8 193.45,211.21 176.91,201.74 170.95,198.34 154.42,188.87 160.34,185.46 
							176.87,194.92 182.83,198.34 						"/>
					</g>
					<g>
						<polygon class="st3" points="199.37,207.8 199.36,209.51 193.43,212.91 193.45,211.21 						"/>
					</g>
				</g>
			</g>
			<g>
				<g class="st1">
					<g>
						<polygon class="st0" points="176.89,115.81 176.82,201.56 181.17,199.06 181.22,115.81 						"/>
					</g>
					<g>
						<polygon class="st0" points="173.17,115.81 173.11,199.44 176.82,201.56 176.89,115.81 						"/>
					</g>
				</g>
			</g>
		</g>
		<g>
			<g>
				<polygon class="st4" points="144.21,6.69 144.21,122.59 217.94,165.83 217.94,49.93 				"/>
			</g>
			<g>
				<g class="st1">
					<g>
						<polygon class="st4" points="141.71,7.28 145.62,5 145.47,121.94 141.56,124.22 						"/>
					</g>
					<g>
						<polygon class="st4" points="141.56,124.22 145.47,121.94 219.34,164.59 215.42,166.86 						"/>
					</g>
					<g>
						<polygon class="st5" points="217.94,48.57 221.86,46.29 221.7,168.68 217.78,170.95 						"/>
					</g>
					<g>
						<polygon class="st5" points="139.35,3.19 143.27,0.92 221.86,46.29 217.94,48.57 						"/>
					</g>
					<g>
						<path class="st4" d="M139.35,3.19l78.6,45.38l-0.16,122.38l-78.6-45.38L139.35,3.19z M215.42,166.86l0.15-116.94L141.71,7.28
							l-0.15,116.94L215.42,166.86L215.42,166.86z"/>
					</g>
				</g>
			</g>
		</g>
	</g>
	<g>
		<polygon class="st6" points="179.87,62.04 172.09,57.55 172.09,48.57 179.87,53.06 		"/>
		<polygon class="st6" points="152.19,71.34 144.41,66.85 144.41,57.88 152.19,62.37 		"/>
		<polygon class="st6" points="159.96,43.08 152.19,38.59 152.19,29.61 159.97,34.1 		"/>
		<polygon class="st6" points="172.07,90.71 164.3,86.23 164.3,77.25 172.07,81.74 		"/>
		<polygon class="st6" points="151.57,106.54 143.79,102.05 143.79,93.08 151.57,97.57 		"/>
		<polygon class="st6" points="189.62,110.17 181.84,105.68 181.84,96.7 189.62,101.19 		"/>
		<polygon class="st6" points="204.9,135.61 197.13,131.13 197.13,122.15 204.9,126.64 		"/>
		<polygon class="st6" points="195.62,84.59 187.85,80.1 187.85,71.12 195.62,75.61 		"/>
		<polygon class="st6" points="213.43,63.51 205.65,59.02 205.65,50.04 213.43,54.53 		"/>
	</g>
	<path class="st7" d="M156.32,43.44c-1.12,0.49-2.24,0.97-3.36,1.45c-0.99,0.43-2.03,0.79-2.77,1.6c-0.12,0.14-0.03,0.34,0.14,0.35
		c0.88,0.07,1.7-0.21,2.51-0.51c-0.91,1.2-1.61,2.66-2.05,3.57c-1.28,2.71-1.96,5.79-1.19,8.73c0.05,0.19,0.34,0.19,0.39,0
		c0.98-3.77,1.87-8.87,4.9-11.73c-0.07,0.42-0.08,0.84-0.02,1.26c0.1,0.65,1.16,0.77,1.44,0.19c0.58-1.24,0.63-2.72,1.13-4.03
		C157.72,43.6,156.86,43.2,156.32,43.44z"/>
	<path class="st7" d="M170.39,74.06c-0.41,0.42-0.74,0.91-1.07,1.39c-0.17-3.73-1.96-7.54-4.91-9.77c-2.99-2.26-7.89-2.96-10.8-0.2
		c-0.27,0.26,0.01,0.73,0.37,0.63c3.5-1,6.91-1.46,9.89,1.1c2.71,2.33,3.39,5.47,3.62,8.79c-0.58-0.37-1.2-0.66-1.82-0.94
		c-0.16-0.07-0.41,0.1-0.28,0.28c0.6,0.82,1.23,1.55,1.99,2.24c0.38,0.35,0.85,0.95,1.43,0.91c0.6-0.04,0.96-0.67,1.27-1.1
		c0.56-0.76,1.03-1.6,1.5-2.42C172,74.24,170.99,73.44,170.39,74.06z"/>
	<path class="st7" d="M194.6,67.96c-0.46,0.35-0.92,0.71-1.32,1.13c-0.27,0.28-0.51,0.58-0.75,0.89c-0.02,0.03-0.05,0.06-0.07,0.09
		c0.13-8.17-0.18-16.96-5.87-23.4c-2.54-2.88-5.78-5.53-9.29-7.14c-3.76-1.72-7.78-1.82-11.84-1.78c-0.65,0.01-0.65,1.01,0,1.01
		c4.05,0,8.07,0.12,11.77,1.98c3.21,1.62,6.15,4.09,8.49,6.8c5.2,6.01,5.46,14.16,5.29,21.73c-0.5-0.52-1.01-0.97-1.6-1.42
		c-0.22-0.18-0.52,0.04-0.39,0.3c0.48,1.02,1.04,1.94,1.72,2.85c0.34,0.45,0.66,1.07,1.26,1.16c0.57,0.08,0.89-0.27,1.23-0.66
		c0.72-0.84,1.45-1.64,2.27-2.38C196.11,68.57,195.27,67.44,194.6,67.96z"/>
	<path class="st7" d="M189.83,95.37c-0.65,0-1.17,0.24-1.75,0.5c-0.09,0.04-0.82,0.44-1.35,0.74c2.7-5.04,1.94-10.87-1.68-15.32
		c-2.27-2.81-5.15-5.07-7.28-7.99c-1.09-1.5-2.01-3.14-2.51-4.94c-0.51-1.84-1.1-5.56,0.92-6.73c0.25-0.14,0.03-0.51-0.22-0.38
		c-2.49,1.33-1.85,5.65-1.14,7.82c1.11,3.41,3.52,6.12,5.97,8.65c2.76,2.85,5.76,5.77,6.56,9.83c0.37,1.89,0.29,3.94-0.3,5.77
		c-0.21,0.65-0.49,1.28-0.81,1.89c-0.12-1.04-0.3-2.06-1.02-2.95c-0.12-0.15-0.38-0.06-0.42,0.11c-0.27,1.07-0.1,2.2,0.02,3.28
		c0.09,0.74-0.09,2.11,0.59,2.61c0.66,0.49,1.44-0.05,2.04-0.37c0.96-0.51,2.1-0.99,2.73-1.91
		C190.36,95.72,190.12,95.37,189.83,95.37z"/>
	<path class="st7" d="M211.68,65.35c-0.11-0.61-0.51-1.05-0.82-1.58c-0.34-0.58-0.64-1.18-0.92-1.79c-0.17-0.37-0.69-0.37-0.95-0.12
		c-0.58,0.55-1.18,1.08-1.82,1.58c-0.51,0.4-1.05,0.73-1.39,1.3c-0.16,0.27,0.11,0.52,0.37,0.48c0.86-0.12,1.73-0.76,2.5-1.43
		c-0.2,2.75-1.05,5.38-2.5,7.77c-1.67,2.73-4.95,6.48-8.45,6.22c-0.4-0.03-0.5,0.63-0.1,0.71c3.64,0.74,6.94-2.55,8.93-5.23
		c1.85-2.5,2.97-5.46,3.33-8.52c0.29,0.5,0.64,0.93,1.09,1.19C211.35,66.16,211.75,65.76,211.68,65.35z"/>
	<path class="st7" d="M180.74,100.71c-0.4-0.46-1.22-0.38-1.77-0.47c-0.94-0.15-1.87-0.35-2.78-0.6c-0.75-0.2-1.04,0.91-0.32,1.15
		c0.7,0.23,1.41,0.45,2.12,0.62c0.04,0.01,0.07,0.02,0.11,0.03c-3.57,1.73-7.53,2.49-11.51,2.39c-2.23-0.06-4.45-0.39-6.63-0.87
		c-1.98-0.44-3.85-1.12-5.9-0.85c-0.28,0.04-0.39,0.44-0.07,0.52c4.5,1.22,8.82,2.68,13.54,2.72c3.75,0.03,7.41-0.7,10.77-2.29
		c-0.12,0.22-0.2,0.45-0.25,0.71c-0.07,0.44,0.41,1.03,0.88,0.67c0.67-0.51,1.02-1.3,1.45-2.02
		C180.68,101.94,181.23,101.28,180.74,100.71z"/>
	<path class="st7" d="M163.63,81.53c-3.74-1.48-8.01-1.22-11.25,1.21c-2.64,1.98-5.26,4.44-6.28,7.64
		c-0.11-0.26-0.22-0.52-0.32-0.79c-0.24-0.62-0.36-1.22-0.78-1.75c-0.15-0.19-0.47-0.07-0.53,0.14c-0.24,0.83,0.07,1.73,0.33,2.53
		c0.2,0.62,0.48,1.72,1.04,2.11c0.57,0.41,1.08-0.06,1.58-0.36c0.71-0.44,1.95-0.68,2.3-1.49c0.08-0.19,0.07-0.43-0.14-0.54
		c-0.51-0.27-0.93-0.15-1.44,0.08c-0.23,0.1-0.46,0.22-0.68,0.34c0.98-2.78,3.29-4.86,5.56-6.69c1.59-1.28,3.24-2.05,5.3-2.16
		c1.76-0.09,3.49,0.31,5.24,0.3C163.91,82.12,163.93,81.65,163.63,81.53z"/>
	<g>
		<path class="st7" d="M201.98,87.86h0.13l-2.49-2.92c-0.37-0.43-1.02-0.48-1.45-0.11c-0.43,0.37-0.48,1.02-0.11,1.45l3.68,4.31
			c0.07,0.08,0.15,0.15,0.24,0.2V87.86z"/>
	</g>
	<g>
		<g>
			<g>
				<g>
					<path class="st8" d="M150.88,173.94l3.01,1.77c-0.15,2-0.3,4.01-0.23,6.02c0.05,1.64,0.24,3.28,0.15,4.93
						c-0.09,1.64,1.16,2.2,0.16,3.51c-1.91-1.5-2.73-3.38-3.63-5.51c-0.68-1.61-1.51-3.24-1.53-4.99
						C148.77,177.61,149.84,175.72,150.88,173.94z"/>
					<path class="st2" d="M154.11,173.44c-0.17,1.08-0.81,5.09-1.48,5.95c-0.67,0.86-3.33,0.79-4.31,0.32
						c-0.76-0.37-1.94-48.31-0.47-53.22c0.62-2.04,1.56-4.04,3-5.63c0.71-0.79,1.41-1.4,2.36-1.87c1.12-0.51,2.28-0.9,3.49-1.19
						c-0.3,0.08-0.74,0.71-0.89,0.93c-0.26,0.32-0.4,0.61-0.38,1.02c-0.02,0.69-0.24,1.4-0.2,2.1c0.05,0.87,0.3,1.79,0.42,2.64
						c0.04,7.98-0.05,16-0.22,23.98c-0.05,2.12-0.11,4.24-0.19,6.35c-0.02,0.69-0.05,1.4-0.2,2.1c0.47,1.24,0.47,2.67,0.37,4.04
						C155.17,165.13,154.82,169.31,154.11,173.44z"/>
				</g>
				<g>
					<g>
						<path class="st8" d="M173.43,114.45l-0.01,0.58l-0.09,5.17c0,0-0.44,0.7-1.23,1.42c-0.01,0-0.01-0.01-0.02-0.01
							c-0.13-0.01-0.26-0.03-0.39-0.04c-3.77-0.4-8.45-1.21-8.44-3.98c0-0.02-0.06-0.07-0.08-0.09l0.2-3.93l0.46,0.04l6.78,0.59
							L173.43,114.45z"/>
						<path class="st9" d="M162.01,116.91c-0.57,0.56-0.32,5.77-0.25,6.56c0.19,2.14,0.54-0.88,2.52-0.06
							c1.98,0.82,4.23,0.77,6.33,0.34c1.18-0.24,1.71-0.37,2.54-1.24c0.83-0.87,0.84-4.4,0.1-4.46c-0.74-0.06-2.46,0.05-3.2,0.09
							c-1.76,0.1-3.53-0.2-5.17-0.86C163.72,116.8,163.27,115.67,162.01,116.91z"/>
						<path class="st10" d="M152.81,240.47c0,0-0.66,5.59,1.25,7.19c0.54,0.45,2.49,0.28,4.65-0.63c1.42-0.6,2.86-1.82,4.28-2.29
							c4.18-1.38,4.98-3.55,6.36-6.37c2.95-6-3.66-3.22-7.89-0.75C157.04,240.21,152.81,240.47,152.81,240.47z"/>
						<path class="st11" d="M167.84,199.66c-0.37,3.18-1.02,6.34-1.53,9.5c-0.31,1.82-0.2,3.2-0.53,5.02
							c-0.63,3.63-0.47,20.59-0.47,26.39c0,1.18-12.66,4.95-13.01,3.22c-0.35-1.67-1.17-15.63-0.56-20.67
							c0.46-3.83,1.43-40.2,1.19-42.6c-0.39-3.88-0.03-10.41,3.25-12.46c4.97-3.07,11.21,3.76,12.57,6.75
							C170.71,179.07,169.45,185.3,167.84,199.66z"/>
						<g>
							<path class="st10" d="M168.41,248.09c0,0-2.05,5.2-0.62,7.28c0.4,0.58,2.33,0.97,4.64,0.71c1.52-0.17,3.22-0.94,4.7-1
								c4.37-0.15,5.69-2.01,7.74-4.34c4.36-4.95-2.71-4.14-7.41-2.95C172.55,249.03,168.41,248.09,168.41,248.09z"/>
						</g>
						<path class="st0" d="M182.92,199.78c0,0.01,0,0.01,0,0.02c-3.95,31.61-2.52,27.38-2.62,49.86c-0.01,1.83-0.46,1.49-6.08,2.35
							c-1.2,0.18-2.42,0.37-3.63,0.22c-3.64-0.45-4.17-3.17-4.26-6.13c0-3.21-0.96-40.12,7.46-40.17
							C175.21,205.92,181.83,200.67,182.92,199.78z"/>
						<path class="st0" d="M183.78,178.43c-0.35,8.05-0.39,15.77-0.86,21.35c0,0.01-0.01,0.01-0.01,0.02
							c-0.59,7-1.51,7.25-3.32,11.4c-1.27,2.91-1.11,5.05-2.75,6.49c-1.26,1.11-3.2,1.08-4.62,0.22c-1.42-0.86-3.32,6.01-3.85,4.37
							c-0.42-1.34-0.67-7.44-0.73-8.86c-0.66-13.9-6.6-23.07-5.31-34.44C162.39,178.38,183.78,178.43,183.78,178.43z"/>
						<g>
							<path class="st0" d="M187.16,129.42c0,0-0.34,2.17-0.79,5.28c-0.03,0.19-0.05,0.38-0.08,0.58c-0.66,4.6-1.53,10.98-1.94,15.6
								c-0.14,1.52-0.22,2.86-0.24,3.87c-0.07,5,0.69,18.85,0.94,23.23c0.05,0.86-0.37,1.68-1.1,2.13
								c-0.76,0.47-1.49,0.85-2.22,1.17c-1.25,0.54-2.5,0.89-3.89,1.14c-0.97,0.17-2.01,0.29-3.16,0.38c-4.35,0.34-9,0.21-13.3-0.55
								c-3.2-0.57-6.17-1.69-8.6-3.64c-0.56-0.45-0.91-1.13-0.91-1.86v-0.01c-0.11-4.73,2.39-17.8,2.4-22.89
								c0.02-8.73-3.13-23.39-2.92-28.26c0.19-4.09,1.66-9.05,10.53-7.91l11.7,2.67C176.02,121.69,186.19,123.51,187.16,129.42z"/>
						</g>
						<g>
							<path class="st11" d="M156.68,145.42c-1.3-8.26-7.05-22.17,1.19-27.83c-5.32,0.66-6.35,4.61-6.51,7.98
								c-0.22,4.87,2.94,19.53,2.92,28.26c-0.01,5.09-2.51,18.16-2.4,22.89v0.01c0.01,0.73,0.35,1.41,0.91,1.86
								c0.68,0.54,1.4,1.01,2.15,1.44c-0.05-0.32-0.09-0.65-0.13-0.98C153.41,167.84,158.54,157.09,156.68,145.42z"/>
						</g>
						<path class="st8" d="M176.9,111.02c-0.68,1.67-1.92,3.18-3.48,4.01c-0.58,0.31-1.2,0.52-1.85,0.62
							c-0.12,0.02-0.24,0.03-0.36,0.04c-0.61,0.05-1.26-0.01-1.8-0.29c-1.08-0.56-5.01,0.14-5.41-1.01
							c-0.09-0.25-0.15-0.51-0.19-0.79c-0.44-2.99,1.62-7.45,2.1-10.26c0.45-2.64,2.04-5,4.05-6.78c1.7-1.5,3.71-2.64,5.87-3.32
							l1.09,1.31l0.89,1.07c-0.43,2.55-0.16,5.16-0.02,7.74C177.91,105.97,177.88,108.63,176.9,111.02z"/>
						<path class="st8" d="M177.77,103.39c-0.13-2.58-0.41-5.19,0.02-7.74l-0.89-1.07l-0.34,1.67c0.95,4.04,0.97,8.29,0.04,12.33
							c-0.35,1.54-0.87,3.11-1.95,4.27c-1.08,1.16-2.84,1.81-4.3,1.19c0.08,0.05,0.17,0.11,0.24,0.17c0.46,0.37,0.78,0.88,0.98,1.45
							c0.17,0.47,0.26,0.97,0.28,1.47c0.01,0.31,0.01,0.62-0.01,0.94c0.44-0.08,0.89-0.08,1.33,0c0.07,0.01,0.13,0.03,0.19,0.04
							l0.06-3.07c1.56-0.84,2.8-2.35,3.48-4.01C177.88,108.63,177.91,105.97,177.77,103.39z"/>
						<path class="st12" d="M179.24,95.02c-0.21,1.57-1.55,1.46-2.37,2.8c-0.95,1.55-1,2.93-1.95,4.48
							c-0.35,0.57-1.74,5.89-3.34,4.96c-2.35-1.36,0.33,4.97-3.98,7.24c-0.75,0.39-2.77,0.06-3.6-0.1
							c-0.48-0.09-0.85-0.47-1.18-0.84c-0.02-0.02-0.04-0.05-0.07-0.07c-1.22-1.31-5.69-5.55-6.66-7.69
							c-0.85-1.87-1.04-4.25-1.01-6.34c0.03-1.94,1.21-3.71,2.27-5.27c1.07-1.59,2.45-2.91,4.14-3.82
							c2.87-1.54,6.76-1.84,10.09-1.39c0.45,0.06,0.88,0.13,1.3,0.21c0.75,0.15,1.5,0.36,2.25,0.58c0.31,0.16,0.63,0.33,0.95,0.51
							c3.17,1.76,3.13,3.58,3.15,3.71C179.24,93.99,179.28,94.75,179.24,95.02z"/>
						<path class="st8" d="M171.38,106.97c0.94,1.22,0.98,2.77,0.08,3.46c-0.9,0.7-2.39,0.28-3.34-0.94
							c-0.94-1.22-0.98-2.77-0.08-3.46C168.94,105.33,170.43,105.75,171.38,106.97z"/>
						<path class="st0" d="M172.52,119.13c0.71,0.16,1.41,0.36,2.09,0.63c0.45,0.18,0.95,0.89,0.96,1.37
							c-2.74,0.59-7.79-0.51-10.56-0.98c-2.38-0.4-4.69-1.91-5.05-2.51c-0.94-1.57,4.83,0.13,5.43,0.3
							C167.71,118.58,170.18,118.62,172.52,119.13L172.52,119.13z"/>
					</g>
					<path class="st13" d="M156.76,100.39c-0.35,4.22,1.54,8.52,4.73,11.32c0.49,0.43,1.03,0.86,1.22,1.49
						c0.03,0.1,0.04,0.2,0.04,0.3c-1.22-1.31-5.69-5.55-6.66-7.69c-0.85-1.87-1.04-4.25-1.01-6.34c0.03-1.94,1.21-3.71,2.27-5.27
						c1.07-1.59,2.45-2.91,4.14-3.82c2.87-1.54,6.76-1.84,10.09-1.39c-2.72,0.2-5.46,0.38-7.9,1.45
						C159.8,92.15,157.12,96.16,156.76,100.39z"/>
				</g>
			</g>
		</g>
	</g>
	<g>
		<path class="st2" d="M206.11,91.32h0.25l-4.67-5.46c-0.69-0.81-1.91-0.91-2.72-0.21c-0.81,0.69-0.9,1.91-0.21,2.72l6.9,8.07
			c0.13,0.16,0.29,0.28,0.45,0.38V91.32z"/>
	</g>
	<path class="st8" d="M203.23,98.27c-0.64-0.61-0.67-1.7-0.95-2.5c-0.73-2.05-3.01-4.42-2.67-5.28c0.4-1.01,3.99,2.82,4.08,1.97
		c0.52-4.84-1.66-6.21-1.66-6.22c0-0.3,0.69-0.45,1.07-0.53c2.17-0.46,3.83,1.46,4.91,2.85c0.98,1.27,0.85,4.34,0.83,5.08
		c-0.03,1.2-0.61,2.27-0.88,3.42c-0.22,0.92-0.18,1.92-0.27,2.87c0.01-0.16-3.91-1.27-4.26-1.51
		C203.35,98.38,203.29,98.32,203.23,98.27z"/>
	<path class="st2" d="M209.35,95.46c-0.47-0.65-7.42,1.91-7.58,1.83c-0.22-0.1-2.69,17.27-2.61,20.17
		c0.03,0.97-19.39,4.39-21.27,7.34c-1.46,2.27-2.26,10.53,4.9,12.51c2.77,0.77,26.44-13.45,26.52-13.68
		c3.72-2.33,2.66-7.65,2.68-8.46C212.05,102.96,209.65,95.89,209.35,95.46z"/>
	<g>
		<path class="st14" d="M75.35,83.63c0.73-1.45,1.25-3.01,1.55-4.6c0.72-3.84,0.22-8.11,2.42-11.34c1.24-1.82,3.18-3,5.22-3.72
			c0.58-0.21,1.18-0.41,1.8-0.58c0.59-0.22,1.2-0.37,1.83-0.42l-0.03,0.08c1.01-0.09,2.02,0.02,2.96,0.5
			c2.99,1.52,1,16.11,0.69,18.41c-0.95,7.12-2.13,5.99,0.39,13c0.92,2.56-0.09,6.37-1.76,8.75c-0.28,0.4-0.69,0.81-1.36,0.94
			c-0.58,0.12-1.22,0.01-1.81-0.11c-1.35-0.26-2.7-0.52-4.05-0.78c-0.84,0.94-2.16,1.35-3.42,1.62c-1.15,0.24-2.5,0.35-3.33-0.48
			c-0.88-0.89-0.68-2.32-0.62-3.57c0.07-1.7-0.26-3.42-0.95-4.98c-0.78-1.75-2.04-3.34-2.25-5.24
			C72.32,88.43,74.14,86.05,75.35,83.63z"/>
		<path class="st15" d="M86.44,84.34c-0.22,0.03-0.43,0.07-0.64,0.13c2.94,2.7,5.4,3.98,8.67,2.43
			C92.45,84.83,89.04,84.08,86.44,84.34z"/>
		<g>
			<g>
				<g>
					<path class="st8" d="M147.21,105.48c-1.09,0.09-2.17,0.21-3.29,0.3c1.31-0.15,2.58-0.41,3.85-0.73
						c0.28-0.08,0.83-0.22,0.81-0.6c-0.06-0.79-3.34-0.31-3.97-0.25c-0.56,0.06-1.1,0.14-1.64,0.19c1.09-0.35,2.44-0.84,2.13-2.2
						c0-0.11-0.06-0.23-0.15-0.27c-0.43-0.15-1.56,0.57-1.92,0.74c-1.26,0.57-2.67,0.73-3.91,1.32c-0.19,0.1-1.21,0.78-1.45,0.97
						c-0.03,0.04-0.73,0.29-1.36,0.33l0.19,0.58l-1.93,0.64c-0.01,1.27,0.11,2.54,0.38,3.75l1.58,0.39
						c0.78,0.07,1.53,0.08,2.08,0.07c0.81-0.04,1.46-0.05,2.29-0.04c0.67,0.04,1.74-0.07,2.4-0.17c1.59-0.31,2.53-0.49,4.13-0.78
						c0.26-0.03,0.54-0.11,0.72-0.32c0.15-0.17,0.11-0.27-0.09-0.35c-0.02-0.02-0.04,0-0.04,0c-0.65-0.32-2.76-0.29-3.56-0.51
						c1.41,0,2.67-0.09,4.05-0.32c0.33-0.07,0.97-0.26,0.79-0.76c-0.13-0.42-0.73-0.46-1.04-0.44c-0.69-0.02-1.36-0.02-2.02-0.02
						c1.07-0.03,2.1-0.14,3.11-0.4c0.23-0.06,0.39-0.25,0.38-0.46C149.71,105.36,147.72,105.43,147.21,105.48z"/>
				</g>
			</g>
			<path class="st16" d="M138.08,111.54c0,0-10.09,1.72-14.51,3.07c-3.6,1.09-7.94-0.29-10.88-2.33c-1.94-1.35-3.5-3.08-5-4.87
				c-0.66-0.89-1.3-1.79-1.92-2.66c-0.01,0-0.01-0.01-0.01-0.01c-2.74-3.88-4.96-7.31-5.54-8.36c-1.3-2.34-1.56-1.87,1.54-4.45
				c0.38-0.32,1.4-0.56,2.61-0.49c0.4,0.03,0.83,0.08,1.25,0.18c1.1,0.26,2.22,0.8,3.08,1.77c4.82,5.4,6.55,7.8,9.61,10.83
				c0.38,0.38,0.79,0.77,1.22,1.18l1.24-0.07l15.87-0.87l1.08,5.3L138.08,111.54z"/>
			<path class="st17" d="M138.08,111.54c0,0-10.09,1.72-14.51,3.07c-3.6,1.09-7.94-0.29-10.88-2.33c-1.94-1.35-3.5-3.08-5-4.87
				c-0.66-0.89-1.3-1.79-1.92-2.66c-0.01,0-0.01-0.01-0.01-0.01l-1.4-13.3l-0.09-0.8c0.56,0.14,1,0.51,1.34,0.98
				c0.37,0.5,0.63,1.12,0.85,1.7c1.57,4.13,3.14,8.26,4.72,12.39c0.64,1.68,1.32,3.43,2.68,4.6c0.69,0.6,1.53,1.01,2.37,1.38
				c1.85,0.83,3.82,1.5,5.85,1.53c1.49,0.02,2.96-0.32,4.42-0.66c3.34-0.8,6.67-1.63,9.98-2.51c0.41-0.11,0.82-0.22,1.24-0.3
				L138.08,111.54z"/>
			<path class="st17" d="M120.78,105.33c-0.37,1.59-0.99,3.12-1.82,4.52c-0.11,0.18-0.23,0.36-0.42,0.46
				c-0.19,0.1-0.45,0.06-0.55-0.12c-0.04-0.09-0.04-0.2-0.04-0.3c0.11-1.89,0.62-3.83,0.36-5.67c0.38,0.38,0.79,0.77,1.22,1.18
				L120.78,105.33z"/>
		</g>
		<g>
			<g>
				<path class="st18" d="M102.6,90.44c2.44-0.23,4.63,1.58,4.86,4.03c0,0,0.26,3.67,0.47,8.58c-2.91,0.64-5.81,1-8.72,1.17
					l-0.64-8.91C98.35,92.86,100.16,90.67,102.6,90.44z"/>
			</g>
			<g>
				<g>
					<path class="st19" d="M74.3,207.02c-0.02,0.38,0.04,0.73,0.09,1.09c0.94-0.28,2.17-0.72,4.75-1.51l0.35-2.76
						c-2.08,1.05-3.48,1.83-5.08,2.5C74.36,206.56,74.31,206.78,74.3,207.02z"/>
					<path class="st20" d="M109.67,155.52c-0.02-0.37-0.04-0.7-0.05-0.96c-0.08-1.66-1.75-5.33-2.15-8.61l0-0.08
						c-0.04-0.41-0.11-0.85-0.17-1.26c-0.03-0.41-0.1-0.85-0.16-1.26c-5.83,2.21-9.03,7.25-10.83,13.26
						c0.05,0.2,0.09,0.41,0.13,0.61c0.15,0.72,0.24,1.44,0.3,2.19c0.76,4.13,0.04,4.85,0.58,7.65c0.17,0.92,0.67,4.02,1.08,6.97
						c0.25,1.79,0.47,3.53,0.55,4.68c0.04,0.51,0.05,0.91,0.03,1.15c-0.86,1-3.36,2.28-4.13,3.08c-4.91,5.25-8.66,13.66-11.4,18.22
						c-0.61,1.02-1.05,2.17-1.74,2.47c-1.76,0.74-1.55,1.18-2.27,1.48c-0.02,2.94,0,5.89,0.73,8.76c0,0.02,0.01,0.03,0.01,0.05
						c0.32,1.24,0.65,3,1.23,4.58c0.44-0.8,1.11-1.55,1.6-2.27c0.35-0.51,0.75-1,1.07-1.52c0.08-0.48,0.5-1.36,0.71-1.9
						c0.26-1.24,0.48-1.91,0.84-2.81c1.46-3.6,3.37-7.3,6.29-9.86c4.5-4,11.49-11.31,15.58-15.99c1.48-1.7,2.34-3.92,2.59-6.16
						C110.79,171.43,109.92,159.91,109.67,155.52z"/>
					<path class="st21" d="M79.44,205.12c0.72-0.3,0.52-0.74,2.27-1.48c0.7-0.3,1.13-1.45,1.74-2.47c2.74-4.56,6.5-12.97,11.4-18.22
						c0.77-0.81,3.27-2.08,4.13-3.08c0.02-0.24,0.01-0.63-0.03-1.15c-0.09-1.15-0.3-2.89-0.55-4.68c-0.41-2.95-0.91-6.05-1.08-6.97
						c-0.54-2.81,0.19-3.53-0.58-7.65c-0.05-0.74-0.15-1.47-0.3-2.19c-0.04-0.21-0.09-0.41-0.13-0.61
						c1.8-6.01,4.99-11.05,10.83-13.26c0.06,0.41,0.12,0.85,0.16,1.26c0.07,0.41,0.13,0.85,0.17,1.26l0,0.08
						c0.4,3.27,2.07,6.95,2.15,8.61c0.01,0.26,0.03,0.59,0.05,0.96c0.24,4.39,1.11,15.91,0.41,22.47c-0.12,1.13-0.4,2.26-0.84,3.31
						c-2.87,1.22-6.21,1.25-8.57,2.83c-4.23,2.61-4.54,7.08-4.16,11.66c-1.66,1.64-3.23,3.14-4.59,4.34
						c-2.91,2.55-4.83,6.26-6.29,9.86c-0.09,0.23-0.18,0.45-0.25,0.66c-1.17-1.71-0.82-6.09-2.72-4.82
						c-1.78,1.16-2.69,2.67-3.08,4.37C79.44,208.52,79.43,206.82,79.44,205.12z"/>
					<g>
						<g>
							<g>
								<path class="st19" d="M83.46,217c0.58-1.55,0.91-3.01,1.34-4.22c-0.03-0.01-0.83,1.87-1.12,2.26c-0.75,1-2.1,0.87-2.92-0.19
									c-2.03-2.62-1.99-10.16,0.95-11.22c-0.3-0.13-1.84-0.12-2.64,0.44c-2.74,1.9-1.11,3.17-1.11,4.22
									c0,1.36-1.61,2.98-2.05,4.36c-1.19,3.75,1.79,8.14,5.46,9.56c0.38,0.12,0.75,0.15,1.1,0.13
									C83.69,221,82.72,218.98,83.46,217z"/>
							</g>
						</g>
					</g>
					<path class="st8" d="M96.96,221.22c-0.88-1.5-1.8-3.91-1.85-3.99c-0.57-8.89,0-17.1,0.89-27.28c0.17-1.73,1.11-3.3,1.34-5
						c0.21-1.49,0.15-3.01,0.09-4.53c-0.11-3.2-0.36-9.64-0.49-12.84c-0.01-0.27-0.02-0.54-0.03-0.8l-15.4-0.84
						c0.05,0.13,0.09,0.26,0.14,0.39c0.72,2.07,1.48,4.17,2.19,6.23c1.19,3.47,2.25,6.81,2.8,9.67c-2.27,5.19-3.05,13.42-2.51,19.04
						c0.44,4.73,2.91,9.69,4.64,14.51c0.3,1.71-0.26,2.76-0.57,3.92c0.2,3.1,3.85,6.41,5.16,7.14c0.56,0.31,1.35,0.61,2.19,0.79
						c1.33,0.29,2.8,0.27,3.7-0.44c0.08-0.06-1.23-3.65-1.17-3.71L96.96,221.22z"/>
					<path class="st20" d="M96.91,166.76c0.01,0.27,0.02,0.54,0.03,0.8c0.13,3.2,0.38,9.64,0.49,12.84c0.04,1.01,0.08,2.01,0.04,3
						c-4.16-0.03-9.38,0.17-10.27,4.68c-2.8,11.36,1.85,21.28,3.31,32.27c0.37,3.19,3.21,5.31,6.05,5.65
						c0.81,0.16,1.61,0.24,2.42,0.26c0.17,0.5,0.28,0.88,0.26,0.9c-0.9,0.72-2.37,0.73-3.7,0.44c-0.84-0.18-1.62-0.47-2.19-0.79
						c-1.3-0.72-4.95-4.03-5.16-7.14c0.31-1.16,0.87-2.21,0.57-3.92c-1.73-4.83-4.2-9.78-4.64-14.51
						c-0.54-5.62,0.24-13.85,2.51-19.04c-0.55-2.86-1.61-6.2-2.8-9.67c-0.71-2.06-1.47-4.16-2.19-6.23
						c-0.05-0.13-0.09-0.26-0.14-0.39L96.91,166.76z"/>
					<g>
						<path class="st19" d="M88.24,227.77c0.35,0.14,0.7,0.2,1.06,0.27c0.05-0.98,0.04-2.29,0.16-4.98l-2.48-1.25
							c0.3,2.31,0.57,3.89,0.67,5.62C87.83,227.56,88.02,227.68,88.24,227.77z"/>
						<path class="st19" d="M97.28,221.86c-0.02,0.02,0.88,2.04,0.98,2.52c0.25,1.22-0.74,2.14-2.07,2.06
							c-3.31-0.21-8.75-5.3-7.59-8.2c-0.29,0.14-1.49,1.37-1.61,2.33c-0.39,3.31,1.64,2.93,2.43,3.62c1.02,0.9,1.05,3.25,1.92,4.42
							c1.32,1.8,7.29,4.04,10.78,2.23c0.34-0.21,0.73-0.4,0.83-0.74C103.43,228.36,97.9,222.98,97.28,221.86z"/>
					</g>
				</g>
				<path class="st18" d="M81.41,125.83c0.25-1.24,0.42-2.24,0.46-2.8c-0.43-4-2.05-7.89-2.4-9.8c-0.64-3.44-3.17-17.14-0.09-18.61
					c0.87-0.88,7.36-3.1,7.45-2.76c1.6,5.58,4.72,3.75,8.54,3.28c4.53-0.56,2.58-5.1,2.58-5.1s3.22,0.34,5.33,1.43
					c2.77,1.43,5.9,11.08,6.09,13.15c0.13,1.46-0.42,3.36-1.15,5.36c-2.04,5.66-3.3,6.53-3.42,14.54c-0.01,0.8,0.05,1.71,0.16,2.66
					C97.08,128.93,88.93,128.59,81.41,125.83z"/>
				<path class="st22" d="M81.41,125.83c7.52,2.76,15.67,3.1,23.54,1.35c0.48,4.05,1.88,8.95,2.37,10.49v0
					c6.65,18,5.54,30.43,5.22,38.61c-0.02,0.4-2.52,3.73-12.66,5.77c-9.84,1.98-16.41-1.09-16.41-1.09s-1.78-5.95-2.24-7.32
					c-0.9-2.68-6.3-24.89-2.64-36.51C79.43,134.51,80.72,129.26,81.41,125.83z"/>
				<path class="st23" d="M78.6,137.14c0.83-2.62,2.12-7.87,2.81-11.31c0.61,0.22,1.23,0.43,1.84,0.62
					c-3.36,14.58-5.47,29.88-0.31,44.37c2.64,7.06,10.21,11.14,17.58,11.1c-0.21,0.05-0.42,0.09-0.64,0.13
					c-9.84,1.98-16.41-1.09-16.41-1.09s-1.78-5.95-2.24-7.32C80.34,170.97,74.94,148.76,78.6,137.14z"/>
				<path class="st11" d="M95.28,100c0-0.53,0.43-0.96,0.96-0.97c0.53,0,0.96,0.43,0.97,0.96c0,0.53-0.43,0.96-0.96,0.97
					C95.72,100.96,95.28,100.53,95.28,100z"/>
				<path class="st11" d="M96.76,106.29c0-0.53,0.43-0.96,0.96-0.97c0.53,0,0.96,0.43,0.97,0.96c0,0.53-0.43,0.96-0.96,0.97
					C97.19,107.25,96.76,106.82,96.76,106.29z"/>
				<path class="st11" d="M97.31,112.9c0-0.53,0.43-0.96,0.96-0.97c0.53,0,0.96,0.43,0.97,0.96c0,0.53-0.43,0.96-0.96,0.97
					C97.74,113.86,97.31,113.43,97.31,112.9z"/>
				<path class="st11" d="M97.33,120.01c0-0.53,0.43-0.96,0.96-0.97c0.53,0,0.96,0.43,0.97,0.96c0,0.53-0.43,0.96-0.96,0.97
					C97.77,120.97,97.34,120.54,97.33,120.01z"/>
				<g>
					<path class="st8" d="M92.82,151.85c0.01,0.03,0.01,0.05,0.02,0.08c-0.01,0.02-0.01,0.05-0.02,0.07L92.82,151.85z"/>
					<path class="st20" d="M98.95,90.18c-0.89-0.11-1.45-0.29-1.45-0.29s-0.66,2.89-2.23,3.03c-2.88,0.27-5.25-1.67-6.44-2.59
						l-0.01,0.71l-1.99,0.82c0.61,2.91,2.23,5.01,7.7,4.94C98.25,96.75,99.61,93.38,98.95,90.18z"/>
					<path class="st20" d="M87.98,82.47l0.46,7.27l-0.49,2.67c0,0,0.69-0.8,1.35-0.19l0.02,0.02c0.15,0.14,0.3,0.27,0.5,0.4
						c0.48,0.38,1.08,0.7,1.78,0.91c1.07,0.31,2.19,0.54,3.28,0.48c0.34,0.01,0.67-0.03,0.99-0.12c0.81-0.2,1.3-0.61,1.64-1.15
						c0.22-0.34,0.36-0.74,0.49-1.15l-0.15-4.24l-0.08-2.06L87.98,82.47z"/>
				</g>
				<path class="st24" d="M96.1,100.82c0.01,0.02,0.02,0.04,0.03,0.06c0-0.02,0-0.03,0-0.04C96.11,100.83,96.1,100.82,96.1,100.82z"
					/>
				<path class="st23" d="M81.86,123.15c7.21,3.26,15.44,3.34,22.94,0.81c-0.13,1.85,0.54,5.51,0.5,5.53
					c-1.56,1.08-16.43,3.98-24.33-1.59C81.23,126.35,81.48,124.93,81.86,123.15z"/>
			</g>
			<g>
				<path class="st8" d="M87.2,118.72c0-0.01-0.01-0.01-0.01-0.02C87.19,118.71,87.19,118.71,87.2,118.72z"/>
			</g>
		</g>
		<g>
			<g>
				<g>
					<path class="st8" d="M87.15,147.93c-0.25-0.4-0.51-0.78-0.75-1.17c0.67,0.69,1.53,1.52,2.44,0.79
						c0.58-0.32-0.74-1.09-1.12-1.38c-0.89-0.73-1.54-1.74-2.43-2.46c-0.72-0.54-1.47-0.58-2.05-1.69
						c-0.17-0.34-0.32-0.77-0.45-1.27c-1.36,0.55-2.65,1.26-3.75,2.15c0.56,2.53,0.76,2.25,1.88,4.63c0.51,1.21,1.39,2.2,3.13,4.56
						c0.25,0.39,0.77,0.65,0.73,0.23c0.01-0.02-0.01-0.03-0.01-0.03c0-0.61-0.8-2.18-0.93-2.87c0.52,1.06,1.06,1.97,1.74,2.93
						c0.17,0.22,0.55,0.64,0.86,0.31c0.34-0.32,0.03-0.8-0.78-2.48c0.42,0.79,0.88,1.53,1.45,2.19c0.38,0.42,1.31,0.09,0.04-2.02
						c-0.47-0.78-0.96-1.55-1.44-2.36c0.6,0.93,1.26,1.79,1.97,2.63c0.17,0.18,0.47,0.55,0.75,0.39
						C89,150.68,87.43,148.38,87.15,147.93z"/>
				</g>
			</g>
			<path class="st25" d="M74.79,97.65c1.83-3.7,4.93-3.96,7.29-3.31c3.57,0.98,3.34,7.55,2.05,9.66c-2.9,4.73-7.84,10.87-8.02,16.64
				c-0.18,5.54,8.46,20.7,8.46,20.7c-0.56,3.01-5.67,4.97-6.68,3.95c0,0-10.54-18.09-11.82-23.46
				C65.08,117.76,67.65,113.04,74.79,97.65z"/>
		</g>
		<g>
			<path class="st15" d="M102.99,69.22c-0.13-4.01-9.73-8.83-15.95-5.31c-7.45,4.22-8.66,13.14-4.07,17.79
				c1.01,1.03,1.94,1.96,2.83,2.78c0.21-0.06,0.42-0.11,0.64-0.13c2.6-0.26,6.01,0.49,8.03,2.56c0.35-0.16,0.7-0.36,1.07-0.59
				C100.41,83.26,103.21,75.95,102.99,69.22z"/>
			<g>
				<path class="st26" d="M103.07,73.92c-0.12,6.4-0.83,12.91-4.49,15.29c-1.18,0.77-2.73,0.74-4.28,0.33
					c-0.31-0.08-0.62-0.17-0.92-0.28c-1.72-0.6-3.34-1.57-4.32-2.32c-1.44-1.11-2.7-6.99-2.98-8.99c-0.87-6.34,3.85-6.44,8.05-9.08
					C98.34,66.23,103.2,67.53,103.07,73.92z"/>
			</g>
			<path class="st15" d="M99.88,66.66c-1.69,0.22-3.38,0.47-5.07,0.77c-1.62,0.28-3.26,0.57-4.9,0.89c-2.2,0.64-4.37,1.33-6.58,1.94
				c-0.42,1.22-0.68,2.51-0.7,3.89c-0.03,2.16,0.41,4.15,1.25,6.13c0.17,0.4,2.75,2.8,2.94,3.21c0,0,0.55-0.95,1.76-2.12
				c1.83-1.77,2.17-5.71,3.24-7.66c0.73-1.34,2.46-1.06,3.62-1.25c2.14-0.35,5.91,1.09,7.47-0.6
				C102.69,69.34,103.43,69.56,99.88,66.66z"/>
			<path class="st26" d="M89.01,80.84c0.92,1.43,0.98,3.04,0.13,3.59c-0.86,0.55-2.3-0.16-3.22-1.58c-0.92-1.43-0.98-3.04-0.13-3.59
				C86.64,78.7,88.09,79.42,89.01,80.84z"/>
			<path class="st20" d="M88.22,81.35c0.46,0.71,0.49,1.5,0.06,1.77c-0.42,0.27-1.13-0.08-1.59-0.78c-0.46-0.71-0.48-1.5-0.06-1.77
				C87.06,80.3,87.77,80.65,88.22,81.35z"/>
		</g>
	</g>
</g>
</svg>
