<?xml version="1.0" encoding="utf-8"?>
<!-- Generator: Adobe Illustrator 27.7.0, SVG Export Plug-In . SVG Version: 6.00 Build 0)  -->
<svg version="1.1" id="레이어_1" xmlns="http://www.w3.org/2000/svg" xmlns:xlink="http://www.w3.org/1999/xlink" x="0px"
	 y="0px" viewBox="0 0 272 258" style="enable-background:new 0 0 272 258;" xml:space="preserve">
<style type="text/css">
	.st0{clip-path:url(#SVGID_00000181073455179562034680000014739475793235466648_);}
	.st1{fill:#68A4D9;}
	.st2{fill:url(#SVGID_00000023980678040514558300000002742757460003655090_);}
	.st3{fill:#89AEB5;}
	.st4{fill:#B7CCEA;}
	.st5{fill:#CDDCF1;}
	.st6{fill:#98A1A8;}
	.st7{fill:#303030;}
	.st8{fill:#191919;}
	.st9{fill:#040000;}
	.st10{fill:#F6B893;}
	.st11{fill:#F3A07A;}
	.st12{fill:#07233D;}
	.st13{fill:#0F2D51;}
	.st14{fill:#5F6D78;}
	.st15{fill:#E9F0FA;}
	.st16{fill:#893B25;}
	.st17{fill:#275278;}
	.st18{fill:#5A5A5A;}
	.st19{fill:#CFD5D8;}
	.st20{fill:#C0C5CA;}
	.st21{fill:#757575;}
	.st22{fill:#551D11;}
	.st23{fill:#4E2618;}
	.st24{fill:#F0832F;}
	.st25{fill:#ED6C2F;}
	.st26{fill:#79171C;}
	.st27{fill:#DEF0FB;}
	.st28{fill:#570B10;}
	.st29{fill:#3A1B1D;}
	.st30{fill:#702B1C;}
	.st31{fill:#8FA2A0;}
	.st32{fill:#4A5B60;}
	.st33{fill:#C8D8D6;}
	.st34{fill:#79848D;}
	.st35{fill:#B9B9BD;}
	.st36{fill:#0C3753;}
	.st37{fill:#B3C7E7;}
	.st38{fill:#4583C5;}
	.st39{fill:#F1A353;}
	.st40{fill:#F08F2F;}
	.st41{fill:#505054;}
	.st42{fill:#AFADAE;}
	.st43{fill:#F6C468;}
</style>
<g>
	<defs>
		<path id="SVGID_1_" d="M252.02,258H19.98C8.95,258,0,249.05,0,238.02V19.98C0,8.95,8.95,0,19.98,0h232.04
			C263.05,0,272,8.95,272,19.98v218.04C272,249.05,263.05,258,252.02,258z"/>
	</defs>
	<clipPath id="SVGID_00000111162945445444721750000011549499596206258845_">
		<use xlink:href="#SVGID_1_"  style="overflow:visible;"/>
	</clipPath>
	<g style="clip-path:url(#SVGID_00000111162945445444721750000011549499596206258845_);">
		<g>
			<rect x="-81.03" y="-5.57" class="st1" width="380.08" height="276.42"/>
			
				<linearGradient id="SVGID_00000066480854135512277810000016951102913520386478_" gradientUnits="userSpaceOnUse" x1="109.01" y1="206.8499" x2="109.01" y2="270.4163">
				<stop  offset="0" style="stop-color:#24858F"/>
				<stop  offset="0.1639" style="stop-color:#22808B"/>
				<stop  offset="0.4022" style="stop-color:#1D727F"/>
				<stop  offset="0.6858" style="stop-color:#165C6D"/>
				<stop  offset="1" style="stop-color:#0C4157"/>
			</linearGradient>
			
				<rect x="-81.03" y="206.85" style="fill:url(#SVGID_00000066480854135512277810000016951102913520386478_);" width="380.08" height="64.01"/>
		</g>
		<ellipse class="st3" cx="95.72" cy="241.02" rx="23.23" ry="6.11"/>
		<g>
			<path class="st4" d="M244.05,174.55c-0.18,1.62-3.27,2.48-5.98,2.58c-3.07,0.11-6.51-1.15-6.51-1.15l-3.89-6.4
				c0,0,5.87,0.71,8.56,0.53c2.7-0.19,1.89-2.09,1.89-2.09L244.05,174.55z"/>
			<path class="st5" d="M244.05,174.55c0,0-0.98-0.95-1.5-0.88c-1.08,0.14-1.14,1.13-1.14,1.13l-3.27-6.79L244.05,174.55z"/>
		</g>
		<g>
			<g>
				<ellipse class="st3" cx="-39.54" cy="237.15" rx="31.01" ry="6.01"/>
				<ellipse class="st3" cx="20" cy="228.33" rx="17" ry="5.3"/>
				<ellipse class="st3" cx="72.49" cy="230.22" rx="23.23" ry="5.3"/>
				<ellipse class="st3" cx="255.98" cy="232.87" rx="26.22" ry="7.88"/>
				<path class="st3" d="M180.3,227.55c-1.05-3.12-11-5.57-23.14-5.57c-12.83,0-23.23,2.74-23.23,6.11s10.4,6.11,23.23,6.11
					c0.22,0,0.43,0,0.65,0c1.11,3.01,8.55,5.33,17.57,5.33c9.79,0,17.72-2.74,17.72-6.11C193.11,230.63,187.7,228.28,180.3,227.55z"
					/>
				<g>
					<g>
						<g>
							<g>
								
									<rect x="249.6" y="195.14" transform="matrix(-1 -1.224647e-16 1.224647e-16 -1 503.7652 422.7269)" class="st6" width="4.56" height="32.44"/>
								<path class="st7" d="M260.96,231.36c0,1.47,1.19,2.66,2.66,2.66c1.47,0,2.66-1.19,2.66-2.66s-1.19-2.66-2.66-2.66
									C262.15,228.7,260.96,229.89,260.96,231.36z"/>
								<circle class="st7" cx="239.54" cy="231.36" r="2.66"/>
								<path class="st6" d="M236.03,229.82h31.71l0,0c0-1.23-1-2.23-2.23-2.23h-27.24C237.03,227.58,236.03,228.58,236.03,229.82
									L236.03,229.82z"/>
								
									<rect x="250.34" y="197.97" transform="matrix(-1 -1.224647e-16 1.224647e-16 -1 501.8207 425.5549)" class="st6" width="1.15" height="29.61"/>
							</g>
							<path class="st7" d="M237.66,198.04h28.45c1.81,0,3.27-1.47,3.27-3.27v0c0-1.81-1.47-3.27-3.27-3.27h-28.45
								c-1.81,0-3.27,1.47-3.27,3.27v0C234.38,196.58,235.85,198.04,237.66,198.04z"/>
							<g>
								<path class="st8" d="M254.16,188.48H239.3c-3.41,0-6.2-2.79-6.2-6.2v-20.53c0-7.49,6.13-13.62,13.62-13.62l0,0
									c7.49,0,13.62,6.13,13.62,13.62v20.53C260.35,185.7,257.56,188.48,254.16,188.48z"/>
								<path class="st7" d="M254.35,186.11h-11.57c-2.66,0-4.83-2.17-4.83-4.83v-20.15c0-5.84,4.78-10.62,10.62-10.62l0,0
									c5.84,0,10.62,4.78,10.62,10.62v20.15C259.18,183.94,257,186.11,254.35,186.11z"/>
							</g>
						</g>
						<g>
							
								<rect x="244.24" y="143.68" transform="matrix(-1 -1.224647e-16 1.224647e-16 -1 498.9508 291.0131)" class="st4" width="10.48" height="3.65"/>
							<path class="st9" d="M256.5,228.09l6.28-0.63c0,0,3.51,2.47,5.35,4.3c1.84,1.83,1.42,3.92,1.42,3.92s-5.33,1.4-7.59,0
								c-2.26-1.39-5.47-2.79-5.47-2.79V228.09z"/>
							<path class="st10" d="M239.09,166.55c-1.86-5.73-6.69-15.55-3.86-17.26c3.68-2.23,14.27-3.59,14.27-3.59v0.18
								c0,0,10.68,0.89,14.36,3.12c2.82,1.71-2.09,12-3.95,17.73c-0.45,1.37-0.4,7.54-0.23,13c0.04,1.35,1.14,7.55,0.95,10.11
								c-0.06,0.76-8.75,2.88-11.17,3l0,0c-2.42-0.12-11.04-2.42-11.09-3.18c-0.19-2.56,0.91-8.76,0.95-10.11
								C239.49,174.09,239.54,167.93,239.09,166.55z"/>
							<path class="st6" d="M262.22,148.7c2.01-0.8,4.08,1.33,5.51,5.1c1.44,3.77,2.7,6.62,3.05,7.61c0.36,1.02,2.42,6.69,2.85,8.33
								c0.43,1.65-0.29,3.41-1.9,4.02c-1.34,0.51-3.89-1.26-5.44-3.75C264.73,167.54,256.81,150.86,262.22,148.7z"/>
							<path class="st10" d="M245.07,144c0.24-1.09,0.85-6.49,0.85-6.49h3.58v0.18h3.58c0,0,0.61,5.39,0.85,6.49
								c0.24,1.09,3.19,2.74,3.19,2.74h-7.61v-0.18h-7.61C241.88,146.74,244.83,145.1,245.07,144z"/>
							<path class="st11" d="M245.31,142.48c0.23-1.65,0.5-4,0.58-4.74l0.23-0.23h3.37v0.18h3.58c0,0,0.61,5.39,0.85,6.49
								c0.24,1.09,3.19,2.74,3.19,2.74h-0.36c-3.4-0.91-6.77-1.81-7.23-1.94C248.57,144.71,245.31,142.48,245.31,142.48
								L245.31,142.48z"/>
							<polygon class="st12" points="259.93,181.96 265.23,191.15 265.54,195.12 249.92,195.12 238.24,194.75 236.09,191.14 
								239.09,181.96 							"/>
							<path class="st13" d="M266.11,191.99l-1.59,36.73h-9.73l-0.91-36.73c0,0,1.45-4.9,6.48-4.9
								C264.68,187.09,266.11,191.99,266.11,191.99z"/>
							<path class="st12" d="M260.35,187.09C260.36,187.09,260.36,187.09,260.35,187.09c4.33,0,5.76,4.9,5.76,4.9l-1.59,36.73h-4.17
								V187.09z"/>
							<path class="st6" d="M238.09,149.22c-1.95-0.9-4.45-1.08-6.13,2.73c-1.68,3.81-3.46,8.75-3.87,9.75
								c-0.42,1.03-2.41,6.47-2.94,8.13c-0.53,1.67-0.16,3.52,1.4,4.21c1.3,0.57,3.96-1.15,5.66-3.63
								C233.92,167.92,243.33,151.63,238.09,149.22z"/>
							<path class="st5" d="M234.41,149.43c0.4-0.83,3.02-1.44,5.37-2.18c2.07-0.64,3.93-1.46,3.93-1.46l5.76,3.29l5.75-3.3
								c0,0,1.86,0.81,3.93,1.45c2.35,0.72,4.98,1.33,5.38,2.16c0.41,0.84-3.78,17-4.25,18.37c-0.47,1.37,0.75,10.98-0.44,13.86
								l-10.31,0.34v0l-0.02,0h0v0l-10.31-0.31c-0.95-3.29,0.01-12.67-0.47-14.04C238.25,166.24,234,150.28,234.41,149.43z"/>
							<polygon class="st4" points="249.93,147.13 249.47,149.11 252.99,147.77 250.96,146.81 							"/>
							<path class="st6" d="M234.14,149.31c0.41-0.85,3.08-1.47,5.47-2.22c2.11-0.66,4-1.49,4-1.49l5.86,20.24l5.85-20.25
								c0,0,1.89,0.83,4,1.48c2.39,0.74,5.07,1.35,5.48,2.2c0.42,0.86-3.85,17.3-4.33,18.7c-0.48,1.4,0.77,11.18-0.45,14.11
								l-10.49,0.34v0l-0.02,0h0v0l-10.49-0.31c-0.96-3.35,0.01-12.9-0.48-14.29C238.05,166.42,233.72,150.17,234.14,149.31z"/>
							<path class="st14" d="M247.79,181.02c1.01-0.63,2.52-1.27,3.44-1.83c0.92-0.57,0.02-2.52,0.03-3.53
								c0.01-1.01-2.79-2.9-4.68-3.59c-1.89-0.69-5.17-0.43-5.93-1.76c-0.76-1.32,1.26-2.59,2.14-2.59c0.88,0,6.56-1.65,7.44-1.52
								c0.88,0.12,7.57,0.81,8.64-0.01c1.07-0.82,5.93-16.92,5.93-16.92c-1.19,5.18-4.02,17.81-4.33,18.7
								c-0.48,1.4,0.77,11.18-0.45,14.11l-10.49,0.34v0l-0.02,0h0v0l-10.49-0.31c0,0,2.28-0.32,3.23-0.61
								C243.19,181.21,246.78,181.65,247.79,181.02z"/>
							<polygon class="st4" points="249.05,147.15 249.49,149.11 245.97,147.77 248,146.81 							"/>
							<polygon class="st15" points="256.76,146.08 254.72,143.68 249.93,147.13 251.66,150.39 							"/>
							<path class="st12" d="M242.21,179.82c0,0-4.51,4.67-5.71,7.38c-1.2,2.71-1.18,7.32,1.73,7.55c2.91,0.22,5.31,0.22,5.94-0.14
								c0.63-0.37,5.53-8.76,5.48-9.8C249.6,183.76,244.16,179.01,242.21,179.82z"/>
							<path class="st9" d="M278.13,199.48l-3.88,4.99c0,0,0.22,4.29,0.79,6.81c0.57,2.53,2.56,3.3,2.56,3.3s4.02-3.77,4.04-6.43
								c0.02-2.65,0.55-6.11,0.55-6.11L278.13,199.48z"/>
							<path class="st12" d="M242.46,188.39l31.93,18.22l5.19-8.25l-30.6-20.33c0,0-4.92-1.39-7.61,2.88
								C239.07,184.57,242.46,188.39,242.46,188.39z"/>
							<path class="st13" d="M236.56,187.62c0.16-0.23,5.38-7.44,5.56-7.64c2.76-3.08,6.87-1.95,6.87-1.95l30.6,20.33l-2.78,4.41
								c0,0-20.4-19.39-28.93-22.71C244.58,178.77,236.56,187.62,236.56,187.62z"/>
							<polygon class="st15" points="242.2,146.08 244.24,143.68 249.05,147.15 247.3,150.39 							"/>
							<path class="st10" d="M242.72,132.75c-0.16,4.56,1.58,9.24,4.48,9.58c2.78,0.33,8.16-3.38,8.7-7.91
								c0.54-4.53-1.74-8.52-5.88-9.13C246.53,124.79,242.88,128.06,242.72,132.75z"/>
							<path class="st16" d="M243.36,129.5c0,0,3.97-2.11,7.99,1.5c0.87,0.78-0.22,4.22,0,4.51c0.23,0.32,1.29-2.67,1.44-2.3
								c1.11,2.69,0.21,6.09,0.56,6.11c1.06,0.05,4.22-5.58,2.53-10.02c-1.69-4.44-6.38-4.77-7.49-4.51
								C247.28,125.06,244.17,125.7,243.36,129.5z"/>
							<path class="st10" d="M252,134.52c-0.35,1.26-0.5,2.95,0.17,3.13c0.66,0.18,1.48-0.69,1.83-1.95
								c0.35-1.26,0.1-2.43-0.56-2.62C252.78,132.91,252.35,133.26,252,134.52z"/>
							<path class="st6" d="M271.37,168.38c-1.69-0.5-4.04,0.29-5.63,4.69c-1.58,4.4-3.34,12.67-3.34,12.67l4.02,1.77
								c0,0,4.14-6.79,5.12-9.14C272.51,176.02,275.79,169.7,271.37,168.38z"/>
							<path class="st10" d="M266.07,186.78c0,0-0.19,0.99-0.23,1.43c-0.12,1.34-0.5,2.46-1.27,3.56c-0.71,1.01-2.56,2.81-2.85,2.68
								c-0.29-0.13-0.08-0.73-0.08-0.73s-1.26,1.21-1.62,1.03c-0.35-0.18-0.2-0.78-0.2-0.78s-1.13,0.62-1.58,0.38
								c-0.41-0.22,0.91-1.64,0.91-1.64s-1.07,0.65-1.36,0.19c-0.27-0.42,1.67-1.59,2.37-3.17c0.26-0.59,0.51-1.31,0.36-1.43
								c-0.15-0.12-1.83,0.2-2.26,0.05c-0.43-0.14-0.74-0.8-0.67-0.87c0.31-0.32,0.77,0.05,2.15-0.43c0.3-0.11,1.54-1.47,3.3-1.19
								C264.16,186.03,266.07,186.78,266.07,186.78z"/>
							<polygon class="st14" points="268.06,184.77 263.23,182.1 261.54,185.72 266.06,188.31 							"/>
							<path class="st6" d="M224.84,171.35c0.1,1.74,1.15,3.11,6.09,3.09c4.94-0.02,12.8-1.28,12.8-1.28l-0.08-4.15
								c0,0-6.18-1.71-8.87-1.81C232.1,167.08,224.58,166.79,224.84,171.35z"/>
							<path class="st10" d="M245.35,169.51c4.3,0.84,5.05,4.9,4.99,5.22c-0.06,0.32-0.91,0.65-1.72,0.25
								c-0.81-0.4-4.24-2.07-4.29-3.1C244.3,170.85,244.57,169.35,245.35,169.51z"/>
							<path class="st10" d="M246.06,170.53c0,0,1.04,0.61,2.13,1.68c0.12,0.11,0.36,0.22,0.48,0.34c0.09,0.09,0.21,0.32,0.3,0.42
								c0.09,0.08,0.21,0.11,0.29,0.19c0.11,0.11,0.15,0.35,0.25,0.45c0.09,0.09,0.3,0.22,0.39,0.3c0.35,0.3,0.13,0.53,0.23,0.63
								c0.31,0.32,0.39,0.42,0.43,0.49c0.19,0.36-0.03,2.15-0.15,2.42c-0.12,0.27-0.45,1.92-0.62,1.92c-0.17,0-0.68-0.42-0.62-1.33
								c0.07-0.92,0.09-2.04,0.02-1.84c-0.07,0.19-0.74,1.14-1.08,1.46c-0.22,0.21-0.49,0.02-0.63-0.19
								c-0.08-0.13,0.1-0.96,0.1-0.96s-0.61,0.12-0.68,0.01c-0.27-0.36,0.06-0.94,0.1-1.16c0.04-0.18-0.57,0.19-0.67,0.02
								c-0.38-0.63,0.87-1.93,0.26-2.35C246.29,172.81,245.48,171.43,246.06,170.53z"/>
							<polygon class="st6" points="241.56,168.38 241.41,173.73 245.34,173.76 245.35,168.79 							"/>
						</g>
					</g>
					<g>
						<path class="st10" d="M160.16,146.51c1.74-5.35,6.24-14.53,3.61-16.14c-3.42-2.09-13.26-3.38-13.26-3.38l0,0.17
							c0,0-9.93,0.82-13.35,2.9c-2.63,1.59,1.93,11.23,3.65,16.59c0.41,1.29,0.36,7.05,0.19,12.16c-0.04,1.26-1.07,7.06-0.9,9.45
							c0.05,0.72,8.08,5.16,10.34,5.27l0-0.17c2.25-0.11,10.3-4.53,10.35-5.24c0.18-2.4-0.83-8.2-0.87-9.46
							C159.78,153.56,159.74,147.79,160.16,146.51z"/>
						<path class="st10" d="M161.39,129.91c-1.82,0.89-2.1,4.19-0.31,7.51c1.79,3.32,3.38,5.39,3.87,6.24
							c0.5,0.88,3.04,6.19,3.94,7.5c0.9,1.31,2.88,2.47,4.29,1.7c1.18-0.64,2.5-1.18,1.69-3.8
							C174.07,146.44,167.15,127.11,161.39,129.91z"/>
						<path class="st10" d="M154.68,125.41c-0.23-1.02-0.78-6.07-0.78-6.07l-3.34-0.01l0,0.17l-3.34,0c0,0-0.57,5.04-0.8,6.06
							c-0.23,1.02-2.98,2.56-2.98,2.56l7.12,0.01l0-0.17l7.12,0.01C157.65,127.97,154.9,126.43,154.68,125.41z"/>
						<path class="st11" d="M154.45,123.98c-0.21-1.55-0.46-3.75-0.54-4.43l-0.22-0.21l-3.15,0l0,0.17l-3.34,0
							c0,0-0.57,5.04-0.8,6.06c-0.23,1.02-2.98,2.56-2.98,2.56l0.34,0c3.18-0.84,6.34-1.68,6.76-1.8
							C151.4,126.07,154.45,123.98,154.45,123.98L154.45,123.98z"/>
						<path class="st10" d="M145.15,162.64c-4.08-0.02-5.67,2.83-5.57,11.56c0.1,8.73,1.39,18.2,1.95,19.56
							c0.56,1.36,6.35,1.4,6.92,0.61c0.57-0.79,2.01-18.9,2.02-21.74C150.47,169.79,149.6,162.66,145.15,162.64z"/>
						<path class="st10" d="M144.86,200.74L144.86,200.74c-1.92-0.05-3.45-1.66-3.4-3.57l0.07-2.55c0.05-1.92,1.66-3.45,3.57-3.4h0
							c1.92,0.05,3.45,1.66,3.4,3.57l-0.07,2.55C148.39,199.26,146.78,200.78,144.86,200.74z"/>
						<path class="st10" d="M144.82,195.4c-1.25,0-4.31,0.41-4.15,8.55c0.16,8.14,3.6,19.29,3.6,19.29l2.95,0
							c0,0,1.46-15.07,1.47-17.96C148.71,198.71,148.76,195.41,144.82,195.4z"/>
						<path class="st10" d="M155.92,162.71c4.06-0.44,5.93,2.23,6.73,10.92c0.8,8.69,1.17,18.25,0.75,19.66
							c-0.42,1.41-6.17,2.04-6.82,1.31c-0.65-0.73-4.63-18.6-4.93-21.42C151.37,170.37,151.5,163.19,155.92,162.71z"/>
						<path class="st10" d="M160.8,200.58L160.8,200.58c1.92-0.25,3.27-2,3.02-3.92l-0.33-2.53c-0.25-1.9-2-3.24-3.89-3l-0.02,0
							c-1.91,0.25-3.25,1.99-3.01,3.9l0.33,2.55C157.15,199.48,158.89,200.82,160.8,200.58z"/>
						<path class="st10" d="M160.31,195.27c1.24-0.13,4.33-0.04,5.01,8.07c0.68,8.11-0.65,19.56-0.65,19.56l-2.93,0.31
							c0,0-3.94-14.84-4.25-17.71C156.77,198.96,156.39,195.68,160.31,195.27z"/>
						<path class="st10" d="M138.23,130.22c1.93,0.63,2.64,3.87,1.32,7.4s-2.62,5.8-2.99,6.71c-0.38,0.94-2.18,6.54-2.9,7.96
							c-0.72,1.42-2.52,2.83-4.02,2.27c-1.26-0.47-2.64-0.84-2.19-3.54C127.9,148.31,132.14,128.22,138.23,130.22z"/>
						<path class="st8" d="M140.73,160.88c0,0-1.48,7.19-1.71,11.1c-0.23,3.91,1.66,21.01,1.66,22.89c0,1.88-0.13,7.66-0.02,13.33
							c0.11,5.67,1.56,16.83,1.56,16.83l7.26-0.17c0,0,0.05-23.97,0.05-27.73c0.01-3.77,0.94-23.61,0.94-23.61l0.02-12.33
							L140.73,160.88z"/>
						<path class="st17" d="M164.74,130.48c-0.45-0.75-2.86-1.36-5.08-2.06c-1.96-0.61-3.53-1.43-3.53-1.43l-1.23,0.65
							c-2.71,1.55-6.05,1.54-8.76-0.01l-1.06-0.61c0,0-1.75,0.77-3.71,1.37c-2.22,0.68-4.7,1.26-5.08,2.04
							c-0.39,0.79,3.57,16.06,4.02,17.36c0.44,1.3-0.71,10.38,0.42,13.09l9.74,0.32v0l0.02,0l0,0v0l9.74-0.29
							c0.89-3.11-0.01-11.97,0.44-13.26C161.11,146.35,165.49,131.72,164.74,130.48z"/>
						<path class="st8" d="M160.14,160.68c0,0,2.21,7,2.84,10.87c0.63,3.87,1.2,21.07,1.39,22.94c0.19,1.87,0.92,7.61,1.39,13.26
							c0.47,5.65,1.1,16.9,1.1,16.9l-7.24,0.58c0,0-3.43-23.84-3.83-27.58c-0.39-3.75-5.37-23.5-5.37-23.5l0.05-12.95L160.14,160.68
							z"/>
						<path class="st8" d="M142.98,225.03c0,0-2.48,2.9-2.35,3.66c0.07,0.43,1.12,2.01,3.02,2.13c1.44,0.09,3.8-1.23,4.17-1.27
							c0.85-0.09,0.85-4.66,0.85-4.66L142.98,225.03z"/>
						<path class="st8" d="M165.85,224.75c0,0,2.77,2.63,2.71,3.4c-0.03,0.44-0.91,2.12-2.78,2.43c-1.43,0.24-3.91-0.83-4.28-0.83
							c-0.85,0-1.32-4.55-1.32-4.55L165.85,224.75z"/>
						<path class="st7" d="M159.29,175.34c0.41,2.56,1.55,19.78,1.62,20.76c0.07,0.95,3.46,27.52,3.57,28.74l2.38-0.19
							c0,0-0.63-11.25-1.1-16.9c-0.47-5.65-1.2-11.39-1.39-13.26c-0.19-1.87-0.75-19.08-1.39-22.94
							c-0.63-3.87-2.84-10.87-2.84-10.87l-5.75,0.4C154.39,161.09,158.88,172.78,159.29,175.34z"/>
						<path class="st7" d="M149.33,168.76c-1.35-2.37-4.95-1.57-5.18,1.15c-0.24,2.79-0.3,4.73-0.06,6.01
							c0.61,3.24,1.49,19.07,1.38,19.48c-0.12,0.41-0.04,29.48-0.04,29.48l0.13,0.08l3.91-0.09c0,0,0.05-23.97,0.05-27.73
							c0.01-3.77,0.94-23.61,0.94-23.61l0-1.08l0.08-1.55L149.33,168.76z"/>
						<path class="st17" d="M136.32,130.12c0,0-2.55,0.6-4.73,5.14c-2.18,4.54-4.1,13.93-4.1,13.93s1.32,1.14,3.84,1.9
							c2.52,0.76,3.61,0.56,3.61,0.56l3.29-9.66C138.23,141.99,139.46,130.44,136.32,130.12z"/>
						<path class="st17" d="M163.11,129.51c0,0,2.59,0.33,5.24,4.62c2.65,4.29,6.34,13.3,6.34,13.3s-1.17,1.27-3.6,2.29
							c-2.43,1.02-3.6,0.99-3.6,0.99l-5.03-9.2C162.46,141.52,160.03,130.16,163.11,129.51z"/>
						<g>
							<path class="st10" d="M142.78,116.15c0.77,4.22,3.3,8.18,6.05,7.91c2.62-0.26,6.83-4.74,6.41-9.02
								c-0.42-4.27-3.31-7.49-7.24-7.21C144.69,108.06,141.98,111.8,142.78,116.15z"/>
							<path class="st16" d="M142.72,113.02c0,0,3.22-2.74,7.65-0.22c0.95,0.54,0.65,3.92,0.91,4.15c0.28,0.25,0.65-2.72,0.86-2.4
								c1.56,2.25,1.41,5.56,1.74,5.5c0.98-0.17,2.77-5.98,0.32-9.72c-2.45-3.75-6.82-3.11-7.79-2.64
								C145.43,108.15,142.7,109.37,142.72,113.02z"/>
							<path class="st10" d="M151.67,115.91c-0.07,1.23,0.14,2.81,0.78,2.85c0.65,0.04,1.23-0.93,1.3-2.16
								c0.07-1.23-0.4-2.26-1.04-2.29C152.06,114.27,151.74,114.68,151.67,115.91z"/>
						</g>
						<path class="st13" d="M152.63,158.32c1.33-2.22-2.38-5.76-4.02-6.38c-1.64-0.62-4.7-0.29-5.13-1.57
							c-0.77-2.32,7.52-3.8,8.28-3.69c0.76,0.11,6.54,0.72,7.47-0.01c0.93-0.74,5.52-14.57,5.52-14.57
							c-1.03,4.64-3.87,15.36-4.13,16.16c-0.41,1.25,0.66,10.02-0.39,12.65l-9.07,0.31v0l-0.02,0l0,0v0l-9.07-0.28
							C142.07,160.94,151.76,159.77,152.63,158.32z"/>
						<path class="st11" d="M127.6,151.67c0.5-1.57,1.28-2.72,3.29-2.2c2.01,0.52,6.28,3.06,6.28,3.06l-0.81,2.54
							c0,0-4.59,1.02-5.71,0.84C129.53,155.74,126.29,155.78,127.6,151.67z"/>
						<path class="st10" d="M175.03,150.85c0.19-1.64-0.5-3.09-5.06-3.87c-4.55-0.78-15.33-1.23-15.33-1.23l-0.31,2.65
							c0,0,8.66,3.66,11.11,4.2S174.52,155.14,175.03,150.85z"/>
						<path class="st10" d="M156.81,148.74c0,0-2.39,1.07-3.16,1.19c-0.77,0.11-3.55-0.24-4.17-0.22c-1.03,0.03-3.29,2.09-3.4,1.4
							c-0.11-0.68,1.95-3.51,1.95-3.51s2.9-2.24,4.12-2.19c1.22,0.05,3.48,0.39,3.48,0.39L156.81,148.74z"/>
						<path class="st11" d="M132.71,152.13c0,0,2.56-0.58,3.33-0.54c0.77,0.04,3.44,0.93,4.05,1.04c1.02,0.18,4.29-0.16,4.26,0.54
							c-0.02,0.69-3.62,1.99-3.62,1.99s-2.11,0.54-4.02,0.41c-1.22-0.08-3.42-0.31-3.42-0.31L132.71,152.13z"/>
						<g>
							<polygon class="st18" points="153.12,151.13 134.9,151.19 124.22,152.31 144.95,152.31 							"/>
							<polygon class="st19" points="144.95,152.31 123.67,152.31 121.28,136.31 142.55,136.31 							"/>
							<polygon class="st20" points="144.95,153.53 153.12,152.36 153.12,151.13 144.95,152.31 							"/>
							<rect x="123.69" y="152.31" class="st21" width="21.25" height="1.23"/>
							<polygon class="st20" points="142.55,136.31 123.69,152.31 144.95,152.31 							"/>
						</g>
						<path class="st11" d="M137.01,154.74c0,0,2.29-0.65,2.36-1.08c0.07-0.43,2.46-1.69,2.56-1.95c0.1-0.26-1.08-0.49-1.94-0.13
							c-0.86,0.35-1.41,0.28-1.74,0.29c-0.32,0.01-1.68-0.53-2.77,0.02c-1.09,0.54-1.18,1.47-1.15,1.85
							C134.37,154.12,136.3,155.37,137.01,154.74z"/>
					</g>
					<g>
						<g>
							<polygon class="st14" points="29.08,157.33 10.33,177.84 12.8,136.09 28.15,131.54 							"/>
							<path class="st22" d="M28.68,127.39c0,0-1.78-1.3-5.67-1.72c-3.89-0.42-5.86,0.26-5.86,0.26l-0.51-6.31l1.47-6.13l8.99,1.55
								l1.58,6.65V127.39z"/>
							<g>
								<path class="st11" d="M17.58,220.5c-0.06,1.15-0.77,2.19-1.06,2.75c-0.34,0.68-0.26,1.83,0.07,2.14
									c0.91,0.85,1.95,0.54,3.05,1.22c1.09,0.68,2.75,3.14,3.67,3.36c0.92,0.22,3.03,0.13,3.16-0.31
									c0.13-0.44-2.08-2.06-2.08-2.06c-3.32-4.08-3.69-6.19-3.69-6.19S17.59,220.33,17.58,220.5z"/>
								<path class="st23" d="M24.4,227.61c0,0,0.63,0.53,0.53,0.7c-0.14,0.24-1.1,0.15-1.35,0.02c-2.24-1.13-5.24-3.59-5.86-4.35
									c-0.64-0.79-0.73-1.66-0.73-1.66c-0.19,0.01-0.98,1.28-0.78,2.24c0.05,0.21,0.29,0.74,0.39,0.83
									c0.51,0.48,2.24,1.31,2.72,1.61c1.09,0.68,2.62,3.14,3.54,3.37c0.92,0.22,4.06,0.17,4.19-0.27
									C27.15,229.75,25.43,228.33,24.4,227.61z"/>
								<path class="st23" d="M16.19,224.39c0,0,0.66,1.76,0.85,2.36c0.29,0.9,0.49,2.81,0.49,2.81l0.4-0.03
									c0,0-0.53-3.62,1.38-2.53C19.91,227.34,16.19,224.39,16.19,224.39z"/>
							</g>
							<path class="st11" d="M25.51,194.72c-3.1,1.61-5.48,7.53-6.07,9.91c-0.59,2.38-1.67,15.79-1.99,16.63
								c-0.31,0.83,3.08,0.85,3.2,0.36c1.2-4.8,6.33-16.86,6.9-18.04c0.57-1.17,2.95-6.6,3.12-7.15
								C31.58,193.59,27.28,193.8,25.51,194.72z"/>
							<g>
								<path class="st11" d="M43.63,172.37c0,0,0.1,1.3,0.02,1.61c-0.08,0.32-0.3,0.73-0.45,1.04c-0.14,0.3-0.1,0.83-0.02,0.9
									c0.23,0.18,0.53-0.22,0.64-0.47c0.11-0.25,0.39-0.82,0.47-1.21c0.08-0.38,0.32-1.31,0.26-1.59
									C44.48,172.35,43.63,172.37,43.63,172.37z"/>
								<path class="st11" d="M43.7,171.96c0,0-0.26,1.18-0.42,1.44c-0.16,0.26-0.37,0.29-0.67,0.51c-0.26,0.18-0.54,0.52-0.48,0.79
									c0.06,0.27,0.48,0.03,0.71-0.08c0.29-0.15,0.77-0.5,0.95-0.82c0.18-0.32,0.64-1.08,0.66-1.35
									C44.46,172.18,43.7,171.96,43.7,171.96z"/>
								<path class="st11" d="M43.66,171.79c0,0-0.39,0.94-0.56,1.13c-0.17,0.19-0.35,0.19-0.64,0.32
									c-0.24,0.11-0.52,0.35-0.51,0.58c0.01,0.23,0.39,0.1,0.6,0.04c0.27-0.08,0.71-0.3,0.91-0.54c0.19-0.24,0.69-0.8,0.75-1.02
									C44.26,172.08,43.66,171.79,43.66,171.79z"/>
								<path class="st11" d="M40.98,174.66c0.11,0.15,0.51-0.09,0.75-0.4c0.25-0.34,0.29-1.11,0.21-1.52
									c-0.08-0.39-0.03-0.98,0.26-1.03c0.29-0.05,1.32,0.41,1.48,0.73c0.26,0.51,0.71,1.18,0.71,1.56c0,0.38-0.26,1.1-0.38,1.43
									c-0.11,0.33-0.28,0.77-0.22,1.04c0.06,0.27,0.2,0.31,0.34,0.34c0.14,0.04,0.22-0.53,0.51-0.96
									c0.29-0.43,0.79-1.55,0.81-1.64c0.03-0.09-0.24-1.72-0.34-2.2c-0.1-0.48-1.68-2.48-1.66-2.68c0.02-0.2-1.53-3.57-1.53-3.57
									l-2.68,0.68c0,0,1.48,2.35,1.49,2.78c0.01,0.44-0.12,0.98-0.2,1.47c-0.14,0.84,0.3,1.86,0.41,2.27
									C41.12,173.66,40.8,174.44,40.98,174.66z"/>
							</g>
							<path class="st16" d="M14.14,219.15c0,0,0.22,1.63-0.21,2.55c-0.43,0.93-2.02,2.86-2.78,2.65c-0.76-0.22-1.58-2.36-1.68-2.7
								c-0.57-2.11,0.72-5.48,0.72-5.48L14.14,219.15z"/>
							<path class="st11" d="M29.36,132.42c1.64-0.21,3.5,4.71,4.09,10.14c1.02,9.44,2.74,12.35-0.14,13
								c-2.61,0.58-3.19-3.24-5.14-11.16C26.65,138.21,25.96,132.86,29.36,132.42z"/>
							<path class="st10" d="M7.88,130.01c0.85-1.26,4.87-1.29,6.38-1.46c1.54-0.18,5.9,0.44,5.9,0.44s4.31,0.91,5.7,1.61
								c1.36,0.68,5.13,2.09,5.5,3.56c0.55,2.22-7.81,12.51-5.01,19.75c0.93,2.4,6.38,8.76,6.4,11.34c0.03,3.15-9.27,7.6-9.27,7.6
								l-0.57,0.15l-0.57,0.15c0,0-10.27,0.8-11.82-1.94c-1.27-2.24,1.29-13.43,0.97-16.52C10.67,146.72,6.6,131.91,7.88,130.01z"/>
							<path class="st11" d="M32.77,165.79c1.31,2.01,1.54,5.78,1.35,10.73c-0.27,6.75-2.56,16.75-2.76,17.72
								c-0.91,4.43-5.22,4.57-6.13,1.18c-0.25-0.94-2.48-19.91-2.4-22.06c0.07-2.15,0.01-6.09,1.37-8.58
								C25.2,162.92,30.82,162.8,32.77,165.79z"/>
							<path class="st10" d="M17.42,126.2c0.64-1.07,1.36-5.38,1.36-5.38l2.74,0.48l2.74,0.48c0,0-0.8,4.3-0.57,5.52
								c0.24,1.22,2.17,3.28,2.17,3.28l-5.8-1.02l-5.8-1.02C14.26,128.54,16.78,127.27,17.42,126.2z"/>
							<path class="st11" d="M32.42,151.74c1.43-0.51,4.21,1.17,6.11,5.63c2.19,5.14,5.44,12.44,4.23,13.02
								c-0.57,0.27-1.32-0.18-1.86-1.27c-1.13-2.29-4.16-5.54-6.33-8.46C31.22,156.14,29.67,152.72,32.42,151.74z"/>
							<path class="st11" d="M17.42,126.2c0,0,0.78-2.46,0.78-2.46c0.18-0.8,0.34-1.6,0.44-2.17l0-0.01l2.63-0.3l0.24,0.04
								l2.74,0.48c0,0-0.8,4.3-0.57,5.52c0.24,1.22,2.17,3.28,2.17,3.28s-3.6-1.6-4.26-1.97C20.94,128.24,17.42,126.2,17.42,126.2z"
								/>
							<path class="st10" d="M28,118.88c-0.76,4.3-5.07,7.14-7.27,6.75c-2.14-0.38-4.41-4.41-4.05-8.83
								c0.36-4.36,3.45-6.69,6.7-6.11C26.63,111.27,28.76,114.58,28,118.88z"/>
							<path class="st16" d="M20.06,113.63c0.45,1.22,1.64,1.97,4.26,2.23c1.88,0.18,3.05,2.81,3.01,3.85
								c-0.02,0.39,1.36,7.69,1.36,7.69s2.25-9.22-1.29-14.25c-3.54-5.03-8.01-2.29-8.05-1.91
								C19.3,111.62,19.84,113.04,20.06,113.63z"/>
							<path class="st16" d="M21.15,112.64c0,0-0.02,1.84-1.58,2.14c-2.94,0.58-2.42,11.14-2.42,11.14s-3.16-13.23,2.19-14.7
								C22.39,110.39,21.15,112.64,21.15,112.64z"/>
							<path class="st10" d="M14.63,214.69c0,0-0.42,4.68-0.62,5.17c-0.2,0.49-1.51,2.16-2.2,1.88c-1.94-0.79-2.04-4.81-1.47-5.95
								c0.33-0.66,0.65-1.37,0.91-1.83c0.69-1.23,1.29-1.76,1.29-1.76L14.63,214.69z"/>
							<path class="st10" d="M26.12,192.2c1.82,1.65,1.91,3.2-0.75,7.7c-2.66,4.5-10.85,15.87-11.4,15.49
								c-0.55-0.38-2.63-2.04-1.57-3.34c0.72-0.88,0.84-2.58,1.82-5.18c1.68-4.49,3.93-10.13,4.47-11.05
								C19.56,194.34,23.2,189.57,26.12,192.2z"/>
							<path class="st10" d="M10.28,168.61c-0.52,2.34,0.59,5.95,2.51,10.52c2.62,6.22,8.28,14.78,8.81,15.62
								c2.4,3.82,6.49,2.45,6.16-1.05c-0.09-0.96-4.67-19.51-5.5-21.5c-0.83-1.99-2.15-5.7-4.3-7.55
								C16.35,163.26,11.05,165.12,10.28,168.61z"/>
							<g>
								<path class="st13" d="M28.15,131.54l-0.02,10.34c0,0-2.41,7.12-1.49,10.64c0.92,3.51,4.79,7.51,7.01,12.39
									c2.22,4.88,0,20.82,0,20.82s-5.92,1.9-7.78-0.04c-1.86-1.94-4.74-1.28-5.8-0.49c-1.07,0.79-3.76,3.43-3.76,3.43
									s-5.38-8.66-6.52-16.77c-0.91-6.48,1.52-14.59,1.04-17.89c-0.48-3.3-2.44-16.6-2.44-16.6s2.79,0.28,5.83,0.43
									c0.92,0.04-1.79-8.54-0.9-8.53c2.17,0.02,2.9,9.32,8.32,8.1c4.03-0.91,3.93-7.1,3.93-7.1L28.15,131.54z"/>
								<path class="st12" d="M12.83,144.75c1.19-0.79,8.6,1.68,11.53,1.09c2.34-0.47,3.33-2.68,3.64-3.56
									c-0.48,1.52-2.16,7.22-1.37,10.25c0.92,3.51,4.79,7.51,7.01,12.39c2.22,4.88,0,20.82,0,20.82s-5.92,1.9-7.78-0.04
									c-0.03-0.03-0.07-0.05-0.1-0.09l-3.36-9.92c0,0,5.45,1.58,5.37-3.16c-0.08-4.74-4.76-15.42-6.12-18.18
									C20.28,151.57,11.64,145.54,12.83,144.75z"/>
							</g>
							<path class="st6" d="M14.26,128.54c0,0,1.47,4.06,1.96,6.87c0.49,2.8-4.52,25.61-5.36,30.35
								c-0.83,4.74-0.53,12.08-0.53,12.08l-2.82-2.75c0,0,1.97-12.29,1.92-19.05c-0.05-6.76-2.76-23.28-2.25-25.46
								C7.7,128.42,14.26,128.54,14.26,128.54z"/>
							<path class="st6" d="M26.37,130.59c0,0,1.34,10.56,1.18,13.22c-0.16,2.67,1.53,13.52,1.53,13.52s2.82-21.65,2.55-23.04
								C31.28,132.38,26.37,130.59,26.37,130.59z"/>
							<path class="st11" d="M8.99,129.46c-1.64-0.21-3.5,4.71-4.09,10.14c-1.02,9.44-2.74,12.35,0.14,13
								c2.61,0.58,3.19-3.24,5.14-11.16C11.7,135.25,12.39,129.9,8.99,129.46z"/>
							<path class="st10" d="M4.52,149.23c1.25-0.85,4.37,0.08,7.33,3.91c3.41,4.42,8.4,10.67,7.37,11.54
								c-0.48,0.41-1.32,0.15-2.12-0.76c-1.67-1.93-5.42-4.31-8.26-6.6C4.46,153.79,2.1,150.87,4.52,149.23z"/>
							<path class="st10" d="M24.56,162.61c0.03-0.28-5.06-2.11-8,0.25c-0.53,0.43,1.09,1.82,1.92,2.13
								c0.45,0.17,1.14,0.18,1.68-0.32C22.44,162.58,24.45,163.65,24.56,162.61z"/>
							<path class="st10" d="M18.68,162.8c0,0,0.97-0.34,2.29-0.47c0.14-0.01,0.35-0.11,0.48-0.13c0.11-0.01,0.33,0.04,0.44,0.03
								c0.1-0.01,0.19-0.08,0.29-0.09c0.13-0.01,0.31,0.1,0.44,0.09c0.11-0.01,0.31-0.08,0.41-0.09c0.39-0.07,0.42,0.21,0.54,0.2
								c0.38-0.03,0.49-0.03,0.56-0.01c0.34,0.08,1.4,1.21,1.51,1.44c0.11,0.23,1.02,1.36,0.92,1.48c-0.1,0.12-0.65,0.22-1.22-0.33
								c-0.57-0.55-1.29-1.19-1.2-1.03c0.09,0.15,0.34,1.11,0.36,1.52c0.02,0.26-0.26,0.33-0.47,0.3c-0.13-0.02-0.58-0.6-0.58-0.6
								s-0.26,0.46-0.37,0.46c-0.39-0.02-0.58-0.56-0.7-0.71c-0.1-0.13-0.19,0.48-0.36,0.45c-0.62-0.1-0.79-1.64-1.4-1.47
								C20.3,163.91,18.95,163.67,18.68,162.8z"/>
						</g>
						<g>
							<path class="st16" d="M68.65,111.87c0,0,2.06-2.94,4.29-1.19c2.24,1.75,2.09,5.51,0.99,6.68c-1.1,1.17-2.96,6.34-2.6,6.42
								c0.36,0.08-0.11,0.96-0.93,0.81c-0.82-0.15-3.1-1.14-2.28-3.71c0.82-2.56,0.18-4.58,0.18-4.58L68.65,111.87z"/>
							<path class="st11" d="M66.4,219.61c0.15,1.26,0.72,2.02,1.08,2.62c0.43,0.73,0.42,2,0.07,2.36c-0.94,1-2.11,0.74-3.27,1.57
								c-1.16,0.83-2.8,3.65-3.81,3.97c-1,0.31-3.33,0.36-3.51-0.11c-0.18-0.48,2.15-2.41,2.15-2.41c3.37-4.73,3.63-6.87,3.63-6.87
								S66.37,219.42,66.4,219.61z"/>
							<path class="st8" d="M59.11,227.6c0,0-0.66,0.63-0.54,0.8c0.18,0.25,1.22,0.08,1.49-0.07c2.39-1.41,5.52-4.34,6.14-5.22
								c0.65-0.92,0.69-1.88,0.69-1.88c0.21,0,1.17,1.34,1.02,2.42c-0.04,0.24-0.26,0.84-0.37,0.95c-0.53,0.56-2.38,1.6-2.88,1.96
								c-1.16,0.83-2.66,3.65-3.66,3.97c-1,0.31-4.46,0.48-4.63,0C56.23,230.15,58.02,228.46,59.11,227.6z"/>
							<path class="st8" d="M67.92,223.45c0,0-0.6,1.99-0.77,2.66c-0.26,1.01-0.34,3.14-0.34,3.14h-0.45c0,0,0.33-4.02-1.7-2.69
								C64.03,226.97,67.92,223.45,67.92,223.45z"/>
							<path class="st11" d="M66.31,190.76c2.75,2.7,3.35,9.73,3.2,12.43c-0.15,2.7-3.35,16.88-3.2,17.86
								c0.15,0.97-3.61,0.23-3.58-0.32c0.29-5.45-1.22-19.85-1.45-21.27c-0.22-1.42-0.98-7.92-0.98-8.56
								C60.26,187.59,64.74,189.22,66.31,190.76z"/>
							<path class="st7" d="M83.3,225.1c0,0,1.42,3.41,1.4,4.32c-0.02,0.92-0.45,3.09-1.15,3.19c-0.7,0.1-2.46-1.54-2.65-1.78
								c-1.24-1.53-1.27-4.6-1.27-4.6L83.3,225.1z"/>
							<path class="st10" d="M82.57,223.17c0,0,1.12,2.57,1.36,4.64c0.06,0.47-0.29,2.4-0.96,2.42c-1.88,0.05-3.42-3.22-3.36-4.36
								c0.06-1.14,0.11-2.38,0.11-2.38L82.57,223.17z"/>
							<path class="st10" d="M75.53,190.37c-2.47,0.48-3.1,2.2-1.88,9.46c0.92,5.51,4.37,17.95,6,23.68
								c0.52,1.82,0.33,3.04,0.5,3.04c0.7-0.01,2.81-0.05,3.02-1.68c0.05-0.35-0.76-1.56-0.76-2.54
								c-0.02-5.67-0.06-20.02-0.39-22.02C81.62,197.94,79.48,189.6,75.53,190.37z"/>
							<path class="st24" d="M59.17,128.65c-1.57-0.53-4.34,3.94-5.97,9.14c-2.83,9.04-5.61,10.53-2.54,12.18
								c3.81,2.05,3.91-1.98,7.35-9.36C60.71,134.85,62.42,129.74,59.17,128.65z"/>
							<path class="st11" d="M57.56,164.26c-1.15,2.1-1.1,5.87-0.53,10.78c0.78,6.69,2.98,17.35,3.25,18.3
								c1.24,4.34,5.51,4.15,6.17,0.71c0.18-0.95,1.64-20.19,1.4-22.32c-0.24-2.14-1.41-6.06-2.95-8.43
								C63.75,161.53,59.27,161.14,57.56,164.26z"/>
							<path class="st10" d="M77.11,164.41c1.54,1.83,2.23,5.54,2.64,10.47c0.55,6.72,0.29,16.82,0.21,17.8
								c-0.36,4.5-5.41,5.25-6.73,2c-0.36-0.9-4.87-19.42-5.06-21.57s-0.73-6.03,0.32-8.67C69.27,162.49,74.81,161.69,77.11,164.41z
								"/>
							<path class="st17" d="M58.23,161.16c-0.77,2.02-1.37,3.9-1.1,4.94c0.79,3.05,9.78,5.63,9.78,5.63h0.59v-9.88
								C64.04,161.85,61.7,161.16,58.23,161.16z"/>
							<path class="st24" d="M78.63,131.04c-0.61-1.38-3.79-2-5.24-2.43c-1.49-0.44-5.88-0.59-5.88-0.59s-6.95,0.69-8.46,0.64
								c-0.64-0.02-1.1,2.27-1.35,2.92c-1.38,3.67-3.01,7.94,0.43,10.92c0.79,0.68,1.47,8.42,1.47,12.01c0,1.49-0.31,3.86-1.38,6.65
								c3.47,0,5.81,0.7,9.28,0.7c3.47,0,6.93,0,10.4,0c-1.07-2.79-2.23-5.88-2.5-7.35C73.39,143.47,79.56,133.13,78.63,131.04z"/>
							<path class="st17" d="M67.51,161.85v9.88h0.59c0,0,10.11-1.88,10.9-4.93c0.27-1.05-0.32-2.93-1.1-4.95
								C74.44,161.85,70.98,161.85,67.51,161.85z"/>
							<path class="st10" d="M70.69,125.76c-0.45-1.16-0.4-5.52-0.4-5.52h-2.78h-2.78c0,0,0.04,4.37-0.4,5.52
								c-0.45,1.16-2.21,2.56-2.21,2.56l4.08,1.89l5.9-2.19C72.1,128.01,71.13,126.91,70.69,125.76z"/>
							<path class="st11" d="M70.31,122.39c-0.04-1.16-0.03-2.16-0.03-2.16h-2.78h-2.78c0,0,0.04,4.37-0.4,5.52
								c-0.45,1.16-2.7,2.85-2.7,2.85L70.31,122.39L70.31,122.39z"/>
							<path class="st10" d="M72.4,118.48c-1.27,4.17-5.88,6.47-8.01,5.82c-2.07-0.63-3.85-4.9-2.96-9.23
								c0.87-4.27,4.21-6.22,7.37-5.26C71.95,110.77,73.67,114.31,72.4,118.48z"/>
							<path class="st16" d="M65.16,112.32c0.3,1.26,1.39,2.15,3.95,2.72c1.84,0.41,2.68,3.15,2.52,4.17
								c-0.06,0.39-0.77,2.21-0.77,2.21s4.52-3.3,1.62-8.71c-2.9-5.41-7.66-3.23-7.75-2.85C64.65,110.24,65.01,111.72,65.16,112.32z
								"/>
							<path class="st16" d="M66.36,111.47c0,0-0.24,1.79-1.82,1.94c-1.57,0.15-3.22,1.22-3.22,1.22s0.29-4.28,3.41-4.76
								C67.86,109.38,66.36,111.47,66.36,111.47z"/>
							<path class="st25" d="M70.45,143.46c-0.92-0.43-2.94-0.25-7.69-0.49c-4.75-0.25-5.42-2.65-6.12-3.69
								c-0.68-1.02-0.04-4.43,0-4.62c-0.82,2.81-1.01,5.67,1.5,7.84c0.79,0.68,1.47,8.42,1.47,12.01c0,1.49-0.31,3.86-1.38,6.65
								c2.2,0,3.95,0.28,5.81,0.49c0,0-0.62-2.57-0.61-3.95c0.03-5.17,10.26-1.58,11.4-3.79c1.14-2.22-4.01-7.61-3.46-8.35
								C71.93,144.82,71.37,143.89,70.45,143.46z"/>
							<polygon class="st4" points="65.71,128.75 66.2,130.21 63.59,129.12 							"/>
							<polygon class="st4" points="66.2,130.21 66.74,128.75 68.28,129.48 							"/>
							<path class="st26" d="M58.23,161.16c0,0-1.52,2.53-1.83,7.15c-0.31,4.62,3,25.87,3,25.87l9.17,0.52l12.16-0.95
								c0,0-0.28-19.42-0.84-25.22c-0.55-5.8-2.2-7.23-2.2-7.23l-11.03,0.44L58.23,161.16z"/>
							<polygon class="st27" points="66.74,128.75 68.42,131.27 73.39,128.61 71.59,126.24 							"/>
							<polygon class="st27" points="60.89,128.61 63.11,126.6 65.71,128.75 63.84,131.05 							"/>
							<path class="st28" d="M66.16,180.84c-0.65,0.74-0.36,6.54-1.35,7.66c-1.06,1.2-2.62,1.02-3.52-1.02
								c-0.9-2.03-3.27-16.42-1.36-21.46c1.36-3.56,4.12-4.39,4.12-4.39l-0.35-0.11l-5.47-0.38c0,0-1.52,2.53-1.83,7.15
								c-0.31,4.62,3,25.87,3,25.87l9.17,0.52l1.96-0.11c0,0-2.16-0.45-2.5-2.45C67.36,188.13,66.71,180.21,66.16,180.84z"/>
							<path class="st24" d="M77.45,129.99c1.86,0.22,2.63,5.41,1.86,10.74c-1.33,9.28-0.21,12.51-3.53,12.38
								c-3.02-0.12-2.66-3.92-2.75-11.99C72.95,134.82,73.59,129.53,77.45,129.99z"/>
							
								<rect x="57.07" y="134.22" transform="matrix(0.9999 -0.0155 0.0155 0.9999 -2.2179 1.0103)" class="st13" width="13.92" height="18.57"/>
							<path class="st12" d="M59.18,134.39c0,0,0.86,6.41,3.27,9.36c2.41,2.94,8.58,3.85,8.58,3.85l0.1,5.09l-13.92,0.22
								l-0.29-18.57L59.18,134.39z"/>
							<path class="st10" d="M53.94,149.27c1-1.16,0.12-3.65-3.44-6.6c-4.11-3.41-9.92-8.39-10.76-7.32
								c-1.15,1.47,3.55,6.13,6.75,10.48C49.73,150.25,51.87,151.67,53.94,149.27z"/>
							<path class="st10" d="M78.13,151.48c0.39-1.43-2.41-3.89-6.69-5.05c-4.92-1.34-11.95-3.39-12.25-2.1
								c-0.4,1.76,5.54,3.97,10.07,6.51C73.85,153.43,77.32,154.43,78.13,151.48z"/>
							<g>
								<path class="st10" d="M55.89,144.52L55.89,144.52c0.06-0.23,0.3-0.37,0.53-0.31l1.79,0.49c0.23,0.06,0.37,0.3,0.3,0.53l0,0
									c-0.06,0.23-0.3,0.37-0.53,0.3l-1.79-0.49C55.96,144.99,55.82,144.75,55.89,144.52z"/>
								<path class="st10" d="M56.03,143.71L56.03,143.71c0.06-0.23,0.3-0.37,0.53-0.31l1.79,0.49c0.23,0.06,0.37,0.3,0.3,0.53l0,0
									c-0.06,0.23-0.3,0.37-0.53,0.3l-1.79-0.49C56.1,144.19,55.96,143.95,56.03,143.71z"/>
								<path class="st10" d="M56.21,142.94L56.21,142.94c0.06-0.23,0.3-0.37,0.53-0.31l1.79,0.49c0.23,0.06,0.37,0.3,0.3,0.53l0,0
									c-0.06,0.23-0.3,0.37-0.53,0.3l-1.79-0.49C56.28,143.41,56.14,143.17,56.21,142.94z"/>
								<path class="st10" d="M56.46,142.21L56.46,142.21c0.06-0.23,0.3-0.37,0.53-0.31l1.79,0.49c0.23,0.06,0.37,0.3,0.3,0.53l0,0
									c-0.06,0.23-0.3,0.37-0.53,0.3l-1.79-0.49C56.53,142.68,56.39,142.44,56.46,142.21z"/>
								<path class="st10" d="M62.41,144.2c0,0-2.17-1.67-2.72-1.89c-0.55-0.23-2.89-0.4-2.89-0.4s0.48,0.94,0.27,1.43
									c-0.21,0.49-0.88,1.72-0.88,1.72s1.69,0.76,2.6,1.01c1.41,0.39,2.23,0.4,2.23,0.4L62.41,144.2z"/>
							</g>
							<g>
								<path class="st10" d="M42.64,136.64c0,0-0.94-2.36-2.58-2.31c-1.64,0.05-2.99,1.53-3.39,1.78
									c-1.63,1.05-3.99,0.32-5.08,0.77c-1.08,0.45-0.93,1.17-0.5,1.14c2.43-0.17,3.96,0.48,5.02,0.27
									c1.06-0.21,5.15,0.11,5.15,0.11L42.64,136.64z"/>
								<path class="st10" d="M41.73,135.19c0,0-1.36-1.21-2.43-1.31c-1.07-0.09-2.04,0.94-2.94,0.98c-0.9,0.04-0.55,0.49-0.45,0.61
									c0.1,0.12,1.21,0.05,1.72,0.1C38.14,135.61,40.26,136.84,41.73,135.19z"/>
							</g>
						</g>
						<g>
							<path class="st10" d="M-19.59,148.48c2.77,1.65,5.68-4.37,6.96-7.39c1.27-3.01,4.09-12.16,4.09-12.16l-3.17-1.57
								c0,0-5.5,6.8-9.44,14.92C-21.56,143.1-22.41,146.8-19.59,148.48z"/>
							<path class="st8" d="M-49.15,233.7c0,0,2.02,3.73,1.7,4.53c-0.18,0.46-1.69,1.93-3.78,1.61c-1.59-0.24-3.85-2.22-4.24-2.35
								c-0.9-0.29,0.17-5.27,0.17-5.27L-49.15,233.7z"/>
							<path class="st10" d="M-35.23,130.54c-2.36,1.8-1.57,4.29,0.36,6.49c1.92,2.2,14.08,11.41,15.02,11.37
								c0.94-0.04,3.97-3.06,3.53-4.34c-0.44-1.28-9.58-10.69-11.48-12.22C-29.69,130.3-32.47,128.43-35.23,130.54z"/>
							<path class="st28" d="M-32.76,129.61c1.13-0.07,3.87,0.16,7.1,3.39c2.15,2.16,6.16,6.38,6.16,6.38s-0.73,2.19-2.73,3.99
								c-2.32,2.09-4.51,2.42-4.51,2.42s-8.59-8.62-9.27-11C-36.21,134.08-35.88,129.82-32.76,129.61z"/>
							<path class="st10" d="M-40.81,118.22c0,0-0.39,8.55-0.89,8.96c-1.55,1.29-7.17,2.36-8.22,4.6
								c-1.28,2.72,5.68,14.94,6.58,18.98c0.9,4.04-1,10.29-1.62,14.24c-0.62,3.96,11.82,8.78,12.28,8.78
								c0.46,0,4.47-3.74,5.24-5.03c0.76-1.29,0.04-11.44,0.04-14.03c0.01-2.59,0.63-11.66,0.75-12.25
								c0.79-3.96-0.23-7.09-0.38-7.93c-0.15-0.84-0.1-2.24-0.52-2.78c-0.83-1.07-5.49-2.49-5.56-3.02
								c-0.07-0.53-0.69-7.96-0.69-7.96L-40.81,118.22z"/>
							<path class="st26" d="M-41.69,127.19l7.5,4.5l1.08-2.92c0,0,4.92,1.55,5.56,2.62c0.64,1.07,0.94,3.78,1.15,4.64
								c0.21,0.86,0.32,4.82-0.02,8.26c-0.2,2.01-0.16,4.67-0.47,8.09c-0.27,2.93,0.04,10.23,0.04,10.23s-2.8,0.11-7.13-0.11
								c-5.02-0.26-10.09-1.04-10.31-1.22c-0.97-0.8,0.39-8.57,0.22-9.43c-0.17-0.86-6.31-15.77-6.41-17.72
								c-0.1-1.95,0.91-3.24,2.39-3.97C-46.63,129.4-41.69,127.19-41.69,127.19z"/>
							<path class="st28" d="M-47.37,129.78c0,0-4.9,2.7-0.05,6.46c2.09,1.62,12.11,4.16,13.99,4.73
								c6.74,2.07-3.68,16.99-4.48,18.12c-0.8,1.13-0.79,2.67-0.79,2.67l-6.48-0.74c-2.01,0.39,1.07-9.25,0.31-11.34
								c-0.76-2.09-5.62-14-5.62-15.57C-50.49,130.62-47.37,129.78-47.37,129.78z"/>
							<polygon class="st11" points="-33.54,124.02 -41.12,121.28 -41.32,125.77 -38.98,127.19 							"/>
							<g>
								<path class="st10" d="M-31.9,109.59c-1.97-1.67-7.65-3.06-10.26,0.74c-2.61,3.8-1.26,7.4,0.32,9.6
									c1.23,1.71,2.4,2.64,4.67,3.56c0.46,0.19,4.62,0.74,5.44,0.43c0.56-0.21,0.83-4.34,1-4.33c0.17,0.01,0.61-0.25,0.62-0.59
									c0.02-0.49-0.63-3.42-0.52-3.74C-30.53,114.94-29.64,111.51-31.9,109.59z"/>
								<path class="st16" d="M-30.69,111.38c0,0-3.21-1.65-6.99,2.07c-0.81,0.8,0.91,4.01,0.71,4.3c-0.21,0.32-3.2-2.27-3.07-1.9
									c1.28,3.74,0.13,5.87-0.22,5.91c-1.04,0.11-4.48-5.1-3.05-9.48c1.43-4.38,6.04-4.99,7.15-4.8
									C-35.04,107.67-31.69,107.78-30.69,111.38z"/>
								<path class="st10" d="M-38.17,116.62c0.42,1.19,0.65,2.81,0.01,3.02c-0.64,0.22-1.5-0.57-1.92-1.76
									c-0.42-1.19-0.23-2.33,0.41-2.55C-39.03,115.12-38.59,115.43-38.17,116.62z"/>
							</g>
							<g>
								<rect x="-37.8" y="233.97" class="st8" width="4.86" height="0.91"/>
								<path class="st8" d="M-37.61,227.58c-0.64,0.89-1.07,2.62-1.13,3.41c-0.08,0.96,0.49,2.97,1.12,2.97
									c1.84,0,4.03,0.07,5.92,0.33c1.89,0.26,2.6,1.34,7.44,1.33c1.41,0,3.91-0.09,3.91-0.67c0-2.51-4.65-1.62-6.12-2.98
									c-3.73-3.44-6.21-4.27-6.21-4.27S-37.48,227.4-37.61,227.58z"/>
							</g>
							<path class="st12" d="M-35.3,161.42c0,0-6.47,6.47-6.77,9.28c-0.3,2.82,2.43,11.84,3.39,18.93c0.96,7.09,1.56,8.53,1.32,10.2
								c-0.24,1.67-2.14,8.46-2.08,12.98c0.08,5.27-0.2,16.07-0.2,16.07s1.41,1.1,5.04,1.09c2.34-0.01,4.35-1.67,4.35-1.67
								s1.46-26.49,1.75-29.28c0.19-1.8,1.66-14.23,2.12-24.36c0.15-3.26-0.6-12.58-0.6-13.93L-35.3,161.42z"/>
							<polygon class="st4" points="-34.53,129.91 -34.2,131.68 -38.15,129.34 							"/>
							<polygon class="st4" points="-34.2,131.68 -33.57,129.48 -32.62,130.22 							"/>
							<path class="st13" d="M-45.38,160.97c0,0-2.59,6.34-3.61,10.57c-1.03,4.24-2.25,26.16-2.62,28.22
								c-0.37,2.06-1.66,8.37-2.65,14.59c-1,6.23-1.59,18.74-1.59,18.74l7.98,1.25c0,0,4.76-26.24,5.5-30.36
								c0.75-4.12,8.66-33.36,8.66-33.36l0.98-9.41L-45.38,160.97z"/>
							<path class="st12" d="M-45.13,178.89c-0.67,2.81-2.62,21.87-2.78,22.95c-0.15,1.05-5.09,30.31-5.32,31.67l-2.63-0.41
								c0,0,0.59-12.51,1.59-18.74c1-6.23,2.29-12.53,2.65-14.59c0.37-2.06,1.59-23.99,2.62-28.22c1.03-4.24,3.61-10.57,3.61-10.57
								l6.99,0.21C-38.39,161.19-44.46,176.08-45.13,178.89z"/>
							<path class="st29" d="M-45.56,160.97c0,0,12.28,0.21,13.01,0.22c0.73,0.02,5.56-0.46,5.56-0.46l0.09,1.94
								c0,0-4.68,0.39-6.92,0.39c-2.24,0-12.19-0.52-12.19-0.52L-45.56,160.97z"/>
							<path class="st30" d="M-31.91,163.32h-0.88c-0.62,0-1.12-0.5-1.12-1.12l0,0c0-0.62,0.5-1.12,1.12-1.12h0.88
								c0.62,0,1.12,0.5,1.12,1.12v0C-30.79,162.82-31.29,163.32-31.91,163.32z"/>
							<polygon class="st27" points="-42.73,127.65 -41.32,125.77 -34.53,129.91 -35.61,132.33 							"/>
							<polygon class="st27" points="-33.57,129.48 -31.96,131.33 -31.7,129.36 -33.05,128.06 							"/>
							<path class="st10" d="M-47.88,131.22c-2.91,0.57-3.34,3.08-2.64,5.83c0.7,2.75,8.1,18.17,8.95,18.55
								c0.85,0.37,4.91-0.97,5.11-2.28c0.19-1.31-4.44-15.61-5.42-17.77C-42.86,133.39-44.47,130.56-47.88,131.22z"/>
							<path class="st26" d="M-45.32,131.25c1.04,0.44,3.3,1.85,3.83,3.93c0.76,2.95,3.3,10.55,3.3,10.55s-1.63,1.63-4.23,2.34
								c-3.01,0.83-5.11,0.14-5.11,0.14s-3.57-11.52-3.35-13.99C-50.71,132.24-48.21,130.03-45.32,131.25z"/>
							<path class="st10" d="M-41.89,151.15c-2.62,1.89,1.74,6.96,4,9.33c2.25,2.37,9.52,8.6,9.52,8.6l2.71-2.28
								c0,0-4.04-7.75-9.91-14.61C-36.18,151.49-39.23,149.23-41.89,151.15z"/>
							<path class="st10" d="M-12.5,126.47c0,0,0.6-3.1,1.08-3.64c0.48-0.54,2.75-5.09,3.1-4.54c0.41,0.65-1.28,4.43-1.15,4.5
								c0.12,0.07,2.2,0.9,2.84,1.54c0.64,0.64-1.98,4.72-1.98,4.72l-3.01,0.55L-12.5,126.47z"/>
							<g>
								<path class="st31" d="M-17.34,165.77l0.67-0.44c0.15-0.1,0.36-0.06,0.46,0.1l0,0c0.1,0.15,0.06,0.36-0.1,0.46l-0.67,0.44
									c-0.15,0.1-0.36,0.06-0.46-0.1l0,0C-17.53,166.07-17.49,165.87-17.34,165.77z"/>
								<path class="st32" d="M-27.01,172.82L-27.01,172.82c-0.18-0.26,0.88-1.29,1.14-1.47l8.26-5.64c0.26-0.18,0.62-0.11,0.8,0.15
									l0,0c0.18,0.26,0.11,0.62-0.15,0.8l-8.26,5.64C-25.49,172.48-26.83,173.08-27.01,172.82z"/>
								
									<rect x="-18.63" y="166.36" transform="matrix(0.5843 0.8115 -0.8115 0.5843 127.7553 83.8842)" class="st31" width="1.25" height="0.59"/>
								<path class="st33" d="M-20.52,168.49L-20.52,168.49c-0.06-0.08-0.04-0.2,0.04-0.26l2.72-1.91c0.08-0.06,0.2-0.04,0.26,0.04
									l0,0c0.06,0.08,0.04,0.2-0.05,0.26l-2.72,1.91C-20.34,168.59-20.46,168.57-20.52,168.49z"/>
							</g>
							<g>
								<path class="st10" d="M-24.84,174.3L-24.84,174.3c0.3-0.17,0.4-0.56,0.23-0.85l-1.33-2.32c-0.17-0.3-0.56-0.4-0.86-0.23l0,0
									c-0.3,0.17-0.4,0.56-0.23,0.85l1.33,2.32C-25.53,174.37-25.14,174.47-24.84,174.3z"/>
								<path class="st10" d="M-23.77,173.81L-23.77,173.81c0.3-0.17,0.4-0.56,0.23-0.85l-1.33-2.32c-0.17-0.3-0.56-0.4-0.86-0.23
									l0,0c-0.3,0.17-0.4,0.56-0.23,0.85l1.33,2.32C-24.45,173.88-24.07,173.99-23.77,173.81z"/>
								<path class="st10" d="M-22.76,173.28L-22.76,173.28c0.3-0.17,0.4-0.56,0.23-0.86l-1.33-2.32c-0.17-0.3-0.56-0.4-0.86-0.23
									l0,0c-0.3,0.17-0.4,0.56-0.23,0.85l1.33,2.32C-23.44,173.34-23.05,173.45-22.76,173.28z"/>
								<path class="st10" d="M-21.83,172.67L-21.83,172.67c0.3-0.17,0.4-0.56,0.23-0.86l-1.33-2.32c-0.17-0.3-0.56-0.4-0.86-0.23
									l0,0c-0.3,0.17-0.4,0.56-0.23,0.85l1.33,2.32C-22.51,172.73-22.13,172.84-21.83,172.67z"/>
								<path class="st10" d="M-27.22,164.87c0,0,3.57,2.62,4.09,3.31c0.52,0.69,1.61,3.89,1.61,3.89s-1.49-0.33-2.1,0.15
									c-0.61,0.48-2.08,1.85-2.08,1.85s-2.07-2.09-2.67-3.31c-0.61-1.23-0.92-2.57-0.92-2.57L-27.22,164.87z"/>
							</g>
						</g>
						<g>
							
								<rect x="-51.75" y="201.46" transform="matrix(6.123234e-17 -1 1 6.123234e-17 -225.5842 181.4695)" class="st34" width="59.38" height="4.14"/>
							
								<rect x="208.96" y="201.46" transform="matrix(6.123234e-17 -1 1 6.123234e-17 35.1249 442.1786)" class="st34" width="59.38" height="4.14"/>
							<rect x="-23.55" y="174.83" class="st34" width="263.58" height="8.96"/>
							<polygon class="st35" points="240.65,180.89 -24.13,181.78 -24.13,178.81 240.65,178.84 							"/>
							<rect x="-29.11" y="173.67" class="st6" width="275.04" height="5.21"/>
						</g>
						<g>
							<path class="st8" d="M85.14,238.54c0,0-2.74-1.04-4.14-1c-1,0.03-2.26,0.85-2.33,1.71c-0.03,0.33,0.36,0.74,0.71,1.15
								c0.31,0.37,4.56,3.35,5.47,3.45c1.57,0.18,3.24,0.17,4.1-0.13c0.88-0.32,0.89-3.35,0.89-3.35L85.14,238.54z"/>
							<path class="st10" d="M108.7,134.75c1.72-0.89,4.44,0.36,5.81,4.55c1.37,4.19,4.51,15.23,4.94,17.07
								c0.43,1.85,2.12,5.63-1.39,7.26c-3.45,1.61-5.01-2.08-6.27-4.94C106.2,146.03,104.08,137.15,108.7,134.75z"/>
							<path class="st10" d="M75.49,157.18c-0.65-1.72-2.11-2.87-7.09-1.64c-4.98,1.23-15.27,5.02-15.27,5.02l0.35,2.78
								c0,0,10.53,0.37,13.27-0.18C69.49,162.61,77.2,161.69,75.49,157.18z"/>
							<path class="st10" d="M119.62,159.41c-0.65-1.72-2.11-2.87-7.09-1.64c-4.98,1.23-15.27,5.02-15.27,5.02l0.35,2.78
								c0,0,10.53,0.37,13.27-0.18C113.62,164.84,121.33,163.92,119.62,159.41z"/>
							<path class="st8" d="M105.89,239.21c0,0,2.74-1.03,4.14-0.99c1.01,0.03,2.26,0.85,2.32,1.71c0.02,0.33-0.36,0.74-0.71,1.15
								c-0.31,0.37-4.57,3.34-5.48,3.44c-1.57,0.17-3.24,0.17-4.1-0.14c-0.88-0.32-0.89-3.36-0.89-3.36L105.89,239.21z"/>
							<path class="st10" d="M88.09,154.38c-1.91-5.85-6.84-15.89-3.96-17.63c3.76-2.28,14.59-3.68,14.59-3.68l0,0.19
								c0,0,9.25,1.19,13.02,3.46c2.89,1.74-0.46,11.98-2.37,17.84c-0.46,1.4-0.4,7.7-0.23,13.29c0.04,1.38,1.17,7.71,0.98,10.33
								c-0.06,0.78-8.9,5.62-11.37,5.75l0-0.19c-2.48-0.12-11.32-4.96-11.38-5.74c-0.19-2.62,0.92-8.95,0.97-10.33
								C88.5,162.08,88.55,155.78,88.09,154.38z"/>
							<path class="st10" d="M89.19,136.17c-1.31-1.42-4.3-1.17-7.01,2.3c-2.71,3.47-9.42,12.79-10.45,14.38
								c-1.03,1.59-3.9,4.57-1.16,7.3c2.7,2.68,5.42-0.26,7.57-2.51C87.71,147.63,92.72,139.99,89.19,136.17z"/>
							<path class="st11" d="M94.19,131.33c0.25-1.12,0.86-6.63,0.86-6.63l3.65,0v0.19l3.65,0c0,0,0.62,5.51,0.87,6.63
								c0.25,1.11,3.26,2.8,3.26,2.8l-7.78,0l0-0.19l-7.78,0C90.94,134.13,93.95,132.45,94.19,131.33z"/>
							<path class="st10" d="M104.56,172.03c4.46-0.02,6.2,3.09,6.08,12.63c-0.12,9.54-1.54,19.88-2.16,21.37
								c-0.62,1.49-6.94,1.52-7.56,0.65c-0.62-0.87-2.18-20.66-2.18-23.75C98.74,179.83,99.7,172.04,104.56,172.03z"/>
							<path class="st10" d="M104.83,213.65L104.83,213.65c2.09-0.05,3.77-1.81,3.71-3.9l-0.07-2.79c-0.05-2.09-1.81-3.77-3.9-3.72
								l0,0c-2.09,0.05-3.77,1.81-3.71,3.9l0.07,2.79C100.98,212.03,102.74,213.7,104.83,213.65z"/>
							<path class="st10" d="M104.89,207.83c1.36,0,4.71,0.45,4.53,9.34c-0.18,8.89-3.95,21.08-3.95,21.08l-3.22,0
								c0,0-1.58-16.46-1.59-19.62C100.63,211.44,100.58,207.83,104.89,207.83z"/>
							<path class="st10" d="M92.79,172.09c-4.43-0.48-6.49,2.43-7.37,11.93c-0.88,9.5-0.56,19.94-0.1,21.48
								c0.46,1.54,6.74,2.24,7.45,1.44c0.71-0.8,4.33-20.31,4.66-23.39C97.76,180.47,97.62,172.62,92.79,172.09z"/>
							<path class="st10" d="M88.16,213.46L88.16,213.46c-2.08-0.27-3.56-2.19-3.29-4.27l0.36-2.76c0.27-2.08,2.19-3.56,4.27-3.29h0
								c2.08,0.27,3.56,2.19,3.29,4.27l-0.36,2.76C92.15,212.25,90.23,213.73,88.16,213.46z"/>
							<path class="st10" d="M88.71,207.66c-1.36-0.14-4.73-0.05-5.48,8.82c-0.75,8.86,1.72,21.37,1.72,21.37l3.2,0.34
								c0,0,3.3-16.21,3.64-19.35C92.57,211.7,92.99,208.11,88.71,207.66z"/>
							<path class="st12" d="M109.4,170.11c0,0,1.61,7.86,1.86,12.13c0.25,4.27-1.83,22.96-1.84,25.01
								c-0.01,2.06,0.14,8.37,0.01,14.57c-0.13,6.19-1.72,18.39-1.72,18.39l-7.93-0.19c0,0-0.02-26.19-0.03-30.3
								c0-4.12-1-25.8-1-25.8l-0.01-13.47L109.4,170.11z"/>
							<path class="st12" d="M88.19,169.87c0,0-2.42,7.65-3.12,11.87c-0.7,4.22-0.59,23.02-0.8,25.07
								c-0.21,2.05-1.01,8.31-1.54,14.49c-0.52,6.17-0.19,18.47-0.19,18.47l7.91,0.64c0,0,2.75-26.04,3.18-30.14
								c0.43-4.09,5.15-25.67,5.15-25.67l-0.04-14.15L88.19,169.87z"/>
							<path class="st8" d="M107.13,240.2c0,0,0.17,2.84,0.02,3.67c-0.08,0.48-1.3,0.99-3.37,1.12c-1.58,0.1-3.05-0.45-3.42-0.62
								c-0.92-0.41,0.29-4.33,0.29-4.33L107.13,240.2z"/>
							<path class="st36" d="M89.1,185.89c-0.45,2.8-0.97,21.62-1.05,22.68c-0.08,1.04-2.78,30.06-2.91,31.41l-2.6-0.21
								c0,0-0.33-12.3,0.19-18.47c0.52-6.17,1.33-12.44,1.54-14.49c0.21-2.05,0.1-20.84,0.8-25.07c0.7-4.22,3.12-11.87,3.12-11.87
								l10.55,0.58c0.09,15.25-11.83,11.18-12.2,12.04C86.15,183.4,89.27,184.84,89.1,185.89z"/>
							<path class="st36" d="M105.7,186.54c-0.67,3.54-1.65,20.83-1.52,21.29c0.13,0.45,0.01,32.22,0.01,32.22l-0.14,0.08l-4.27-0.1
								c0,0-0.02-26.19-0.03-30.3c0-4.12-0.74-20.08-0.74-20.08s1.19-3.12,3.1-2.95C103.93,186.86,105.84,185.83,105.7,186.54z"/>
							<path class="st11" d="M92,120.88c0.03,0.48-0.23,1.02-0.18,1.68c0.02,0.26,0.35,0.6,0.38,0.88c0.23,2.27,0.73,4.78,2.02,4.74
								c2.32-0.08,3.71,0.15,5.28,0.15c2.35,0,5.38-2.67,5.92-7.44c0.53-4.59-4.09-8.28-8.4-8.21c-4.16,0.06-5.23,3.21-5.06,7.44
								C91.97,120.37,91.99,120.62,92,120.88z"/>
							<path class="st16" d="M99.27,111.29c-3.45-0.61-8.79,2.44-6.76,4.31c0.61,0.56,0.73,5.88,0.73,5.88s0.73-0.38,1-0.08
								c0.27,0.31,0.48,2.15,0.8,2.98c0.32,0.83,2.36,4,2.93,4c0.58,0,4.28,0.14,4.76-0.37c0.48-0.51,2.08-3.45,2.58-5.05
								C105.81,121.36,108.09,112.86,99.27,111.29z"/>
							<path class="st11" d="M93.7,119.45c0.02-0.18,0.98-0.78,1.44,0.48c0.23,0.63-0.59,3.4-0.75,3.4
								C94.02,123.34,93.62,120.4,93.7,119.45z"/>
							<path class="st5" d="M83.2,136.77c0.49-0.82,3.13-1.49,5.56-2.25c2.14-0.67,3.87-1.57,3.87-1.57l12.1,0.04
								c0,0,2.14,0.93,4.37,1.2c2.73,0.33,3.44,1.55,3.86,2.4c0.42,0.87,0.6,8.79-3,19.15c-0.49,1.42,0.78,11.37-0.46,14.34
								l-10.67,0.98l-10.68-0.95c-0.98-3.41,0.01-13.11-0.49-14.53C87.18,154.16,82.38,138.13,83.2,136.77z"/>
							<polygon class="st27" points="91.37,133.6 106.13,133.61 104.06,131.17 93.43,131.16 							"/>
							<path class="st5" d="M83.88,136.21c0,0-1.78,0.23-4.2,4.56c-1.69,3.04-8.23,11.98-8.23,11.98s1.34,2.65,4.08,4.21
								c2.41,1.37,3.17,1.07,3.17,1.07l8.73-9.46L83.88,136.21z"/>
							<path class="st5" d="M112.05,135.36c0,0,2.7,1.61,4.03,6.95c0.84,3.37,3.67,14.07,3.67,14.07s-2.16,2.03-5.27,2.57
								c-2.73,0.47-3.35-0.07-3.35-0.07l-5-11.86L112.05,135.36z"/>
							<path class="st10" d="M55.06,160.41c0,0-0.82-1.04-0.99-1.17c-0.17-0.13-1.69-1.01-1.99-1.49c-0.3-0.47-0.33-0.84-0.43-0.91
								c-0.1-0.07-1.17,0.02-0.84,0.93c0.32,0.91,1.08,1.61,1.05,1.91c-0.04,0.3-2.07,0.48-2.49,0.34
								c-0.42-0.14-3.04-1.43-3.18-1.49c-0.13-0.05-0.53-0.12-0.63-0.01c-0.1,0.12,0.06,0.85,0.18,0.99
								c0.11,0.13-0.25,0.26-0.22,0.43c0.03,0.17,0.21,0.74,0.21,0.74s0.04,0.7,0.2,0.94c0.16,0.24,0.99,1.21,1.12,1.28
								c0.13,0.07,2.45,1.32,3.06,1.37c0.62,0.04,4.14-0.02,5.22-1.06C55.85,162.74,55.06,160.41,55.06,160.41z"/>
							<path class="st27" d="M109.5,172.27l-21.89-0.03c-0.29,0-0.52-0.23-0.52-0.52l0.45-1.55c0-0.29,0.23-0.52,0.52-0.52h21.44
								c0.29,0,0.52,0.23,0.52,0.52v1.58C110.02,172.04,109.79,172.27,109.5,172.27z"/>
						</g>
						<g>
							<rect x="54.64" y="166.44" class="st37" width="5.86" height="7.27"/>
							<path class="st37" d="M60.26,172.82l-0.11-0.67c0.09-0.02,2.25-0.41,2.25-2.26c0-1.82-2.05-1.86-2.14-1.86l0.01-0.68
								c0.97,0.01,2.81,0.55,2.81,2.53C63.08,171.83,61.23,172.66,60.26,172.82z"/>
						</g>
						<g>
							<rect x="166.44" y="166.44" class="st37" width="5.86" height="7.27"/>
							<path class="st37" d="M172.06,172.82l-0.11-0.67c0.09-0.02,2.25-0.41,2.25-2.26c0-1.82-2.05-1.86-2.14-1.86l0.01-0.68
								c0.97,0.01,2.81,0.55,2.81,2.53C174.88,171.83,173.04,172.66,172.06,172.82z"/>
						</g>
					</g>
					<g>
						<polygon class="st25" points="193.11,146.13 190.59,173.45 197.19,173.61 200.08,142.3 						"/>
						<path class="st25" d="M202.09,132.98c1.48,1.17,0.85,3.79-1.3,6.02c-2.15,2.24-15.7,11.41-16.7,11.32
							c-1-0.09-3.11-1.55-2.58-2.89c0.53-1.34,10.75-10.77,12.83-12.31C196.43,133.59,200.16,131.46,202.09,132.98z"/>
						<path class="st10" d="M183.71,150.83c-1.82-0.22-3.76-4.64-4.85-7.91c-1.09-3.27-3.34-13.34-3.34-13.34l2.81-0.77
							c0,0,7.35,16.43,7.7,17.34C186.38,147.06,186.84,151.21,183.71,150.83z"/>
						<path class="st17" d="M210.98,167.04c0.38,1.74,0.46,3.89,0.37,5.14c-0.31,4.24-14.63,5.5-15.1,5.39
							c-0.47-0.11-5.15-5.15-5.63-6.67c-0.27-0.86,1.61-4.25,2.79-7.77C199.5,164.52,204.89,165.63,210.98,167.04z"/>
						<path class="st11" d="M183.33,226.52c0.51,1.07,0.74,3.79,0.65,4.54c-0.11,0.9-1.08,1.88-1.61,1.97
							c-1.46,0.24-2.77-0.23-4.31-0.28c-1.53-0.05-4.4,0.61-6.52,0.47c-0.93-0.06-3.08-0.42-2.91-0.94
							c0.16-0.52,3.09-1.25,4.63-1.87c3.97-1.62,6.59-3.31,6.59-3.31S183.25,226.34,183.33,226.52z"/>
						<path class="st13" d="M198.97,167.87c2.29,2.73,4.19,8.37-0.03,14.04c-4.01,5.38-9.82,14.93-10.54,15.12
							c-0.72,0.19-5.69-1.89-6.18-2.66c-0.49-0.78,8.68-25.02,9.22-26.29C192.43,165.77,196.36,164.76,198.97,167.87z"/>
						<path class="st13" d="M188.59,195.01c2.49,3.32,1.24,12.12,0.64,14.97c-0.6,2.85-5.59,16.22-5.59,17.28
							c0,1.06-3.71,0.41-3.8-0.17c-0.09-0.59,1.98-22.08,1.98-23.64s0.26-8.59,0.35-9.28C182.66,190.65,187.16,193.11,188.59,195.01
							z"/>
						<path class="st11" d="M202.81,133.19c-1.27-0.07-1.17-1.54-1.11-2.77c0.05-0.05,0.09-0.1,0.1-0.14
							c0.11-0.56,0.29-7.83,0.29-7.83l7.55-2.36c0,0-0.81,7.36-0.51,8.73C207.21,130.79,205.59,133.34,202.81,133.19z"/>
						<path class="st5" d="M195.57,156.92c0.5-3.56-0.89-8.29-1.28-8.79c-0.4-0.5-1.85-2.69-1.77-4.46
							c0.12-2.58,2.91-6.03,3.11-6.91s-0.07-2.17,0.4-2.72c0.87-1.01,4.99-2.91,5.66-3.62c0.66,0.93,5.51,0.37,7.43-1.61
							c0.02,0.1,0.05,0.17,0.08,0.2c1.57,1.44,6.34,2.93,7.34,5.36c1.21,2.95-5.35,9.72-5.71,19.96c-0.11,3.09-0.07,8.7,0.13,12.7
							c-6.24-0.3-11.45-2.19-17.57-3.92C194.94,160.27,195.41,158.1,195.57,156.92z"/>
						<path class="st17" d="M211.17,170.22c1.24,4.72-4.38,10.31-9.16,15.53c-6.43,7.03-11.39,12.91-12.13,13
							c-0.74,0.09-4.71-2.38-5.09-3.22c-0.38-0.83,8.44-18.18,11.67-24.07C201.37,162.52,209.09,162.31,211.17,170.22z"/>
						<path class="st10" d="M173.86,226.94c0.13,1,1.05,2.53,1.09,3.29c0.06,0.91-0.6,1.76-1.11,1.94c-1.39,0.5-1.91,0.42-4.26,1
							c-1.49,0.36-5.36,1.67-6.47,1.48c-1.12-0.19-3.51-0.75-3.45-1.29c0.06-0.54,3.22-0.89,4.61-1.79c3.61-2.32,6.6-5.97,6.6-5.97
							S173.84,226.74,173.86,226.94z"/>
						<path class="st17" d="M190.38,198.71c1.13,4-3.2,11.75-4.79,14.19c-1.59,2.44-11.06,13.12-11.44,14.11
							c-0.38,0.99-3.61-0.95-3.48-1.53c0.13-0.58,9.8-19.89,10.36-21.34c0.55-1.45,3.34-7.94,3.68-8.54
							C186.43,192.5,189.73,196.42,190.38,198.71z"/>
						<path class="st8" d="M183.98,229.12c0.07,0.74,0.06,1.49,0.01,1.93c-0.11,0.9-1.08,1.88-1.61,1.97
							c-1.46,0.24-2.66-0.02-4.2-0.07c-1.53-0.05-4.78,0.37-5.91,0.37c-1.11,0-4.09-0.55-3.93-1.07c0.16-0.52,3.38-1.23,4.92-1.86
							c0,0,1.34,0.8,2.16,0.76C176.22,231.12,183.9,229.14,183.98,229.12z"/>
						<path class="st10" d="M198.18,112.61c1.65-1.97,6.9-4.23,9.99-0.87c3.09,3.35,2.33,7.13,1.15,9.55
							c-0.92,1.89-1.91,2.99-3.96,4.26c-0.42,0.26-4.34,1.46-5.17,1.28c-0.57-0.12-1.46-4.17-1.62-4.14
							c-0.16,0.04-0.63-0.15-0.69-0.48c-0.09-0.48,0.08-3.49-0.07-3.78C197.67,118.12,196.29,114.86,198.18,112.61z"/>
						<path class="st7" d="M174.3,228.32c0.3,0.73,0.63,1.46,0.66,1.91c0.06,0.91-0.6,1.76-1.11,1.94c-1.39,0.5-1.91,0.42-4.26,1
							c-1.49,0.36-5.36,1.67-6.47,1.48c-1.12-0.19-3.51-0.75-3.45-1.29c0.06-0.54,3.22-0.89,4.61-1.79l1.31,0.63L174.3,228.32z"/>
						<path class="st16" d="M197.37,114.17c0,0,4.49,1.45,5.75,1.63c1.26,0.18,2.55,2.65,2.87,3.26c0.32,0.61,3.47,1.93,3.47,1.93
							s2.56-2.73,1.04-6.62c-1.52-3.89-4.77-5.1-7.72-4.72C199.81,110.04,197.19,110.97,197.37,114.17z"/>
						<path class="st4" d="M193.11,146.13c1.63,0.83,2.9,1.09,4.69,1.38c6.61,1.08,7.8-2.64,9.26-4.06c1.74-1.69,3.11-8.3,3.11-8.3
							l5.92,2.5c0,0-4.78,9.7-5.06,14.59c-0.16,2.79-0.06,14.79-0.06,14.79s-5.5-0.31-9.71-1.71c-1.5-0.5,1.19-4.04,1.06-6.99
							c-0.13-2.95-7.01-8.27-7.44-8.84C194.44,148.92,193.11,146.13,193.11,146.13z"/>
						<path class="st10" d="M204.74,119.03c0.25,1.09,0.93,1.87,1.53,1.73c0.59-0.14,0.87-1.13,0.62-2.23
							c-0.25-1.09-0.93-1.87-1.53-1.73C204.77,116.94,204.49,117.94,204.74,119.03z"/>
						<path class="st10" d="M178.87,127.79c0,0-0.73-2.7-1.19-3.15c-0.46-0.45-2.77-4.33-3.04-3.81c-0.32,0.6,1.42,3.84,1.32,3.9
							c-0.1,0.07-1.89,0.94-2.41,1.55c-0.52,0.61,2.06,4.05,2.06,4.05l2.7,0.29L178.87,127.79z"/>
						<path class="st24" d="M210.61,128.82c0,0-3.24,1.66-3.63,5.93c-0.39,4.26,3.23,29.57,3.37,34.22
							c0.13,4.65,0.26,7.12,0.26,7.12l5.48-2.48c0,0-0.5-40.57-1.3-42.06C213.98,130.06,210.61,128.82,210.61,128.82z"/>
						<path class="st24" d="M200.08,131.48l-5.48,7.17l0.8-4.25C195.39,134.4,198.1,131.61,200.08,131.48z"/>
						<path class="st10" d="M220.78,154.3c0.43,0.86,7.05,17.32,7.05,17.32l-2.88,0.72c0,0-5.32-7.99-6.98-10.94
							c-1.66-2.96-3.26-7.4-2.11-8.82C217.84,150.12,220.35,153.44,220.78,154.3z"/>
						<path class="st24" d="M212.43,131.25c1.71-0.81,3.77,0.93,4.82,3.84c1.05,2.92,3.24,19.14,2.72,19.99
							c-0.52,0.85-3.12,1.48-4.09,0.41c-0.96-1.07-4.52-13.8-4.97-16.35C210.46,136.59,210.21,132.3,212.43,131.25z"/>
						<path class="st24" d="M221.18,153.63L221.18,153.63c0.25,0.83-0.22,1.71-1.05,1.97l-3.31,1.01c-0.83,0.25-1.71-0.22-1.97-1.05
							l0,0c-0.25-0.83,0.22-1.71,1.05-1.97l3.31-1.01C220.04,152.33,220.93,152.8,221.18,153.63z"/>
						<path class="st10" d="M224.19,171.2c0.76,1.14,1.56,2.84,3.17,3.04c0.94,0.12,2.77-0.45,3.74-0.47
							c0.97-0.02,1.55,0.23,1.63,0.12c0.38-0.51-0.48-0.92-0.48-0.92c-0.01,0,1.29-0.16,2.11,0.46c0.73,0.56,1.17,1.01,1.56,0.83
							c0.39-0.18-1.63-2.22-2.34-2.4c-0.71-0.18-6.79-1.26-6.79-1.26L224.19,171.2z"/>
						<path class="st16" d="M207.36,117.36c0,0-0.29-4.07,2.93-4.04c3.22,0.03,5.69,3.51,5.65,5.34c-0.1,5.03-4.08,8.62-4.24,9
							c-0.93,2.19,2.75,3.2,1.93,3.63c-0.82,0.43-5.56,0.34-6.67-2.54c-1.11-2.88,2.49-7.96,2.49-7.96L207.36,117.36z"/>
					</g>
				</g>
			</g>
			<g>
				<g>
					<path class="st38" d="M51.44,109.32h-9c-2.14,0-3.88-1.75-3.88-3.88v-0.41c0-2.14,1.75-3.88,3.88-3.88h9
						c2.14,0,3.88,1.75,3.88,3.88v0.41C55.32,107.57,53.57,109.32,51.44,109.32z"/>
					<polygon class="st38" points="52.22,108.99 52.22,111.64 48.57,108.99 					"/>
				</g>
				<g>
					<path class="st39" d="M-21.28,98.4h7.72c3.97,0,7.23-3.25,7.23-7.23l0,0c0-3.97-3.25-7.23-7.23-7.23h-7.72
						c-3.97,0-7.23,3.25-7.23,7.23l0,0C-28.51,95.14-25.26,98.4-21.28,98.4z"/>
					<polygon class="st39" points="-24.77,97.27 -24.77,103.41 -18.23,97.27 					"/>
				</g>
				<g>
					<path class="st39" d="M159.97,96.5h4.57c2.35,0,4.28-1.92,4.28-4.28l0,0c0-2.35-1.92-4.28-4.28-4.28h-4.57
						c-2.35,0-4.28,1.92-4.28,4.28l0,0C155.7,94.58,157.62,96.5,159.97,96.5z"/>
					<polygon class="st39" points="157.91,95.84 157.91,99.47 161.78,95.84 					"/>
				</g>
				<g>
					<path class="st38" d="M195.35,98.12h-13.11c-3.11,0-5.65-2.54-5.65-5.65v-0.59c0-3.11,2.54-5.65,5.65-5.65h13.11
						c3.11,0,5.65,2.54,5.65,5.65v0.59C201,95.57,198.46,98.12,195.35,98.12z"/>
					<polygon class="st38" points="196.48,97.64 196.48,101.5 191.17,97.64 					"/>
				</g>
				<g>
					<path class="st38" d="M117.52,116.79h5.55c2.86,0,5.2-2.34,5.2-5.2v0c0-2.86-2.34-5.2-5.2-5.2h-5.55c-2.86,0-5.2,2.34-5.2,5.2
						v0C112.33,114.45,114.66,116.79,117.52,116.79z"/>
					<polygon class="st38" points="115.02,115.98 115.02,120.4 119.72,115.98 					"/>
				</g>
				<g>
					<path class="st40" d="M28.62,82.07c0-4.04-3.23-7.32-7.22-7.32c-3.99,0-7.22,3.28-7.22,7.32c0,2.04,0.83,3.88,2.16,5.21
						c0.57,0.57,1,0.88,1.43,1.57c0.28,0.45,0.53,1.43,0.53,1.96c0,0.67,0,2.66,0,2.66h6.2v-2.62c0,0,0.15-1.5,0.44-1.96
						c0.36-0.57,0.73-0.89,1.23-1.34C27.67,86.21,28.62,84.26,28.62,82.07z"/>
					<path class="st41" d="M20.47,91.04c-0.06,0-0.11-0.04-0.12-0.09c0-0.02-0.46-3.49-1.88-7.59c-0.15-0.44-0.14-0.73,0.03-0.89
						c0.22-0.2,0.61-0.12,0.89-0.06c0.09,0.02,0.21,0.05,0.24,0.04c0.06-0.01,0.16-0.11,0.24-0.2c0.15-0.17,0.34-0.38,0.65-0.38
						c0,0,0.01,0,0.01,0c0.3,0.01,0.47,0.21,0.61,0.37c0.09,0.11,0.17,0.21,0.25,0.21c0,0,0,0,0.01,0c0.07,0,0.12,0.05,0.13,0.11
						c0,0.06-0.05,0.11-0.12,0.11c-0.22,0-0.34-0.15-0.47-0.3c-0.12-0.14-0.23-0.28-0.41-0.28c0,0-0.01,0-0.01,0
						c-0.19,0-0.32,0.15-0.46,0.3c-0.12,0.13-0.23,0.26-0.4,0.28c-0.08,0.01-0.2-0.01-0.34-0.04c-0.22-0.05-0.53-0.12-0.65-0.01
						c-0.06,0.05-0.13,0.21,0.03,0.67c1.43,4.14,1.88,7.59,1.88,7.61c0.01,0.06-0.03,0.12-0.1,0.13
						C20.49,91.04,20.48,91.04,20.47,91.04z"/>
					<path class="st41" d="M22.29,91.04c-0.01,0-0.02,0-0.03,0c-0.07-0.01-0.11-0.07-0.1-0.13c0.01-0.02,0.48-3.46,1.91-7.6
						c0.16-0.46,0.09-0.62,0.03-0.67c-0.12-0.11-0.42-0.04-0.65,0.01c-0.14,0.03-0.26,0.05-0.34,0.04c-0.16-0.02-0.27-0.15-0.4-0.28
						c-0.13-0.15-0.27-0.3-0.45-0.3c0,0,0,0-0.01,0c-0.17,0-0.29,0.14-0.41,0.28c-0.12,0.15-0.25,0.3-0.47,0.3
						c-0.07,0-0.13-0.05-0.12-0.11c0-0.06,0.06-0.11,0.13-0.11c0,0,0,0,0,0c0.08,0,0.17-0.1,0.26-0.21
						c0.14-0.16,0.31-0.37,0.61-0.37c0,0,0.01,0,0.01,0c0.31,0,0.5,0.21,0.65,0.38c0.08,0.09,0.17,0.19,0.24,0.2
						c0.03,0.01,0.15-0.02,0.24-0.04c0.28-0.06,0.67-0.15,0.89,0.06c0.17,0.16,0.18,0.45,0.03,0.89c-1.42,4.11-1.9,7.57-1.91,7.59
						C22.4,91.01,22.35,91.04,22.29,91.04z"/>
					<path class="st41" d="M24.49,93.4c0,1.71-2.26,3.1-3.1,3.1l0,0c-0.87,0-3.1-1.39-3.1-3.1v-2.65h6.2V93.4z"/>
					<path class="st41" d="M22.15,96.39c0,0.23-0.09,0.42-0.21,0.42h-1.08c-0.12,0-0.21-0.19-0.21-0.42l0,0
						c0-0.23,0.09-0.42,0.21-0.42h1.08C22.05,95.96,22.15,96.15,22.15,96.39L22.15,96.39z"/>
					<path class="st42" d="M24.49,91.45c0.01,0.14-0.1,0.26-0.24,0.27l-5.69,0.27c-0.14,0.01-0.26-0.1-0.27-0.24l0,0
						c-0.01-0.14,0.1-0.26,0.24-0.26l5.69-0.27C24.37,91.2,24.49,91.31,24.49,91.45L24.49,91.45z"/>
					<path class="st42" d="M24.49,92.37c0.01,0.14-0.1,0.26-0.24,0.27l-5.69,0.28c-0.14,0.01-0.26-0.1-0.27-0.24l0,0
						c-0.01-0.14,0.1-0.26,0.24-0.27l5.69-0.28C24.37,92.13,24.49,92.23,24.49,92.37L24.49,92.37z"/>
					<path class="st42" d="M24.49,93.3c0.01,0.14-0.1,0.26-0.24,0.27l-5.69,0.27c-0.14,0.01-0.26-0.1-0.27-0.24l0,0
						c-0.01-0.14,0.1-0.26,0.24-0.27l5.69-0.27C24.37,93.06,24.49,93.16,24.49,93.3L24.49,93.3z"/>
					<path class="st43" d="M26.84,80.52c-0.64,0.64-2.11,0.2-3.3-0.98c-1.18-1.18-1.62-2.66-0.98-3.3c0.64-0.64,2.11-0.2,3.3,0.98
						C27.04,78.41,27.48,79.89,26.84,80.52z"/>
				</g>
				<g>
					<path class="st40" d="M126.89,68.25c0-7.43-5.95-13.46-13.28-13.46c-7.34,0-13.28,6.02-13.28,13.46c0,3.75,1.52,7.14,3.97,9.58
						c1.05,1.04,1.84,1.62,2.63,2.88c0.52,0.83,0.98,2.63,0.98,3.61c0,1.23,0,4.9,0,4.9h11.41v-4.81c0,0,0.28-2.76,0.81-3.61
						c0.66-1.05,1.34-1.64,2.26-2.46C125.15,75.88,126.89,72.28,126.89,68.25z"/>
					<path class="st41" d="M111.91,84.75c-0.11,0-0.2-0.07-0.23-0.16c-0.01-0.03-0.85-6.42-3.46-13.95
						c-0.28-0.81-0.26-1.35,0.05-1.64c0.4-0.37,1.12-0.22,1.64-0.1c0.16,0.04,0.39,0.08,0.44,0.07c0.12-0.02,0.29-0.2,0.44-0.37
						c0.28-0.31,0.63-0.7,1.2-0.7c0.01,0,0.02,0,0.02,0c0.55,0.01,0.86,0.39,1.12,0.69c0.16,0.19,0.32,0.38,0.47,0.38
						c0,0,0,0,0.01,0c0.13,0,0.23,0.09,0.23,0.2c0,0.11-0.1,0.21-0.23,0.21c-0.4,0-0.63-0.27-0.86-0.55
						c-0.22-0.27-0.43-0.52-0.75-0.52c-0.01,0-0.01,0-0.01,0c-0.35,0-0.6,0.28-0.84,0.55c-0.22,0.25-0.43,0.48-0.73,0.52
						c-0.16,0.02-0.36-0.02-0.62-0.08c-0.41-0.09-0.97-0.21-1.19-0.01c-0.1,0.1-0.24,0.39,0.06,1.24
						c2.64,7.62,3.46,13.96,3.47,13.99c0.03,0.11-0.06,0.22-0.18,0.24C111.94,84.75,111.93,84.75,111.91,84.75z"/>
					<path class="st41" d="M115.26,84.75c-0.02,0-0.04,0-0.05-0.01c-0.13-0.03-0.2-0.14-0.18-0.25c0.01-0.03,0.88-6.37,3.51-13.98
						c0.29-0.85,0.16-1.14,0.05-1.24c-0.22-0.2-0.78-0.08-1.19,0.01c-0.26,0.06-0.47,0.1-0.62,0.08c-0.3-0.04-0.51-0.27-0.73-0.52
						c-0.24-0.27-0.49-0.55-0.84-0.55c-0.01,0-0.01,0-0.01,0c-0.32,0-0.53,0.26-0.75,0.52c-0.23,0.27-0.46,0.55-0.86,0.55
						c-0.13,0-0.23-0.1-0.23-0.21c0-0.11,0.11-0.2,0.23-0.2c0,0,0.01,0,0.01,0c0.15,0,0.3-0.19,0.47-0.38
						c0.25-0.3,0.57-0.68,1.12-0.69c0.01,0,0.02,0,0.03,0c0.57,0,0.92,0.39,1.2,0.7c0.15,0.16,0.31,0.35,0.43,0.37
						c0.06,0.01,0.28-0.04,0.44-0.07c0.52-0.11,1.24-0.27,1.64,0.1c0.31,0.29,0.33,0.83,0.05,1.64c-2.62,7.56-3.49,13.93-3.5,13.96
						C115.46,84.69,115.37,84.75,115.26,84.75z"/>
					<path class="st41" d="M119.31,89.1c0,3.15-4.16,5.7-5.7,5.7l0,0c-1.59,0-5.71-2.56-5.71-5.7v-4.87h11.41V89.1z"/>
					<path class="st41" d="M114.99,94.58c0,0.43-0.17,0.78-0.39,0.78h-1.99c-0.22,0-0.39-0.35-0.39-0.78l0,0
						c0-0.43,0.17-0.78,0.39-0.78h1.99C114.82,93.81,114.99,94.15,114.99,94.58L114.99,94.58z"/>
					<path class="st42" d="M119.31,85.51c0.01,0.26-0.19,0.48-0.45,0.49l-10.46,0.5c-0.26,0.01-0.48-0.19-0.49-0.44l0,0
						c-0.01-0.26,0.19-0.48,0.44-0.49l10.46-0.5C119.08,85.05,119.3,85.25,119.31,85.51L119.31,85.51z"/>
					<path class="st42" d="M119.31,87.21c0.01,0.26-0.19,0.47-0.45,0.49L108.4,88.2c-0.26,0.01-0.48-0.19-0.49-0.45l0,0
						c-0.01-0.26,0.19-0.47,0.44-0.49l10.46-0.51C119.08,86.75,119.3,86.95,119.31,87.21L119.31,87.21z"/>
					<path class="st42" d="M119.31,88.91c0.01,0.26-0.19,0.48-0.45,0.49L108.4,89.9c-0.26,0.01-0.48-0.19-0.49-0.44l0,0
						c-0.01-0.26,0.19-0.48,0.44-0.49l10.47-0.49C119.08,88.46,119.3,88.66,119.31,88.91L119.31,88.91z"/>
					<path class="st43" d="M123.62,65.41c-1.17,1.17-3.89,0.37-6.06-1.81c-2.17-2.17-2.98-4.89-1.81-6.06
						c1.17-1.17,3.89-0.37,6.06,1.81C123.99,61.53,124.8,64.24,123.62,65.41z"/>
				</g>
				<g>
					<path class="st40" d="M264.01,109.62c0-3.32-2.66-6.02-5.94-6.02c-3.28,0-5.94,2.69-5.94,6.02c0,1.68,0.68,3.19,1.77,4.28
						c0.47,0.47,0.82,0.72,1.18,1.29c0.23,0.37,0.44,1.18,0.44,1.61c0,0.55,0,2.19,0,2.19h5.1v-2.15c0,0,0.12-1.23,0.36-1.62
						c0.29-0.47,0.6-0.73,1.01-1.1C263.23,113.03,264.01,111.42,264.01,109.62z"/>
					<path class="st41" d="M257.31,117c-0.05,0-0.09-0.03-0.1-0.07c0-0.02-0.38-2.87-1.55-6.24c-0.13-0.36-0.12-0.6,0.02-0.73
						c0.18-0.17,0.5-0.1,0.73-0.05c0.07,0.02,0.17,0.04,0.2,0.03c0.05-0.01,0.13-0.09,0.2-0.16c0.13-0.14,0.28-0.31,0.54-0.31
						c0,0,0.01,0,0.01,0c0.25,0,0.39,0.17,0.5,0.31c0.07,0.09,0.14,0.17,0.21,0.17c0,0,0,0,0,0c0.06,0,0.1,0.04,0.1,0.09
						c0,0.05-0.04,0.09-0.1,0.09c-0.18,0-0.28-0.12-0.38-0.24c-0.1-0.12-0.19-0.23-0.34-0.23c0,0-0.01,0-0.01,0
						c-0.16,0-0.27,0.12-0.38,0.24c-0.1,0.11-0.19,0.21-0.33,0.23c-0.07,0.01-0.16-0.01-0.28-0.04c-0.18-0.04-0.44-0.1-0.53-0.01
						c-0.05,0.04-0.11,0.17,0.03,0.55c1.18,3.41,1.55,6.25,1.55,6.26c0.01,0.05-0.02,0.1-0.08,0.11
						C257.32,117,257.32,117,257.31,117z"/>
					<path class="st41" d="M258.81,117c-0.01,0-0.02,0-0.02,0c-0.06-0.01-0.09-0.06-0.08-0.11c0-0.01,0.39-2.85,1.57-6.26
						c0.13-0.38,0.07-0.51,0.02-0.55c-0.1-0.09-0.35-0.03-0.53,0.01c-0.12,0.03-0.21,0.04-0.28,0.04c-0.13-0.02-0.23-0.12-0.33-0.23
						c-0.11-0.12-0.22-0.24-0.37-0.24c0,0,0,0-0.01,0c-0.14,0-0.24,0.11-0.34,0.23c-0.1,0.12-0.2,0.25-0.38,0.24
						c-0.06,0-0.1-0.04-0.1-0.09c0-0.05,0.05-0.09,0.1-0.09c0,0,0,0,0,0c0.07,0,0.14-0.08,0.21-0.17c0.11-0.13,0.25-0.3,0.5-0.31
						c0,0,0.01,0,0.01,0c0.25,0,0.41,0.17,0.54,0.31c0.07,0.07,0.14,0.16,0.19,0.16c0.02,0,0.13-0.02,0.2-0.03
						c0.23-0.05,0.55-0.12,0.73,0.05c0.14,0.13,0.15,0.37,0.02,0.73c-1.17,3.38-1.56,6.23-1.57,6.24
						C258.9,116.98,258.86,117,258.81,117z"/>
					<path class="st41" d="M260.62,118.95c0,1.41-1.86,2.55-2.55,2.55l0,0c-0.71,0-2.55-1.14-2.55-2.55v-2.18h5.1V118.95z"/>
					<path class="st41" d="M258.69,121.4c0,0.19-0.08,0.35-0.17,0.35h-0.89c-0.1,0-0.17-0.16-0.17-0.35l0,0
						c0-0.19,0.08-0.35,0.17-0.35h0.89C258.61,121.05,258.69,121.21,258.69,121.4L258.69,121.4z"/>
					<path class="st42" d="M260.62,117.34c0,0.12-0.08,0.21-0.2,0.22l-4.68,0.22c-0.12,0.01-0.22-0.08-0.22-0.2l0,0
						c0-0.11,0.08-0.21,0.2-0.22l4.68-0.22C260.52,117.14,260.61,117.23,260.62,117.34L260.62,117.34z"/>
					<path class="st42" d="M260.62,118.1c0,0.12-0.08,0.21-0.2,0.22l-4.68,0.23c-0.12,0.01-0.22-0.08-0.22-0.2l0,0
						c0-0.11,0.08-0.21,0.2-0.22l4.68-0.23C260.52,117.9,260.61,117.99,260.62,118.1L260.62,118.1z"/>
					<path class="st42" d="M260.62,118.87c0,0.12-0.08,0.21-0.2,0.22l-4.68,0.22c-0.12,0.01-0.21-0.08-0.22-0.2l0,0
						c0-0.11,0.08-0.21,0.2-0.22l4.68-0.22C260.52,118.66,260.61,118.75,260.62,118.87L260.62,118.87z"/>
					<path class="st43" d="M262.55,108.35c-0.53,0.53-1.74,0.16-2.71-0.81c-0.97-0.97-1.33-2.19-0.81-2.71
						c0.53-0.53,1.74-0.16,2.71,0.81S263.07,107.83,262.55,108.35z"/>
				</g>
			</g>
		</g>
	</g>
</g>
</svg>
