<?xml version="1.0" encoding="utf-8"?>
<!-- Generator: Adobe Illustrator 27.7.0, SVG Export Plug-In . SVG Version: 6.00 Build 0)  -->
<svg version="1.1" id="레이어_1" xmlns="http://www.w3.org/2000/svg" xmlns:xlink="http://www.w3.org/1999/xlink" x="0px"
	 y="0px" viewBox="0 0 272 258" style="enable-background:new 0 0 272 258;" xml:space="preserve">
<style type="text/css">
	.st0{clip-path:url(#SVGID_00000029027927324458630100000006448938438233854142_);}
	.st1{fill:#BCE3F0;}
	.st2{fill:#38A8E0;}
	.st3{fill:#FFFFFF;}
	.st4{fill:#244FA1;}
	.st5{fill:#114199;}
	.st6{fill:#1A469C;}
	.st7{fill:#366BB4;}
	.st8{fill:#F5DF4D;}
	.st9{fill:#8DD2EA;}
	.st10{fill:#EEB146;}
	.st11{fill:#F3A37C;}
	.st12{fill:#E43A32;}
	.st13{fill:#D86C5E;}
	.st14{fill:#172344;}
	.st15{fill:#192E76;}
	.st16{opacity:0.6;fill:#244FA1;}
	.st17{fill:#BE2724;}
	.st18{fill:#C1E5F1;}
	.st19{opacity:0.4;}
</style>
<g>
	<defs>
		<path id="SVGID_1_" d="M252.02,258H19.98C8.95,258,0,249.05,0,238.02V19.98C0,8.95,8.95,0,19.98,0h232.04
			C263.05,0,272,8.95,272,19.98v218.04C272,249.05,263.05,258,252.02,258z"/>
	</defs>
	<clipPath id="SVGID_00000084508789570749405750000006694663794254485644_">
		<use xlink:href="#SVGID_1_"  style="overflow:visible;"/>
	</clipPath>
	<g style="clip-path:url(#SVGID_00000084508789570749405750000006694663794254485644_);">
		<rect x="-126.07" y="-5.93" class="st1" width="532.81" height="266.4"/>
		<path class="st2" d="M-126.07,99.6v21.79c3.17-0.04,6.34-0.27,9.43-0.62c13.43-1.53,25.9,1.11,39.35,2.3
			c5.48,0.49,10.71,0.45,16.08,0.24c5.36-0.21,10.62,2.87,15.46,4.77c25.36,9.99,53.99,2.94,81.09,5.81
			c7.9,0.84,15.88,2.53,23.7,1.14c5.05-0.89,9.8-3.04,14.83-4.07c5.96-1.22,12.1-0.85,18.18-1.03c10.82-0.32,21.59-2.43,31.74-6.21
			c-1.67-3.88-4.09-8.68-7.49-11.24c-3.49-2.63-8.5-4.25-12.57-5.73c-9.21-3.36-18.94-5.31-28.72-5.95
			c-6.02-0.39-12.16-0.3-18.02-1.32c-6.22-1.09-11.83-3.37-17.67-5.22c-7.62-2.41-15.69-4.06-23.73-5.71
			c-8.41-1.72-17.43-4.39-26.37-3.85c-4.7,0.28-9.09,1.2-13.18,2.22c-8.3,2.08-16.18,4.34-26.1,4.41c-2.44,0.02-4.9-0.14-7.33,0
			c-2.82,0.15-5.45,0.68-8.04,1.21c-3.37,0.68-6.74,1.37-10.11,2.05c-1.81,0.37-3.62,0.74-5.55,0.94c-3.06,0.32-6.26,0.21-9.36,0.43
			c-3.55,0.25-7.11,0.57-10.66,0.92c-7.17,0.71-14.33,1.57-21.44,2.31C-123.72,99.35-124.9,99.48-126.07,99.6z"/>
		<g>
			<g>
				<path class="st3" d="M183.92,81.91c0.02,0.06,0.03,0.12,0.04,0.18c0.29,1.86-2.61,1.11-3.34,1.11
					c-1.73-0.01-3.46-0.01-5.19-0.02c-3.46-0.01-6.91-0.03-10.37-0.04c-6.91-0.03-13.83-0.06-20.74-0.09
					c-2.01-0.01-4.01-0.02-6.02-0.02c-1.23,0-2.85-0.74-2.14-2.38c0.44-1.02,1.42-1.58,2.38-1.71c0.96-0.14,1.93,0.08,2.88,0.24
					c0.41,0.07,0.87,0.11,1.21-0.16c0.3-0.24,0.44-0.67,0.61-1.06c1.33-3.1,4.54-3.95,6.54-1.23c0.99-2.66,3.35-4.52,5.81-4.58
					c2.46-0.06,4.88,1.68,5.97,4.29c1.13-1.6,3.04-2.37,4.76-1.91c1.72,0.46,2.79,1.93,3.61,3.91c1.39-1.24,2.46-2.48,4.28-2.4
					c1.64,0.08,3.24,1.23,4.2,3.04c0.07,0.13,0.14,0.27,0.24,0.35c0.18,0.15,0.4,0.11,0.61,0.08c1.36-0.2,2.77,0.27,3.9,1.3
					C183.48,81.08,183.79,81.44,183.92,81.91z"/>
			</g>
		</g>
		<g>
			<g>
				<path class="st3" d="M84.65,35.46c0.03,0.11,0.05,0.23,0.07,0.35c0.52,3.56-4.67,2.13-5.96,2.12c-3.09-0.01-6.17-0.03-9.26-0.04
					c-6.17-0.03-12.34-0.05-18.52-0.08c-12.34-0.05-24.69-0.11-37.03-0.16c-3.58-0.02-7.16-0.03-10.74-0.05
					c-2.2-0.01-5.08-1.41-3.81-4.55c0.79-1.95,2.53-3.02,4.25-3.28c1.71-0.26,3.44,0.15,5.15,0.45c0.74,0.13,1.55,0.22,2.16-0.31
					c0.54-0.46,0.79-1.29,1.09-2.03c2.38-5.94,8.1-7.58,11.68-2.37c1.77-5.1,5.99-8.67,10.37-8.79c4.39-0.12,8.72,3.23,10.66,8.23
					c2.01-3.06,5.42-4.54,8.49-3.67c3.08,0.87,4.98,3.7,6.44,7.49c2.49-2.37,4.39-4.76,7.63-4.6c2.94,0.15,5.79,2.36,7.51,5.83
					c0.12,0.25,0.25,0.51,0.43,0.68c0.32,0.29,0.72,0.21,1.09,0.15c2.43-0.39,4.94,0.51,6.96,2.5
					C83.87,33.87,84.42,34.56,84.65,35.46z"/>
			</g>
		</g>
		<g>
			<g>
				<path class="st3" d="M346.05,49.22c0.05,0.2,0.09,0.4,0.12,0.6c0.91,6.17-8.09,3.68-10.32,3.67c-5.35-0.02-10.7-0.05-16.05-0.07
					c-10.7-0.05-21.39-0.09-32.09-0.14c-21.39-0.09-42.79-0.19-64.18-0.28c-6.2-0.03-12.41-0.05-18.61-0.08
					c-3.81-0.02-8.81-2.44-6.61-7.89c1.37-3.38,4.39-5.24,7.36-5.69c2.97-0.45,5.96,0.26,8.92,0.78c1.27,0.23,2.68,0.38,3.74-0.54
					c0.94-0.81,1.38-2.24,1.89-3.52c4.12-10.3,14.04-13.14,20.25-4.1c3.06-8.84,10.37-15.03,17.98-15.23
					c7.61-0.2,15.12,5.59,18.47,14.26c3.49-5.31,9.4-7.86,14.72-6.36c5.34,1.51,8.63,6.41,11.16,12.99
					c4.31-4.11,7.62-8.25,13.23-7.97c5.09,0.25,10.04,4.1,13.01,10.1c0.21,0.44,0.43,0.89,0.74,1.18c0.55,0.5,1.25,0.37,1.89,0.27
					c4.2-0.67,8.56,0.89,12.07,4.33C344.71,46.46,345.66,47.66,346.05,49.22z"/>
			</g>
		</g>
		<path class="st4" d="M406.58,136.73v-0.85c0,0,0-12.08,0-20.72h-532.81v115.2h0.16v30.11h532.81c0,0,0-4.1,0-10.6v-83.89
			c0,0,0-29.24-0.01-29.25C406.72,136.73,406.66,136.73,406.58,136.73z"/>
		<path class="st5" d="M406.58,116.04V116c0,0,0-0.49,0-0.84h-532.81v4.67h0.16v1.22h532.81c0,0,0-0.17,0-0.43v-3.4
			c0,0,0-1.19-0.01-1.19C406.72,116.04,406.66,116.04,406.58,116.04z"/>
		<path class="st6" d="M406.58,129.38v0.06c0,0,0,0.81,0,1.39h-532.81v-7.74h0.16v-2.02h532.81c0,0,0,0.28,0,0.71v5.64
			c0,0,0,1.97-0.01,1.97C406.72,129.38,406.66,129.38,406.58,129.38z"/>
		<g>
			<path class="st7" d="M391.91,171.61c-2.69-0.52-5.45-0.37-8.09,0.37c-0.53,0.15-1.19,0.67-0.62,1.2
				c0.01,0.01,0.02,0.01,0.02,0.02c-0.27,0.33-0.21,0.75,0.31,0.99c1.52,0.69,3.27,0.95,4.95,0.73c0.92-0.06,1.84-0.27,2.69-0.63
				c0.24-0.1,0.38-0.25,0.43-0.41c0.47-0.28,0.92-0.6,1.32-0.98C393.7,172.18,392.44,171.71,391.91,171.61z M387.56,173.12
				c0.21-0.02,0.42-0.03,0.63-0.04c-0.12,0.04-0.25,0.07-0.37,0.09C387.73,173.16,387.65,173.14,387.56,173.12z"/>
			<path class="st7" d="M380.59,177.13c-1.07-0.92-2.84-1.12-4.21-0.56c-0.45-0.01-0.91,0.08-1.27,0.27
				c-0.54,0.28-0.62,0.76-0.22,1.09c0.07,0.44,0.98,0.73,1.29,0.77c0.32,0.04,0.67,0.05,1.01-0.01c1.06,0.1,2.15-0.08,3.13-0.5
				C380.78,178,381.01,177.48,380.59,177.13z"/>
			<path class="st7" d="M139.45,156.51c-1.21-0.51-2.67-0.57-4.1-0.41c-1.81-0.07-4.49-0.04-4.55,1.64
				c-0.05,1.25,1.52,1.74,2.49,1.87c1.3,0.18,2.66,0.1,3.95-0.03c1.02-0.1,2.4-0.18,3.18-0.94
				C141.32,157.78,140.27,156.86,139.45,156.51z"/>
			<path class="st7" d="M126.48,156.48c-0.38-0.35-0.99-0.42-1.48-0.43c-0.75-0.02-1.49-0.04-2.24-0.06
				c-0.51-0.01-1.72,0.17-1.72,0.88c0,0.03,0.01,0.06,0.01,0.09c-0.44,0.51,0.23,0.94,0.7,1.11c1.53,0.57,3.45,0.33,4.73-0.7
				C126.8,157.11,126.76,156.73,126.48,156.48z"/>
			<path class="st7" d="M255.63,217.77c-1.16,0.08-2.27,0.28-3.34,0.68c-0.46,0.08-0.92,0.19-1.37,0.35
				c-0.29,0.1-0.9,0.34-0.85,0.76c0.18,1.53,2.55,1.51,3.66,1.34c1.43-0.22,2.65-0.88,3.55-2.01
				C257.89,218.12,255.92,217.75,255.63,217.77z"/>
		</g>
	</g>
	<g style="clip-path:url(#SVGID_00000084508789570749405750000006694663794254485644_);">
		<g>
			<path class="st7" d="M2.43,226.32c0.38,0.02,0.75,0.04,1.12,0.07c2.09,0.13,4.16,0.49,6.17,1.07c1.45,0.42,3.05,1.14,3.46,2.59
				c0.19,0.66,0.09,1.36,0.25,2.03c0.5,2.11,3.09,2.82,5.24,3.15c10.4,1.56,19.57,0.74,30.02-0.2c10.31-0.93,20.83-1.49,31.03,0.71
				c7.64,1.63,14.97,4.74,22.73,5.6c10.73,1.2,21.46-1.97,32.26-2.24c12.81-0.32,26.27,3.33,38.06-1.7
				c2.29-0.98,4.46-2.27,6.81-3.09c3.7-1.28,7.72-1.35,11.45-2.51c3.74-1.16,7.45-3.94,7.8-7.84c0.37-4.19-3.46-7.79-7.56-8.76
				c-4.09-0.97-8.36-0.02-12.49,0.77c-16.58,3.17-33.54,3.68-50.42,4.18c-23.03,0.69-46.17,1.37-69.03-1.51
				c-14.79-1.86-29.44-4.8-44.23-6.61c-6.12-0.75-13.42,1.7-17.34,6.64c-1.3,1.63-1.75,4.14-0.46,5.78
				C-1.54,225.93,0.48,226.19,2.43,226.32z"/>
			<path class="st7" d="M-7.66,233.79c-0.79-0.63-2.04-0.61-2.99-0.61c-0.4,0-0.79,0.02-1.18,0.05c-0.31-0.05-0.62-0.1-0.93-0.12
				c-0.83-0.07-2.17,0-2.68,0.8c-0.5,0.78,0.31,1.47,0.95,1.79c0.99,0.5,2.13,0.65,3.22,0.58C-10.41,236.23-5.73,235.33-7.66,233.79
				z"/>
			<path class="st7" d="M-2.15,239.29c-0.29-0.16-0.68-0.23-1.03-0.25c-0.06-0.02-0.12-0.04-0.17-0.06
				c-0.39-0.11-0.81-0.15-1.21-0.08c-0.33,0.06-0.68,0.14-0.94,0.37c-0.46,0.4-0.35,0.95,0.05,1.33c0.36,0.34,0.91,0.44,1.38,0.48
				c0.56,0.04,1.15-0.04,1.65-0.3c0.23-0.12,0.61-0.35,0.74-0.6C-1.48,239.78-1.84,239.46-2.15,239.29z"/>
			<path class="st7" d="M77.13,239.44c-2.29-0.47-4.59-0.38-6.86,0.11c-0.44,0.09-0.85,0.45-0.73,0.84
				c-0.09,0.1-0.16,0.22-0.16,0.37c-0.02,0.66,1.15,0.8,1.58,0.8c1.37,0,2.74,0.03,4.11,0.01c1.18-0.02,2.4-0.17,3.16-1.16
				C78.67,239.85,77.4,239.49,77.13,239.44z"/>
			<path class="st7" d="M147.65,241.9h-1.57c-0.47,0-1.58,0.14-1.58,0.8c0,0.66,1.14,0.8,1.58,0.8h1.57c0.47,0,1.58-0.14,1.58-0.8
				C149.22,242.05,148.09,241.9,147.65,241.9z"/>
			<path class="st7" d="M208.32,228.43c-0.08,1.07-0.38,2.09-0.94,2.91c-1.44,2.11-3.87,3.32-6.27,4.18
				c-1.19,0.42-10.79,3.28-11.38,2.4c-0.37-0.55,0.33-1.2,0.93-1.47c3.3-1.48,7.06-2,10.01-4.08c1.09-0.77,2.07-1.78,2.46-3.05
				c0.66-2.15-3.03-7.83,0.44-7.98c1.49-0.06,2.64,0.71,3.46,1.91C207.96,224.6,208.46,226.59,208.32,228.43z"/>
			<path class="st7" d="M-13.61,221.04c0.12,1.19,0.93,2.47,2.13,2.49c1.01,0.02,1.8-0.85,2.36-1.7c0.91-1.39,1.59-2.93,2.52-4.31
				c0.93-1.38,2.17-2.64,3.77-3.12c0.54-0.16,1.12-0.24,1.6-0.54c0.48-0.3,0.81-0.95,0.53-1.44c-1.29-2.28-5.92,0.07-7.34,1.08
				C-10.63,215.34-13.98,217.35-13.61,221.04z"/>
		</g>
		<g>
			<g>
				<path class="st8" d="M183.34,205.15c-0.77-0.81-1.59-1.56-2.39-2.22c-2.61-2.14-5.14-4.29-8.05-5.87l-52.48,0.54
					c-0.01,0-0.02,0-0.03,0c-2.28,0.17-4.56,0.36-6.84,0.58c-0.41,0.03-0.83,0.06-1.25,0.08c-4.79,0.3-9.71,0.56-14.62,0.63
					c-4.91-0.07-9.83-0.33-14.62-0.63c-0.42-0.03-0.83-0.05-1.25-0.08c-2.28-0.22-4.56-0.41-6.84-0.58c-0.01,0-0.02,0-0.03,0
					c-11.82-1.16-23.59-3.03-35.46-3.43c-8.02-0.27-16.13,0.98-22.75,6.04c-5.34,4.09-9.4,9.86-6.17,16.91
					c2.51,5.46,6.84,5.89,11.97,6.68c13.11,2.02,26.28,3.6,39.49,4.72c6.36,0.54,12.86,1.19,19.36,1.63
					c5.45,0.37,10.9,0.59,16.29,0.49c10.35-0.19,20.63,0.03,30.96-0.8c3.43-0.27,6.85-0.55,10.28-0.82
					c10.93-0.87,21.88-1.75,32.68-3.62c3.81-0.66,7.72-1.49,10.87-3.74C188.44,217.42,188.04,210.14,183.34,205.15z"/>
				<path class="st3" d="M48.02,177.45c-3.07-0.59-5.7,0.56-8.45,1.78c-2.67,1.18-5.4,2.25-8.13,3.27
					c-4.84,1.82-14.54,4.24-15.7,10.16c-0.22,1.14-0.25,2.31-0.27,3.47c-0.01,0.96-0.22,1.89-0.13,2.84
					c0.2,1.95,1.02,3.92,2.51,5.25c0.95,0.85,2.13,1.4,3.33,1.85c4.88,1.83,10.18,2.14,15.39,2.26c1.32,0.03,2.65,0.05,3.93-0.27
					c1.92-0.48,3.78-1.66,5.55-2.51c2.08-1.01,4-2.31,5.89-3.64c0.1-0.07,0.2-0.14,0.31-0.22c1.82-1.29,3.65-2.62,5.02-4.38
					c1.36-1.75,2.26-3.94,2.44-6.16c0.19-2.22-0.79-3.26-1.8-5.09C55.66,182.02,52.85,178.38,48.02,177.45z"/>
				<path class="st9" d="M42.45,205.9c-0.27-0.69-1.13-1.17-1.74-1.46c-1.37-0.65-2.79-1.21-4.22-1.69
					c-0.12-0.04-0.33-0.04-0.43,0.06c-0.1,0.1,0.01,0.19,0.11,0.22c1.35,0.46,2.68,0.99,3.97,1.59c0.55,0.26,1.13,0.55,1.5,1.05
					c0.2,0.27,0.21,0.87,0.5,1.06c0.32,0.2,0.4-0.07,0.4-0.4C42.53,206.18,42.5,206.04,42.45,205.9z"/>
				<path class="st9" d="M30.89,199.81c-2.1-0.93-4.19-1.86-6.29-2.78c-1.01-0.45-2.01-0.93-3.06-1.3c-1.02-0.36-2.1-0.53-3.17-0.5
					c-0.83,0.02-2.23,0.09-2.57,1.04c-0.08,0.24,0.54,0.28,0.61,0.09c0.28-0.78,1.39-0.8,2.08-0.81c1.01-0.02,2,0.18,2.95,0.53
					c0.95,0.35,1.87,0.8,2.79,1.21c0.98,0.43,1.95,0.86,2.93,1.3c1.1,0.49,2.19,0.97,3.29,1.46c0.13,0.06,0.32,0.07,0.45,0
					C30.99,199.98,31.01,199.86,30.89,199.81z"/>
				<path class="st10" d="M60.09,220.1c-3.38-0.26-6.77-0.51-10.15-0.82c-3.38-0.3-6.75-0.66-10.12-1.11
					c-3.34-0.45-6.67-0.99-9.96-1.67c-3.29-0.68-6.56-1.5-9.76-2.51c-1.43-0.45-2.84-0.97-4.13-1.74c-1.21-0.73-2.46-1.74-2.94-3.12
					c-0.12-0.34-0.16-0.69-0.15-1.05c0.01-0.22-0.62-0.23-0.63,0c-0.06,1.47,0.98,2.7,2.06,3.57c1.18,0.94,2.55,1.59,3.96,2.12
					c1.52,0.56,3.08,1.01,4.64,1.43c1.67,0.46,3.34,0.87,5.03,1.25c3.34,0.74,6.71,1.33,10.1,1.82c3.42,0.49,6.85,0.87,10.28,1.2
					c3.44,0.33,6.88,0.59,10.33,0.86c0.42,0.03,0.84,0.06,1.26,0.1c0.11,0.01,0.34,0.02,0.39-0.11
					C60.36,220.18,60.18,220.11,60.09,220.1z"/>
				<path class="st10" d="M102.23,223.54c-3.56-0.04-7.13-0.17-10.69-0.38c-3.56-0.21-7.11-0.5-10.65-0.88
					c-1.99-0.21-3.98-0.45-5.97-0.72c-0.11-0.01-0.33-0.01-0.39,0.11c-0.06,0.13,0.13,0.19,0.22,0.2c3.56,0.47,7.13,0.87,10.71,1.17
					c3.57,0.3,7.14,0.53,10.72,0.66c2.01,0.08,4.03,0.13,6.05,0.15c0.09,0,0.31-0.03,0.31-0.16
					C102.54,223.56,102.32,223.54,102.23,223.54z"/>
				<path class="st10" d="M177.69,210.5c-0.11,1.59-0.91,3.03-2.02,4.15c-1.23,1.23-2.8,2.02-4.43,2.58
					c-1.78,0.61-3.64,1.01-5.47,1.4c-1.93,0.41-3.88,0.76-5.83,1.07c-3.89,0.62-7.81,1.11-11.72,1.61c-3.97,0.51-7.94,1-11.92,1.37
					c-3.99,0.37-7.98,0.62-11.99,0.65c-0.49,0-0.98,0-1.47,0c-0.09,0-0.32,0.03-0.32,0.16c0,0.13,0.23,0.16,0.32,0.16
					c4.06,0.03,8.12-0.18,12.16-0.52c4.08-0.35,8.14-0.84,12.19-1.35c4-0.51,8.01-1.01,12-1.62c2-0.31,4-0.66,5.99-1.06
					c1.88-0.38,3.78-0.78,5.62-1.34c3.1-0.94,6.41-2.76,7.32-6.13c0.1-0.37,0.16-0.74,0.19-1.12
					C178.34,210.29,177.71,210.27,177.69,210.5z"/>
				<g>
					<path class="st10" d="M159.66,213.3c-0.66,0-1.27-0.06-1.8-0.17c-1.05-0.22-1.66-0.65-1.74-1.2c-0.08-0.55,0.4-1.13,1.34-1.63
						c0.9-0.48,2.12-0.84,3.45-1.03c1.33-0.19,2.61-0.17,3.6,0.04c1.05,0.22,1.66,0.65,1.74,1.2c0.08,0.55-0.4,1.13-1.34,1.63
						c-0.9,0.48-2.12,0.84-3.45,1.03C160.84,213.26,160.23,213.3,159.66,213.3z M162.72,209.46c-0.56,0-1.15,0.04-1.76,0.13
						c-1.29,0.18-2.48,0.54-3.35,1c-0.81,0.43-1.24,0.91-1.18,1.31c0.06,0.4,0.6,0.74,1.49,0.93c0.96,0.2,2.2,0.22,3.49,0.04
						c1.29-0.18,2.48-0.54,3.35-1c0.81-0.43,1.24-0.91,1.18-1.31c-0.06-0.4-0.6-0.74-1.49-0.93
						C163.94,209.51,163.35,209.46,162.72,209.46z"/>
					<path class="st10" d="M55.92,213.3c-0.57,0-1.18-0.04-1.8-0.13c-1.33-0.19-2.56-0.55-3.45-1.03c-0.94-0.5-1.42-1.08-1.34-1.63
						c0.08-0.55,0.7-0.98,1.74-1.2c0.99-0.21,2.27-0.23,3.6-0.04c1.33,0.19,2.56,0.55,3.45,1.03c0.94,0.5,1.42,1.08,1.34,1.63
						c-0.08,0.55-0.69,0.98-1.74,1.2C57.19,213.25,56.58,213.3,55.92,213.3z M52.86,209.46c-0.63,0-1.22,0.05-1.73,0.16
						c-0.89,0.19-1.44,0.53-1.49,0.93c-0.06,0.4,0.37,0.88,1.18,1.31c0.86,0.46,2.05,0.81,3.35,1c1.29,0.18,2.54,0.17,3.49-0.04
						c0.89-0.19,1.44-0.53,1.49-0.93c0.06-0.4-0.37-0.88-1.18-1.31c-0.86-0.46-2.05-0.81-3.35-1
						C54.02,209.5,53.42,209.46,52.86,209.46z"/>
					<path class="st10" d="M108.35,216.99c-0.21,0-0.43-0.01-0.65-0.02c-2.87-0.13-5.07-1.1-5.02-2.21l0,0
						c0.05-1.1,2.34-1.86,5.21-1.73c2.87,0.13,5.07,1.1,5.02,2.21C112.86,216.26,110.91,216.99,108.35,216.99z M102.99,214.78
						c-0.04,0.8,1.85,1.74,4.72,1.88c2.87,0.13,4.84-0.63,4.88-1.43c0.04-0.8-1.85-1.74-4.72-1.88
						C105,213.22,103.03,213.98,102.99,214.78L102.99,214.78z"/>
					<path class="st10" d="M133.68,216.06c-0.99,0-1.91-0.11-2.65-0.33c-1.03-0.3-1.61-0.76-1.65-1.32l0,0
						c-0.08-1.1,2.11-2.12,4.97-2.32c1.34-0.09,2.62,0.01,3.59,0.29c1.03,0.3,1.61,0.76,1.65,1.32c0.08,1.1-2.11,2.12-4.97,2.32
						C134.31,216.04,133.99,216.06,133.68,216.06z M129.7,214.39c0.03,0.41,0.55,0.78,1.42,1.04c0.94,0.27,2.18,0.37,3.48,0.28
						c2.87-0.2,4.73-1.18,4.68-1.98c-0.03-0.41-0.55-0.78-1.42-1.04c-0.94-0.27-2.18-0.37-3.48-0.28
						C131.51,212.61,129.64,213.59,129.7,214.39L129.7,214.39z"/>
					<path class="st10" d="M77.96,216.06c-0.31,0-0.62-0.01-0.94-0.03c-1.34-0.09-2.59-0.37-3.52-0.78
						c-0.98-0.43-1.49-0.98-1.45-1.53c0.04-0.55,0.62-1.02,1.65-1.32c0.98-0.28,2.25-0.39,3.59-0.29c1.34,0.09,2.59,0.37,3.52,0.78
						c0.98,0.43,1.49,0.98,1.45,1.53l0,0c-0.04,0.55-0.62,1.02-1.65,1.32C79.87,215.94,78.95,216.06,77.96,216.06z M76.35,212.38
						c-0.96,0-1.84,0.11-2.56,0.31c-0.88,0.25-1.4,0.63-1.42,1.04c-0.03,0.41,0.43,0.85,1.27,1.22c0.89,0.4,2.11,0.67,3.41,0.76
						c1.3,0.09,2.54-0.01,3.48-0.28c0.88-0.25,1.4-0.63,1.42-1.04l0,0c0.03-0.41-0.43-0.85-1.27-1.22c-0.89-0.4-2.11-0.67-3.41-0.76
						C76.96,212.39,76.65,212.38,76.35,212.38z"/>
				</g>
			</g>
			<g>
				<path class="st11" d="M88.78,195.7c-0.11-0.21-0.28-0.37-0.52-0.46c-1.36-0.49-2.73-0.95-4.01-1.6
					c-0.74-0.37-1.45-0.8-2.13-1.27c-2.22-1.52-4.12-3.43-6.11-5.22c-1-0.9-2.02-1.77-3.11-2.55c-1.06-0.76-2.34-1.26-3.22-2.26
					c-0.82-0.93-1.66-1.93-2.73-2.6c-1.67-1.03-3.76-0.36-4.99,1.04c-0.67,0.76-1.12,1.66-1.5,2.59c-0.43,1.04-0.8,2.1-1.19,3.15
					c-0.21,0.56-0.42,1.11-0.63,1.67c-0.16,0.43-0.32,0.86-0.58,1.24c-0.28,0.42-0.68,0.69-1.18,0.77
					c-0.49,0.07-0.99,0.03-1.48,0.05c-3.36,0.15-7.11,1.86-8.24,5.27c-0.67,2.03-0.79,5.57,1.02,7.07c0.56,0.46,1.27,0.71,1.96,0.94
					c3.4,1.16,6.8,2.32,10.19,3.48c3.68,1.26,7.38,2.51,11.18,3.32c1.81,0.38,3.66,0.67,5.4,1.3c1.84,0.66,3.52,1.65,5.31,2.45
					c0.32,0.14,0.65,0.28,0.99,0.25c0.76-0.06,1.21-0.85,1.51-1.55c1.26-2.91,2.27-5.92,3.01-9c0.35-1.46,0.81-3.04,0.89-4.54
					C88.66,198.4,89.25,196.6,88.78,195.7z"/>
				<path class="st11" d="M153.22,200.07c-3.57-0.26-7.15-0.52-10.72-0.78c-1.89-0.14-3.73-0.56-5.59-0.91
					c-1.94-0.37-3.87-0.84-5.76-1.42c-1.94-0.6-5-1.6-6.72,0.06c-0.48,0.46-0.4,1.26-0.49,1.87c-0.26,1.84-0.32,3.7-0.17,5.55
					c0.05,0.66,0.15,1.37,0.59,1.86c0.49,0.55,1.29,0.7,2.02,0.66c0.73-0.04,1.45-0.24,2.19-0.27c0.99-0.04,1.96,0.22,2.92,0.46
					c2.84,0.7,5.74,1.15,8.66,1.34c1.36,0.09,2.73,0.13,4.08,0c0.9-0.08,1.79-0.24,2.68-0.39c4.17-0.72,8.34-1.44,12.51-2.16
					c0.9-0.16,1.81-0.32,2.61-0.75c0.75-0.41,1.21-1.25,1.47-2.04c0.28-0.86,0.14-1.74,0.06-2.63c-0.03-0.33-0.13-0.72-0.44-0.82
					c-0.16-0.05-0.34-0.01-0.51,0.02c-1.83,0.36-3.82,0.5-5.68,0.54c-1.03,0.02-2.06-0.05-3.09-0.13
					C153.64,200.1,153.43,200.08,153.22,200.07z"/>
				<path class="st11" d="M167.1,197.96c-1.41,0.56-2.88,1.02-4.22,1.74c-0.65,0.35-1.27,0.76-1.81,1.28
					c-0.6,0.57-0.63,1.43-0.7,2.22c-0.05,0.54-0.09,1.11,0.15,1.59c0.22,0.45,0.65,0.76,1.08,1c2.18,1.22,5.47,1.54,7.18-0.58
					c0.47-0.58,0.83-1.22,1.24-1.84c0.7-1.05,1.55-2.01,2.5-2.85c0.96-0.84,2.03-1.56,2.96-2.44c0.43-0.4,3.04-3.68,1.41-3.81
					c-0.55-0.04-0.98,0.18-1.47,0.38C172.65,195.76,169.87,196.86,167.1,197.96z"/>
				<path class="st11" d="M158.46,199.03c0.63-0.09,1.25-0.17,1.88-0.23c0.35-0.04,0.71-0.07,1.03-0.22
					c1.31-0.62,0.89-2.56,0.38-3.57c-0.63-1.24-1.14-1.29-2.55-1.31c-2.03-0.03-4.06-0.3-6.07-0.57
					c-7.16-0.95-14.35-1.91-21.32-3.78c-1.44-0.39-2.9-0.81-4.39-0.84c-1.27-0.03-3.12,0.01-4.09,0.94
					c-0.48,0.46-0.4,1.26-0.49,1.87c-0.26,1.84-0.32,3.7-0.17,5.55c0.05,0.66,0.15,1.37,0.59,1.86c0.49,0.55,1.29,0.7,2.02,0.66
					c0.73-0.04,1.45-0.24,2.19-0.27c0.99-0.04,1.96,0.22,2.92,0.46c2.84,0.7,5.74,1.15,8.66,1.34c3.3,0.22,6.6-0.11,9.87-0.5
					c0.64-0.08,1.22-0.09,1.86-0.07c0.7,0.01,1.39-0.24,2.07-0.32c0.81-0.1,1.62-0.3,2.43-0.45
					C156.33,199.37,157.4,199.18,158.46,199.03z"/>
				<path class="st12" d="M125.7,209.6c-0.2,0.43-1.3,0.6-1.75,0.72c-0.71,0.17-1.42,0.36-2.12,0.55c-0.52,0.14-1.04,0.28-1.56,0.42
					c-2.05,0.57-4.09,1.18-6.12,1.81c-0.53,0.16-1.05,0.33-1.58,0.49c-0.89,0.28-1.77,0.56-2.66,0.84c-1.27,0.4-2.53,0.8-3.82,1.14
					c-0.33,0.09-0.66,0.17-0.98,0.24c-0.2,0.05-0.4,0.09-0.6,0.13c-2.76,0.59-5.59,0.82-8.42,0.91c-0.53,0.02-1.06,0.03-1.58,0.04
					c-0.17,0-0.35,0.01-0.52,0.01c-2.21,0.03-4.44-0.01-6.61-0.43c-0.08-0.02-0.17-0.03-0.26-0.05c-0.43-0.09-0.86-0.19-1.28-0.31
					c-0.64-0.18-1.27-0.41-1.88-0.69c-0.42-0.19-1.16-0.44-1.46-0.8c-0.33-0.39-0.09-0.74,0.12-1.18c1.45-2.92,2.89-6.02,3.76-9.17
					c0,0,0,0,0-0.01c0.38-1.37,1.06-1.85,2.47-2.28c0.19-0.06,0.38-0.1,0.57-0.15c0.55-0.12,1.12-0.2,1.68-0.24
					c0.69-0.06,1.38-0.07,2.06-0.08c0.99-0.02,1.99-0.06,2.98-0.11c0.54-0.03,1.07-0.06,1.61-0.09c2.36-0.15,4.72-0.38,7.07-0.68
					c0.53-0.07,1.05-0.14,1.58-0.21c2.06-0.29,4.1-0.65,6.14-1.06c0.52-0.11,1.05-0.21,1.57-0.33c0.51-0.11,1.02-0.22,1.53-0.34
					c0.03-0.01,0.05-0.01,0.08-0.02c1.3-0.3,2.59-0.63,3.88-0.96c0.36-0.09,0.72-0.19,1.08-0.28c0.16-0.04,0.32-0.08,0.47-0.12
					c0.65-0.17,1.29-0.34,1.94-0.5c0.09-0.02,0.18-0.05,0.28-0.09c0.57-0.2,1.32-0.49,1.49,0.25c0.27,1.16,0.34,2.35,0.41,3.53
					c0.17,2.75,0.34,5.51,0.51,8.26C125.8,209.05,125.81,209.34,125.7,209.6z"/>
				<path class="st12" d="M123.37,196.73c0,0.06-0.01,0.12-0.01,0.17c-0.03,0.36-0.07,0.72-0.22,1.05c-0.27,0.6-0.83,0.95-1.4,1.22
					c-0.17,0.08-0.33,0.17-0.49,0.27c-0.37,0.23-0.72,0.48-1.12,0.7c-0.13,0.07-0.27,0.14-0.41,0.21c-1.25,0.61-2.59,1-3.95,1.27
					c-0.54,0.1-1.08,0.19-1.63,0.26c-0.52,0.07-1.05,0.12-1.57,0.16c-2.06,0.16-4.13,0.17-6.18,0.3h-0.01
					c-0.52,0.03-1.05,0.07-1.57,0.11c-2.47,0.21-4.93,0.57-7.39,0.96c-0.55,0.09-1.09,0.17-1.63,0.26
					c-0.07,0.01-0.15,0.02-0.22,0.04c-1.56,0.25-3.11,0.5-4.67,0.75c-0.17,0.03-0.35,0.06-0.52,0.1c-0.59,0.13-1.17,0.31-1.75,0.49
					c-0.61,0.19-1.23,0.38-1.87,0.5c-0.13,0.02-0.26,0.05-0.38-0.01c-0.24-0.12-0.21-0.47-0.14-0.72c0.05-0.17,0.09-0.35,0.14-0.52
					c0,0,0,0,0-0.01c0.55-2.06,1.18-4.1,1.67-6.18c0.19-0.81,0.19-2.31,0.72-2.92c0.46-0.53,1.48-0.58,2.12-0.71
					c0.07-0.02,0.15-0.03,0.22-0.05c0.56-0.11,1.12-0.23,1.67-0.34c1.49-0.3,2.99-0.59,4.49-0.87c0.54-0.1,1.08-0.2,1.62-0.3
					c2.01-0.37,4.03-0.73,6.05-1.06c0.53-0.09,1.06-0.18,1.59-0.27c0.6-0.1,1.2-0.2,1.79-0.29c0.88-0.14,1.75-0.28,2.63-0.42
					c0.45-0.07,0.91-0.14,1.36-0.21c0.46-0.07,0.91-0.14,1.37-0.21c0.07-0.01,0.13-0.02,0.2-0.03c1.76-0.28,3.52-0.55,5.28-0.83
					c0.52-0.08,1.04-0.16,1.57-0.25c0.26-0.04,0.52-0.08,0.77-0.12c0.39-0.06,1.45-0.52,1.78-0.22c0.32,0.29,0.17,2.06,0.19,2.5
					C123.56,193.23,123.52,194.98,123.37,196.73z"/>
				<path class="st11" d="M165.46,191c-0.56,0.35-1.12,0.68-1.69,1.01c-0.72,0.41-1.46,0.8-2.23,1.11
					c-0.64,0.27-1.33,0.49-1.84,0.96c-0.18,0.16-0.33,0.35-0.4,0.58c-0.07,0.26-0.02,0.53,0.03,0.79c0.15,0.75,0.12,1.61,0.44,2.32
					c0.35,0.78,1.22,1.11,2.02,1.14c1.06,0.04,2.09,0.29,3.15,0.35c0.77,0.04,1.65-0.03,2.09-0.71c0.52-0.79,0.74-1.76,1.08-2.63
					c0.91-2.32,2.62-4.21,4.17-6.16c0.8-1.01,1.63-2.28,1.73-3.61c0.11-1.44-1.51-0.64-2.07-0.12
					C169.95,187.88,167.78,189.55,165.46,191z"/>
				<path class="st11" d="M66.11,187.69c0.71,0.32,1.94,0.63,2.73,0.47c0.81-0.16,1.38-1.18,1.67-1.88
					c0.35-0.85,0.48-1.76,0.58-2.67c0.05-0.48,0.1-0.97,0.14-1.46c0.3-3.5,0.3-7.11-0.47-10.52c-0.31-1.37-0.84-2.68-1.17-4.04
					c-0.16-0.67-0.32-1.35-0.48-2.02c-0.21-0.86-0.42-1.73-0.86-2.5c-0.27-0.47-0.45-1.09-0.95-1.37c-0.25-0.14-0.55-0.17-0.84-0.19
					c-0.3-0.01-0.61,0-0.9,0.06c-0.36,0.07-0.7,0.21-1,0.41c-1.16,0.78-1.12,2.81-1.12,4.06c0,1.24,0.2,2.5,0.15,3.74
					c-0.13,3.17-1.82,5.93-2.05,9.1c-0.2,2.69,0.56,5.64,2.41,7.64C64.51,187.13,65.37,187.36,66.11,187.69z"/>
				<path class="st11" d="M64.62,171.17c0.07-0.09,0.13-0.19,0.19-0.28c0.4-0.66,0.62-1.41,0.82-2.15c0.35-1.25,0.71-2.5,1.06-3.75
					c0.09-0.3-0.11-0.75-0.21-1.04c-0.13-0.39-0.29-0.76-0.49-1.12c-0.11-0.19-0.26-0.35-0.36-0.54c-0.15-0.3-0.17-0.49-0.52-0.4
					c-0.33,0.08-0.66,0.28-0.96,0.44c-0.62,0.34-1.2,0.75-1.76,1.18c-4.09,3.09-7.65,6.9-10.45,11.2c-0.27,0.42-0.63,0.98-0.55,1.51
					c0.06,0.39,0.51,0.74,0.71,1.09c0.29,0.53,0.68,1.07,1.29,1.26c0.61,0.19,1.27-0.02,1.8-0.38c0.06-0.04,0.12-0.08,0.17-0.12
					c0.56-0.43,0.99-1.01,1.5-1.49c0.55-0.52,1.2-0.93,1.84-1.34c0.79-0.51,1.59-1.02,2.42-1.47c0.78-0.42,1.58-0.82,2.28-1.37
					C63.86,172.03,64.29,171.63,64.62,171.17z"/>
				<path class="st11" d="M57.27,195.79c-0.01-0.33-0.04-0.65-0.09-0.98c-0.15-1.09-1.7-1.58-2.56-1.91
					c-1.17-0.45-2.33-1.09-3.55-1.39c-5.57-1.38-11.27-2.09-16.96-2.79c-1.52-0.19-3.05-0.38-4.57-0.57
					c-2.34-0.29-5.19-0.9-7.03,0.97c-0.63,0.65-1.01,1.52-0.32,2.23c1.94,1.97,4.01,3.84,6.37,5.27c3.56,2.16,7.65,3.24,11.68,4.3
					c2.61,0.68,5.22,1.37,7.83,2.05c1.27,0.33,2.57,0.67,3.87,0.5c1.86-0.24,3.49-1.54,4.38-3.19
					C57.07,198.91,57.34,197.34,57.27,195.79z"/>
				<path class="st11" d="M46.28,184.14c0.76-0.81,1.25-1.88,0.26-2.79c-0.51-0.47-1.24-0.59-1.94-0.61
					c-1.68-0.06-3.35,0.33-4.97,0.79c-5.47,1.52-10.75,3.75-15.66,6.61c-0.66,0.39-0.06,1.38,0.24,1.82
					c0.92,1.36,2.39,2.32,3.99,2.67c0.84,0.18,1.58,0.09,2.42,0.01c0.5-0.04,0.96,0.03,1.47-0.09c0.5-0.12,0.98-0.32,1.45-0.54
					c0.02-0.01,0.04-0.02,0.06-0.03c2.03-0.99,3.82-2.42,5.76-3.57c2.03-1.21,4.24-2.14,6.13-3.57
					C45.76,184.65,46.04,184.41,46.28,184.14z"/>
				<g>
					<g>
						<g>
							<g>
								<g>
									<path class="st11" d="M55.74,194.54c0.5,0.17,1.03-0.27,1.48-0.46c0.7-0.3,1.35-0.69,1.96-1.14
										c0.89-0.66,1.82-1.21,2.64-1.98c0.25-0.23,0.43-0.46,0.6-0.75c0.11-0.19,0.33-0.37,0.27-0.62c0-0.01,0-0.01,0-0.02
										c-0.05-0.19-0.2-0.35-0.33-0.5c-0.28-0.33-0.49-0.71-0.71-1.09c-0.12-0.2-0.24-0.4-0.36-0.61
										c-0.65-1.05-1.37-2.06-2.29-2.88c-0.21-0.18-0.49-0.43-0.79-0.45c-0.04,0-0.07,0-0.11,0c-0.34,0.03-0.72,0.32-1.03,0.46
										c-0.52,0.23-0.97,0.56-1.48,0.8c-0.49,0.24-1.07,0.35-1.57,0.56c-0.46,0.19-0.88,0.4-1.36,0.53
										c-0.53,0.13-1.29,0.41-1.49,0.98c-0.25,0.69,0.59,1.78,0.92,2.36c0.33,0.59,0.7,1.15,1.09,1.7
										c0.41,0.57,0.69,1.22,1.12,1.78C54.64,193.67,55.17,194.35,55.74,194.54z"/>
								</g>
							</g>
						</g>
						<g>
							<g>
								<path class="st13" d="M58.5,189.32c0.74-0.21,1.42-0.62,2.04-1.07c0.27-0.2,0.55-0.41,0.69-0.72
									c0.03-0.05,0.04-0.11,0.06-0.16c-0.65-1.05-1.37-2.06-2.29-2.88c-0.21-0.18-0.49-0.43-0.79-0.45
									c-0.13,0.09-0.24,0.19-0.34,0.3c-0.25,0.29-0.3,0.62-0.62,0.84c-0.43,0.3-0.84,0.65-1.23,1c-0.55,0.49-1.24,1.26-0.82,2.05
									C55.81,189.38,57.36,189.64,58.5,189.32z"/>
							</g>
						</g>
						<g>
							<g>
								<g>
									<path class="st11" d="M54.45,175.89c1.13,0.77,2.05,1.76,3.08,2.7c0.61,0.56,1.19,1.1,1.71,1.73
										c0.5,0.62,0.92,1.3,1.22,2.04c0.35,0.88,0.57,1.86,0.48,2.81c-0.04,0.48-0.17,0.91-0.43,1.31
										c-0.28,0.41-0.66,0.74-1.06,1.04c-0.14,0.11-0.27,0.21-0.41,0.32c-0.41,0.34-0.99,0.55-1.48,0.74
										c-1.41,0.56-3.17,0.42-4.59-0.1c-0.48-0.17-0.94-0.4-1.42-0.56c-0.84-0.27-1.73-0.33-2.6-0.51
										c-2.45-0.51-3.82-3.85-3.61-6.15c0.07-0.75,0.29-1.49,0.56-2.19c0.79-2.02,2.29-4.24,4.64-4.45
										c0.95-0.09,1.9,0.21,2.77,0.61C53.73,175.43,54.1,175.65,54.45,175.89z"/>
								</g>
							</g>
						</g>
						<g>
							<path class="st14" d="M54.14,177.55c0.22-0.18,0.47-0.32,0.79-0.42c0.19-0.06,1.11-0.32,0.95,0.15
								c-0.07,0.21-0.68,0.45-0.87,0.58c-0.31,0.22-0.6,0.47-0.85,0.77c-0.1,0.12-0.29,0.34-0.46,0.34
								c-0.41,0.01-0.32-0.59-0.16-0.78C53.73,177.94,53.92,177.73,54.14,177.55z"/>
						</g>
						<g>
							<g>
								<g>
									<path class="st14" d="M50.27,181.28c-0.25,0.3-0.47,0.64-0.62,1c-0.06,0.13-0.36,1.41-0.03,1.32
										c0.02,0,0.03-0.02,0.04-0.03c0.31-0.38,0.51-0.86,0.81-1.26c0.32-0.44,0.69-0.84,1.1-1.2c0.1-0.08,0.2-0.17,0.26-0.28
										c0.18-0.32-0.18-0.71-0.49-0.5C50.95,180.59,50.58,180.91,50.27,181.28z"/>
								</g>
							</g>
						</g>
						<g>
							<path class="st14" d="M54.83,179.59c-0.16-0.21-0.32-0.5-0.17-0.75c0.08-0.12,0.2-0.2,0.35-0.19c0.04,0,0.08,0.01,0.11,0.02
								c0.03,0,0.06,0.01,0.09,0.02c0.18,0.05,0.34,0.17,0.44,0.33c0.1,0.11,0.17,0.25,0.16,0.41c-0.01,0.19-0.19,0.36-0.37,0.41
								C55.2,179.93,54.97,179.78,54.83,179.59z"/>
						</g>
						<g>
							<path class="st14" d="M51.34,183.77c-0.16-0.21-0.32-0.5-0.17-0.75c0.08-0.12,0.2-0.2,0.35-0.19c0.04,0,0.08,0.01,0.11,0.02
								c0.03,0,0.06,0.01,0.09,0.02c0.18,0.05,0.34,0.17,0.44,0.33c0.1,0.11,0.17,0.25,0.16,0.41c-0.01,0.19-0.19,0.36-0.37,0.41
								C51.71,184.11,51.48,183.96,51.34,183.77z"/>
						</g>
						<g>
							<g>
								<g>
									<path class="st14" d="M50.59,186.95c0.4,0.59,0.76,1.19,1.09,1.8c-0.14,0.25-0.5,0.24-0.79,0.18
										c-0.95-0.18-1.85-0.47-2.76-0.75c-1.6-0.5-3.03-1.51-4.02-2.86c-0.99-1.35-1.54-3.01-1.55-4.69c0-1.88,1.61-3.39,2.91-4.54
										c1.13-1,2.33-1.95,3.18-3.19c0.38-0.56,0.79-1.24,1.46-1.31c0.42-0.04,0.79,0.17,1.16,0.32c0.45,0.18,0.72,0.17,1.19,0.14
										c1.47-0.08,1.75,1.6,1.03,2.59c-0.29,0.4-0.75,0.63-1.18,0.85c-1.18,0.62-2.31,1.32-3.39,2.11
										c-0.76,0.56-1.53,1.21-1.81,2.12c-0.1,0.32-0.13,0.66-0.14,1c-0.01,0.61,0.07,1.23,0.32,1.79c0.21,0.48,0.54,0.9,0.87,1.32
										C48.97,184.85,49.85,185.86,50.59,186.95z"/>
								</g>
							</g>
						</g>
						<g>
							<g>
								<g>
									<path class="st11" d="M48.53,186.15c-0.23,0.32-0.31,0.74-0.11,1.15c0.2,0.4,0.57,0.67,0.97,0.87
										c1.13,0.58,2.49,0.55,3.44-0.36c0.11-0.1,0.21-0.22,0.25-0.36c0.28-0.88-1.62-1.41-2.2-1.64
										c-0.47-0.19-0.98-0.33-1.47-0.23C49.05,185.66,48.73,185.87,48.53,186.15z"/>
								</g>
							</g>
						</g>
						<g>
							<path class="st13" d="M56.89,181.4c-0.19-0.11-0.42-0.15-0.63-0.21c-0.97-0.29-1.83-0.84-2.68-1.38
								c-0.12-0.07-0.36,0.19-0.26,0.25c0.77,0.49,1.55,0.99,2.42,1.3c0.21,0.08,0.42,0.13,0.63,0.19c0.22,0.06,0.44,0.16,0.5,0.41
								c0.05,0.21,0.02,0.46-0.02,0.67c-0.04,0.22-0.12,0.44-0.22,0.64c-0.1,0.21,0.18,0.11,0.24-0.01c0.2-0.41,0.33-0.87,0.31-1.33
								C57.17,181.71,57.09,181.52,56.89,181.4z"/>
						</g>
						<path class="st3" d="M58.11,182.94c0.52-0.69,0.67,0.58,0.59,0.94c-0.04,0.19-0.12,0.37-0.22,0.54
							c-0.27,0.47-0.71,0.86-1.22,1.04c-0.36,0.13-1.15,0.33-1.45,0.01C56.58,184.62,57.41,183.86,58.11,182.94z"/>
					</g>
					<path class="st13" d="M60.42,186.78c-0.08-0.16,0.31-0.52,0.4-0.33c0.54,1.12,1.32,2.11,2.28,2.89
						c0.14,0.12-0.21,0.51-0.36,0.39C61.76,188.93,60.96,187.92,60.42,186.78z"/>
					<path class="st15" d="M51.28,175.31c-0.03-0.11,0.11-0.23,0.18-0.28c0.32-0.21,0.38-0.72,0.29-1.08
						c-0.12-0.51-0.53-0.91-0.98-1.16c-0.18-0.1,0.18-0.47,0.34-0.38c0.53,0.29,1.01,0.78,1.1,1.4c0.08,0.59-0.19,1.17-0.68,1.51
						C51.46,175.36,51.31,175.42,51.28,175.31z"/>
					<path class="st15" d="M49.24,175.4c0.32-0.24,0.68-0.49,0.82-0.88c0.06-0.16,0.07-0.33,0.04-0.49
						c-0.05-0.22-0.19-0.39-0.35-0.54c-0.13-0.12,0.26-0.47,0.4-0.34c0.18,0.17,0.33,0.38,0.38,0.62c0.05,0.22,0.01,0.45-0.07,0.65
						c-0.19,0.51-0.63,0.86-1.05,1.18c-0.06,0.05-0.21,0.15-0.28,0.07C49.06,175.6,49.19,175.45,49.24,175.4z"/>
					<path class="st15" d="M46.88,177.61c0.06-0.14,0.1-0.26,0.13-0.39c0.03-0.15,0.05-0.29,0.05-0.44
						c0.01-0.28-0.05-0.58-0.16-0.84c-0.02-0.04,0.02-0.11,0.04-0.14c0.03-0.05,0.09-0.11,0.14-0.14c0.07-0.04,0.2-0.1,0.25,0.01
						c0.24,0.59,0.21,1.27-0.05,1.85c-0.05,0.11-0.16,0.21-0.28,0.24C46.9,177.77,46.83,177.71,46.88,177.61z"/>
				</g>
				<g>
					<path class="st16" d="M59.2,178.91c-0.16-0.87-0.73-1.6-1.24-2.29c-0.08-0.11-0.17-0.23-0.28-0.31
						c-0.03-0.02-0.06-0.04-0.09-0.05c-0.33-0.17-0.68,0.12-0.92,0.31c-0.34,0.26-0.65,0.55-0.96,0.84
						c-0.32,0.3-0.59,0.64-0.81,1.01c-0.11,0.19-0.22,0.38-0.3,0.58c-0.08,0.19-0.11,0.4-0.21,0.58c-0.03,0.06-0.06,0.11-0.09,0.16
						c-0.04,0.06-0.09,0.12-0.13,0.18c-0.06,0.04-0.12,0.09-0.18,0.13c-0.05,0.03-0.1,0.07-0.16,0.09c-0.19,0.09-0.4,0.12-0.59,0.2
						c-0.2,0.08-0.4,0.18-0.58,0.3c-0.37,0.22-0.72,0.49-1.02,0.81c-0.51,0.53-1.21,1.18-1.44,1.91c-0.07,0.2-0.17,0.43-0.1,0.64
						c0.09,0.25,0.31,0.3,0.53,0.39c0.21,0.08,0.34,0.23,0.53,0.36c0.44,0.3,0.93,0.51,1.46,0.59c0.48,0.07,0.81-0.15,1.19-0.4
						c0.48-0.31,0.89-0.76,1.22-1.23c0.33-0.47,0.34-1.05,0.2-1.58c-0.07-0.28-0.18-0.54-0.31-0.8c-0.09-0.19-0.31-0.47-0.25-0.71
						c0.02-0.05,0.04-0.09,0.07-0.12c0.03-0.02,0.08-0.05,0.12-0.07c0.24-0.06,0.52,0.16,0.71,0.26c0.26,0.13,0.52,0.24,0.79,0.32
						c0.54,0.15,1.11,0.14,1.59-0.18c0.35-0.24,0.7-0.5,0.98-0.83C59.2,179.63,59.29,179.36,59.2,178.91z"/>
					<g>
						<path class="st3" d="M59.2,178.91c-0.16-0.87-0.73-1.6-1.24-2.29c-0.08-0.11-0.17-0.23-0.28-0.31
							c-0.03-0.02-0.06-0.04-0.09-0.05c-0.33-0.17-0.68,0.12-0.92,0.31c-0.34,0.26-0.65,0.55-0.96,0.84
							c-0.32,0.3-0.59,0.64-0.81,1.01c-0.11,0.19-0.22,0.38-0.3,0.58c-0.08,0.19-0.11,0.4-0.21,0.58c-0.03,0.06-0.06,0.11-0.09,0.16
							c-0.04,0.06-0.09,0.12-0.13,0.18c-0.06,0.04-0.12,0.09-0.18,0.13c-0.05,0.03-0.1,0.07-0.16,0.09c-0.19,0.09-0.4,0.12-0.59,0.2
							c-0.2,0.08-0.4,0.18-0.58,0.3c-0.37,0.22-0.72,0.49-1.02,0.81c-0.48,0.5-1.02,0.99-1.33,1.63c-0.33,0.68-0.56,1.49-0.73,2.22
							c-0.02,0.08-0.03,0.17,0.02,0.23c0.04,0.04,0.11,0.05,0.17,0.03c0.06-0.02,0.1-0.07,0.14-0.11c0.13-0.15,0.22-0.34,0.32-0.51
							c0.09-0.14,0.27-0.44,0.45-0.47c0.19-0.04,0.32,0.18,0.46,0.27c0.44,0.3,0.93,0.51,1.46,0.59c0.48,0.07,0.81-0.15,1.19-0.4
							c0.48-0.31,0.89-0.76,1.22-1.23c0.33-0.47,0.34-1.05,0.2-1.58c-0.07-0.28-0.18-0.54-0.31-0.8c-0.09-0.19-0.31-0.47-0.25-0.71
							c0.02-0.05,0.04-0.09,0.07-0.12c0.03-0.02,0.08-0.05,0.12-0.07c0.24-0.06,0.52,0.16,0.71,0.26c0.26,0.13,0.52,0.24,0.79,0.32
							c0.54,0.15,1.11,0.14,1.59-0.18c0.35-0.24,0.7-0.5,0.98-0.83C59.2,179.63,59.29,179.36,59.2,178.91z M54.87,182.25
							c0.13,0.46,0.12,0.95-0.16,1.35c-0.27,0.4-0.62,0.78-1.03,1.04c-0.32,0.21-0.6,0.39-1.01,0.33c-0.45-0.07-0.87-0.26-1.25-0.52
							c-0.19-0.13-0.37-0.28-0.54-0.45c-0.12-0.13-0.35-0.23-0.37-0.43c-0.01-0.11,0.03-0.21,0.07-0.3
							c0.28-0.62,0.75-1.13,1.22-1.62c0.25-0.27,0.55-0.49,0.87-0.68c0.16-0.09,0.32-0.18,0.49-0.25c0.18-0.07,0.43-0.16,0.62-0.14
							c0,0,0,0,0.01,0c0.13,0.02,0.25,0.09,0.35,0.19c0.22,0.22,0.32,0.52,0.45,0.79C54.71,181.79,54.81,182.02,54.87,182.25z
							 M57.85,180.5c-0.4,0.27-0.89,0.28-1.35,0.14c-0.24-0.07-0.46-0.16-0.68-0.28c-0.27-0.14-0.56-0.24-0.79-0.46
							c-0.09-0.09-0.17-0.22-0.19-0.35l0-0.01c-0.02-0.2,0.07-0.45,0.14-0.63c0.07-0.17,0.16-0.33,0.25-0.49
							c0.19-0.31,0.42-0.61,0.69-0.86c0.29-0.27,0.93-1.13,1.37-0.96c0.29,0.11,0.59,0.5,0.78,0.73c0.24,0.28,0.44,0.6,0.59,0.94
							c0.11,0.25,0.2,0.5,0.22,0.77C58.92,179.75,58.37,180.15,57.85,180.5z"/>
					</g>
				</g>
				<path class="st13" d="M65.39,166.71c-0.38,1.03-0.22,2.14-0.41,3.21c-0.1,0.53-0.31,1.01-0.64,1.44
					c-0.34,0.43-0.76,0.79-1.18,1.13c-0.08,0.07,0.02,0.14,0.08,0.16c0.1,0.03,0.24,0.02,0.32-0.04c0.83-0.68,1.59-1.41,1.84-2.5
					c0.25-1.1,0.04-2.26,0.44-3.34C65.91,166.6,65.44,166.56,65.39,166.71z"/>
				<path class="st13" d="M71.35,183.91c-1.73-0.9-3.26-2.17-4.46-3.7c-0.07-0.08-0.19-0.1-0.29-0.08
					c-0.05,0.01-0.23,0.06-0.16,0.15c1.24,1.58,2.8,2.88,4.59,3.81c0.09,0.05,0.24,0.05,0.33,0
					C71.43,184.04,71.44,183.96,71.35,183.91z"/>
				<path class="st13" d="M63.07,183.38c-0.56-0.71-0.76-1.6-0.89-2.47c-0.03-0.17-0.5-0.15-0.47,0c0.14,0.89,0.34,1.81,0.91,2.54
					c0.07,0.08,0.19,0.1,0.29,0.08C62.95,183.53,63.14,183.47,63.07,183.38z"/>
				<path class="st13" d="M72.68,186.19c0-0.1-0.01-0.22-0.04-0.32c-0.03-0.1-0.12-0.17-0.22-0.2c-0.16-0.05-0.36-0.02-0.46,0.13
					c-0.05,0.08-0.08,0.19-0.11,0.29c-0.06,0.21-0.09,0.43-0.08,0.65c0,0.05,0,0.1,0.02,0.15c0.02,0.05,0.07,0.09,0.12,0.11
					c0.15,0.07,0.36,0.06,0.49-0.04c0.06-0.05,0.1-0.11,0.12-0.18c0.06-0.08,0.09-0.18,0.11-0.28
					C72.67,186.4,72.68,186.29,72.68,186.19z"/>
				<path class="st13" d="M62.82,196.12c0.09-0.11,0.06-0.26-0.22-0.43c-0.19-0.12-0.42-0.12-0.65-0.11
					c-0.22,0.01-0.44,0.05-0.66,0.1c-0.79,0.18-0.71,0.82,0.09,0.81c0.15,0,0.3-0.01,0.45-0.03
					C62.06,196.44,62.65,196.33,62.82,196.12z"/>
				<path class="st13" d="M60.45,190.15c-2.59-0.34-5.19,0.05-7.75,0.45c-0.07,0.01-0.2,0.05-0.16,0.15
					c0.04,0.09,0.22,0.1,0.29,0.08c2.48-0.38,5-0.78,7.5-0.45c0.08,0.01,0.25,0.01,0.29-0.08
					C60.65,190.21,60.52,190.16,60.45,190.15z"/>
				<path class="st13" d="M57.08,198.88c-0.64-1.06-1.3-2.14-2.24-2.96c-0.98-0.87-2.22-1.33-3.43-1.76
					c-0.09-0.03-0.26-0.03-0.32,0.04c-0.07,0.08,0,0.14,0.08,0.16c1.18,0.41,2.37,0.87,3.31,1.72c0.89,0.81,1.52,1.85,2.14,2.86
					C56.71,199.08,57.17,199.03,57.08,198.88z"/>
				<path class="st13" d="M37.46,189.03c-2.11-0.23-4.23-0.27-6.34-0.11c-0.07,0.01-0.2,0.06-0.16,0.15
					c0.04,0.09,0.21,0.09,0.29,0.08c2.03-0.15,4.07-0.11,6.09,0.11c0.08,0.01,0.25,0.01,0.29-0.08
					C37.66,189.08,37.53,189.04,37.46,189.03z"/>
				<path class="st13" d="M87.55,198.48c-0.06-0.05-0.14-0.07-0.21-0.07c-0.09-0.01-0.2,0.01-0.27,0.07
					c-0.06,0.05-0.1,0.13-0.13,0.2c-0.08,0.13-0.14,0.27-0.19,0.41c-0.02,0.05,0.01,0.08,0.04,0.11c0,0.02-0.01,0.04-0.01,0.06
					c0,0.03-0.01,0.07-0.01,0.11c-0.01,0.03-0.01,0.05-0.02,0.08c-0.01,0.08,0.01,0.16,0.08,0.2c0.01,0,0.01,0.01,0.02,0.01
					c0.08,0.05,0.19,0.06,0.28,0.04c0.09-0.01,0.16-0.05,0.21-0.12c0.03-0.04,0.05-0.08,0.07-0.13c0-0.01,0.01-0.02,0.01-0.03
					c0.01-0.01,0.01-0.02,0.02-0.03c0.07-0.14,0.11-0.3,0.14-0.46c0.01-0.08,0.03-0.16,0.03-0.24
					C87.62,198.61,87.61,198.53,87.55,198.48z"/>
				<path class="st13" d="M152.46,199.84c-3.64-0.41-7.3-0.48-10.95-0.85c-1.83-0.19-3.65-0.45-5.44-0.88
					c-1.78-0.43-3.49-1.08-5.27-1.52c-1.92-0.48-3.96-0.7-5.88-0.1c-0.08,0.03-0.15,0.09-0.08,0.16c0.07,0.08,0.24,0.07,0.32,0.04
					c3.52-1.11,7.09,0.73,10.45,1.57c3.48,0.87,7.07,1.11,10.63,1.33c2.03,0.13,4.06,0.25,6.08,0.48c0.08,0.01,0.25,0.01,0.29-0.08
					C152.67,199.89,152.53,199.84,152.46,199.84z"/>
				<path class="st13" d="M166.45,198.28c-0.08-0.07-0.23-0.07-0.32-0.04c-0.57,0.18-1.15,0.34-1.73,0.48
					c-0.07,0.02-0.16,0.1-0.08,0.16c0.08,0.07,0.22,0.07,0.32,0.04c0.58-0.14,1.16-0.3,1.73-0.48
					C166.44,198.43,166.53,198.36,166.45,198.28z"/>
				<path class="st13" d="M55.79,176.69c-0.65-0.55-1.31-1.07-1.99-1.58c-0.12-0.09-0.29-0.1-0.43-0.06
					c-0.08,0.03-0.23,0.13-0.11,0.22c0.68,0.5,1.35,1.03,1.99,1.58c0.11,0.09,0.3,0.1,0.43,0.06
					C55.76,176.88,55.9,176.79,55.79,176.69z"/>
				<path class="st13" d="M50.36,200.55c-0.09-0.1-0.31-0.09-0.43-0.06c-1.92,0.57-3.95,0.76-5.94,0.54
					c-0.11-0.01-0.33-0.01-0.39,0.11c-0.06,0.12,0.13,0.19,0.22,0.2c2.16,0.24,4.34,0.05,6.43-0.57
					C50.36,200.74,50.46,200.65,50.36,200.55z"/>
				<path class="st3" d="M121.25,199.43l-0.11-2.12l-0.4-7.99c-0.52,0.08-1.04,0.16-1.57,0.25l0.41,8.15l0.13,2.62l0.55,10.95
					c0.52-0.15,1.04-0.29,1.56-0.42L121.25,199.43z M114.1,199.04c-0.05-2.88-0.11-5.76-0.2-8.63c-0.07,0.01-0.13,0.02-0.2,0.03
					c-0.46,0.07-0.91,0.14-1.37,0.21c0.09,2.9,0.16,5.81,0.2,8.72c0.01,0.89,0.02,1.77,0.03,2.66c0.04,3.86,0.04,7.72,0,11.57
					c0.53-0.17,1.05-0.33,1.58-0.49c0.04-3.74,0.03-7.49-0.01-11.24C114.13,200.92,114.12,199.98,114.1,199.04z M104.83,199.57
					c0,0.35,0,0.71,0,1.06c0,0.31,0,0.63,0,0.94c0,0.29,0,0.57-0.01,0.86c-0.04,4.49-0.16,9.01-0.31,13.51
					c0.2-0.04,0.4-0.09,0.6-0.13c0.33-0.08,0.66-0.16,0.98-0.24c0.15-4.41,0.26-8.84,0.3-13.25c0-0.25,0-0.49,0.01-0.74
					c0-0.39,0-0.77,0-1.16c0-0.28,0-0.56,0-0.84c0.01-2.64,0.02-5.33,0.15-8.01c-0.53,0.09-1.06,0.17-1.59,0.27
					C104.85,194.43,104.83,197.02,104.83,199.57z M96.8,197.18c-0.16,1.29-0.38,2.58-0.59,3.83c-0.02,0.13-0.04,0.26-0.06,0.38
					c-0.12,0.74-0.25,1.49-0.36,2.24c-0.12,0.82-0.23,1.64-0.31,2.47c-0.36,3.57-0.68,7.17-0.98,10.77
					c0.53-0.01,1.06-0.02,1.58-0.04c0.29-3.54,0.61-7.07,0.96-10.58c0.09-0.96,0.23-1.92,0.38-2.88c0.11-0.7,0.22-1.39,0.34-2.08
					c0-0.01,0-0.02,0.01-0.03c0.21-1.27,0.43-2.58,0.6-3.89c0.19-1.49,0.37-2.98,0.55-4.48c-0.54,0.1-1.08,0.2-1.62,0.3
					C97.13,194.53,96.97,195.86,96.8,197.18z M89.42,201.83c-0.26,1.07-0.53,2.13-0.79,3.19c0,0.02-0.01,0.03-0.01,0.05l-1.89,7.57
					c-0.29,1.15-0.58,2.31-0.89,3.47c0.42,0.12,0.85,0.23,1.28,0.31c0.09,0.02,0.17,0.03,0.26,0.05c0.31-1.16,0.6-2.31,0.89-3.45
					l1.89-7.57c0.08-0.31,0.15-0.61,0.23-0.92c0.24-0.98,0.49-1.95,0.73-2.94c0.6-2.48,1.19-4.99,1.69-7.52
					c-0.56,0.11-1.12,0.22-1.67,0.34C90.61,196.9,90.03,199.38,89.42,201.83z"/>
				<path class="st17" d="M122.28,196.82c-0.1-0.1-0.31-0.09-0.43-0.06c-2.85,0.79-5.73,1.49-8.63,2.08
					c-2.9,0.6-5.82,1.09-8.75,1.49c-1.66,0.23-3.33,0.42-5,0.58c-0.09,0.01-0.27,0.07-0.22,0.2c0.05,0.12,0.29,0.12,0.39,0.11
					c2.97-0.29,5.93-0.68,8.88-1.17c2.95-0.49,5.87-1.08,8.78-1.77c1.63-0.39,3.26-0.8,4.87-1.25
					C122.27,197.01,122.37,196.92,122.28,196.82z"/>
				<path class="st13" d="M176.1,196.73c-0.23-0.34-0.74-0.34-1.11-0.3c-0.38,0.04-0.75,0.19-1.06,0.42
					c-0.12,0.09,0.03,0.2,0.11,0.22c0.14,0.04,0.31,0.03,0.43-0.06c0.09-0.07,0.2-0.13,0.32-0.18c0.01,0,0.01,0,0.02-0.01
					c0.01-0.01,0.03-0.01,0.04-0.02c0.03-0.01,0.05-0.02,0.08-0.02c0.03-0.01,0.06-0.02,0.09-0.02c0.01,0,0.05-0.01,0.06-0.01
					c0.03,0,0.06-0.01,0.09-0.01c0.01,0,0.01,0,0.01,0c0.01,0,0.03,0,0.04,0c0.03,0,0.05,0,0.08,0c0.01,0,0.02,0,0.02,0
					c0,0,0.01,0,0.01,0c0.01,0,0.03,0,0.04,0.01c0.01,0,0.03,0.01,0.04,0.01c0.02,0.01,0.05,0.03,0.03,0.02
					c0.02,0.02,0.03,0.02,0.04,0.04c0.08,0.11,0.26,0.13,0.39,0.11C175.95,196.91,176.18,196.84,176.1,196.73z"/>
				<path class="st13" d="M176.43,195.76c-0.22-0.22-0.57-0.29-0.87-0.28c-0.35,0.02-0.66,0.14-0.98,0.28
					c-0.04,0.02-0.09,0.06-0.09,0.11c0,0.05,0.05,0.09,0.09,0.11c0.14,0.07,0.31,0.06,0.45,0c0.05-0.02,0.11-0.05,0.16-0.07
					c0.01,0,0.06-0.02,0.06-0.03c0.02-0.01,0.04-0.01,0.06-0.02c0.06-0.02,0.11-0.04,0.17-0.05c0.01,0,0.01,0,0.02,0
					c0.01,0,0.02,0,0.03-0.01c0.02,0,0.04-0.01,0.07-0.01c0.01,0,0.02,0,0.02,0c0.01,0,0.02,0,0.02,0c0.02,0,0.04,0.01,0.06,0.01
					c0,0,0,0,0,0c0,0,0.01,0,0.02,0c0.01,0,0.02,0.01,0.04,0.01c0,0-0.01,0-0.01,0c0.02,0,0.05,0.02,0.06,0.03
					c0.01,0,0.01,0.01,0.02,0.01c0,0,0,0,0.01,0.01c0.02,0.02,0.04,0.03,0.06,0.05c0.1,0.1,0.31,0.1,0.43,0.06
					C176.42,195.95,176.54,195.86,176.43,195.76z"/>
				<g>
					<polygon class="st13" points="176.32,194.99 176.32,194.99 176.32,194.99 					"/>
					<path class="st13" d="M176.95,194.87c-0.18-0.14-0.41-0.2-0.63-0.2c-0.23,0-0.46,0.06-0.64,0.2c-0.04,0.03-0.05,0.08-0.03,0.12
						c0.02,0.05,0.1,0.08,0.14,0.1c0.14,0.04,0.31,0.03,0.43-0.06c0,0,0,0,0,0c0.02-0.01,0.03-0.02,0.05-0.03c0,0,0.01,0,0.01,0
						c0,0,0.01,0,0.01,0c0,0,0,0,0.01,0c0,0,0,0,0,0c0,0,0,0,0,0c0,0,0,0,0,0c0,0,0,0,0,0c0,0,0,0,0,0c0,0,0,0,0.01,0
						c0,0,0.01,0,0.01,0l0,0c0,0-0.01,0-0.01,0c0,0,0,0,0.01,0c0.01,0,0.01,0,0.02,0.01c0.02,0.01,0.03,0.02,0.05,0.03
						c0,0,0.01,0.01,0.01,0.01c0.05,0.04,0.12,0.06,0.19,0.07c0.08,0.01,0.17,0.01,0.24-0.02c0.05-0.02,0.12-0.04,0.14-0.1
						C177,194.95,176.99,194.9,176.95,194.87z"/>
				</g>
				<path class="st13" d="M173.49,185.93c-0.95-0.24-1.86,0.6-2.15,1.44c-0.04,0.13,0.12,0.19,0.22,0.2
					c0.08,0.01,0.17,0.01,0.24-0.02c0.05-0.02,0.13-0.04,0.14-0.1c0.11-0.32,0.29-0.61,0.53-0.84c0.12-0.12,0.25-0.22,0.38-0.29
					c0.09-0.05,0.15-0.08,0.23-0.1c0.01,0,0.01,0,0.02,0c0.01,0,0.02,0,0.03-0.01c0.01,0,0.02,0,0.02,0c0,0,0.04,0.01,0,0
					c0.13,0.03,0.32,0.04,0.43-0.06C173.71,186.05,173.59,185.95,173.49,185.93z"/>
			</g>
		</g>
	</g>
	<g style="clip-path:url(#SVGID_00000084508789570749405750000006694663794254485644_);">
		<path class="st7" d="M163.81,151.59c1.19,0.24,2.35,0.51,2.97,1.49c1.11,1.74,1.31,3.61,2.86,5.18c1.57,1.6,3.65,2.71,5.8,3.28
			c3.67,0.97,7.55,0.59,11.3,0.03c3.75-0.56,7.53-1.31,11.31-1.04c3.81,0.27,7.53,1.56,11.34,1.41c7.38-0.28,13.86-5.85,21.25-5.79
			c2.81,0.02,5.58,0.87,8.39,0.73c1.94-0.09,3.81-0.66,5.59-1.42c1.62-0.7,3.31-2.19,5.07-2.41c1.62-0.21,3.1,0.36,4.78-0.12
			c1.84-0.53,3.35-1.78,5.1-2.51c2.02-0.85,3.5-1.97,4.71-3.87c0.74-1.16,1.28-2.57,0.91-3.9c-0.52-1.85-2.54-2.79-4.38-3.36
			c-3.63-1.14-7.44-1.8-11.25-1.61c-2.95,0.15-5.85,0.8-8.74,1.41c-7.77,1.64-15.59,3.01-23.43,4.26
			c-7.05,1.12-14.99,3.45-22.11,2.36c-6.79-1.04-13.55-2.25-20.35-3.15c-0.82-0.11-1.63-0.21-2.45-0.31
			c-3.5-0.43-9.05,0.46-11.51,3.25c-1.2,1.36-1.54,3.66-0.23,4.92C161.53,151.16,162.69,151.37,163.81,151.59z"/>
		<path class="st7" d="M234.39,159.46c-1.26-0.83-3.16-0.7-4.32,0.25c-0.28,0.23-0.11,0.47,0.12,0.63c0.09,0.14,0.29,0.25,0.47,0.31
			c1.32,0.44,2.75,0.25,3.9-0.51C234.9,159.91,234.61,159.59,234.39,159.46z"/>
		<path class="st7" d="M267.26,149.73c-0.4,0.38-0.82,0.75-1.32,0.97c-0.42,0.18-0.88,0.24-1.34,0.3c-0.46,0.06-1.06,0.04-1.22-0.4
			c-0.14-0.38,0.2-0.76,0.51-1.03c1.21-1.04,2.63-2.07,3.21-3.63c0.34-0.92-0.3-2.55,0.77-2.65c0.87-0.08,1.75,1.17,1.85,1.88
			C269.97,146.91,268.39,148.66,267.26,149.73z"/>
		<g>
			<g>
				<path class="st3" d="M255.79,139.49c-0.71-0.27-1.48-0.38-2.31-0.27c-0.22,0.03-0.45,0.07-0.67,0.02
					c-0.25-0.06-0.46-0.23-0.67-0.39c-1.48-1.16-3.28-1.76-5.13-2c-1.7-0.22-3.54,0.41-5.16,0.18c-1.41-0.2-2.53-1.36-3.96-1.87
					c-1.74-0.63-3.57-1.01-5.42-1.11c-3.36-0.19-6.71,0.5-10.02,1.12c-12.34,2.32-24.66,3.28-37.16,4.05
					c-1.31,0.08-2.53-0.04-3.8-0.42c-2.25-0.66-4.45-1.6-6.79-1.8c-3.81-0.32-9,1.46-9.85,5.68c-0.57,2.8,1.15,5.03,3.31,6.58
					c1.26,0.9,2.56,1.73,3.9,2.5c5.47,3.11,11.58,5.09,17.83,5.82c7.01,0.82,13.99-0.16,20.92-1.2c2.89-0.43,5.59-1.36,8.49-1.87
					c3.32-0.59,6.63-1.19,9.94-1.84c6.6-1.3,13.17-2.78,19.64-4.66c0.97-0.28,1.94-0.57,2.9-0.87c2.19-0.68,4.38-1.42,6.35-2.59
					c1.58-0.94,0.96-2.44-0.09-3.52C257.38,140.34,256.63,139.81,255.79,139.49z"/>
				<path class="st2" d="M167.3,145.34c-0.73-0.63-1.31-1.41-1.71-2.28c-0.05-0.1-0.37-0.07-0.32,0.04c0.41,0.89,1,1.68,1.74,2.32
					c0.06,0.05,0.16,0.05,0.22,0.03C167.29,145.43,167.36,145.39,167.3,145.34z"/>
				<path class="st2" d="M180.88,152.26c-2.27-0.64-4.57-1.28-6.66-2.4c-0.59-0.31-1.16-0.67-1.69-1.06
					c-0.06-0.05-0.15-0.05-0.22-0.03c-0.04,0.01-0.12,0.07-0.06,0.11c1.94,1.42,4.21,2.27,6.5,2.96c0.65,0.2,1.31,0.38,1.97,0.57
					c0.06,0.02,0.18,0.02,0.22-0.03C180.98,152.32,180.93,152.28,180.88,152.26z"/>
				<path class="st2" d="M199.24,154.55c-0.05-0.06-0.16-0.04-0.22-0.03c-1.87,0.44-3.81,0.58-5.72,0.39
					c-0.06-0.01-0.17-0.01-0.2,0.06c-0.03,0.06,0.07,0.1,0.11,0.1c2,0.19,4.02,0.05,5.98-0.41
					C199.24,154.65,199.28,154.6,199.24,154.55z"/>
				<path class="st2" d="M242.92,146.7c-0.05-0.06-0.16-0.04-0.22-0.03c-1.82,0.43-3.63,0.87-5.45,1.3
					c-1.82,0.43-3.63,0.85-5.45,1.27c-1.82,0.42-3.65,0.82-5.48,1.21c-1.83,0.39-3.67,0.77-5.51,1.13c-1.83,0.36-3.67,0.69-5.51,1
					c-0.23,0.04-0.46,0.08-0.68,0.11c-0.05,0.01-0.14,0.04-0.11,0.1c0.03,0.06,0.15,0.07,0.2,0.06c1.85-0.31,3.7-0.64,5.54-0.99
					c1.84-0.35,3.68-0.73,5.51-1.11c1.83-0.39,3.66-0.79,5.48-1.2c1.83-0.41,3.66-0.84,5.48-1.27c1.83-0.43,3.65-0.87,5.47-1.3
					c0.22-0.05,0.45-0.11,0.67-0.16C242.92,146.8,242.97,146.75,242.92,146.7z"/>
				<path class="st2" d="M257.18,141.38c-0.01-0.12-0.34-0.11-0.33,0c0.09,1.04-0.61,2.1-1.63,2.39c-0.06,0.02-0.1,0.06-0.06,0.11
					c0.05,0.05,0.16,0.05,0.22,0.03C256.48,143.61,257.28,142.52,257.18,141.38z"/>
				<path class="st2" d="M253.28,139.62c-0.02-0.07-0.15-0.06-0.2-0.06c-3.28,0.22-6.55,0.55-9.8,0.97
					c-3.26,0.42-6.5,0.94-9.73,1.56c-3.21,0.62-6.4,1.33-9.56,2.14c-3.19,0.82-6.35,1.74-9.5,2.73c-3.17,1-6.32,2.05-9.54,2.89
					c-0.4,0.11-0.8,0.21-1.21,0.31c-0.02,0-0.03,0.01-0.04,0.01c-0.03-0.03-0.06-0.05-0.08-0.08c-0.9-0.79-2.03-1.25-3.15-1.63
					c-1.87-0.63-3.77-1.16-5.69-1.62c2.88-0.82,5.76-1.62,8.64-2.4c3-0.81,6.01-1.58,9.03-2.31c3.03-0.73,6.08-1.42,9.14-2.05
					c3.04-0.62,6.09-1.19,9.15-1.68c3.06-0.49,6.14-0.9,9.22-1.22c0.39-0.04,0.78-0.08,1.17-0.12c0.22-0.02,0.07-0.18-0.09-0.16
					c-3.1,0.3-6.19,0.69-9.28,1.16c-3.08,0.47-6.15,1.02-9.2,1.63c-3.04,0.61-6.07,1.28-9.09,2c-3.02,0.72-6.03,1.49-9.04,2.28
					c-3.02,0.8-6.02,1.64-9.03,2.49c-0.33,0.09-0.67,0.19-1,0.29c-0.55-0.13-1.11-0.26-1.66-0.37c-1.41-0.3-2.84-0.56-4.27-0.78
					c0.13-1.33-0.38-2.7-1.37-3.6c-1.12-1.03-2.69-1.48-4.16-1.74c-0.9-0.16-1.81-0.25-2.72-0.33c-0.06-0.01-0.17-0.01-0.2,0.06
					c-0.03,0.06,0.07,0.1,0.11,0.1c1.54,0.14,3.09,0.29,4.56,0.8c0.68,0.24,1.35,0.56,1.91,1.01c0.52,0.42,0.93,0.96,1.2,1.58
					c0.29,0.66,0.4,1.39,0.34,2.1c-0.03,0.01-0.06,0.02-0.07,0.05c-0.03,0.07,0.07,0.1,0.11,0.1c2.03,0.31,4.05,0.7,6.05,1.17
					c0.04,0.02,0.11,0.04,0.16,0.04c0.5,0.12,1,0.24,1.49,0.37c1.27,0.33,2.54,0.7,3.8,1.1c1.14,0.36,2.3,0.76,3.27,1.47
					c0.95,0.7,1.71,1.75,1.79,2.96c0.01,0.12,0.33,0.11,0.33,0c-0.06-0.98-0.56-1.86-1.25-2.54c0.03,0,0.05,0,0.07,0
					c3.21-0.79,6.36-1.8,9.51-2.81c3.13-1,6.27-1.95,9.44-2.79c3.19-0.84,6.41-1.59,9.65-2.23c3.21-0.64,6.43-1.18,9.67-1.63
					c3.24-0.44,6.49-0.79,9.75-1.04c0.41-0.03,0.82-0.06,1.23-0.09C253.22,139.72,253.3,139.68,253.28,139.62z"/>
			</g>
			<g>
				<g>
					<path class="st8" d="M182.41,125.37c0.19-0.34,0.4-0.66,0.42-1.09c0.03-0.45-0.12-0.89-0.15-1.33
						c-0.06-0.99,0.53-1.83,1.15-2.55c0.44-0.51,0.91-0.99,1.45-1.38c0.45-0.33,0.77-0.76,1.23-1.08c0.57-0.4,1.23-0.41,1.87-0.28
						c-0.12-0.4-0.01-0.65,0.32-0.89c0.35-0.25,0.76-0.44,1.19-0.43c0.9,0.01,1.9,1.03,1.64,1.96c-0.1,0.35-0.01,0.41,0.21,0.65
						c0.28,0.29,0.53,0.65,0.74,0.99c0.44,0.69,0.76,1.46,0.81,2.28c0.05,0.82-0.09,1.76,0.48,2.34c0.34,0.35,0.84,0.46,1.28,0.66
						c0.68,0.31,1.24,0.88,1.55,1.56c0.3,0.65,0.38,1.4,0.8,1.97c0.5,0.68,1.36,0.97,2.13,1.31c0.77,0.34,1.58,0.87,1.73,1.7
						c0.07,0.38-0.02,0.78,0.05,1.17c0.18,1.04,1.38,1.65,1.6,2.68c0.15,0.71-0.22,1.45-0.78,1.92c-0.56,0.46-1.27,0.69-1.97,0.87
						c-2.38,0.58-4.86,0.61-7.31,0.58c-1.86-0.02-3.74-0.07-5.52-0.63c-1.12-0.35-2.17-0.9-3.27-1.32
						c-0.41-0.15-0.82-0.29-1.23-0.44c-0.34-0.12-0.66-0.38-0.98-0.48c-0.45-0.14-0.89-0.33-1.25-0.62
						c-0.37-0.29-0.65-0.7-0.72-1.16c-0.07-0.46,0.08-0.94,0.29-1.36c0.22-0.42,0.51-0.79,0.74-1.2c0.14-0.23,0.26-0.48,0.29-0.75
						c0.08-0.6-0.28-1.18-0.36-1.78c-0.08-0.68,0.21-1.36,0.55-1.95c0.29-0.52,0.6-1.01,0.82-1.56
						C182.29,125.59,182.35,125.48,182.41,125.37z"/>
				</g>
				<path class="st11" d="M193.77,147.5c0.03-0.01,0.06-0.04,0.08-0.07c0.05-0.08,0.05-0.18,0.02-0.28
					c-0.15-0.56-0.71-0.87-1.21-1.06c-1.09-0.41-2.03-1.09-3.1-1.53c-0.51-0.21-1.05-0.36-1.56-0.57c-0.52-0.21-0.98-0.5-1.53-0.62
					c-0.27-0.06-0.55-0.09-0.82-0.15c-0.49-0.11-0.95-0.33-1.4-0.55c0.21-0.91,0.52-1.84,0.83-2.73c0.38-1.09,0.92-2.09,1.58-3.04
					c0.72-1.03,1.01-2.25,1.2-3.49c0.17-1.13,0.6-2.32-0.29-3.27c-0.44-0.47-1.1-0.73-1.75-0.68c-0.88,0.07-1.63,0.65-2.29,1.23
					c-0.49,0.43-0.97,0.86-1.08,1.51c-0.14,0.77-0.34,1.53-0.53,2.29c-0.39,1.54-0.79,3.07-1.19,4.61c-0.4,1.56-1.09,3.02-1.47,4.59
					c-0.21,0.89-0.25,1.51,0.61,1.97c0.75,0.39,1.61,0.51,2.44,0.61c1.61,0.19,3.23,0.34,4.81,0.69c0.89,0.2,1.76,0.46,2.65,0.68
					c0.43,0.11,0.87,0.2,1.31,0.27c0.35,0.06,0.71,0.19,1.06,0.21c0.11,0.01,0.24,0,0.34-0.06c0.1-0.05,0.18-0.17,0.16-0.28
					c0.19,0.17,0.41,0.35,0.66,0.32c0.14-0.02,0.26-0.11,0.33-0.23c0.06-0.12,0.06-0.28-0.01-0.4
					C193.65,147.52,193.72,147.53,193.77,147.5z"/>
				<path class="st11" d="M220,141.47c-0.08,0.7-0.27,1.39-0.51,2.05c-0.32,0.89-0.44,1.75-1.17,2.44c-0.72,0.68-1.76,0.9-2.74,1.04
					c-0.76,0.11-1.52,0.18-2.29,0.23c-1.04,0.06-2.08,0.07-3.12,0.04c-0.74-0.02-1.49-0.07-2.23-0.14c-1.52-0.13-3.03-0.34-4.53-0.6
					c-2.16-0.37-4.32-0.83-6.44-1.39c-0.51-0.14-1.01-0.28-1.52-0.43c-1.14-0.33-2.27-0.66-3.42-0.94c-0.3-0.07-0.6-0.14-0.9-0.21
					c-1.35-0.29-2.74-0.47-3.98-1.08c-1.52-0.75-2.3-2.21-2.55-3.83c-0.08-0.49-0.07-0.99-0.07-1.48c0-0.35-0.01-0.7-0.05-1.04
					c-0.14-1.13-0.36-2.21-0.18-3.35c0.4-2.51,2.62-4.62,5.15-4.88c0.89-0.09,1.65,0.16,2.52,0.25c2.37,0.27,4.7,1.24,6.04,3.28
					c0.39,0.59,0.72,1.22,1.09,1.82c0.1,0.16,0.2,0.31,0.31,0.46c0.21,0.28,0.44,0.55,0.69,0.81c0.71,0.73,1.56,1.34,2.43,1.86
					c0.37,0.22,0.74,0.45,1.14,0.6c0.66,0.25,1.61,0.46,2.32,0.28c0.03-0.01,0.06-0.02,0.09-0.02c0.62-0.17,1.25-0.36,1.88-0.54
					c0.48-0.14,0.96-0.29,1.45-0.43c1.91-0.54,3.65-0.61,5.56-0.08c1.21,0.34,2.27,0.61,3.32,1.29c0.96,0.62,1.56,1.63,1.7,2.77
					C220.05,140.65,220.04,141.06,220,141.47z"/>
				<path class="st11" d="M233.87,138.67c-0.22,0.05-0.44,0.09-0.66,0.14c-1.63,0.33-3.2,0.27-4.84,0.1c-0.89,0-1.82-0.19-2.7-0.28
					c-0.92-0.1-1.85-0.19-2.77-0.29c-0.92-0.1-1.85-0.2-2.77-0.29c-0.79-0.08-1.68-0.32-2.46-0.1c-0.36,0.1-0.69,0.3-1,0.52
					c-1.2,0.89-2.05,2.22-2.44,3.67c-0.22,0.82-0.29,1.67-0.23,2.51c0.03,0.43,0.09,0.86,0.18,1.29c0.05,0.22,0.1,0.78,0.3,0.93
					c0.14,0.1,0.32,0.1,0.49,0.1c6.47-0.22,12.72-2.34,19.15-3.06c1.7-0.19,3.4-0.29,5.1-0.38c1.53-0.08,3.06-0.17,4.59-0.25
					c1.11-0.06,2.22-0.12,3.33-0.1c1.52,0.04,3.02,0.24,4.54,0.26c0.78,0.01,1.53-0.11,2.3-0.13c0.39-0.01,1.12,0.08,1.04-0.56
					c-0.03-0.24-0.21-0.44-0.43-0.55c-0.21-0.11-0.45-0.15-0.69-0.2c-0.74-0.16-1.46-0.4-2.14-0.73c-0.32-0.15-0.64-0.33-0.89-0.57
					c-0.3-0.28-0.51-0.64-0.76-0.96c-0.3-0.39-0.67-0.74-1.11-0.96c-1-0.48-1.58,0.02-2.41,0.52c-1.26,0.77-2.86,0.69-4.29,0.33
					c-1.43-0.36-2.79-0.98-4.25-1.22c-0.86-0.14-1.75-0.15-2.61-0.03C234.92,138.45,234.4,138.56,233.87,138.67z"/>
				<path class="st14" d="M186.06,129.19c-0.79,2.51-1.22,5.14-1.24,7.78c-0.01,0.75,0.02,1.5,0.08,2.24c0.01,0.16,0.45,0.15,0.44,0
					c-0.2-2.61-0.01-5.25,0.56-7.8c0.16-0.73,0.36-1.45,0.58-2.16C186.53,129.08,186.1,129.05,186.06,129.19z"/>
				<path class="st14" d="M191.91,138.17c-0.76-2.67-1.08-5.46-0.95-8.23c0.02-0.37,0.04-0.75,0.08-1.12
					c0.02-0.19,0.04-0.38,0.06-0.57c0.01-0.13,0.1-0.37-0.06-0.43c-0.05-0.02-0.1-0.02-0.15-0.01c-0.18,0.02-0.18,0.1-0.2,0.26
					c-0.02,0.16-0.04,0.33-0.05,0.49c-0.03,0.32-0.06,0.64-0.08,0.97c-0.04,0.65-0.06,1.29-0.05,1.94c0.02,1.5,0.17,2.99,0.45,4.46
					c0.15,0.77,0.33,1.53,0.54,2.28C191.52,138.36,191.96,138.34,191.91,138.17z"/>
				<path class="st14" d="M200.12,134.52c-0.01,0.08-0.01,0.17-0.02,0.25c-0.17,1.66-0.69,3.31-1.36,4.84
					c-0.64,1.47-1.48,2.86-2.47,4.13c-0.25,0.32-0.51,0.62-0.78,0.92c-0.01,0.01-0.03,0.03-0.04,0.04
					c-1.14-0.33-2.27-0.66-3.42-0.94c-0.3-0.07-0.6-0.14-0.9-0.21c-1.35-0.29-2.74-0.47-3.98-1.08c-1.52-0.75-2.3-2.21-2.55-3.83
					c-0.04-0.27-0.06-0.54-0.06-0.81c-0.01-0.2-0.11-0.69,0.15-0.7c0.39-0.02,0.81,0.49,1.02,0.77c0.52,0.68,0.97,1.39,1.65,1.92
					c0.43,0.34,0.93,0.61,1.45,0.78c0.23,0.08,0.49,0.1,0.7,0.21c0.24,0.13,0.46,0.26,0.72,0.35c0.41,0.14,0.83,0.24,1.26,0.28
					c0.8,0.06,1.56-0.14,2.25-0.54c0.7-0.4,1.3-0.94,1.87-1.5c0.58-0.57,1.11-1.18,1.6-1.82c0.9-1.19,1.65-2.49,2.21-3.87
					C199.64,134,199.87,134.27,200.12,134.52z"/>
				<path class="st11" d="M227.88,134.36c-0.91,1.49-1.61,3.11-2.07,4.8c-0.1,0.39-0.2,0.8-0.12,1.19c0.07,0.38,0.29,0.71,0.56,0.98
					c1.31,1.29,3.58,1.09,4.76-0.21c0.49-0.53,0.84-1.17,1.17-1.81c0.66-1.29,1.25-2.62,1.82-3.96c0.55-1.28,1.1-2.57,1.7-3.83
					c0.3-0.63,0.61-1.25,0.94-1.86c0.3-0.56,0.6-1.27,1.04-1.73c1.67-1.74,4.08-2.54,6.24-3.45c0.31-0.13,0.62-0.26,0.87-0.48
					c0.2-0.18,0.7-0.86,0.2-0.91c-2.15-0.24-4.34-0.19-6.48-0.56c-0.76-0.13-1.61-0.3-2.26,0.13c-0.4,0.27-0.64,0.73-0.79,1.19
					c-0.15,0.46-0.24,0.94-0.43,1.39c-0.17,0.39-0.42,0.74-0.67,1.09c-0.62,0.86-1.22,1.78-1.92,2.57
					c-1.37,1.56-2.89,2.95-4.07,4.69C228.2,133.84,228.04,134.1,227.88,134.36z"/>
				<path class="st13" d="M184.03,133.98c-0.04-0.1-0.36-0.08-0.32,0.04c0.36,0.91,0.6,1.87,0.72,2.85c0.01,0.12,0.34,0.11,0.33,0
					C184.64,135.88,184.4,134.9,184.03,133.98z"/>
				<path class="st13" d="M184.02,142.59c-0.4-0.23-0.86-0.32-1.31-0.36c-0.43-0.03-0.93-0.07-1.32,0.16
					c-0.06,0.03-0.06,0.08,0,0.12c0.06,0.04,0.17,0.04,0.23,0c0.31-0.19,0.73-0.14,1.08-0.11c0.38,0.03,0.75,0.12,1.08,0.31
					c0.06,0.04,0.17,0.04,0.23,0C184.08,142.68,184.08,142.63,184.02,142.59z"/>
				<g>
					<path class="st11" d="M196.12,131.33c-0.37-0.32-0.82-0.55-1.27-0.75c-0.42-0.19-0.86-0.36-1.33-0.41
						c-2.03-0.2-2.67,2.52-3.08,4.04c-1.01,3.7-1.98,7.43-2.86,11.17c-0.18,0.78-0.34,1.7,0.18,2.32c0.75,0.91,2.33,0.8,3.17,0.1
						c0.51-0.42,0.85-1,1.13-1.58c0.34-0.69,0.61-1.41,0.91-2.12c1.14-2.74,2.09-5.58,3.47-8.21c0.74-1.42,1.12-3.06-0.12-4.36
						C196.26,131.45,196.19,131.39,196.12,131.33z"/>
					<path class="st11" d="M189.09,143.89c-0.19-0.02-0.39-0.02-0.58,0c-0.97,0.09-1.99,0.27-2.94,0.48
						c-0.27,0.06-0.53,0.13-0.8,0.18c-0.46,0.08-0.92,0.1-1.38,0.12c-0.8,0.03-1.6,0.07-2.4,0.1c-0.49,0.02-0.98,0.04-1.45,0.19
						c-0.47,0.15-0.89,0.44-1.13,0.87c-0.19,0.36-0.3,1.14,0.15,1.35c0.3,0.14,0.7,0.17,1.03,0.25c0.37,0.08,0.73,0.16,1.1,0.24
						c1.47,0.3,2.96,0.53,4.46,0.68c1.48,0.14,2.97,0.19,4.46,0.13c0.41-0.02,0.83-0.05,1.17-0.27c0.29-0.18,0.49-0.53,0.44-0.88
						c-0.07-0.4-0.1-0.8-0.2-1.2c-0.1-0.37-0.07-0.67-0.27-1.02c-0.19-0.34-0.42-0.67-0.74-0.9
						C189.74,144.02,189.42,143.92,189.09,143.89z"/>
					<path class="st11" d="M179.37,147.13c0.06-0.03,0.21-0.26,0.26-0.33c0.11-0.14,0.22-0.29,0.3-0.46c0.14-0.29,0.24-0.66,0-0.93
						c-0.11-0.12-0.26-0.21-0.4-0.29c-0.64-0.36-1.29-0.7-1.95-1.01c-0.33-0.16-0.67-0.3-1.01-0.44c-0.42-0.18-0.59,0.01-0.93,0.26
						c-0.38,0.28-0.74,0.58-1.07,0.91c-0.21,0.21-0.44,0.46-0.41,0.76c0,0.05,0.01,0.09,0,0.14c-0.01,0.05-0.06,0.1-0.09,0.14
						c-0.13,0.17-0.13,0.42,0.01,0.58c0.04,0.05,0.09,0.09,0.11,0.15c0.03,0.08,0,0.16-0.02,0.24c-0.05,0.26,0.12,0.63,0.39,0.7
						c0.18,0.05,0.37-0.04,0.53-0.15c0.16-0.11,0.3-0.24,0.49-0.29c0.27-0.06,0.55,0.08,0.81,0.18
						C177.33,147.63,178.39,147.4,179.37,147.13C179.37,147.13,179.37,147.13,179.37,147.13z"/>
					<path class="st13" d="M192.51,130.26c-0.07-0.01-0.15,0-0.2,0.06c-0.85,1.05-1.35,2.31-1.72,3.59
						c-0.39,1.36-0.67,2.76-1.05,4.12c-0.24,0.87-0.51,1.73-0.81,2.59c-0.04,0.12,0.28,0.15,0.32,0.04c0.51-1.48,0.93-2.98,1.3-4.5
						c0.31-1.31,0.6-2.63,1.13-3.87c0.3-0.69,0.67-1.35,1.15-1.94C192.67,130.31,192.55,130.27,192.51,130.26z"/>
					<path class="st13" d="M195.95,136.28c-0.26,0.64-0.52,1.27-0.78,1.91c-0.13,0.31-0.25,0.62-0.38,0.93
						c-0.07,0.16-0.13,0.32-0.2,0.48c-0.06,0.13-0.1,0.28-0.17,0.42c-0.02,0.01-0.05,0.03-0.06,0.05c0,0-0.01,0.01-0.01,0.01
						c-0.01,0.01-0.01,0.03,0,0.04l0.01,0.01c0.04,0.07,0.18,0.07,0.24,0.05c0.14-0.05,0.17-0.21,0.22-0.34
						c0.07-0.17,0.14-0.33,0.21-0.5l0.41-1c0.27-0.67,0.55-1.34,0.82-2.01C196.31,136.21,195.99,136.18,195.95,136.28z"/>
					<path class="st13" d="M187.89,144.05c-0.03-0.06-0.15-0.07-0.2-0.06c-1.04,0.17-2.08,0.34-3.12,0.48
						c-1.06,0.14-2.13,0.24-3.21,0.31c-0.6,0.04-1.2,0.06-1.81,0.07c-0.05,0-0.16,0.01-0.16,0.08c0,0.07,0.12,0.08,0.16,0.08
						c2.15-0.04,4.3-0.24,6.42-0.58c0.6-0.09,1.2-0.19,1.8-0.29C187.82,144.15,187.91,144.12,187.89,144.05z"/>
					<path class="st13" d="M193.78,147.37c-0.21-0.25-0.42-0.55-0.7-0.73c-0.14-0.09-0.31-0.15-0.47-0.21
						c-0.16-0.06-0.32-0.1-0.48-0.15c0.06-0.11,0.12-0.22,0.18-0.33c0.06-0.11-0.26-0.14-0.32-0.04c-0.19,0.35-0.39,0.7-0.61,1.03
						c-0.11,0.16-0.22,0.32-0.35,0.47c-0.1,0.12-0.21,0.26-0.34,0.37c-0.04,0.01-0.09,0.03-0.11,0.06c-0.02,0.02-0.01,0.04,0,0.06
						c0.02,0.05,0.12,0.06,0.16,0.06c0.12,0,0.19-0.06,0.28-0.14c0.08-0.08,0.16-0.16,0.23-0.24c0.14-0.16,0.27-0.33,0.39-0.5
						c0,0,0,0,0-0.01c0.33,0.18,0.67,0.38,0.89,0.69c0.04,0.06,0.13,0.07,0.2,0.06c0.03-0.01,0.16-0.04,0.11-0.1
						c-0.27-0.37-0.67-0.6-1.06-0.81c-0.01,0-0.02-0.01-0.03-0.01c0.1-0.15,0.19-0.3,0.28-0.45c0.12,0.03,0.24,0.07,0.36,0.11
						c0.15,0.05,0.31,0.1,0.44,0.2c0.12,0.08,0.22,0.19,0.31,0.3c0.11,0.13,0.22,0.26,0.33,0.39
						C193.56,147.53,193.88,147.48,193.78,147.37z"/>
					<path class="st13" d="M175.42,144.74c-0.07-0.02-0.16-0.02-0.22,0.03c-0.37,0.28-0.73,0.59-1.07,0.91
						c-0.05,0.05,0.01,0.1,0.06,0.11c0.06,0.02,0.17,0.02,0.22-0.03c0.34-0.32,0.7-0.62,1.07-0.91
						C175.54,144.81,175.46,144.75,175.42,144.74z"/>
					<path class="st13" d="M175.26,145.76c-0.06-0.02-0.14-0.02-0.2,0.01c-0.03,0.01-0.06,0.03-0.08,0.05
						c-0.3,0.2-0.58,0.42-0.84,0.67c-0.05,0.05,0.01,0.1,0.06,0.11c0.07,0.02,0.17,0.02,0.22-0.03c0.26-0.24,0.53-0.46,0.82-0.66
						c0.03-0.01,0.06-0.03,0.08-0.06C175.36,145.8,175.29,145.77,175.26,145.76z"/>
					<path class="st13" d="M175.88,146.82c-0.02-0.02-0.07-0.03-0.1-0.04c-0.04,0-0.09,0-0.13,0.01c-0.03,0.01-0.06,0.02-0.08,0.05
						c-0.01,0.02-0.03,0.04-0.04,0.05c-0.05,0.06-0.11,0.11-0.18,0.16c-0.01,0.01-0.02,0.01-0.03,0.02
						c-0.02,0.01-0.05,0.03-0.05,0.06c0,0.03,0.03,0.05,0.05,0.06c0.04,0.02,0.08,0.03,0.12,0.02c0.04,0,0.08,0,0.12-0.02
						c0.13-0.08,0.25-0.18,0.33-0.3C175.91,146.86,175.9,146.83,175.88,146.82z"/>
				</g>
				<path class="st13" d="M205.81,139.96c-0.87-1.28-1.96-2.39-3.05-3.48c-0.07-0.07-0.39-0.02-0.28,0.08
					c1.07,1.08,2.15,2.17,3.01,3.44C205.55,140.1,205.87,140.05,205.81,139.96z"/>
				<path class="st13" d="M231.73,138.95c-1.83,0.05-3.67-0.08-5.48-0.37c-0.05-0.01-0.18-0.01-0.2,0.06
					c-0.03,0.07,0.07,0.1,0.11,0.1c1.84,0.3,3.7,0.42,5.57,0.38c0.05,0,0.16-0.01,0.16-0.08
					C231.89,138.96,231.78,138.95,231.73,138.95z"/>
				<g>
					<g>
						<g>
							<g>
								<path class="st11" d="M190.41,129.92c-0.17,0.57-0.49,1.03-0.88,1.5c-0.22,0.27-0.45,0.54-0.72,0.75
									c-0.43,0.34-1.37,0.82-1.84,0.32c-0.33-0.34-0.51-0.86-0.7-1.29c-0.1-0.21-0.2-0.43-0.3-0.64c-0.05-0.11-0.1-0.22-0.16-0.33
									c-0.07-0.13-0.14-0.27-0.21-0.4c-0.19-0.34-0.41-0.67-0.55-1.03c-0.09-0.23-0.14-0.47-0.14-0.72c0-0.2,0.1-0.38,0.1-0.58
									c0-0.03,0-0.06,0-0.09c0.01-0.28,0.06-0.64,0.34-0.76c0.24-0.1,0.76-0.03,0.99,0.04c0.26,0.07,0.49,0.23,0.76,0.25
									c0.37,0.03,0.79,0.09,1.15,0.09c0.36-0.01,0.84-0.4,1.19-0.24c0.12,0.05,0.21,0.15,0.3,0.24c0.21,0.22,0.42,0.44,0.64,0.66
									c0.25,0.26,0.19,0.5,0.19,0.84c0,0.39-0.03,0.77-0.11,1.15C190.45,129.76,190.43,129.84,190.41,129.92z"/>
							</g>
						</g>
					</g>
					<path class="st13" d="M188.05,127.84c-0.69-0.48-2.17-0.84-3.04-0.42c0,0.03,0,0.06,0,0.09c0,0.21-0.1,0.41-0.13,0.61
						c-0.04,0.25,0.04,0.54,0.13,0.77c0.1,0.27,0.26,0.52,0.35,0.79c0.1,0.29,0.27,0.56,0.41,0.83c0.29,0.57,0.58,1.13,0.88,1.7
						c0.05,0.1,0.37,0.06,0.32-0.04c-0.33-0.63-0.66-1.26-0.98-1.9c0.5,0.04,1.02-0.05,1.42-0.23c0.33-0.15,0.63-0.38,0.83-0.67
						c0.16-0.24,0.29-0.55,0.29-0.84C188.52,128.17,188.32,128.02,188.05,127.84z"/>
					<g>
						<g>
							<g>
								<path class="st11" d="M183.17,126.03c0,0.01,0,0.01,0,0.02c0.05,1.05,0.33,2,1.09,2.76c0.83,0.83,2.11,0.88,3.13,0.42
									c1.16-0.52,1.99-1.42,2.61-2.52c0.4-0.68,0.69-1.44,0.86-2.21c0.29-1.28,0.55-2.79-0.05-4.02
									c-0.71-1.46-2.55-2.06-4.08-1.97c-0.58,0.04-1.13,0.13-1.6,0.48c-0.99,0.72-1.35,1.76-1.59,2.92
									C183.28,123.26,183.11,124.64,183.17,126.03z"/>
							</g>
						</g>
					</g>
					<g>
						<g>
							<g>
								<g>
									<path class="st14" d="M188.82,124.4c0.03-0.17,0.03-0.39-0.17-0.49c-0.12-0.07-0.29-0.06-0.39,0.03
										c-0.05,0.05-0.08,0.1-0.11,0.16c-0.07,0.15-0.12,0.34-0.02,0.49c0.06,0.09,0.18,0.15,0.29,0.14
										C188.66,124.71,188.79,124.62,188.82,124.4z"/>
								</g>
							</g>
						</g>
						<g>
							<g>
								<path class="st14" d="M188.96,123.01c0.06,0.05,0.12,0.1,0.18,0.15c0.13,0.13,0.25,0.28,0.33,0.45
									c0.07,0.15,0.12,0.28,0.13,0.45c-0.13,0.01-0.23-0.1-0.32-0.2c-0.35-0.36-0.83-0.58-1.33-0.61
									c-0.11-0.01-0.23-0.01-0.33-0.05c-0.11-0.05-0.23-0.23-0.1-0.33c0.17-0.14,0.42-0.18,0.63-0.17
									C188.43,122.73,188.72,122.84,188.96,123.01z"/>
							</g>
						</g>
						<g>
							<g>
								<path class="st14" d="M184.51,122.03c-0.07,0.01-0.15,0.03-0.22,0.05c-0.17,0.05-0.34,0.13-0.49,0.24
									c-0.13,0.1-0.24,0.19-0.33,0.33c0.1,0.07,0.24,0.02,0.36-0.02c0.46-0.15,0.95-0.11,1.37,0.09c0.09,0.05,0.18,0.1,0.29,0.11
									c0.12,0.01,0.29-0.09,0.24-0.24c-0.07-0.2-0.24-0.35-0.42-0.44C185.07,122.03,184.79,122,184.51,122.03z"/>
							</g>
						</g>
						<g>
							<g>
								<g>
									<path class="st14" d="M184.26,123.47c0.06-0.16,0.18-0.34,0.4-0.33c0.14,0.01,0.28,0.1,0.32,0.23
										c0.02,0.06,0.02,0.13,0.01,0.2c-0.02,0.16-0.07,0.35-0.24,0.43c-0.1,0.04-0.23,0.04-0.32-0.03
										C184.23,123.81,184.18,123.67,184.26,123.47z"/>
								</g>
							</g>
						</g>
						<g>
							<g>
								<g>
									<path class="st13" d="M185.51,125.74c-0.12-0.06-0.25-0.12-0.37-0.18c-0.09-0.04-0.19-0.09-0.25-0.18
										c-0.14-0.23,0.15-0.51,0.28-0.68c0.33-0.44,0.63-0.91,0.89-1.39c0.03-0.06-0.18-0.13-0.22-0.06
										c-0.3,0.55-0.65,1.06-1.03,1.56c-0.14,0.19-0.27,0.43-0.08,0.63c0.08,0.09,0.18,0.14,0.28,0.19
										c0.14,0.07,0.27,0.13,0.41,0.2c0.04,0.02,0.12,0.03,0.15-0.01C185.6,125.79,185.54,125.75,185.51,125.74z"/>
								</g>
							</g>
						</g>
					</g>
					<g>
						<path class="st8" d="M190.75,125.83c-0.01,0-0.18-0.61-0.19-0.66c-0.09-0.3-0.24-0.62-0.17-0.93
							c0.13-0.56,0.17-1.15,0.05-1.72c-0.12-0.56-0.41-1.1-0.86-1.47c-0.23-0.19-0.49-0.33-0.75-0.46
							c-0.36-0.19-0.74-0.38-1.14-0.41c-0.44-0.02-0.85,0.25-1.29,0c-0.18-0.1-0.31-0.27-0.47-0.4c-0.43-0.36-0.82-0.35-1.29-0.09
							c-0.09,0.05-0.23,0.1-0.29,0.01c-0.02-0.03-0.02-0.08-0.02-0.12c0.12-1.39,1.67-1.98,2.85-2.17c0.92-0.15,1.87-0.07,2.74,0.27
							c0.22,0.09,0.44,0.19,0.64,0.31c1.49,0.91,2.01,2.86,1.63,4.48c-0.2,0.86-0.18,1.69-0.58,2.52
							C191.43,125.37,191.16,125.76,190.75,125.83z"/>
					</g>
					<g>
						<path class="st11" d="M191.22,124.41c0.92,0.41,0.29,1.61-0.15,2.09c-0.28,0.31-0.63,0.55-1.03,0.66
							c-0.13,0.04-0.28,0.06-0.4,0c-0.25-0.11-0.15-0.69-0.11-0.94c0.06-0.33,0.17-0.65,0.32-0.94
							C190.1,124.81,190.6,124.14,191.22,124.41z"/>
					</g>
					<path class="st3" d="M186.75,126.6c-0.61-0.03-1.22-0.05-1.83-0.08c-0.07,0-0.14-0.01-0.2,0.02c-0.21,0.08-0.1,0.38-0.04,0.52
						c0.14,0.31,0.38,0.58,0.71,0.67c0.75,0.21,1.43-0.11,1.71-0.84c0.02-0.05,0.04-0.1,0.02-0.15c-0.03-0.11-0.17-0.14-0.29-0.14
						C186.81,126.6,186.78,126.6,186.75,126.6z"/>
					<g>
						<path class="st10" d="M193.03,123.66c-0.01,1.06-0.5,2.15-1.52,2.58c-0.06,0.02-0.04,0.07,0,0.1c0.05,0.03,0.14,0.02,0.19,0
							c1.06-0.45,1.58-1.58,1.6-2.68C193.31,123.56,193.03,123.56,193.03,123.66z"/>
						<path class="st10" d="M191.58,118.56c-0.85-0.81-2.02-1.13-3.15-1.27c-0.04-0.01-0.15-0.01-0.17,0.05
							c-0.02,0.06,0.05,0.08,0.1,0.09c1.08,0.14,2.18,0.44,2.98,1.21C191.41,118.69,191.67,118.64,191.58,118.56z"/>
						<path class="st10" d="M186.88,117.58c-0.05-0.03-0.14-0.03-0.19,0c-0.3,0.18-0.6,0.38-0.81,0.66
							c-0.24,0.32-0.25,0.72-0.23,1.11c0.01,0.1,0.28,0.09,0.27,0c-0.02-0.37-0.01-0.74,0.2-1.05c0.19-0.27,0.48-0.45,0.76-0.62
							C186.93,117.64,186.93,117.6,186.88,117.58z"/>
						<path class="st10" d="M187.63,117.65c-0.38,0.24-0.65,0.62-0.79,1.05c-0.13,0.4-0.21,0.97,0.04,1.34
							c0.05,0.08,0.32,0.04,0.26-0.04c-0.24-0.35-0.16-0.89-0.04-1.27c0.12-0.39,0.36-0.76,0.71-0.98
							C187.95,117.67,187.71,117.6,187.63,117.65z"/>
						<path class="st10" d="M187.57,119.5c-0.03-0.01-0.07-0.02-0.1-0.02c-0.03,0-0.07,0-0.1,0.02c-0.02,0.01-0.04,0.03-0.04,0.05
							v0.39c0,0.02,0.02,0.04,0.04,0.05c0.03,0.01,0.07,0.02,0.1,0.02c0.03,0,0.07,0,0.1-0.02c0.02-0.01,0.04-0.03,0.04-0.05v-0.39
							C187.61,119.53,187.59,119.51,187.57,119.5z"/>
						<path class="st10" d="M189.96,118.03c-0.01-0.1-0.28-0.09-0.27,0c0.08,0.88-0.16,1.77-0.69,2.48
							c-0.06,0.08,0.21,0.11,0.26,0.04C189.79,119.82,190.04,118.92,189.96,118.03z"/>
						<path class="st10" d="M191.35,118.88c-0.02-0.1-0.29-0.08-0.27,0c0.1,0.48,0.05,0.98-0.14,1.44c-0.08,0.21-0.19,0.4-0.31,0.59
							c-0.11,0.16-0.23,0.35-0.37,0.48c-0.04,0-0.09,0.02-0.1,0.05c-0.01,0.03-0.01,0.04,0,0.06c0.03,0.05,0.12,0.06,0.17,0.05
							c0.11-0.01,0.16-0.09,0.23-0.17c0.08-0.09,0.15-0.18,0.22-0.28c0.15-0.21,0.29-0.43,0.39-0.67
							C191.38,119.94,191.46,119.4,191.35,118.88z"/>
						<path class="st10" d="M192.09,120.09c-0.02-0.1-0.29-0.08-0.27,0c0.29,1.28,0.03,2.64-0.71,3.72
							c-0.05,0.08,0.21,0.12,0.26,0.04C192.12,122.76,192.39,121.37,192.09,120.09z"/>
						<path class="st10" d="M182.74,127.34c0.09-0.09-0.17-0.13-0.24-0.07c-0.42,0.43-0.83,0.93-0.98,1.52
							c-0.14,0.54-0.05,1.14,0.35,1.56c0.06,0.06,0.32,0.02,0.24-0.07c-0.38-0.39-0.45-1-0.3-1.51
							C181.96,128.21,182.35,127.75,182.74,127.34z"/>
						<path class="st10" d="M182.76,130.06c-0.01,0-0.02-0.01-0.03-0.01c0,0-0.02-0.01-0.02-0.01c-0.01-0.01-0.02-0.01-0.04-0.02
							c-0.01,0-0.01-0.01-0.02-0.01c0,0-0.01-0.01-0.01-0.01c-0.01-0.01-0.03-0.02-0.04-0.03c-0.06-0.05-0.09-0.09-0.13-0.15
							c-0.07-0.12-0.1-0.26-0.07-0.39c0-0.02-0.03-0.04-0.04-0.05c-0.03-0.01-0.07-0.02-0.1-0.02c-0.05,0-0.12,0.01-0.14,0.07
							c-0.07,0.33,0.17,0.65,0.48,0.74c0.06,0.02,0.14,0.02,0.19-0.03C182.86,130.12,182.81,130.08,182.76,130.06z"/>
						<path class="st10" d="M181.36,134.45c-0.2-0.13-0.29-0.39-0.28-0.61c0-0.3,0.14-0.57,0.27-0.83c0.05-0.09-0.22-0.12-0.26-0.04
							c-0.14,0.28-0.29,0.59-0.28,0.92c0.01,0.27,0.13,0.53,0.36,0.67c0.05,0.03,0.14,0.03,0.19,0
							C181.41,134.52,181.41,134.48,181.36,134.45z"/>
						<path class="st10" d="M195.79,126.63c-0.56-0.47-1.3-0.58-1.97-0.82c-0.1-0.03-0.31,0.06-0.14,0.12
							c0.62,0.22,1.31,0.32,1.84,0.74c0.51,0.41,0.66,1.06,0.48,1.67c-0.03,0.11,0.24,0.12,0.26,0.04
							C196.46,127.74,196.31,127.07,195.79,126.63z"/>
						<path class="st10" d="M195.23,127.47c-0.04-0.04-0.13-0.04-0.19-0.03c-0.04,0.01-0.09,0.05-0.05,0.1
							c0.21,0.21,0.26,0.56,0.12,0.82c-0.05,0.09,0.22,0.12,0.26,0.04C195.54,128.1,195.47,127.71,195.23,127.47z"/>
						<path class="st10" d="M199.92,131.4c-0.15-0.29-0.45-0.5-0.76-0.58c-0.05-0.01-0.14-0.02-0.19,0.02
							c-0.04,0.04,0,0.08,0.05,0.1c0.28,0.07,0.52,0.26,0.65,0.52c0.14,0.28,0.13,0.63-0.04,0.9c-0.05,0.08,0.21,0.12,0.26,0.04
							C200.07,132.09,200.08,131.71,199.92,131.4z"/>
					</g>
				</g>
				<g>
					<path class="st12" d="M211.32,141.95c-0.28,0.67-0.35,1.37-0.07,2.05c0.06,0.14,0.12,0.27,0.19,0.4
						c0.11,0.21,0.24,0.42,0.38,0.63c0.17,0.26,0.35,0.51,0.52,0.76c0.14,0.21,0.28,0.42,0.42,0.63c0.07,0.11,0.15,0.22,0.22,0.33
						c0.07,0.1,0.15,0.21,0.22,0.32c0.03,0.04,0.06,0.09,0.09,0.14c-1.04,0.06-2.08,0.07-3.12,0.04c-0.74-0.02-1.49-0.07-2.23-0.14
						l0-0.02l0.13-0.78l0.21-1.28c0.29-1.78,0.61-3.67-0.04-5.42c-0.1-0.28-0.23-0.54-0.38-0.79c-0.11-0.17-0.22-0.34-0.35-0.5
						c-0.19-0.23-0.42-0.45-0.66-0.64c-0.24-0.18-0.49-0.33-0.75-0.47c0.62-0.17,1.25-0.36,1.88-0.54c0.27-0.08,0.54-0.16,0.81-0.24
						c0.21-0.06,0.42-0.13,0.63-0.19c0.07-0.02,0.14-0.04,0.21-0.06c1.56-0.42,3.01-0.51,4.54-0.21h0c0.19,0.04,0.38,0.08,0.57,0.13
						c0.08,0.02,0.15,0.04,0.23,0.06c0.57,0.16,1.13,0.32,1.7,0.49c0.1,0.03,0.19,0.06,0.29,0.09h0c0.14,0.04,0.29,0.09,0.43,0.14
						c-1.24,0.65-2.5,1.29-3.62,2.11c-0.56,0.42-1.09,0.89-1.54,1.43v0c-0.12,0.14-0.23,0.29-0.33,0.44
						C211.68,141.22,211.48,141.57,211.32,141.95z"/>
					<g>
						<g>
							<path class="st3" d="M209.51,136.61c-0.06,0.09-0.15,0.14-0.25,0.15c-0.13,0.02-0.27-0.01-0.37-0.1c0,0-0.01,0-0.01,0
								c-0.06-0.04-0.1-0.1-0.11-0.19c0-0.01,0-0.01,0-0.01c0.21-0.06,0.42-0.13,0.63-0.19c0.07-0.02,0.14-0.04,0.21-0.06
								c0.01,0.02,0.01,0.04,0.02,0.06C209.68,136.41,209.62,136.54,209.51,136.61z"/>
							<path class="st3" d="M212.23,136.27c-0.03-0.14-0.14-0.23-0.26-0.28c-0.13-0.05-0.3-0.05-0.42,0.03
								c-0.1,0.06-0.16,0.17-0.18,0.3c-0.01,0.04,0,0.07,0,0.11c0,0.01,0,0.03,0,0.04c0.01,0.08,0.05,0.14,0.11,0.19
								c0,0,0.01,0,0.01,0c0.1,0.09,0.24,0.12,0.37,0.1c0.09-0.01,0.19-0.06,0.25-0.15C212.2,136.54,212.27,136.41,212.23,136.27z"
								/>
							<path class="st3" d="M214.68,136.61c-0.06,0.09-0.15,0.14-0.25,0.15c-0.13,0.02-0.27-0.01-0.37-0.1c0,0-0.01,0-0.01,0
								c-0.06-0.04-0.1-0.1-0.11-0.19c0-0.01,0-0.02,0-0.04c0-0.04-0.01-0.07,0-0.11c0.02-0.13,0.09-0.24,0.18-0.3
								c0.01-0.01,0.03-0.02,0.04-0.02h0c0.19,0.04,0.38,0.08,0.57,0.13c0.03,0.04,0.05,0.09,0.07,0.14
								C214.85,136.41,214.79,136.54,214.68,136.61z"/>
							<path class="st3" d="M216.96,136.77c-0.1,0-0.21-0.02-0.29-0.09C216.77,136.71,216.87,136.74,216.96,136.77z"/>
						</g>
						<g>
							<path class="st3" d="M207.86,138.83c0.04,0,0.08,0,0.12,0c0.09-0.01,0.19-0.06,0.25-0.15c0.1-0.07,0.17-0.21,0.13-0.35
								c-0.03-0.14-0.14-0.23-0.26-0.28c-0.13-0.05-0.3-0.05-0.42,0.03c-0.09,0.05-0.15,0.14-0.17,0.25L207.86,138.83z"/>
							<path class="st3" d="M210.94,138.33c-0.03-0.14-0.14-0.23-0.26-0.28c-0.13-0.05-0.3-0.05-0.42,0.03
								c-0.1,0.06-0.16,0.17-0.18,0.3c-0.01,0.04,0,0.07,0,0.11c0,0.01,0,0.03,0,0.04c0.01,0.08,0.05,0.14,0.11,0.19
								c0,0,0.01,0,0.01,0c0.1,0.09,0.24,0.12,0.37,0.1c0.09-0.01,0.19-0.06,0.25-0.15C210.91,138.61,210.98,138.47,210.94,138.33z"
								/>
							<path class="st3" d="M213.53,138.33c-0.03-0.14-0.14-0.23-0.26-0.28c-0.13-0.05-0.3-0.05-0.42,0.03
								c-0.1,0.06-0.16,0.17-0.18,0.3c-0.01,0.04,0,0.07,0,0.11c0,0.01,0,0.03,0,0.04c0.01,0.08,0.05,0.14,0.11,0.19
								c0,0,0.01,0,0.01,0c0.1,0.09,0.24,0.12,0.37,0.1c0.09-0.01,0.19-0.06,0.25-0.15C213.49,138.61,213.56,138.47,213.53,138.33z"
								/>
						</g>
						<g>
							<path class="st3" d="M209.65,140.4c-0.03-0.14-0.14-0.23-0.26-0.28c-0.13-0.05-0.3-0.05-0.42,0.03
								c-0.1,0.06-0.16,0.17-0.18,0.3c-0.01,0.04,0,0.07,0,0.11c0,0.01,0,0.03,0,0.04c0.01,0.08,0.05,0.14,0.11,0.19
								c0,0,0.01,0,0.01,0c0.1,0.09,0.24,0.12,0.37,0.1c0.09-0.01,0.19-0.06,0.25-0.15C209.62,140.68,209.68,140.54,209.65,140.4z"
								/>
							<path class="st3" d="M212.24,140.45C212.24,140.45,212.24,140.45,212.24,140.45c-0.12,0.14-0.23,0.29-0.33,0.44
								c-0.02,0.01-0.04,0.01-0.06,0.01c-0.13,0.02-0.27-0.01-0.37-0.1c0,0-0.01,0-0.01,0c-0.06-0.04-0.1-0.1-0.11-0.19
								c0-0.01,0-0.03,0-0.04c0-0.04-0.01-0.07,0-0.11c0.02-0.13,0.09-0.24,0.18-0.3c0.12-0.08,0.29-0.09,0.43-0.03
								c0.11,0.05,0.22,0.14,0.26,0.28C212.24,140.42,212.24,140.43,212.24,140.45z"/>
						</g>
						<g>
							<path class="st3" d="M210.94,142.47c-0.03-0.14-0.14-0.23-0.26-0.28c-0.13-0.05-0.3-0.05-0.42,0.03
								c-0.1,0.06-0.16,0.17-0.18,0.3c-0.01,0.04,0,0.07,0,0.11c0,0.01,0,0.03,0,0.04c0.01,0.08,0.05,0.14,0.11,0.19
								c0,0,0.01,0,0.01,0c0.1,0.09,0.24,0.12,0.37,0.1c0.09-0.01,0.19-0.06,0.25-0.15C210.91,142.75,210.98,142.61,210.94,142.47z"
								/>
						</g>
						<g>
							<path class="st3" d="M209.65,144.54c-0.03-0.14-0.14-0.23-0.26-0.28c-0.13-0.05-0.3-0.05-0.42,0.03
								c-0.1,0.06-0.16,0.17-0.18,0.3c-0.01,0.04,0,0.07,0,0.11c0,0.01,0,0.03,0,0.04c0.01,0.08,0.05,0.14,0.11,0.19
								c0,0,0.01,0,0.01,0c0.1,0.09,0.24,0.12,0.37,0.1c0.09-0.01,0.19-0.06,0.25-0.15C209.62,144.81,209.68,144.68,209.65,144.54z"
								/>
							<path class="st3" d="M211.82,145.04c-0.12,0.01-0.24-0.02-0.34-0.11c0,0-0.01,0-0.01-0.01c-0.06-0.04-0.1-0.1-0.11-0.18
								c0-0.01,0-0.03,0-0.04c0-0.04-0.01-0.07,0-0.11c0.01-0.07,0.03-0.13,0.07-0.18C211.55,144.62,211.68,144.83,211.82,145.04z"
								/>
						</g>
						<g>
							<path class="st3" d="M208.22,146.95c-0.06,0.09-0.15,0.14-0.25,0.15c-0.01,0-0.02,0-0.03,0l0.13-0.78
								c0.01,0,0.02,0.01,0.03,0.01c0.11,0.05,0.22,0.14,0.26,0.28C208.39,146.75,208.33,146.88,208.22,146.95z"/>
							<path class="st3" d="M210.94,146.6c-0.03-0.14-0.14-0.23-0.26-0.28c-0.13-0.05-0.3-0.05-0.42,0.03
								c-0.1,0.06-0.16,0.17-0.18,0.3c-0.01,0.04,0,0.07,0,0.11c0,0.01,0,0.03,0,0.04c0.01,0.08,0.05,0.14,0.11,0.19
								c0,0,0.01,0,0.01,0c0.1,0.09,0.24,0.12,0.37,0.1c0.09-0.01,0.19-0.06,0.25-0.15C210.91,146.88,210.98,146.75,210.94,146.6z"
								/>
							<path class="st3" d="M213.2,147.09c-0.02,0.01-0.04,0.01-0.06,0.01c-0.13,0.02-0.27-0.01-0.37-0.1c0,0-0.01,0-0.01-0.01
								c-0.06-0.04-0.1-0.1-0.11-0.18c0-0.01,0-0.03,0-0.04c0-0.04-0.01-0.07,0-0.11c0.01-0.09,0.05-0.16,0.1-0.22
								c0.07,0.11,0.15,0.22,0.22,0.33C213.05,146.87,213.13,146.98,213.2,147.09z"/>
						</g>
					</g>
				</g>
				<path class="st13" d="M240.08,123.45c-0.2-0.31-0.52-0.49-0.85-0.61c-0.4-0.15-0.82-0.27-1.23-0.39
					c-0.06-0.02-0.17-0.02-0.22,0.03c-0.05,0.05,0.01,0.1,0.06,0.11c0.38,0.12,0.77,0.23,1.15,0.36c0.31,0.11,0.61,0.26,0.79,0.55
					C239.82,123.59,240.14,123.55,240.08,123.45z"/>
			</g>
		</g>
	</g>
	<g style="clip-path:url(#SVGID_00000084508789570749405750000006694663794254485644_);">
		<g>
			<polygon class="st18" points="115.16,113.81 110.59,121.22 3.93,121.22 8.5,113.81 14.96,113.81 17.19,107.13 9.87,107.13 
				11.35,105.65 43.98,105.65 44.95,104.16 48.51,104.16 48.79,99.97 46.2,99.97 46.83,98.98 104.07,98.98 104.33,99.22 
				105.14,99.97 102.24,99.97 102.72,101.42 103.63,104.16 106.26,104.16 104.78,105.65 104.78,106.86 107.1,113.81 			"/>
			<g>
				<polygon class="st3" points="110.59,121.22 0.66,125.15 8.5,113.81 115.16,113.81 				"/>
				<polygon class="st3" points="104.78,107.13 9.87,107.13 11.35,105.65 104.78,105.65 				"/>
				<polygon class="st3" points="104.07,98.98 46.83,98.98 46.2,99.97 105.14,99.97 				"/>
				<polygon class="st3" points="104.78,105.65 43.98,105.65 44.95,104.17 106.26,104.17 				"/>
				<g>
					
						<rect x="104.96" y="106.15" transform="matrix(0.9487 -0.3162 0.3162 0.9487 -29.6343 39.054)" class="st3" width="1.11" height="9.38"/>
				</g>
				<g>
					
						<rect x="96.07" y="106.24" transform="matrix(0.9662 -0.2577 0.2577 0.9662 -25.299 28.6418)" class="st3" width="1.11" height="9.21"/>
				</g>
				<g>
					
						<rect x="87.17" y="106.3" transform="matrix(0.9806 -0.1961 0.1961 0.9806 -20.0369 19.3601)" class="st3" width="1.11" height="9.07"/>
				</g>
				<g>
					
						<rect x="78.27" y="106.35" transform="matrix(0.9912 -0.1321 0.1321 0.9912 -13.9542 11.3872)" class="st3" width="1.11" height="8.98"/>
				</g>
				<g>
					
						<rect x="69.37" y="106.38" transform="matrix(0.9978 -0.0665 0.0665 0.9978 -7.2157 4.8954)" class="st3" width="1.11" height="8.92"/>
				</g>
				<g>
					<rect x="60.47" y="106.39" class="st3" width="1.11" height="8.9"/>
				</g>
				<g>
					
						<rect x="47.67" y="110.28" transform="matrix(0.0665 -0.9978 0.9978 0.0665 -61.9283 155.4873)" class="st3" width="8.92" height="1.11"/>
				</g>
				<g>
					<polygon class="st3" points="103.93,105.05 102.08,99.5 100.91,99.5 102.76,105.05 					"/>
				</g>
				<g>
					<polygon class="st3" points="94.86,105.05 93.38,99.5 92.23,99.5 93.71,105.05 					"/>
				</g>
				<g>
					<polygon class="st3" points="85.8,105.05 84.69,99.5 83.55,99.5 84.66,105.05 					"/>
				</g>
				<g>
					<polygon class="st3" points="76.74,105.05 76,99.5 74.87,99.5 75.61,105.05 					"/>
				</g>
				<g>
					<polygon class="st3" points="67.68,105.05 67.31,99.5 66.19,99.5 66.56,105.05 					"/>
				</g>
				<g>
					<rect x="57.51" y="99.5" class="st3" width="1.11" height="5.55"/>
				</g>
				<g>
					<polygon class="st3" points="49.57,105.05 49.94,99.5 48.82,99.5 48.45,105.05 					"/>
				</g>
				<g>
					
						<rect x="38.75" y="110.28" transform="matrix(0.1323 -0.9912 0.9912 0.1323 -72.35 139.0347)" class="st3" width="8.98" height="1.11"/>
				</g>
				<g>
					
						<rect x="29.8" y="110.28" transform="matrix(0.196 -0.9806 0.9806 0.196 -81.0841 122.7819)" class="st3" width="9.07" height="1.11"/>
				</g>
				<g>
					
						<rect x="20.83" y="110.28" transform="matrix(0.2576 -0.9662 0.9662 0.2576 -88.2139 106.8608)" class="st3" width="9.21" height="1.11"/>
				</g>
				<g>
					
						<rect x="11.85" y="110.28" transform="matrix(0.3166 -0.9486 0.9486 0.3166 -93.8346 91.4352)" class="st3" width="9.38" height="1.11"/>
				</g>
				<g class="st19">
					<polygon class="st3" points="25.41,105.65 13.98,121.22 11.63,121.22 23.06,105.65 					"/>
					<polygon class="st3" points="37.34,105.65 25.91,121.22 21.19,121.22 32.63,105.65 					"/>
					<polygon class="st3" points="63.81,98.98 47.48,121.22 45.13,121.22 61.46,98.98 					"/>
					<polygon class="st3" points="75.73,98.98 59.4,121.22 54.69,121.22 71.02,98.98 					"/>
					<polygon class="st3" points="97.31,98.98 80.97,121.22 78.62,121.22 94.95,98.98 					"/>
					<polygon class="st3" points="105.42,104.16 92.9,121.22 88.18,121.22 102.72,101.42 103.63,104.16 					"/>
				</g>
			</g>
		</g>
		<path class="st7" d="M116.31,120.69c-0.18,1.57-2.77,2.84-3.99,2.82c-1.4-0.02-2.74-0.54-4.13-0.67c-3.09-0.29-6.02,1.36-9.1,1.71
			c-2.74,0.31-5.49-0.41-8.24-0.36c-4.61,0.08-9.05,2.3-13.64,1.89c-1.69-0.15-3.32-0.65-5-0.88c-7.45-1.01-15.08,3.39-22.34,1.43
			c-1.55-0.42-3.03-1.12-4.62-1.39c-4.32-0.73-8.45,1.8-12.74,2.71c-7.32,1.57-15.02-1.62-22.35-0.11c-2.39,0.49-4.67,1.48-7.07,1.9
			c-3.09,0.54-6.35,0.1-9.19-1.24c-1.24-0.58-2.44-1.34-3.79-1.52c-1.36-0.17-2.72,0.26-4.02,0.69c-2.9,0.96-5.81,1.91-8.71,2.87
			c-0.85,0.28-1.75,0.56-2.62,0.39c-0.88-0.17-1.7-0.98-1.55-1.86c0.07-0.4,0.32-0.75,0.58-1.07c3.04-3.67,9.41-4.99,13.88-5.88
			c4.26-0.84,8.73-0.47,13.04-0.32c2.47,0.09,4.97,0.17,7.47,0.24c6.18,0.17,12.38,0.34,18.53-0.13c4.8-0.37,9.84-0.81,14.52-1.59
			c4.96-0.82,10.12-0.62,15.12-0.21c5.71,0.47,11.4,1.23,17.14,1.11c6.95-0.15,13.83-1.59,20.75-1.17c2.3,0.14,4.58,0.48,6.88,0.41
			c2.22-0.07,4.38-0.51,6.56-0.88c1.58-0.27,3.17-0.5,4.77-0.69c1.48-0.18,3.27-0.03,3.74,0.9
			C116.3,120.11,116.34,120.41,116.31,120.69z"/>
	</g>
	<g style="clip-path:url(#SVGID_00000084508789570749405750000006694663794254485644_);">
		<path class="st7" d="M77.32,134.4c-0.38,0.1-3.44,1-2.31,1.75c1.61,1.06,3.11-0.88,4.7-0.02c0.31,0.17,0.57,0.42,0.87,0.6
			c0.76,0.45,1.71,0.38,2.58,0.25c1.16-0.17,2.31-0.45,3.43-0.83c1.17-0.4,2.44-0.94,3.6-0.5c0.48,0.18,0.89,0.52,1.33,0.78
			c1.17,0.68,2.65,0.81,3.92,0.33c1.11-0.42,2.05-1.26,3.21-1.5c1.59-0.33,3.16,0.52,4.76,0.78c0.34,0.06,0.7,0.08,1.04,0.02
			c0.71-0.13,1.28-0.63,1.95-0.9c1.03-0.4,2.18-0.21,3.28-0.21c1.06,0,2.83-0.39,3.02-1.7c0.23-1.66-1.6-1.44-2.61-1.27
			c-1.1,0.18-2.13,0.68-3.25,0.73c-0.9,0.04-1.79-0.21-2.69-0.25c-1.39-0.06-2.74,0.4-4.11,0.61c-1.33,0.2-2.7,0.17-4.02-0.1
			c-0.67-0.14-1.35-0.34-2.04-0.29c-0.51,0.03-1.01,0.2-1.5,0.34c-1.82,0.51-3.74,0.66-5.62,0.45c-0.85-0.1-1.61-0.16-2.47-0.09
			c-0.97,0.08-1.92,0.3-2.88,0.44C80.15,134,78.65,134.05,77.32,134.4z"/>
	</g>
	<g style="clip-path:url(#SVGID_00000084508789570749405750000006694663794254485644_);">
		<g>
			<polygon class="st8" points="229.44,117.7 228.87,118.5 228.67,118.78 227.74,120.11 215.39,120.11 215.39,118.68 			"/>
			<polygon class="st3" points="217.54,117.79 224.87,117.43 223.8,104.19 223.62,104.19 			"/>
			<polygon class="st3" points="229.53,117.61 225.23,117.43 224.02,104.19 224.15,104.19 			"/>
		</g>
		<path class="st7" d="M213.79,119.99c-0.17,0.05-1.53,0.45-1.03,0.78c0.72,0.47,1.39-0.39,2.1-0.01c0.14,0.07,0.25,0.19,0.39,0.27
			c0.34,0.2,0.76,0.17,1.15,0.11c0.52-0.08,1.03-0.2,1.53-0.37c0.52-0.18,1.09-0.42,1.6-0.22c0.21,0.08,0.4,0.23,0.59,0.35
			c0.52,0.3,1.18,0.36,1.75,0.15c0.5-0.19,0.92-0.56,1.43-0.67c0.71-0.15,1.41,0.23,2.12,0.35c0.15,0.03,0.31,0.04,0.46,0.01
			c0.31-0.06,0.57-0.28,0.87-0.4c0.46-0.18,0.97-0.09,1.46-0.1c0.47,0,1.26-0.17,1.34-0.76c0.1-0.74-0.71-0.64-1.16-0.57
			c-0.49,0.08-0.95,0.3-1.45,0.33c-0.4,0.02-0.8-0.1-1.2-0.11c-0.62-0.03-1.22,0.18-1.84,0.27c-0.59,0.09-1.2,0.07-1.79-0.05
			c-0.3-0.06-0.6-0.15-0.91-0.13c-0.23,0.01-0.45,0.09-0.67,0.15c-0.81,0.23-1.67,0.3-2.51,0.2c-0.38-0.04-0.72-0.07-1.1-0.04
			c-0.43,0.03-0.86,0.13-1.28,0.2C215.05,119.81,214.39,119.84,213.79,119.99z"/>
	</g>
	<g style="clip-path:url(#SVGID_00000084508789570749405750000006694663794254485644_);">
		<path class="st7" d="M330.49,230.27c-9.74-0.09-19.22-1.64-28.89-0.91c-5.16,0.39-11.23-1.02-15.91,1.71
			c-2.17,1.26-3.83,3.75-3.32,6.21c0.38,1.83,1.89,3.28,3.61,4.02c1.72,0.74,3.63,0.87,5.5,0.89c2.1,0.02,4.2-0.1,6.29-0.35
			c2.57-0.31,5.51-0.72,7.45,1c1.2,1.07,1.69,2.72,2.69,3.99c4.74,6.01,15.61,2.42,21.31,0.41c6.26-2.21,13.42-1.6,19.89-0.51
			c4.35,0.73,9.07,1.86,12.97-0.2c3.19-1.69,5.17-5.24,8.52-6.59c2.27-0.91,4.85-0.67,7.18-1.4c2.33-0.72,4.54-3.22,3.49-5.43
			c-0.54-1.14-1.75-1.78-2.92-2.26c-7.13-2.95-17.44-3.97-25.04-2.84C345.74,229.15,338.17,230.27,330.49,230.27z"/>
		<path class="st7" d="M278.22,227.08c-2.07,0.44-3.48,1.88-4.45,3.73c-0.38,0.72-0.65,1.54-0.56,2.35
			c0.09,0.81,0.61,1.61,1.39,1.85c0.7,0.21,1.47-0.04,2.06-0.47c0.59-0.42,1.06-1,1.57-1.52c0.77-0.79,1.65-1.4,2.59-1.96
			c0.57-0.34,1.79-0.77,2.1-1.4c0.14-0.27,0.06-0.6-0.07-0.88c-0.37-0.81-1.15-1.39-2-1.66
			C280.01,226.86,279.09,226.89,278.22,227.08z"/>
	</g>
</g>
</svg>
