<?xml version="1.0" encoding="utf-8"?>
<!-- Generator: Adobe Illustrator 27.7.0, SVG Export Plug-In . SVG Version: 6.00 Build 0)  -->
<svg version="1.1" id="레이어_1" xmlns="http://www.w3.org/2000/svg" xmlns:xlink="http://www.w3.org/1999/xlink" x="0px"
	 y="0px" viewBox="0 0 272 258" style="enable-background:new 0 0 272 258;" xml:space="preserve">
<style type="text/css">
	.st0{clip-path:url(#SVGID_00000072238019490618538950000002940992219431097789_);}
	.st1{fill:#426E4C;}
	.st2{fill:#0E230E;}
	.st3{fill:#549435;}
	.st4{fill:#BCD591;}
	.st5{fill:#247037;}
	.st6{fill:#20923A;}
	.st7{fill:#79BC28;}
	.st8{fill:#F8E97C;}
	.st9{fill:#E0C935;}
	.st10{fill:#E08709;}
	.st11{fill:#006E3A;}
	.st12{fill:#004125;}
	.st13{fill:#031E0C;}
	.st14{fill:#116A36;}
	.st15{fill:#96B15E;}
	.st16{fill:#F39623;}
	.st17{fill:#F5A320;}
	.st18{fill:#6AAC2F;}
	.st19{fill:#86C129;}
	.st20{fill:none;stroke:#116A36;stroke-width:0;stroke-linecap:round;stroke-linejoin:round;}
</style>
<g>
	<defs>
		<path id="SVGID_1_" d="M252.02,258H19.98C8.95,258,0,249.05,0,238.02V19.98C0,8.95,8.95,0,19.98,0h232.04
			C263.05,0,272,8.95,272,19.98v218.04C272,249.05,263.05,258,252.02,258z"/>
	</defs>
	<clipPath id="SVGID_00000001637818692853875720000009521443006018412219_">
		<use xlink:href="#SVGID_1_"  style="overflow:visible;"/>
	</clipPath>
	<g style="clip-path:url(#SVGID_00000001637818692853875720000009521443006018412219_);">
		<rect x="-112.3" y="-182.38" class="st1" width="500" height="500"/>
	</g>
	<g style="clip-path:url(#SVGID_00000001637818692853875720000009521443006018412219_);">
		<circle class="st2" cx="134.65" cy="128.21" r="106.76"/>
		<g>
			<path class="st3" d="M204.55,41.04c2.13-0.89,2.7-3.09,1.93-3.76c-1.94-1.7-3.04,0.76-3.04,0.76s0.86-2.55-1.72-2.62
				c-1.02-0.03-2.09,1.98-1.13,4.07c-1.84-1.4-4.03-0.79-4.22,0.21c-0.5,2.53,2.18,2.25,2.18,2.25s-2.64,0.53-1.41,2.8
				c0.45,0.83,2.42,0.83,3.77-0.65c-0.37,0.67-0.78,1.31-1.26,1.89c-0.27,0.33-0.56,0.64-0.88,0.93c-0.31,0.28-0.65,0.54-1,0.76
				c-0.03,0.02-0.06,0.03-0.09,0.05c0.17,0.24,0.33,0.48,0.49,0.73c0.03-0.02,0.06-0.04,0.09-0.06c0.37-0.29,0.72-0.61,1.03-0.95
				c0.31-0.34,0.59-0.71,0.85-1.08c0.42-0.61,0.76-1.26,1.06-1.92c0.1,1.88,1.47,3.1,2.32,2.81c2.44-0.84,0.86-3.01,0.86-3.01
				s1.78,2.02,3.13-0.18C208.04,43.19,206.85,41.26,204.55,41.04z"/>
			<path class="st4" d="M203.08,41.79c1.02-0.43,1.29-1.48,0.93-1.8c-0.93-0.81-1.46,0.36-1.46,0.36s0.41-1.22-0.82-1.26
				c-0.49-0.01-1,0.95-0.54,1.95c-0.88-0.67-1.93-0.38-2.02,0.1c-0.24,1.21,1.04,1.08,1.04,1.08s-1.26,0.25-0.68,1.34
				c0.21,0.4,1.85-0.33,1.99-0.64c0.05,0.9,0.66,1.98,1.07,1.84c1.17-0.4,0.41-1.44,0.41-1.44s0.85,0.97,1.5-0.08
				C204.76,42.82,204.18,41.9,203.08,41.79z"/>
		</g>
		<g>
			<g>
				<g>
					<g>
						<path class="st5" d="M186.56,47.03l5.17-9.02c0.03-0.05,0.04-0.1,0.05-0.15c0.09-0.68,0.57-5.42-3.36-5.12
							c-5.11,0.4-6.54,5.44-4.15,9.43C185.41,44.08,186.35,47.39,186.56,47.03z"/>
					</g>
					<g>
						<path class="st6" d="M186.56,47.03l5.17-9.02c0.03-0.05,0.06-0.09,0.1-0.12c0.54-0.42,4.39-3.24,6.12,0.31
							c2.24,4.61-1.38,8.39-6.03,8.35C189.68,46.53,186.35,47.39,186.56,47.03z"/>
					</g>
				</g>
				<g>
					<g>
						<path class="st4" d="M186.59,47.1l2.99-5.23c0.02-0.03,0.03-0.06,0.03-0.09c0.05-0.39,0.33-3.14-1.95-2.97
							c-2.96,0.23-3.79,3.15-2.41,5.46C185.92,45.4,186.47,47.31,186.59,47.1z"/>
					</g>
					<g>
						<path class="st4" d="M186.59,47.1l2.99-5.23c0.02-0.03,0.04-0.05,0.06-0.07c0.31-0.24,2.54-1.88,3.54,0.18
							c1.3,2.67-0.8,4.86-3.49,4.84C188.39,46.82,186.47,47.31,186.59,47.1z"/>
					</g>
				</g>
			</g>
			<g>
				<g>
					<g>
						<path class="st5" d="M186.46,47.27l-9.96,3c-0.05,0.02-0.1,0.04-0.14,0.07c-0.53,0.43-4.14,3.55-1.08,6.03
							c3.98,3.22,8.49,0.54,9.5-3.99C185.27,50.2,186.85,47.15,186.46,47.27z"/>
					</g>
					<g>
						<path class="st6" d="M186.46,47.27l-9.96,3c-0.05,0.02-0.1,0.02-0.16,0.02c-0.68-0.07-5.41-0.67-4.23-4.43
							c1.54-4.89,6.77-5.14,10.12-1.92C183.85,45.48,186.85,47.15,186.46,47.27z"/>
					</g>
				</g>
				<g>
					<g>
						<path class="st4" d="M186.49,47.19l-5.77,1.74c-0.03,0.01-0.06,0.02-0.08,0.04c-0.31,0.25-2.4,2.05-0.62,3.49
							c2.31,1.87,4.92,0.32,5.5-2.31C185.8,48.89,186.72,47.13,186.49,47.19z"/>
					</g>
					<g>
						<path class="st4" d="M186.49,47.19l-5.77,1.74c-0.03,0.01-0.06,0.01-0.09,0.01c-0.39-0.04-3.14-0.39-2.45-2.57
							c0.89-2.83,3.92-2.98,5.86-1.11C184.98,46.16,186.72,47.13,186.49,47.19z"/>
					</g>
				</g>
			</g>
			<g>
				<path class="st5" d="M173.92,36.9c0.12-0.08,0.26-0.11,0.41-0.08c8.02,1.88,13,10.68,13.2,11.05c0.14,0.25,0.05,0.57-0.2,0.7
					c-0.25,0.14-0.56,0.05-0.7-0.2c-0.05-0.09-4.96-8.77-12.54-10.55c-0.28-0.07-0.45-0.34-0.39-0.62
					C173.74,37.08,173.82,36.97,173.92,36.9z"/>
			</g>
			<g>
				<g>
					<g>
						<path class="st5" d="M186.83,47.46l6.77,7.89c0.03,0.04,0.06,0.09,0.08,0.14c0.21,0.65,1.58,5.22-2.34,5.66
							c-5.09,0.57-7.44-4.12-5.85-8.48C186.25,50.57,186.56,47.15,186.83,47.46z"/>
					</g>
					<g>
						<path class="st6" d="M186.83,47.46l6.77,7.89c0.03,0.04,0.08,0.07,0.12,0.1c0.61,0.31,4.92,2.36,5.95-1.45
							c1.34-4.95-2.93-7.98-7.49-7.08C189.99,47.37,186.56,47.15,186.83,47.46z"/>
					</g>
				</g>
				<g>
					<g>
						<path class="st4" d="M186.84,47.38l3.92,4.57c0.02,0.02,0.04,0.05,0.04,0.08c0.12,0.38,0.91,3.02-1.36,3.28
							c-2.95,0.33-4.31-2.38-3.39-4.91C186.51,49.18,186.69,47.2,186.84,47.38z"/>
					</g>
					<g>
						<path class="st4" d="M186.84,47.38l3.92,4.57c0.02,0.02,0.04,0.04,0.07,0.06c0.35,0.18,2.85,1.37,3.45-0.84
							c0.78-2.87-1.7-4.63-4.34-4.1C188.67,47.33,186.69,47.2,186.84,47.38z"/>
					</g>
				</g>
			</g>
		</g>
		<g>
			<path class="st7" d="M108.77,74.05l8.42,2.64c5.36,3.75,8.07,2.59,20.16,6.38c0.07,0.02,0.15,0.04,0.22,0.05
				c0.07,0.03,0.14,0.06,0.22,0.09c12.09,3.8,13.65,6.3,20.19,6.29l8.42,2.64l23.73-57.6c1.15-3.67-9.68-14.8-30.32-22.72
				c-16.38-6.29-36.41-2.27-37.56,1.39L108.77,74.05z"/>
			<path class="st8" d="M172.39,77.6c-9.98-7.23-31.89-18.68-60.34-18.39l-2.48,11.2l46.23,14.53c0.02,0.01,0.05,0.01,0.07,0.02
				l11.94,3.75L172.39,77.6z"/>
			<path class="st9" d="M170.58,81.99c-12.8-7.61-33.82-16.39-59.84-16.85l-1.17,5.27l46.23,14.53c0.02,0.01,0.05,0.01,0.07,0.02
				l11.94,3.75L170.58,81.99z"/>
			<path class="st10" d="M156.73,63.67l-21.88-6.21c-1.08-0.31-2.21,0.32-2.51,1.4l-4.73,16.65c-0.31,1.08,0.32,2.21,1.4,2.51
				l21.88,6.21c1.08,0.31,2.21-0.32,2.51-1.4l4.73-16.65C158.43,65.1,157.81,63.98,156.73,63.67z M152.41,71.44l-7.49-2.13
				c-1.08-0.31-2.21,0.32-2.51,1.4c-0.31,1.08,0.32,2.21,1.4,2.51l7.49,2.13l-1.25,4.41l-17.96-5.1l3.62-12.73l17.96,5.1
				L152.41,71.44z"/>
			<path class="st4" d="M157.68,60.97c-14.81,7.58-31.67,10.44-48.22,9.97l-0.69,3.11l8.42,2.64c5.36,3.75,8.07,2.59,20.16,6.39
				c0.07,0.02,0.15,0.04,0.22,0.05c0.07,0.03,0.14,0.06,0.22,0.09c12.09,3.8,13.65,6.3,20.19,6.29l8.42,2.64l23.73-57.6
				c0.32-1.03-0.3-2.64-1.81-4.6C181.73,43.21,170.93,54.19,157.68,60.97z"/>
			<path class="st7" d="M95.38,79.79c7.42,5.43,21.63,11.96,38.5,17.26c16.87,5.3,32.26,8.07,41.45,7.86l7.09,2.23l1.65-5.25
				c1.73-5.5-17.94-16.58-43.94-24.75c-25.99-8.17-48.47-10.33-50.2-4.83l-1.65,5.26L95.38,79.79z"/>
			<path class="st11" d="M88.34,77.41c1.73-5.5,24.2-3.34,50.2,4.83c25.99,8.17,45.66,19.25,43.94,24.75
				c-1.73,5.5-24.2,3.34-50.19-4.83C106.29,93.99,86.61,82.91,88.34,77.41z"/>
			<path class="st12" d="M99.68,81.81c1.3-4.15,18.25-2.52,37.85,3.64c19.6,6.16,34.43,14.51,33.13,18.66
				c-1.3,4.15-18.25,2.52-37.85-3.64C113.21,94.31,98.38,85.96,99.68,81.81z"/>
			<path class="st13" d="M104.04,79.68c4.89,4.33,16.57,9.93,30.74,14.38c14.21,4.46,27.01,6.55,33.48,5.78
				c-4.89-4.33-16.56-9.93-30.74-14.38C123.32,80.99,110.51,78.91,104.04,79.68z"/>
			<path class="st7" d="M118.85,50.74l7.85-34.44c0,0,22.67-10.03,44.04,5.67c-2.18-0.87-28.78-3.05-34.88,1.74
				C129.75,28.5,118.85,50.74,118.85,50.74z"/>
		</g>
		<g>
			<path class="st3" d="M71.45,199.83c3.69-1.55,4.68-5.36,3.35-6.52c-3.37-2.94-5.27,1.32-5.27,1.32s1.49-4.42-2.98-4.55
				c-1.76-0.05-3.63,3.42-1.97,7.06c-3.18-2.42-6.98-1.37-7.32,0.36c-0.86,4.38,3.78,3.91,3.78,3.91s-4.57,0.92-2.45,4.85
				c0.77,1.43,4.19,1.44,6.53-1.13c-0.64,1.16-1.36,2.27-2.19,3.28c-0.47,0.57-0.98,1.12-1.52,1.61c-0.54,0.49-1.12,0.93-1.72,1.31
				c-0.05,0.03-0.1,0.05-0.15,0.08c0.29,0.41,0.58,0.83,0.85,1.26c0.05-0.04,0.1-0.07,0.15-0.1c0.65-0.5,1.24-1.05,1.78-1.64
				c0.54-0.59,1.02-1.22,1.47-1.87c0.72-1.06,1.32-2.18,1.83-3.33c0.17,3.25,2.54,5.37,4.02,4.87c4.23-1.45,1.49-5.22,1.49-5.22
				s3.08,3.5,5.42-0.3C77.51,203.56,75.43,200.21,71.45,199.83z"/>
			<path class="st4" d="M68.91,201.13c1.77-0.74,2.24-2.57,1.6-3.12c-1.61-1.41-2.53,0.63-2.53,0.63s0.71-2.12-1.43-2.18
				c-0.84-0.02-1.74,1.64-0.94,3.38c-1.52-1.16-3.34-0.66-3.51,0.17c-0.41,2.1,1.81,1.87,1.81,1.87s-2.19,0.44-1.17,2.32
				c0.37,0.69,3.21-0.57,3.45-1.12c0.08,1.56,1.14,3.43,1.85,3.19c2.03-0.69,0.72-2.5,0.72-2.5s1.48,1.68,2.6-0.15
				C71.81,202.92,70.82,201.31,68.91,201.13z"/>
		</g>
		<g>
			<path class="st3" d="M34.81,159.04c2.13-0.89,2.7-3.09,1.93-3.76c-1.94-1.7-3.04,0.76-3.04,0.76s0.86-2.55-1.72-2.62
				c-1.02-0.03-2.09,1.98-1.13,4.07c-1.84-1.4-4.03-0.79-4.22,0.21c-0.5,2.53,2.18,2.25,2.18,2.25s-2.64,0.53-1.41,2.8
				c0.45,0.83,2.42,0.83,3.77-0.65c-0.37,0.67-0.78,1.31-1.26,1.89c-0.27,0.33-0.56,0.64-0.88,0.93c-0.31,0.28-0.65,0.54-1,0.76
				c-0.03,0.02-0.06,0.03-0.09,0.05c0.17,0.24,0.33,0.48,0.49,0.73c0.03-0.02,0.06-0.04,0.09-0.06c0.37-0.29,0.72-0.61,1.03-0.95
				c0.31-0.34,0.59-0.71,0.85-1.08c0.42-0.61,0.76-1.26,1.06-1.92c0.1,1.88,1.47,3.1,2.32,2.81c2.44-0.84,0.86-3.01,0.86-3.01
				s1.78,2.02,3.13-0.18C38.3,161.2,37.11,159.26,34.81,159.04z"/>
			<path class="st4" d="M33.34,159.79c1.02-0.43,1.29-1.48,0.93-1.8c-0.93-0.81-1.46,0.36-1.46,0.36s0.41-1.22-0.82-1.26
				c-0.49-0.01-1,0.95-0.54,1.95c-0.88-0.67-1.93-0.38-2.02,0.1c-0.24,1.21,1.04,1.08,1.04,1.08s-1.26,0.25-0.68,1.34
				c0.21,0.4,1.85-0.33,1.99-0.64c0.05,0.9,0.66,1.98,1.07,1.84c1.17-0.4,0.41-1.44,0.41-1.44s0.85,0.97,1.5-0.08
				C35.02,160.83,34.44,159.9,33.34,159.79z"/>
		</g>
		<g>
			<path class="st3" d="M112.19,22.82c2.13-0.89,2.7-3.09,1.93-3.76c-1.94-1.7-3.04,0.76-3.04,0.76s0.86-2.55-1.72-2.62
				c-1.02-0.03-2.09,1.97-1.13,4.07c-1.84-1.4-4.03-0.79-4.22,0.21c-0.5,2.53,2.18,2.25,2.18,2.25s-2.64,0.53-1.41,2.8
				c0.45,0.83,2.42,0.83,3.77-0.65c-0.37,0.67-0.78,1.31-1.26,1.89c-0.27,0.33-0.56,0.64-0.88,0.93c-0.31,0.28-0.65,0.54-1,0.76
				c-0.03,0.02-0.06,0.03-0.09,0.05c0.17,0.24,0.33,0.48,0.49,0.73c0.03-0.02,0.06-0.04,0.09-0.06c0.37-0.29,0.72-0.61,1.03-0.95
				c0.31-0.34,0.59-0.71,0.85-1.08c0.42-0.61,0.76-1.26,1.06-1.92c0.1,1.88,1.47,3.1,2.32,2.81c2.44-0.84,0.86-3.01,0.86-3.01
				s1.78,2.02,3.13-0.18C115.68,24.98,114.49,23.04,112.19,22.82z"/>
			<path class="st4" d="M110.72,23.57c1.02-0.43,1.29-1.48,0.93-1.8c-0.93-0.81-1.46,0.36-1.46,0.36s0.41-1.22-0.82-1.26
				c-0.49-0.01-1,0.95-0.54,1.95c-0.88-0.67-1.93-0.38-2.02,0.1c-0.24,1.21,1.04,1.08,1.04,1.08s-1.26,0.25-0.68,1.34
				c0.21,0.4,1.85-0.33,1.99-0.64c0.05,0.9,0.66,1.98,1.07,1.84c1.17-0.4,0.41-1.44,0.41-1.44s0.85,0.97,1.5-0.08
				C112.4,24.6,111.82,23.68,110.72,23.57z"/>
		</g>
		<g>
			<path class="st3" d="M164.42,223.92c2.13-0.89,2.7-3.09,1.93-3.76c-1.94-1.7-3.04,0.76-3.04,0.76s0.86-2.55-1.72-2.62
				c-1.02-0.03-2.09,1.98-1.13,4.07c-1.84-1.4-4.03-0.79-4.22,0.21c-0.5,2.53,2.18,2.25,2.18,2.25s-2.64,0.53-1.41,2.8
				c0.45,0.83,2.42,0.83,3.77-0.65c-0.37,0.67-0.78,1.31-1.26,1.89c-0.27,0.33-0.56,0.64-0.88,0.93c-0.31,0.28-0.65,0.54-1,0.76
				c-0.03,0.02-0.06,0.03-0.09,0.05c0.17,0.24,0.33,0.48,0.49,0.73c0.03-0.02,0.06-0.04,0.09-0.06c0.37-0.29,0.72-0.61,1.03-0.95
				c0.31-0.34,0.59-0.71,0.85-1.08c0.42-0.61,0.76-1.26,1.06-1.92c0.1,1.88,1.47,3.1,2.32,2.81c2.44-0.84,0.86-3.01,0.86-3.01
				s1.78,2.02,3.13-0.18C167.92,226.07,166.72,224.14,164.42,223.92z"/>
			<path class="st4" d="M162.95,224.67c1.02-0.43,1.29-1.48,0.93-1.8c-0.93-0.81-1.46,0.36-1.46,0.36s0.41-1.22-0.82-1.26
				c-0.49-0.01-1,0.95-0.54,1.95c-0.88-0.67-1.93-0.38-2.02,0.1c-0.24,1.21,1.04,1.08,1.04,1.08s-1.26,0.25-0.68,1.34
				c0.21,0.4,1.85-0.33,1.99-0.64c0.05,0.9,0.66,1.98,1.07,1.84c1.17-0.4,0.41-1.44,0.41-1.44s0.85,0.97,1.5-0.08
				C164.63,225.7,164.05,224.77,162.95,224.67z"/>
		</g>
		<g>
			<path class="st3" d="M238.96,93.11c-2.13-0.89-2.7-3.09-1.93-3.76c1.94-1.7,3.04,0.76,3.04,0.76s-0.86-2.55,1.72-2.62
				c1.02-0.03,2.09,1.98,1.13,4.07c1.84-1.4,4.03-0.79,4.22,0.21c0.5,2.53-2.18,2.25-2.18,2.25s2.64,0.53,1.41,2.8
				c-0.45,0.83-2.42,0.83-3.77-0.65c0.37,0.67,0.78,1.31,1.26,1.89c0.27,0.33,0.56,0.64,0.88,0.93c0.31,0.28,0.65,0.54,1,0.76
				c0.03,0.02,0.06,0.03,0.09,0.05c-0.17,0.24-0.33,0.48-0.49,0.73c-0.03-0.02-0.06-0.04-0.09-0.06c-0.37-0.29-0.72-0.61-1.03-0.95
				c-0.31-0.34-0.59-0.71-0.85-1.08c-0.42-0.61-0.76-1.26-1.06-1.92c-0.1,1.88-1.47,3.1-2.32,2.81c-2.44-0.84-0.86-3.01-0.86-3.01
				s-1.78,2.02-3.13-0.18C235.47,95.27,236.67,93.33,238.96,93.11z"/>
			<path class="st4" d="M240.43,93.87c-1.02-0.43-1.29-1.48-0.93-1.8c0.93-0.81,1.46,0.36,1.46,0.36s-0.41-1.22,0.82-1.26
				c0.49-0.01,1,0.95,0.54,1.95c0.88-0.67,1.93-0.38,2.02,0.1c0.24,1.21-1.04,1.08-1.04,1.08s1.26,0.25,0.68,1.34
				c-0.21,0.4-1.85-0.33-1.99-0.64c-0.05,0.9-0.66,1.98-1.07,1.84c-1.17-0.4-0.41-1.44-0.41-1.44s-0.85,0.97-1.5-0.08
				C238.76,94.9,239.33,93.97,240.43,93.87z"/>
		</g>
		<g>
			<path class="st3" d="M32.3,77.42c-2.13-0.89-2.7-3.09-1.93-3.76c1.94-1.7,3.04,0.76,3.04,0.76s-0.86-2.55,1.72-2.62
				c1.02-0.03,2.09,1.98,1.13,4.07c1.84-1.4,4.03-0.79,4.22,0.21c0.5,2.53-2.18,2.25-2.18,2.25s2.64,0.53,1.41,2.8
				c-0.45,0.83-2.42,0.83-3.77-0.65c0.37,0.67,0.78,1.31,1.26,1.89c0.27,0.33,0.56,0.64,0.88,0.93c0.31,0.28,0.65,0.54,1,0.76
				c0.03,0.02,0.06,0.03,0.09,0.05c-0.17,0.24-0.33,0.48-0.49,0.73c-0.03-0.02-0.06-0.04-0.09-0.06c-0.37-0.29-0.72-0.61-1.03-0.95
				c-0.31-0.34-0.59-0.71-0.85-1.08c-0.42-0.61-0.76-1.26-1.06-1.92c-0.1,1.88-1.47,3.1-2.32,2.81c-2.44-0.84-0.86-3.01-0.86-3.01
				s-1.78,2.02-3.13-0.18C28.8,79.57,30,77.64,32.3,77.42z"/>
			<path class="st4" d="M33.77,78.17c-1.02-0.43-1.29-1.48-0.93-1.8c0.93-0.81,1.46,0.36,1.46,0.36s-0.41-1.22,0.82-1.26
				c0.49-0.01,1,0.95,0.54,1.95c0.88-0.67,1.93-0.38,2.02,0.1c0.24,1.21-1.04,1.08-1.04,1.08s1.26,0.25,0.68,1.34
				c-0.21,0.4-1.85-0.33-1.99-0.64c-0.05,0.9-0.66,1.98-1.07,1.84c-1.17-0.4-0.41-1.44-0.41-1.44s-0.85,0.97-1.5-0.08
				C32.09,79.2,32.67,78.28,33.77,78.17z"/>
		</g>
		<g>
			<path class="st3" d="M100.43,225.75c-2.13-0.89-2.7-3.09-1.93-3.76c1.94-1.7,3.04,0.76,3.04,0.76s-0.86-2.55,1.72-2.62
				c1.02-0.03,2.09,1.97,1.13,4.07c1.84-1.4,4.03-0.79,4.22,0.21c0.5,2.53-2.18,2.25-2.18,2.25s2.64,0.53,1.41,2.8
				c-0.45,0.83-2.42,0.83-3.77-0.65c0.37,0.67,0.78,1.31,1.26,1.89c0.27,0.33,0.56,0.64,0.88,0.93c0.31,0.28,0.65,0.54,1,0.76
				c0.03,0.02,0.06,0.03,0.09,0.05c-0.17,0.24-0.33,0.48-0.49,0.73c-0.03-0.02-0.06-0.04-0.09-0.06c-0.37-0.29-0.72-0.61-1.03-0.95
				c-0.31-0.34-0.59-0.71-0.85-1.08c-0.42-0.61-0.76-1.26-1.06-1.92c-0.1,1.88-1.47,3.1-2.32,2.81c-2.44-0.84-0.86-3.01-0.86-3.01
				s-1.78,2.02-3.13-0.18C96.94,227.9,98.14,225.97,100.43,225.75z"/>
			<path class="st4" d="M101.9,226.5c-1.02-0.43-1.29-1.48-0.93-1.8c0.93-0.81,1.46,0.36,1.46,0.36s-0.41-1.22,0.82-1.26
				c0.49-0.01,1,0.95,0.54,1.95c0.88-0.67,1.93-0.38,2.02,0.1c0.24,1.21-1.04,1.08-1.04,1.08s1.26,0.25,0.68,1.34
				c-0.21,0.4-1.85-0.33-1.99-0.64c-0.05,0.9-0.66,1.98-1.07,1.84c-1.17-0.4-0.41-1.44-0.41-1.44s-0.85,0.97-1.5-0.08
				C100.23,227.53,100.8,226.61,101.9,226.5z"/>
		</g>
		<g>
			<path class="st3" d="M235.97,166.11c3.69-1.55,4.68-5.36,3.35-6.52c-3.37-2.94-5.27,1.32-5.27,1.32s1.49-4.42-2.98-4.55
				c-1.76-0.05-3.63,3.42-1.97,7.06c-3.18-2.42-6.98-1.37-7.32,0.36c-0.86,4.38,3.78,3.91,3.78,3.91s-4.57,0.92-2.45,4.85
				c0.77,1.43,4.19,1.44,6.53-1.13c-0.64,1.16-1.36,2.27-2.19,3.28c-0.47,0.57-0.98,1.12-1.52,1.61c-0.54,0.49-1.12,0.93-1.72,1.31
				c-0.05,0.03-0.1,0.05-0.15,0.08c0.29,0.41,0.58,0.83,0.85,1.26c0.05-0.04,0.1-0.07,0.15-0.1c0.65-0.5,1.24-1.05,1.78-1.64
				c0.54-0.59,1.02-1.22,1.47-1.87c0.72-1.06,1.32-2.18,1.83-3.33c0.17,3.25,2.54,5.37,4.02,4.87c4.23-1.45,1.49-5.22,1.49-5.22
				s3.08,3.5,5.42-0.3C242.03,169.84,239.95,166.49,235.97,166.11z"/>
			<path class="st4" d="M233.43,167.41c1.77-0.74,2.24-2.57,1.6-3.12c-1.61-1.41-2.53,0.63-2.53,0.63s0.71-2.12-1.43-2.18
				c-0.84-0.02-1.74,1.64-0.94,3.38c-1.52-1.16-3.34-0.66-3.51,0.17c-0.41,2.1,1.81,1.87,1.81,1.87s-2.19,0.44-1.17,2.32
				c0.37,0.69,3.21-0.57,3.45-1.12c0.08,1.56,1.14,3.43,1.85,3.19c2.03-0.69,0.72-2.5,0.72-2.5s1.48,1.68,2.6-0.15
				C236.33,169.2,235.33,167.6,233.43,167.41z"/>
		</g>
		<g>
			<path class="st3" d="M64.08,49.8c3.69-1.55,4.68-5.36,3.35-6.52c-3.37-2.94-5.27,1.32-5.27,1.32s1.49-4.42-2.98-4.55
				c-1.76-0.05-3.63,3.42-1.97,7.06c-3.18-2.42-6.98-1.37-7.32,0.36c-0.86,4.38,3.78,3.91,3.78,3.91s-4.57,0.92-2.45,4.85
				c0.77,1.43,4.19,1.44,6.53-1.13c-0.64,1.16-1.36,2.27-2.19,3.28c-0.47,0.57-0.98,1.12-1.52,1.61c-0.54,0.49-1.12,0.93-1.72,1.31
				c-0.05,0.03-0.1,0.05-0.15,0.08c0.29,0.41,0.58,0.83,0.85,1.26c0.05-0.04,0.1-0.07,0.15-0.1c0.65-0.5,1.24-1.05,1.78-1.64
				c0.54-0.59,1.02-1.22,1.47-1.87c0.72-1.06,1.32-2.18,1.83-3.33c0.17,3.25,2.54,5.37,4.02,4.87c4.23-1.45,1.49-5.22,1.49-5.22
				s3.08,3.5,5.42-0.3C70.13,53.53,68.06,50.18,64.08,49.8z"/>
			<path class="st4" d="M61.53,51.1c1.77-0.74,2.24-2.57,1.6-3.12c-1.61-1.41-2.53,0.63-2.53,0.63s0.71-2.12-1.43-2.18
				c-0.84-0.02-1.74,1.64-0.94,3.38c-1.52-1.16-3.34-0.66-3.51,0.17c-0.41,2.1,1.81,1.87,1.81,1.87s-2.19,0.44-1.17,2.32
				c0.37,0.69,3.21-0.57,3.45-1.12c0.08,1.56,1.14,3.43,1.85,3.19c2.03-0.69,0.72-2.5,0.72-2.5s1.48,1.68,2.6-0.15
				C64.43,52.88,63.44,51.28,61.53,51.1z"/>
		</g>
		<g>
			<path class="st14" d="M178.75,222.94c3.69-1.55,4.68-5.36,3.35-6.52c-3.37-2.94-5.27,1.32-5.27,1.32s1.49-4.42-2.98-4.55
				c-1.76-0.05-3.63,3.42-1.97,7.06c-3.18-2.42-6.98-1.37-7.32,0.36c-0.86,4.38,3.78,3.91,3.78,3.91s-4.57,0.92-2.45,4.85
				c0.77,1.43,4.19,1.44,6.53-1.13c-0.64,1.16-1.36,2.27-2.19,3.28c-0.47,0.57-0.98,1.12-1.52,1.61c-0.54,0.49-1.12,0.93-1.72,1.31
				c-0.05,0.03-0.1,0.05-0.15,0.08c0.29,0.41,0.58,0.83,0.85,1.26c0.05-0.04,0.1-0.07,0.15-0.1c0.65-0.5,1.24-1.05,1.78-1.64
				c0.54-0.59,1.02-1.22,1.47-1.87c0.72-1.06,1.32-2.18,1.83-3.33c0.17,3.25,2.54,5.37,4.02,4.87c4.23-1.45,1.49-5.22,1.49-5.22
				s3.08,3.5,5.42-0.3C184.81,226.67,182.73,223.32,178.75,222.94z"/>
			<path class="st15" d="M176.21,224.24c1.77-0.74,2.24-2.57,1.6-3.12c-1.61-1.41-2.53,0.63-2.53,0.63s0.71-2.12-1.43-2.18
				c-0.84-0.02-1.74,1.64-0.94,3.38c-1.52-1.16-3.34-0.66-3.51,0.17c-0.41,2.1,1.81,1.87,1.81,1.87s-2.19,0.44-1.17,2.32
				c0.37,0.69,3.21-0.57,3.45-1.12c0.08,1.56,1.14,3.43,1.85,3.19c2.03-0.69,0.72-2.5,0.72-2.5s1.48,1.68,2.6-0.15
				C179.11,226.03,178.11,224.43,176.21,224.24z"/>
		</g>
		<g>
			<path class="st14" d="M80.51,216.73c-3.69-1.55-4.68-5.36-3.35-6.52c3.37-2.94,5.27,1.32,5.27,1.32s-1.49-4.42,2.98-4.55
				c1.76-0.05,3.63,3.42,1.97,7.06c3.18-2.42,6.98-1.37,7.32,0.36c0.86,4.38-3.78,3.91-3.78,3.91s4.57,0.92,2.45,4.85
				c-0.77,1.43-4.19,1.44-6.53-1.13c0.64,1.16,1.36,2.27,2.19,3.28c0.47,0.57,0.98,1.12,1.52,1.61c0.54,0.49,1.12,0.93,1.72,1.31
				c0.05,0.03,0.1,0.05,0.15,0.08c-0.29,0.41-0.58,0.83-0.85,1.26c-0.05-0.04-0.1-0.07-0.15-0.1c-0.65-0.5-1.24-1.05-1.78-1.64
				c-0.54-0.59-1.02-1.22-1.47-1.87c-0.72-1.06-1.32-2.18-1.83-3.33c-0.17,3.25-2.54,5.37-4.02,4.87c-4.23-1.45-1.49-5.22-1.49-5.22
				s-3.08,3.5-5.42-0.3C74.45,220.46,76.53,217.12,80.51,216.73z"/>
			<path class="st15" d="M83.05,218.04c-1.77-0.74-2.24-2.57-1.6-3.12c1.61-1.41,2.53,0.63,2.53,0.63s-0.71-2.12,1.43-2.18
				c0.84-0.02,1.74,1.64,0.94,3.38c1.52-1.16,3.34-0.66,3.51,0.17c0.41,2.1-1.81,1.87-1.81,1.87s2.19,0.44,1.17,2.32
				c-0.37,0.69-3.21-0.57-3.45-1.12c-0.08,1.56-1.14,3.43-1.85,3.19c-2.03-0.69-0.72-2.5-0.72-2.5s-1.48,1.68-2.6-0.15
				C80.15,219.82,81.14,218.22,83.05,218.04z"/>
		</g>
		<g>
			<path class="st14" d="M233.54,79.3c3.69-1.55,4.68-5.36,3.35-6.52c-3.37-2.94-5.27,1.32-5.27,1.32s1.49-4.42-2.98-4.55
				c-1.76-0.05-3.63,3.42-1.97,7.06c-3.18-2.42-6.98-1.37-7.32,0.36c-0.86,4.38,3.78,3.91,3.78,3.91s-4.57,0.92-2.45,4.85
				c0.77,1.43,4.19,1.44,6.53-1.13c-0.64,1.16-1.36,2.27-2.19,3.28c-0.47,0.57-0.98,1.12-1.52,1.61c-0.54,0.49-1.12,0.93-1.72,1.31
				c-0.05,0.03-0.1,0.05-0.15,0.08c0.29,0.41,0.58,0.83,0.85,1.26c0.05-0.04,0.1-0.07,0.15-0.1c0.65-0.5,1.24-1.05,1.78-1.64
				c0.54-0.59,1.02-1.22,1.47-1.87c0.72-1.06,1.32-2.18,1.83-3.33c0.17,3.25,2.54,5.37,4.02,4.87c4.23-1.45,1.49-5.22,1.49-5.22
				s3.08,3.5,5.42-0.3C239.59,83.03,237.52,79.68,233.54,79.3z"/>
			<path class="st15" d="M230.99,80.6c1.77-0.74,2.24-2.57,1.6-3.12c-1.61-1.41-2.53,0.63-2.53,0.63s0.71-2.12-1.43-2.18
				c-0.84-0.02-1.74,1.64-0.94,3.38c-1.52-1.16-3.34-0.66-3.51,0.17c-0.41,2.1,1.81,1.87,1.81,1.87s-2.19,0.44-1.17,2.32
				c0.37,0.69,3.21-0.57,3.45-1.12c0.08,1.56,1.14,3.43,1.85,3.19c2.03-0.69,0.72-2.5,0.72-2.5s1.48,1.68,2.6-0.15
				C233.89,82.39,232.9,80.78,230.99,80.6z"/>
		</g>
		<g>
			<path class="st14" d="M234.73,196.01c5.32,0.58,8.95-3.25,8.14-5.47c-2.04-5.62-7.03-1.87-7.03-1.87s4.6-4.21-0.55-7.25
				c-2.03-1.2-6.46,1.66-6.87,7c-2.16-4.89-7.29-6.12-8.81-4.31c-3.85,4.58,1.9,7.02,1.9,7.02s-5.95-1.88-6.01,4.1
				c-0.02,2.18,3.98,4.39,8.39,2.9c-1.5,0.95-3.06,1.79-4.69,2.43c-0.93,0.36-1.86,0.68-2.82,0.9c-0.95,0.22-1.91,0.36-2.87,0.42
				c-0.08,0-0.15,0-0.23,0c0.07,0.68,0.14,1.35,0.18,2.03c0.08-0.01,0.16-0.01,0.25-0.02c1.08-0.16,2.13-0.43,3.15-0.76
				c1.02-0.34,1.99-0.77,2.93-1.24c1.53-0.77,2.96-1.7,4.31-2.72c-1.91,3.92-0.5,7.94,1.57,8.3c5.89,1.04,5.13-5.15,5.13-5.15
				s1.35,6.09,6.55,3.15C239.41,204.3,239.15,199.03,234.73,196.01z"/>
			<path class="st15" d="M230.91,195.89c2.55,0.28,4.29-1.56,3.9-2.62c-0.98-2.69-3.37-0.89-3.37-0.89s2.21-2.02-0.26-3.47
				c-0.97-0.57-3.1,0.8-3.29,3.35c-1.04-2.34-3.49-2.93-4.22-2.07c-1.84,2.19,0.91,3.36,0.91,3.36s-2.85-0.9-2.88,1.96
				c-0.01,1.04,4.12,1.41,4.77,0.93c-0.92,1.88-0.89,4.76,0.1,4.93c2.82,0.5,2.46-2.47,2.46-2.47s0.64,2.92,3.14,1.51
				C233.15,199.86,233.03,197.34,230.91,195.89z"/>
		</g>
		<path class="st16" d="M106.65,113.7c-8.06-2.76-8.87-3.95-8.58-12.46c-2.76,8.06-3.95,8.87-12.46,8.58
			c8.06,2.76,8.87,3.95,8.58,12.46C96.95,114.22,98.13,113.4,106.65,113.7z"/>
		<path class="st17" d="M127.21,107.52c-1.97-0.92-2.15-1.24-1.84-3.39c-0.92,1.97-1.24,2.15-3.39,1.84
			c1.97,0.92,2.15,1.24,1.84,3.39C124.73,107.39,125.05,107.21,127.21,107.52z"/>
		<g>
			<g>
				<g>
					<g>
						<path class="st18" d="M34.64,109.1l-10.24,11.1c-0.05,0.06-0.09,0.12-0.12,0.19c-0.34,0.93-2.57,7.5,3.1,8.34
							c7.37,1.09,11.02-5.58,8.94-12.01C35.31,113.65,35.04,108.66,34.64,109.1z"/>
					</g>
					<g>
						<path class="st19" d="M34.64,109.1l-10.24,11.1c-0.05,0.06-0.11,0.1-0.18,0.14c-0.9,0.42-7.27,3.16-8.56-2.42
							c-1.68-7.25,4.68-11.44,11.25-9.88C30.05,108.79,35.04,108.66,34.64,109.1z"/>
					</g>
				</g>
				<g>
					<g>
						<path class="st4" d="M34.62,108.98l-5.93,6.43c-0.03,0.03-0.05,0.07-0.07,0.11c-0.2,0.54-1.49,4.34,1.8,4.83
							c4.27,0.63,6.39-3.24,5.18-6.96C35.02,111.62,34.86,108.73,34.62,108.98z"/>
					</g>
					<g>
						<path class="st4" d="M34.62,108.98l-5.93,6.43c-0.03,0.03-0.07,0.06-0.11,0.08c-0.52,0.24-4.21,1.83-4.96-1.4
							c-0.98-4.2,2.71-6.63,6.51-5.72C31.97,108.81,34.86,108.73,34.62,108.98z"/>
					</g>
				</g>
			</g>
			<g>
				<g>
					<g>
						<path class="st18" d="M34.86,108.79l15.07-1.02c0.08-0.01,0.15-0.02,0.22-0.06c0.89-0.44,7.02-3.68,3.48-8.19
							c-4.6-5.86-11.84-3.52-14.74,2.57C37.49,105.03,34.26,108.83,34.86,108.79z"/>
					</g>
					<g>
						<path class="st19" d="M34.86,108.79l15.07-1.02c0.08-0.01,0.15,0,0.23,0.03c0.94,0.31,7.45,2.7,4.55,7.64
							c-3.76,6.43-11.26,5.09-14.96-0.56C37.97,112.17,34.26,108.83,34.86,108.79z"/>
					</g>
				</g>
				<g>
					<g>
						<path class="st4" d="M34.78,108.89l8.73-0.59c0.04,0,0.09-0.01,0.13-0.03c0.52-0.25,4.07-2.13,2.02-4.74
							c-2.66-3.39-6.86-2.04-8.54,1.49C36.31,106.71,34.44,108.91,34.78,108.89z"/>
					</g>
					<g>
						<path class="st4" d="M34.78,108.89l8.73-0.59c0.04,0,0.09,0,0.13,0.02c0.54,0.18,4.32,1.56,2.64,4.43
							c-2.18,3.72-6.52,2.95-8.66-0.32C36.59,110.84,34.44,108.91,34.78,108.89z"/>
					</g>
				</g>
			</g>
			<g>
				<path class="st18" d="M49.25,127.54c-0.19,0.07-0.41,0.07-0.6-0.03c-10.75-5.26-14.94-19.33-15.11-19.93
					c-0.11-0.4,0.12-0.82,0.51-0.93c0.4-0.12,0.81,0.11,0.93,0.51c0.04,0.14,4.18,14.03,14.33,19c0.37,0.18,0.53,0.63,0.34,1
					C49.57,127.34,49.42,127.47,49.25,127.54z"/>
			</g>
			<g>
				<g>
					<g>
						<path class="st18" d="M34.39,108.4l-7.03-13.37c-0.04-0.07-0.06-0.14-0.07-0.22c-0.09-0.99-0.54-7.9,5.15-7.25
							c7.4,0.85,9.21,8.24,5.53,13.91C36.22,104.18,34.67,108.93,34.39,108.4z"/>
					</g>
					<g>
						<path class="st19" d="M34.39,108.4l-7.03-13.37c-0.04-0.07-0.08-0.13-0.14-0.18c-0.76-0.64-6.2-4.93-8.9,0.13
							c-3.5,6.57,1.56,12.26,8.31,12.45C29.88,107.51,34.67,108.93,34.39,108.4z"/>
					</g>
				</g>
				<g>
					<g>
						<path class="st4" d="M34.35,108.51l-4.07-7.75c-0.02-0.04-0.03-0.08-0.04-0.13c-0.05-0.57-0.31-4.58,2.99-4.2
							c4.29,0.49,5.33,4.78,3.21,8.06C35.41,106.07,34.51,108.82,34.35,108.51z"/>
					</g>
					<g>
						<path class="st4" d="M34.35,108.51l-4.07-7.75c-0.02-0.04-0.05-0.07-0.08-0.1c-0.44-0.37-3.59-2.86-5.15,0.07
							c-2.03,3.81,0.91,7.1,4.82,7.21C31.74,108,34.51,108.82,34.35,108.51z"/>
					</g>
				</g>
			</g>
		</g>
		<g>
			<g>
				<g>
					<g>
						<path class="st18" d="M128.76,228.98l-10.24,11.1c-0.05,0.06-0.09,0.12-0.12,0.19c-0.34,0.93-2.57,7.5,3.1,8.34
							c7.37,1.09,11.02-5.58,8.94-12.01C129.43,233.52,129.16,228.54,128.76,228.98z"/>
					</g>
					<g>
						<path class="st19" d="M128.76,228.98l-10.24,11.1c-0.05,0.06-0.11,0.1-0.18,0.14c-0.9,0.42-7.27,3.16-8.56-2.42
							c-1.68-7.25,4.68-11.44,11.25-9.88C124.17,228.67,129.16,228.54,128.76,228.98z"/>
					</g>
				</g>
				<g>
					<g>
						<path class="st4" d="M128.75,228.86l-5.93,6.43c-0.03,0.03-0.05,0.07-0.07,0.11c-0.2,0.54-1.49,4.34,1.8,4.83
							c4.27,0.63,6.39-3.24,5.18-6.96C129.14,231.49,128.98,228.6,128.75,228.86z"/>
					</g>
					<g>
						<path class="st4" d="M128.75,228.86l-5.93,6.43c-0.03,0.03-0.07,0.06-0.11,0.08c-0.52,0.24-4.21,1.83-4.96-1.4
							c-0.98-4.2,2.71-6.63,6.51-5.72C126.09,228.68,128.98,228.6,128.75,228.86z"/>
					</g>
				</g>
			</g>
			<g>
				<g>
					<g>
						<path class="st18" d="M128.98,228.67l15.07-1.02c0.08-0.01,0.15-0.02,0.22-0.06c0.89-0.44,7.02-3.68,3.48-8.19
							c-4.6-5.86-11.84-3.52-14.74,2.57C131.61,224.9,128.38,228.71,128.98,228.67z"/>
					</g>
					<g>
						<path class="st19" d="M128.98,228.67l15.07-1.02c0.08-0.01,0.15,0,0.23,0.03c0.94,0.31,7.45,2.7,4.55,7.64
							c-3.76,6.42-11.26,5.09-14.96-0.56C132.09,232.05,128.38,228.71,128.98,228.67z"/>
					</g>
				</g>
				<g>
					<g>
						<path class="st4" d="M128.91,228.76l8.73-0.59c0.04,0,0.09-0.01,0.13-0.03c0.52-0.25,4.07-2.13,2.02-4.74
							c-2.66-3.39-6.86-2.04-8.54,1.49C130.43,226.58,128.56,228.79,128.91,228.76z"/>
					</g>
					<g>
						<path class="st4" d="M128.91,228.76l8.73-0.59c0.04,0,0.09,0,0.13,0.02c0.54,0.18,4.32,1.56,2.64,4.43
							c-2.18,3.72-6.52,2.95-8.66-0.32C130.71,230.72,128.56,228.79,128.91,228.76z"/>
					</g>
				</g>
			</g>
			<g>
				<path class="st18" d="M143.37,247.41c-0.19,0.07-0.41,0.07-0.6-0.03c-10.75-5.26-14.94-19.33-15.11-19.93
					c-0.11-0.4,0.12-0.82,0.51-0.93c0.4-0.12,0.81,0.11,0.93,0.51c0.04,0.14,4.18,14.03,14.33,19c0.37,0.18,0.53,0.63,0.34,1
					C143.69,247.22,143.54,247.35,143.37,247.41z"/>
			</g>
			<g>
				<g>
					<g>
						<path class="st18" d="M128.51,228.27l-7.03-13.37c-0.04-0.07-0.06-0.14-0.07-0.22c-0.09-0.99-0.54-7.9,5.15-7.25
							c7.4,0.85,9.21,8.24,5.53,13.91C130.34,224.06,128.79,228.8,128.51,228.27z"/>
					</g>
					<g>
						<path class="st19" d="M128.51,228.27l-7.03-13.37c-0.04-0.07-0.08-0.13-0.14-0.18c-0.76-0.64-6.2-4.93-8.9,0.13
							c-3.5,6.57,1.56,12.26,8.31,12.45C124,227.39,128.79,228.8,128.51,228.27z"/>
					</g>
				</g>
				<g>
					<g>
						<path class="st4" d="M128.47,228.38l-4.07-7.75c-0.02-0.04-0.03-0.08-0.04-0.13c-0.05-0.57-0.31-4.58,2.99-4.2
							c4.29,0.49,5.33,4.78,3.21,8.06C129.53,225.94,128.63,228.69,128.47,228.38z"/>
					</g>
					<g>
						<path class="st4" d="M128.47,228.38l-4.07-7.75c-0.02-0.04-0.05-0.07-0.08-0.1c-0.44-0.37-3.59-2.86-5.15,0.07
							c-2.03,3.81,0.91,7.1,4.82,7.21C125.86,227.87,128.63,228.69,128.47,228.38z"/>
					</g>
				</g>
			</g>
		</g>
		<g>
			<g>
				<g>
					<g>
						<path class="st18" d="M137.62,159.67l18.3,19.84c0.09,0.1,0.17,0.22,0.21,0.35c0.62,1.66,4.58,13.39-5.55,14.9
							c-13.16,1.95-19.69-9.98-15.97-21.45C136.41,167.79,136.89,158.89,137.62,159.67z"/>
					</g>
					<g>
						<path class="st19" d="M137.62,159.67l18.3,19.84c0.09,0.1,0.2,0.18,0.33,0.24c1.61,0.75,12.98,5.65,15.29-4.33
							c3.01-12.96-8.35-20.43-20.09-17.64C145.81,159.12,136.89,158.89,137.62,159.67z"/>
					</g>
				</g>
				<g>
					<g>
						<path class="st4" d="M137.64,159.46l10.6,11.49c0.05,0.06,0.1,0.13,0.12,0.2c0.36,0.96,2.65,7.76-3.21,8.63
							c-7.62,1.13-11.41-5.78-9.25-12.42C136.94,164.17,137.22,159.01,137.64,159.46z"/>
					</g>
					<g>
						<path class="st4" d="M137.64,159.46l10.6,11.49c0.05,0.06,0.12,0.11,0.19,0.14c0.93,0.43,7.52,3.27,8.86-2.51
							c1.74-7.51-4.84-11.84-11.64-10.22C142.39,159.14,137.22,159.01,137.64,159.46z"/>
					</g>
				</g>
			</g>
			<g>
				<g>
					<g>
						<path class="st18" d="M137.23,159.12l-26.93-1.83c-0.14-0.01-0.27-0.04-0.39-0.1c-1.59-0.78-12.54-6.57-6.21-14.63
							c8.21-10.46,21.16-6.29,26.34,4.6C132.52,152.39,138.3,159.2,137.23,159.12z"/>
					</g>
					<g>
						<path class="st19" d="M137.23,159.12l-26.93-1.83c-0.14-0.01-0.27,0.01-0.4,0.05c-1.68,0.56-13.31,4.82-8.13,13.66
							c6.72,11.48,20.11,9.09,26.72-1C131.66,165.16,138.3,159.2,137.23,159.12z"/>
					</g>
				</g>
				<g>
					<g>
						<path class="st4" d="M137.36,159.29l-15.6-1.06c-0.08-0.01-0.16-0.03-0.23-0.06c-0.92-0.45-7.26-3.81-3.6-8.48
							c4.76-6.06,12.26-3.65,15.26,2.66C134.63,155.39,137.98,159.33,137.36,159.29z"/>
					</g>
					<g>
						<path class="st4" d="M137.36,159.29l-15.6-1.06c-0.08-0.01-0.16,0-0.23,0.03c-0.97,0.33-7.71,2.79-4.71,7.91
							c3.9,6.65,11.65,5.27,15.48-0.58C134.13,162.79,137.98,159.33,137.36,159.29z"/>
					</g>
				</g>
			</g>
			<g>
				<path class="st18" d="M111.51,192.61c0.34,0.13,0.73,0.13,1.07-0.05c19.21-9.4,26.69-34.54,27-35.6
					c0.21-0.71-0.21-1.46-0.91-1.66c-0.71-0.21-1.46,0.2-1.66,0.91c-0.07,0.25-7.48,25.07-25.6,33.94
					c-0.67,0.33-0.94,1.13-0.62,1.79C110.95,192.26,111.21,192.49,111.51,192.61z"/>
			</g>
			<g>
				<g>
					<g>
						<path class="st18" d="M138.06,158.41l12.55-23.89c0.06-0.12,0.1-0.25,0.12-0.39c0.17-1.76,0.97-14.12-9.21-12.96
							c-13.22,1.51-16.45,14.72-9.88,24.84C134.79,150.88,137.56,159.36,138.06,158.41z"/>
					</g>
					<g>
						<path class="st19" d="M138.06,158.41l12.55-23.89c0.06-0.12,0.15-0.23,0.25-0.32c1.36-1.14,11.08-8.81,15.89,0.23
							c6.25,11.74-2.79,21.9-14.85,22.24C146.11,156.83,137.56,159.36,138.06,158.41z"/>
					</g>
				</g>
				<g>
					<g>
						<path class="st4" d="M138.13,158.61l7.27-13.84c0.04-0.07,0.06-0.15,0.07-0.23c0.1-1.02,0.56-8.18-5.33-7.51
							c-7.66,0.88-9.53,8.53-5.73,14.39C136.24,154.25,137.84,159.16,138.13,158.61z"/>
					</g>
					<g>
						<path class="st4" d="M138.13,158.61l7.27-13.84c0.04-0.07,0.09-0.13,0.15-0.18c0.79-0.66,6.42-5.1,9.21,0.13
							c3.62,6.8-1.62,12.69-8.6,12.88C142.8,157.7,137.84,159.16,138.13,158.61z"/>
					</g>
				</g>
			</g>
		</g>
		<g>
			<g>
				<g>
					<g>
						<path class="st18" d="M84.36,33.62l-11.04-0.42c-0.06,0-0.11,0.01-0.16,0.03c-0.68,0.25-5.38,2.14-3.16,5.69
							c2.89,4.61,8.34,3.47,10.92-0.74C82.16,36.16,84.8,33.64,84.36,33.62z"/>
					</g>
					<g>
						<path class="st19" d="M84.36,33.62l-11.04-0.42c-0.06,0-0.11-0.01-0.16-0.04c-0.66-0.3-5.21-2.54-2.72-5.91
							c3.23-4.38,8.58-2.83,10.83,1.56C82.35,30.93,84.8,33.64,84.36,33.62z"/>
					</g>
				</g>
				<g>
					<g>
						<path class="st4" d="M84.42,33.56l-6.39-0.24c-0.03,0-0.06,0-0.1,0.01c-0.39,0.14-3.12,1.24-1.83,3.29
							c1.67,2.67,4.83,2.01,6.32-0.43C83.14,35.03,84.68,33.57,84.42,33.56z"/>
					</g>
					<g>
						<path class="st4" d="M84.42,33.56l-6.39-0.24c-0.03,0-0.06-0.01-0.09-0.02c-0.38-0.17-3.02-1.47-1.58-3.42
							c1.87-2.54,4.97-1.64,6.27,0.9C83.26,32,84.68,33.57,84.42,33.56z"/>
					</g>
				</g>
			</g>
			<g>
				<g>
					<g>
						<path class="st18" d="M84.64,33.6l7.73,7.89c0.04,0.04,0.09,0.07,0.14,0.09c0.67,0.29,5.38,2.15,6.2-1.96
							c1.07-5.34-3.67-8.25-8.43-6.97C87.98,33.28,84.33,33.29,84.64,33.6z"/>
					</g>
					<g>
						<path class="st19" d="M84.64,33.6l7.73,7.89c0.04,0.04,0.07,0.09,0.09,0.14c0.27,0.67,2.04,5.42-2.09,6.16
							c-5.36,0.96-8.18-3.84-6.79-8.58C84.24,36.94,84.33,33.29,84.64,33.6z"/>
					</g>
				</g>
				<g>
					<g>
						<path class="st4" d="M84.55,33.61l4.48,4.57c0.02,0.02,0.05,0.04,0.08,0.05c0.39,0.17,3.12,1.25,3.59-1.13
							c0.62-3.09-2.12-4.78-4.89-4.04C86.49,33.42,84.37,33.42,84.55,33.61z"/>
					</g>
					<g>
						<path class="st4" d="M84.55,33.61l4.48,4.57c0.02,0.02,0.04,0.05,0.05,0.08c0.16,0.39,1.18,3.14-1.21,3.57
							c-3.1,0.56-4.74-2.22-3.94-4.97C84.32,35.54,84.37,33.42,84.55,33.61z"/>
					</g>
				</g>
			</g>
			<g>
				<path class="st18" d="M81.06,50.5c-0.13-0.07-0.23-0.19-0.27-0.35c-2.18-8.47,3.65-17.49,3.9-17.87
					c0.17-0.25,0.51-0.32,0.76-0.16c0.25,0.17,0.32,0.51,0.16,0.76c-0.06,0.09-5.81,8.99-3.75,16.99c0.08,0.29-0.1,0.59-0.39,0.67
					C81.32,50.59,81.18,50.57,81.06,50.5z"/>
			</g>
			<g>
				<g>
					<g>
						<path class="st18" d="M84.64,33.16l4.09-10.26c0.02-0.05,0.05-0.1,0.09-0.14c0.5-0.52,4.14-4.06,6.48-0.58
							c3.04,4.51-0.21,9.03-5.1,9.68C87.85,32.17,84.47,33.56,84.64,33.16z"/>
					</g>
					<g>
						<path class="st19" d="M84.64,33.16l4.09-10.26c0.02-0.05,0.03-0.11,0.03-0.16c-0.01-0.72-0.21-5.79-4.3-4.88
							c-5.31,1.18-6.07,6.69-2.97,10.53C82.99,30.23,84.47,33.56,84.64,33.16z"/>
					</g>
				</g>
				<g>
					<g>
						<path class="st4" d="M84.56,33.18l2.37-5.94c0.01-0.03,0.03-0.06,0.05-0.08c0.29-0.3,2.4-2.35,3.75-0.34
							c1.76,2.61-0.12,5.23-2.95,5.61C86.42,32.61,84.46,33.42,84.56,33.18z"/>
					</g>
					<g>
						<path class="st4" d="M84.56,33.18l2.37-5.94c0.01-0.03,0.02-0.06,0.02-0.09c0-0.42-0.12-3.35-2.49-2.83
							c-3.08,0.68-3.52,3.88-1.72,6.1C83.6,31.49,84.46,33.42,84.56,33.18z"/>
					</g>
				</g>
			</g>
		</g>
		<g>
			<g>
				<g>
					<g>
						<path class="st18" d="M41.65,182.18l0,11.4c0,0.06,0.01,0.11,0.03,0.17c0.28,0.69,2.41,5.47,5.99,3.04
							c4.64-3.16,3.25-8.74-1.19-11.23C44.35,184.36,41.65,181.73,41.65,182.18z"/>
					</g>
					<g>
						<path class="st19" d="M41.65,182.18l0,11.4c0,0.06-0.01,0.11-0.03,0.17c-0.28,0.69-2.41,5.47-5.99,3.04
							c-4.64-3.16-3.26-8.73,1.18-11.23C38.95,184.36,41.65,181.73,41.65,182.18z"/>
					</g>
				</g>
				<g>
					<g>
						<path class="st4" d="M41.58,182.12l0,6.6c0,0.03,0.01,0.07,0.02,0.1c0.16,0.4,1.4,3.17,3.47,1.76
							c2.69-1.83,1.89-5.06-0.69-6.51C43.15,183.38,41.58,181.86,41.58,182.12z"/>
					</g>
					<g>
						<path class="st4" d="M41.58,182.12l0,6.6c0,0.03-0.01,0.07-0.02,0.1c-0.16,0.4-1.4,3.17-3.47,1.76
							c-2.69-1.83-1.89-5.06,0.68-6.51C40.02,183.38,41.58,181.86,41.58,182.12z"/>
					</g>
				</g>
			</g>
			<g>
				<g>
					<g>
						<path class="st18" d="M41.61,181.9l7.83-8.28c0.04-0.04,0.07-0.09,0.09-0.15c0.27-0.7,2.01-5.63-2.26-6.32
							c-5.55-0.9-8.37,4.11-6.86,8.97C41.15,178.46,41.3,182.23,41.61,181.9z"/>
					</g>
					<g>
						<path class="st19" d="M41.61,181.9l7.83-8.28c0.04-0.04,0.09-0.08,0.14-0.1c0.68-0.31,5.51-2.31,6.43,1.91
							c1.2,5.49-3.64,8.58-8.58,7.34C45.07,182.18,41.3,182.23,41.61,181.9z"/>
					</g>
				</g>
				<g>
					<g>
						<path class="st4" d="M41.62,181.99l4.54-4.8c0.02-0.02,0.04-0.05,0.05-0.08c0.16-0.4,1.16-3.26-1.31-3.66
							c-3.21-0.52-4.85,2.38-3.97,5.2C41.35,180,41.44,182.18,41.62,181.99z"/>
					</g>
					<g>
						<path class="st4" d="M41.62,181.99l4.54-4.8c0.02-0.02,0.05-0.04,0.08-0.06c0.4-0.18,3.19-1.34,3.73,1.11
							c0.7,3.18-2.11,4.97-4.97,4.25C43.62,182.15,41.44,182.18,41.62,181.99z"/>
					</g>
				</g>
			</g>
			<g>
				<path class="st18" d="M59.18,184.93c-0.07,0.14-0.19,0.25-0.35,0.29c-8.65,2.58-18.18-3.08-18.58-3.32
					c-0.27-0.16-0.35-0.52-0.19-0.78c0.16-0.27,0.51-0.35,0.78-0.19c0.09,0.06,9.5,5.64,17.67,3.2c0.3-0.09,0.62,0.08,0.7,0.38
					C59.26,184.66,59.24,184.8,59.18,184.93z"/>
			</g>
			<g>
				<g>
					<g>
						<path class="st18" d="M41.15,181.92l-10.74-3.82c-0.05-0.02-0.1-0.05-0.15-0.09c-0.56-0.5-4.34-4.11-0.85-6.66
							c4.53-3.32,9.32-0.14,10.18,4.88C40.01,178.64,41.58,182.07,41.15,181.92z"/>
					</g>
					<g>
						<path class="st19" d="M41.15,181.92l-10.74-3.82c-0.05-0.02-0.11-0.03-0.17-0.03c-0.75,0.04-5.96,0.44-4.87,4.62
							c1.42,5.43,7.14,6,10.98,2.65C38.2,183.73,41.58,182.07,41.15,181.92z"/>
					</g>
				</g>
				<g>
					<g>
						<path class="st4" d="M41.19,182l-6.22-2.21c-0.03-0.01-0.06-0.03-0.09-0.05c-0.32-0.29-2.52-2.38-0.49-3.86
							c2.63-1.92,5.4-0.08,5.9,2.83C40.52,180.1,41.43,182.09,41.19,182z"/>
					</g>
					<g>
						<path class="st4" d="M41.19,182l-6.22-2.21c-0.03-0.01-0.06-0.02-0.1-0.01c-0.43,0.02-3.45,0.25-2.82,2.68
							c0.82,3.15,4.13,3.47,6.36,1.53C39.48,183.05,41.43,182.09,41.19,182z"/>
					</g>
				</g>
			</g>
		</g>
		<g>
			<g>
				<g>
					<g>
						<path class="st18" d="M238.2,131.11L245.7,118c0.04-0.07,0.06-0.14,0.07-0.22c0.13-0.98,0.83-7.88-4.89-7.44
							c-7.42,0.58-9.5,7.9-6.03,13.7C236.52,126.83,237.9,131.63,238.2,131.11z"/>
					</g>
					<g>
						<path class="st19" d="M238.2,131.11L245.7,118c0.04-0.07,0.09-0.13,0.15-0.17c0.78-0.61,6.38-4.7,8.89,0.45
							c3.26,6.69-2.01,12.19-8.76,12.14C242.74,130.39,237.9,131.63,238.2,131.11z"/>
					</g>
				</g>
				<g>
					<g>
						<path class="st4" d="M238.24,131.22l4.35-7.6c0.02-0.04,0.04-0.08,0.04-0.13c0.07-0.57,0.48-4.57-2.83-4.31
							c-4.3,0.33-5.5,4.58-3.5,7.94C237.27,128.75,238.06,131.53,238.24,131.22z"/>
					</g>
					<g>
						<path class="st4" d="M238.24,131.22l4.35-7.6c0.02-0.04,0.05-0.07,0.09-0.1c0.45-0.35,3.69-2.72,5.15,0.26
							c1.89,3.88-1.16,7.06-5.07,7.03C240.87,130.81,238.06,131.53,238.24,131.22z"/>
					</g>
				</g>
			</g>
			<g>
				<g>
					<g>
						<path class="st18" d="M238.05,131.46l-14.46,4.36c-0.07,0.02-0.14,0.06-0.2,0.11c-0.77,0.63-6.02,5.15-1.56,8.76
							c5.79,4.68,12.33,0.79,13.8-5.8C236.33,135.72,238.63,131.29,238.05,131.46z"/>
					</g>
					<g>
						<path class="st19" d="M238.05,131.46l-14.46,4.36c-0.07,0.02-0.15,0.03-0.23,0.02c-0.99-0.1-7.86-0.97-6.14-6.44
							c2.24-7.1,9.84-7.47,14.7-2.79C234.26,128.87,238.63,131.29,238.05,131.46z"/>
					</g>
				</g>
				<g>
					<g>
						<path class="st4" d="M238.1,131.35l-8.38,2.53c-0.04,0.01-0.08,0.03-0.12,0.06c-0.45,0.36-3.49,2.99-0.91,5.07
							c3.35,2.71,7.14,0.46,7.99-3.36C237.1,133.82,238.43,131.25,238.1,131.35z"/>
					</g>
					<g>
						<path class="st4" d="M238.1,131.35l-8.38,2.53c-0.04,0.01-0.09,0.02-0.13,0.01c-0.57-0.06-4.56-0.56-3.56-3.73
							c1.29-4.11,5.7-4.33,8.52-1.62C235.9,129.85,238.43,131.25,238.1,131.35z"/>
					</g>
				</g>
			</g>
			<g>
				<path class="st18" d="M219.84,116.4c0.17-0.11,0.38-0.16,0.59-0.11c11.66,2.73,18.88,15.51,19.18,16.06
					c0.2,0.36,0.07,0.83-0.29,1.02c-0.36,0.2-0.82,0.07-1.02-0.29c-0.07-0.13-7.21-12.75-18.21-15.32c-0.4-0.09-0.65-0.5-0.56-0.9
					C219.57,116.66,219.69,116.51,219.84,116.4z"/>
			</g>
			<g>
				<g>
					<g>
						<path class="st18" d="M238.59,131.75l9.83,11.47c0.05,0.06,0.09,0.12,0.11,0.2c0.31,0.94,2.29,7.58-3.4,8.22
							c-7.4,0.83-10.81-5.98-8.5-12.32C237.75,136.26,238.2,131.29,238.59,131.75z"/>
					</g>
					<g>
						<path class="st19" d="M238.59,131.75l9.83,11.47c0.05,0.06,0.11,0.11,0.18,0.14c0.88,0.45,7.15,3.42,8.64-2.11
							c1.95-7.19-4.26-11.6-10.88-10.28C243.19,131.6,238.2,131.29,238.59,131.75z"/>
					</g>
				</g>
				<g>
					<g>
						<path class="st4" d="M238.61,131.63l5.7,6.64c0.03,0.03,0.05,0.07,0.07,0.11c0.18,0.55,1.33,4.39-1.97,4.76
							c-4.29,0.48-6.26-3.46-4.92-7.14C238.12,134.25,238.38,131.36,238.61,131.63z"/>
					</g>
					<g>
						<path class="st4" d="M238.61,131.63l5.7,6.64c0.03,0.03,0.06,0.06,0.1,0.08c0.51,0.26,4.14,1.98,5.01-1.22
							c1.13-4.16-2.47-6.72-6.3-5.95C241.27,131.55,238.38,131.36,238.61,131.63z"/>
					</g>
				</g>
			</g>
		</g>
		<g>
			<g>
				<g>
					<g>
						<path class="st5" d="M192.77,220.99l5.17-9.02c0.03-0.05,0.04-0.1,0.05-0.15c0.09-0.68,0.57-5.42-3.36-5.12
							c-5.11,0.4-6.54,5.44-4.15,9.43C191.62,218.05,192.56,221.35,192.77,220.99z"/>
					</g>
					<g>
						<path class="st6" d="M192.77,220.99l5.17-9.02c0.03-0.05,0.06-0.09,0.1-0.12c0.54-0.42,4.39-3.24,6.12,0.31
							c2.24,4.61-1.38,8.39-6.03,8.35C195.89,220.5,192.56,221.35,192.77,220.99z"/>
					</g>
				</g>
				<g>
					<g>
						<path class="st4" d="M192.8,221.07l2.99-5.23c0.02-0.03,0.03-0.06,0.03-0.09c0.05-0.39,0.33-3.14-1.95-2.97
							c-2.96,0.23-3.79,3.15-2.41,5.46C192.13,219.36,192.68,221.28,192.8,221.07z"/>
					</g>
					<g>
						<path class="st4" d="M192.8,221.07l2.99-5.23c0.02-0.03,0.04-0.05,0.06-0.07c0.31-0.24,2.54-1.88,3.54,0.18
							c1.3,2.67-0.8,4.86-3.49,4.84C194.61,220.78,192.68,221.28,192.8,221.07z"/>
					</g>
				</g>
			</g>
			<g>
				<g>
					<g>
						<path class="st5" d="M192.67,221.23l-9.96,3c-0.05,0.02-0.1,0.04-0.14,0.07c-0.53,0.43-4.14,3.55-1.08,6.03
							c3.98,3.22,8.49,0.54,9.5-3.99C191.48,224.16,193.06,221.11,192.67,221.23z"/>
					</g>
					<g>
						<path class="st6" d="M192.67,221.23l-9.96,3c-0.05,0.02-0.1,0.02-0.16,0.02c-0.68-0.07-5.41-0.67-4.23-4.43
							c1.54-4.89,6.77-5.14,10.12-1.92C190.06,219.45,193.06,221.11,192.67,221.23z"/>
					</g>
				</g>
				<g>
					<g>
						<path class="st4" d="M192.7,221.16l-5.77,1.74c-0.03,0.01-0.06,0.02-0.08,0.04c-0.31,0.25-2.4,2.05-0.62,3.49
							c2.31,1.87,4.92,0.32,5.5-2.31C192.01,222.86,192.93,221.09,192.7,221.16z"/>
					</g>
					<g>
						<path class="st4" d="M192.7,221.16l-5.77,1.74c-0.03,0.01-0.06,0.01-0.09,0.01c-0.39-0.04-3.14-0.39-2.45-2.57
							c0.89-2.83,3.92-2.98,5.86-1.11C191.19,220.12,192.93,221.09,192.7,221.16z"/>
					</g>
				</g>
			</g>
			<g>
				<path class="st5" d="M180.13,210.87c0.12-0.08,0.26-0.11,0.41-0.08c8.02,1.88,13,10.68,13.2,11.05c0.14,0.25,0.05,0.57-0.2,0.7
					c-0.25,0.14-0.56,0.05-0.7-0.2c-0.05-0.09-4.96-8.77-12.54-10.55c-0.28-0.07-0.45-0.34-0.39-0.62
					C179.95,211.05,180.03,210.94,180.13,210.87z"/>
			</g>
			<g>
				<g>
					<g>
						<path class="st5" d="M193.04,221.43l6.77,7.89c0.03,0.04,0.06,0.09,0.08,0.14c0.21,0.65,1.58,5.22-2.34,5.66
							c-5.09,0.57-7.44-4.12-5.85-8.48C192.46,224.54,192.77,221.11,193.04,221.43z"/>
					</g>
					<g>
						<path class="st6" d="M193.04,221.43l6.77,7.89c0.03,0.04,0.08,0.07,0.12,0.1c0.61,0.31,4.92,2.36,5.95-1.45
							c1.34-4.95-2.93-7.98-7.49-7.08C196.2,221.33,192.77,221.11,193.04,221.43z"/>
					</g>
				</g>
				<g>
					<g>
						<path class="st4" d="M193.05,221.35l3.92,4.57c0.02,0.02,0.04,0.05,0.04,0.08c0.12,0.38,0.91,3.02-1.36,3.28
							c-2.95,0.33-4.31-2.38-3.39-4.91C192.72,223.15,192.9,221.17,193.05,221.35z"/>
					</g>
					<g>
						<path class="st4" d="M193.05,221.35l3.92,4.57c0.02,0.02,0.04,0.04,0.07,0.06c0.35,0.18,2.85,1.37,3.45-0.84
							c0.78-2.87-1.7-4.63-4.34-4.1C194.88,221.29,192.9,221.17,193.05,221.35z"/>
					</g>
				</g>
			</g>
		</g>
		<g>
			<g>
				<g>
					<g>
						<path class="st5" d="M238.11,103.71l5.17-9.02c0.03-0.05,0.04-0.1,0.05-0.15c0.09-0.68,0.57-5.42-3.36-5.12
							c-5.11,0.4-6.54,5.44-4.15,9.43C236.96,100.76,237.91,104.07,238.11,103.71z"/>
					</g>
					<g>
						<path class="st6" d="M238.11,103.71l5.17-9.02c0.03-0.05,0.06-0.09,0.1-0.12c0.54-0.42,4.39-3.24,6.12,0.31
							c2.24,4.61-1.38,8.39-6.03,8.35C241.24,103.21,237.91,104.07,238.11,103.71z"/>
					</g>
				</g>
				<g>
					<g>
						<path class="st4" d="M238.14,103.78l2.99-5.23c0.02-0.03,0.03-0.06,0.03-0.09c0.05-0.39,0.33-3.14-1.95-2.97
							c-2.96,0.23-3.79,3.15-2.41,5.46C237.47,102.08,238.02,103.99,238.14,103.78z"/>
					</g>
					<g>
						<path class="st4" d="M238.14,103.78l2.99-5.23c0.02-0.03,0.04-0.05,0.06-0.07c0.31-0.24,2.54-1.88,3.54,0.18
							c1.3,2.67-0.8,4.86-3.49,4.84C239.95,103.5,238.02,103.99,238.14,103.78z"/>
					</g>
				</g>
			</g>
			<g>
				<g>
					<g>
						<path class="st5" d="M238.01,103.95l-9.96,3c-0.05,0.02-0.1,0.04-0.14,0.07c-0.53,0.43-4.14,3.55-1.08,6.03
							c3.98,3.22,8.49,0.54,9.5-3.99C236.82,106.88,238.41,103.83,238.01,103.95z"/>
					</g>
					<g>
						<path class="st6" d="M238.01,103.95l-9.96,3c-0.05,0.02-0.1,0.02-0.16,0.02c-0.68-0.07-5.41-0.67-4.23-4.43
							c1.54-4.89,6.77-5.14,10.12-1.92C235.4,102.16,238.41,103.83,238.01,103.95z"/>
					</g>
				</g>
				<g>
					<g>
						<path class="st4" d="M238.05,103.87l-5.77,1.74c-0.03,0.01-0.06,0.02-0.08,0.04c-0.31,0.25-2.4,2.05-0.62,3.49
							c2.31,1.87,4.92,0.32,5.5-2.31C237.36,105.57,238.28,103.8,238.05,103.87z"/>
					</g>
					<g>
						<path class="st4" d="M238.05,103.87l-5.77,1.74c-0.03,0.01-0.06,0.01-0.09,0.01c-0.39-0.04-3.14-0.39-2.45-2.57
							c0.89-2.83,3.92-2.98,5.86-1.11C236.53,102.84,238.28,103.8,238.05,103.87z"/>
					</g>
				</g>
			</g>
			<g>
				<path class="st5" d="M225.47,93.58c0.12-0.08,0.26-0.11,0.41-0.08c8.02,1.88,13,10.68,13.2,11.05c0.14,0.25,0.05,0.57-0.2,0.7
					c-0.25,0.14-0.56,0.05-0.7-0.2c-0.05-0.09-4.96-8.77-12.54-10.55c-0.28-0.07-0.45-0.34-0.39-0.62
					C225.29,93.76,225.37,93.65,225.47,93.58z"/>
			</g>
			<g>
				<g>
					<g>
						<path class="st5" d="M238.38,104.14l6.77,7.89c0.03,0.04,0.06,0.09,0.08,0.14c0.21,0.65,1.58,5.22-2.34,5.66
							c-5.09,0.57-7.44-4.12-5.85-8.48C237.8,107.25,238.12,103.83,238.38,104.14z"/>
					</g>
					<g>
						<path class="st6" d="M238.38,104.14l6.77,7.89c0.03,0.04,0.08,0.07,0.12,0.1c0.61,0.31,4.92,2.36,5.95-1.45
							c1.34-4.95-2.93-7.98-7.49-7.08C241.55,104.04,238.12,103.83,238.38,104.14z"/>
					</g>
				</g>
				<g>
					<g>
						<path class="st4" d="M238.4,104.06l3.92,4.57c0.02,0.02,0.04,0.05,0.04,0.08c0.12,0.38,0.91,3.02-1.36,3.28
							c-2.95,0.33-4.31-2.38-3.39-4.91C238.06,105.86,238.24,103.88,238.4,104.06z"/>
					</g>
					<g>
						<path class="st4" d="M238.4,104.06l3.92,4.57c0.02,0.02,0.04,0.04,0.07,0.06c0.35,0.18,2.85,1.37,3.45-0.84
							c0.78-2.87-1.7-4.63-4.34-4.1C240.23,104.01,238.24,103.88,238.4,104.06z"/>
					</g>
				</g>
			</g>
		</g>
		<g>
			<g>
				<g>
					<g>
						<path class="st5" d="M45.25,67.11l5.17-9.02c0.03-0.05,0.04-0.1,0.05-0.15c0.09-0.68,0.57-5.42-3.36-5.12
							c-5.11,0.4-6.54,5.44-4.15,9.43C44.1,64.17,45.05,67.47,45.25,67.11z"/>
					</g>
					<g>
						<path class="st6" d="M45.25,67.11l5.17-9.02c0.03-0.05,0.06-0.09,0.1-0.12c0.54-0.42,4.39-3.24,6.12,0.31
							c2.24,4.61-1.38,8.39-6.03,8.35C48.38,66.62,45.05,67.47,45.25,67.11z"/>
					</g>
				</g>
				<g>
					<g>
						<path class="st4" d="M45.28,67.19l2.99-5.23c0.02-0.03,0.03-0.06,0.03-0.09c0.05-0.39,0.33-3.14-1.95-2.97
							c-2.96,0.23-3.79,3.15-2.41,5.46C44.61,65.49,45.16,67.4,45.28,67.19z"/>
					</g>
					<g>
						<path class="st4" d="M45.28,67.19l2.99-5.23c0.02-0.03,0.04-0.05,0.06-0.07c0.31-0.24,2.54-1.88,3.54,0.18
							c1.3,2.67-0.8,4.86-3.49,4.84C47.09,66.9,45.16,67.4,45.28,67.19z"/>
					</g>
				</g>
			</g>
			<g>
				<g>
					<g>
						<path class="st5" d="M45.15,67.36l-9.96,3c-0.05,0.02-0.1,0.04-0.14,0.07c-0.53,0.43-4.14,3.55-1.08,6.03
							c3.98,3.22,8.49,0.54,9.5-3.99C43.96,70.29,45.55,67.24,45.15,67.36z"/>
					</g>
					<g>
						<path class="st6" d="M45.15,67.36l-9.96,3c-0.05,0.02-0.1,0.02-0.16,0.02c-0.68-0.07-5.41-0.67-4.23-4.43
							c1.54-4.89,6.77-5.14,10.12-1.92C42.54,65.57,45.55,67.24,45.15,67.36z"/>
					</g>
				</g>
				<g>
					<g>
						<path class="st4" d="M45.19,67.28l-5.77,1.74c-0.03,0.01-0.06,0.02-0.08,0.04c-0.31,0.25-2.4,2.05-0.62,3.49
							c2.31,1.87,4.92,0.32,5.5-2.31C44.5,68.98,45.42,67.21,45.19,67.28z"/>
					</g>
					<g>
						<path class="st4" d="M45.19,67.28l-5.77,1.74c-0.03,0.01-0.06,0.01-0.09,0.01c-0.39-0.04-3.14-0.39-2.45-2.57
							c0.89-2.83,3.92-2.98,5.86-1.11C43.67,66.25,45.42,67.21,45.19,67.28z"/>
					</g>
				</g>
			</g>
			<g>
				<path class="st5" d="M32.61,56.99c0.12-0.08,0.26-0.11,0.41-0.08c8.02,1.88,13,10.68,13.2,11.05c0.14,0.25,0.05,0.57-0.2,0.7
					c-0.25,0.14-0.56,0.05-0.7-0.2c-0.05-0.09-4.96-8.77-12.54-10.55c-0.28-0.07-0.45-0.34-0.39-0.62
					C32.43,57.17,32.51,57.06,32.61,56.99z"/>
			</g>
			<g>
				<g>
					<g>
						<path class="st5" d="M45.52,67.55l6.77,7.89c0.03,0.04,0.06,0.09,0.08,0.14c0.21,0.65,1.58,5.22-2.34,5.66
							c-5.09,0.57-7.44-4.12-5.85-8.48C44.94,70.66,45.26,67.24,45.52,67.55z"/>
					</g>
					<g>
						<path class="st6" d="M45.52,67.55l6.77,7.89c0.03,0.04,0.08,0.07,0.12,0.1c0.61,0.31,4.92,2.36,5.95-1.45
							c1.34-4.95-2.93-7.98-7.49-7.08C48.69,67.45,45.26,67.24,45.52,67.55z"/>
					</g>
				</g>
				<g>
					<g>
						<path class="st4" d="M45.54,67.47l3.92,4.57c0.02,0.02,0.04,0.05,0.04,0.08c0.12,0.38,0.91,3.02-1.36,3.28
							c-2.95,0.33-4.31-2.38-3.39-4.91C45.2,69.27,45.38,67.29,45.54,67.47z"/>
					</g>
					<g>
						<path class="st4" d="M45.54,67.47l3.92,4.57c0.02,0.02,0.04,0.04,0.07,0.06c0.35,0.18,2.85,1.37,3.45-0.84
							c0.78-2.87-1.7-4.63-4.34-4.1C47.37,67.41,45.38,67.29,45.54,67.47z"/>
					</g>
				</g>
			</g>
		</g>
		<g>
			<g>
				<g>
					<g>
						<path class="st5" d="M34.83,135.54l5.17-9.02c0.03-0.05,0.04-0.1,0.05-0.15c0.09-0.68,0.57-5.42-3.36-5.12
							c-5.11,0.4-6.54,5.44-4.15,9.43C33.68,132.59,34.62,135.89,34.83,135.54z"/>
					</g>
					<g>
						<path class="st6" d="M34.83,135.54l5.17-9.02c0.03-0.05,0.06-0.09,0.1-0.12c0.54-0.42,4.39-3.24,6.12,0.31
							c2.24,4.61-1.38,8.39-6.03,8.35C37.95,135.04,34.62,135.89,34.83,135.54z"/>
					</g>
				</g>
				<g>
					<g>
						<path class="st4" d="M34.86,135.61l2.99-5.23c0.02-0.03,0.03-0.06,0.03-0.09c0.05-0.39,0.33-3.14-1.95-2.97
							c-2.96,0.23-3.79,3.15-2.41,5.46C34.19,133.91,34.74,135.82,34.86,135.61z"/>
					</g>
					<g>
						<path class="st4" d="M34.86,135.61l2.99-5.23c0.02-0.03,0.04-0.05,0.06-0.07c0.31-0.24,2.54-1.88,3.54,0.18
							c1.3,2.67-0.8,4.86-3.49,4.84C36.67,135.33,34.74,135.82,34.86,135.61z"/>
					</g>
				</g>
			</g>
			<g>
				<g>
					<g>
						<path class="st5" d="M34.73,135.78l-9.96,3c-0.05,0.02-0.1,0.04-0.14,0.07c-0.53,0.43-4.14,3.55-1.08,6.03
							c3.98,3.22,8.49,0.54,9.5-3.99C33.54,138.71,35.12,135.66,34.73,135.78z"/>
					</g>
					<g>
						<path class="st6" d="M34.73,135.78l-9.96,3c-0.05,0.02-0.1,0.02-0.16,0.02c-0.68-0.07-5.41-0.67-4.23-4.43
							c1.54-4.89,6.77-5.14,10.12-1.92C32.12,133.99,35.12,135.66,34.73,135.78z"/>
					</g>
				</g>
				<g>
					<g>
						<path class="st4" d="M34.76,135.7L29,137.44c-0.03,0.01-0.06,0.02-0.08,0.04c-0.31,0.25-2.4,2.05-0.62,3.49
							c2.31,1.87,4.92,0.32,5.5-2.31C34.08,137.4,34.99,135.63,34.76,135.7z"/>
					</g>
					<g>
						<path class="st4" d="M34.76,135.7L29,137.44c-0.03,0.01-0.06,0.01-0.09,0.01c-0.39-0.04-3.14-0.39-2.45-2.57
							c0.89-2.83,3.92-2.98,5.86-1.11C33.25,134.67,34.99,135.63,34.76,135.7z"/>
					</g>
				</g>
			</g>
			<g>
				<path class="st5" d="M22.19,125.41c0.12-0.08,0.26-0.11,0.41-0.08c8.02,1.88,13,10.68,13.2,11.05c0.14,0.25,0.05,0.57-0.2,0.7
					c-0.25,0.14-0.56,0.05-0.7-0.2c-0.05-0.09-4.96-8.77-12.54-10.55c-0.28-0.07-0.45-0.34-0.39-0.62
					C22.01,125.59,22.09,125.48,22.19,125.41z"/>
			</g>
			<g>
				<g>
					<g>
						<path class="st5" d="M35.1,135.97l6.77,7.89c0.03,0.04,0.06,0.09,0.08,0.14c0.21,0.65,1.58,5.22-2.34,5.66
							c-5.09,0.57-7.44-4.12-5.85-8.48C34.52,139.08,34.83,135.66,35.1,135.97z"/>
					</g>
					<g>
						<path class="st6" d="M35.1,135.97l6.77,7.89c0.03,0.04,0.08,0.07,0.12,0.1c0.61,0.31,4.92,2.36,5.95-1.45
							c1.34-4.95-2.93-7.98-7.49-7.08C38.26,135.87,34.83,135.66,35.1,135.97z"/>
					</g>
				</g>
				<g>
					<g>
						<path class="st4" d="M35.11,135.89l3.92,4.57c0.02,0.02,0.04,0.05,0.04,0.08c0.12,0.38,0.91,3.02-1.36,3.28
							c-2.95,0.33-4.31-2.38-3.39-4.91C34.78,137.69,34.96,135.71,35.11,135.89z"/>
					</g>
					<g>
						<path class="st4" d="M35.11,135.89l3.92,4.57c0.02,0.02,0.04,0.04,0.07,0.06c0.35,0.18,2.85,1.37,3.45-0.84
							c0.78-2.87-1.7-4.63-4.34-4.1C36.94,135.83,34.96,135.71,35.11,135.89z"/>
					</g>
				</g>
			</g>
		</g>
		<g>
			<g>
				<g>
					<g>
						<path class="st18" d="M204.84,206.24l10.85-2.06c0.06-0.01,0.11-0.03,0.15-0.06c0.61-0.4,4.77-3.28,1.81-6.25
							c-3.85-3.85-8.9-1.52-10.48,3.15C206.43,203.28,204.41,206.32,204.84,206.24z"/>
					</g>
					<g>
						<path class="st19" d="M204.84,206.24l10.85-2.06c0.06-0.01,0.11-0.01,0.17,0c0.71,0.15,5.64,1.31,3.97,5.15
							c-2.17,4.99-7.73,4.68-10.9,0.9C207.4,208.42,204.41,206.32,204.84,206.24z"/>
					</g>
				</g>
				<g>
					<g>
						<path class="st4" d="M204.8,206.32l6.29-1.19c0.03-0.01,0.06-0.02,0.09-0.04c0.35-0.23,2.76-1.9,1.05-3.62
							c-2.23-2.23-5.16-0.88-6.07,1.83C205.72,204.6,204.55,206.36,204.8,206.32z"/>
					</g>
					<g>
						<path class="st4" d="M204.8,206.32l6.29-1.19c0.03-0.01,0.06-0.01,0.1,0c0.41,0.08,3.27,0.76,2.3,2.98
							c-1.26,2.89-4.48,2.71-6.32,0.52C206.28,207.58,204.55,206.36,204.8,206.32z"/>
					</g>
				</g>
			</g>
			<g>
				<g>
					<g>
						<path class="st18" d="M204.58,206.33l-9.29-5.97c-0.05-0.03-0.1-0.05-0.15-0.06c-0.71-0.13-5.72-0.9-5.61,3.29
							c0.15,5.44,5.42,7.23,9.78,4.91C201.39,207.39,204.95,206.56,204.58,206.33z"/>
					</g>
					<g>
						<path class="st19" d="M204.58,206.33l-9.29-5.97c-0.05-0.03-0.09-0.07-0.12-0.12c-0.42-0.59-3.2-4.83,0.66-6.47
							c5.01-2.13,8.83,1.92,8.54,6.84C204.22,202.99,204.95,206.56,204.58,206.33z"/>
					</g>
				</g>
				<g>
					<g>
						<path class="st4" d="M204.66,206.3l-5.38-3.46c-0.03-0.02-0.06-0.03-0.09-0.04c-0.41-0.08-3.32-0.52-3.25,1.91
							c0.08,3.15,3.14,4.19,5.66,2.85C202.82,206.92,204.88,206.44,204.66,206.3z"/>
					</g>
					<g>
						<path class="st4" d="M204.66,206.3l-5.38-3.46c-0.03-0.02-0.05-0.04-0.07-0.07c-0.24-0.34-1.85-2.8,0.38-3.75
							c2.9-1.24,5.11,1.11,4.95,3.97C204.46,204.37,204.88,206.44,204.66,206.3z"/>
					</g>
				</g>
			</g>
			<g>
				<path class="st18" d="M204.3,189.05c0.14,0.04,0.27,0.14,0.34,0.28c4.02,7.77,0.35,17.86,0.19,18.28
					c-0.11,0.28-0.43,0.43-0.71,0.32c-0.28-0.11-0.43-0.42-0.32-0.71c0.04-0.1,3.66-10.06-0.14-17.4c-0.14-0.27-0.03-0.6,0.24-0.74
					C204.03,189.03,204.17,189.02,204.3,189.05z"/>
			</g>
			<g>
				<g>
					<g>
						<path class="st18" d="M204.68,206.76l-1.7,10.91c-0.01,0.06-0.03,0.11-0.06,0.16c-0.38,0.62-3.13,4.88-6.18,2.01
							c-3.97-3.72-1.81-8.85,2.81-10.57C201.77,208.44,204.75,206.33,204.68,206.76z"/>
					</g>
					<g>
						<path class="st19" d="M204.68,206.76l-1.7,10.91c-0.01,0.06-0.01,0.11,0.01,0.17c0.17,0.7,1.49,5.6,5.28,3.8
							c4.92-2.33,4.42-7.88,0.54-10.93C206.94,209.25,204.75,206.33,204.68,206.76z"/>
					</g>
				</g>
				<g>
					<g>
						<path class="st4" d="M204.75,206.72l-0.99,6.32c-0.01,0.03-0.02,0.06-0.03,0.09c-0.22,0.36-1.81,2.82-3.58,1.17
							c-2.3-2.16-1.05-5.13,1.63-6.13C203.07,207.69,204.79,206.46,204.75,206.72z"/>
					</g>
					<g>
						<path class="st4" d="M204.75,206.71l-0.99,6.32c-0.01,0.03,0,0.06,0,0.1c0.1,0.41,0.86,3.24,3.06,2.2
							c2.85-1.35,2.56-4.56,0.31-6.33C206.06,208.15,204.79,206.46,204.75,206.71z"/>
					</g>
				</g>
			</g>
		</g>
		<g>
			<g>
				<g>
					<g>
						<path class="st18" d="M220.73,57.79l-2.55-11.11c-0.01-0.06-0.04-0.11-0.07-0.16c-0.43-0.61-3.57-4.79-6.51-1.62
							c-3.82,4.12-1.22,9.24,3.66,10.68C217.62,56.28,220.84,58.23,220.73,57.79z"/>
					</g>
					<g>
						<path class="st19" d="M220.73,57.79l-2.55-11.11c-0.01-0.06-0.02-0.11-0.01-0.17c0.12-0.74,1.13-5.87,5.16-4.3
							c5.23,2.04,5.12,7.79,1.35,11.21C222.88,55.07,220.84,58.23,220.73,57.79z"/>
					</g>
				</g>
				<g>
					<g>
						<path class="st4" d="M220.81,57.83l-1.47-6.44c-0.01-0.03-0.02-0.06-0.04-0.09c-0.25-0.35-2.07-2.78-3.77-0.94
							c-2.21,2.39-0.71,5.35,2.12,6.19C219.01,56.96,220.87,58.09,220.81,57.83z"/>
					</g>
					<g>
						<path class="st4" d="M220.81,57.83l-1.47-6.44c-0.01-0.03-0.01-0.07,0-0.1c0.07-0.43,0.65-3.4,2.99-2.49
							c3.03,1.18,2.97,4.51,0.78,6.49C222.06,56.26,220.87,58.09,220.81,57.83z"/>
					</g>
				</g>
			</g>
			<g>
				<g>
					<g>
						<path class="st18" d="M220.83,58.06l-5.79,9.82c-0.03,0.05-0.05,0.1-0.06,0.16c-0.11,0.74-0.7,5.94,3.61,5.66
							c5.61-0.36,7.24-5.87,4.68-10.27C222.05,61.3,221.06,57.67,220.83,58.06z"/>
					</g>
					<g>
						<path class="st19" d="M220.83,58.06l-5.79,9.82c-0.03,0.05-0.07,0.09-0.11,0.13c-0.6,0.45-4.86,3.49-6.7-0.43
							c-2.39-5.08,1.63-9.18,6.72-9.07C217.4,58.56,221.06,57.67,220.83,58.06z"/>
					</g>
				</g>
				<g>
					<g>
						<path class="st4" d="M220.8,57.98l-3.35,5.69c-0.02,0.03-0.03,0.06-0.03,0.09c-0.06,0.43-0.41,3.44,2.09,3.28
							c3.25-0.21,4.2-3.4,2.71-5.95C221.51,59.85,220.94,57.75,220.8,57.98z"/>
					</g>
					<g>
						<path class="st4" d="M220.8,57.98l-3.35,5.69c-0.02,0.03-0.04,0.05-0.07,0.07c-0.35,0.26-2.81,2.02-3.88-0.25
							c-1.39-2.94,0.95-5.32,3.9-5.26C218.82,58.26,220.94,57.75,220.8,57.98z"/>
					</g>
				</g>
			</g>
			<g>
				<path class="st18" d="M203.03,59.03c0.03-0.15,0.13-0.28,0.27-0.36c7.86-4.45,18.4-1.06,18.85-0.91c0.3,0.1,0.46,0.42,0.36,0.71
					c-0.1,0.3-0.42,0.46-0.71,0.36c-0.1-0.03-10.52-3.38-17.94,0.82c-0.27,0.15-0.62,0.06-0.77-0.21
					C203.01,59.31,203,59.16,203.03,59.03z"/>
			</g>
			<g>
				<g>
					<g>
						<path class="st18" d="M221.28,57.94l11.32,1.33c0.06,0.01,0.11,0.02,0.16,0.05c0.65,0.36,5.15,3.03,2.32,6.3
							c-3.68,4.24-9.05,2.22-11.01-2.48C223.12,60.88,220.83,57.89,221.28,57.94z"/>
					</g>
					<g>
						<path class="st19" d="M221.28,57.94l11.32,1.33c0.06,0.01,0.12,0,0.17-0.01c0.72-0.2,5.71-1.76,3.71-5.59
							c-2.6-4.98-8.3-4.25-11.29-0.13C223.75,55.51,220.83,57.89,221.28,57.94z"/>
					</g>
				</g>
				<g>
					<g>
						<path class="st4" d="M221.23,57.87l6.56,0.77c0.03,0,0.07,0.01,0.09,0.03c0.38,0.21,2.98,1.76,1.34,3.65
							c-2.13,2.46-5.25,1.28-6.38-1.44C222.29,59.57,220.96,57.84,221.23,57.87z"/>
					</g>
					<g>
						<path class="st4" d="M221.23,57.87l6.56,0.77c0.03,0,0.07,0,0.1-0.01c0.42-0.12,3.31-1.02,2.15-3.24
							c-1.51-2.89-4.81-2.46-6.54-0.08C222.66,56.46,220.96,57.84,221.23,57.87z"/>
					</g>
				</g>
			</g>
		</g>
		<g>
			<path class="st14" d="M29.48,145.19c3.69-1.55,4.68-5.36,3.35-6.52c-3.37-2.94-5.27,1.32-5.27,1.32s1.49-4.42-2.98-4.55
				c-1.76-0.05-3.63,3.42-1.97,7.06c-3.18-2.42-6.98-1.37-7.32,0.36c-0.86,4.38,3.78,3.91,3.78,3.91s-4.57,0.92-2.45,4.85
				c0.77,1.43,4.19,1.44,6.53-1.13c-0.64,1.16-1.36,2.27-2.19,3.28c-0.47,0.57-0.98,1.12-1.52,1.61c-0.54,0.49-1.12,0.93-1.72,1.31
				c-0.05,0.03-0.1,0.05-0.15,0.08c0.29,0.41,0.58,0.83,0.85,1.26c0.05-0.04,0.1-0.07,0.15-0.1c0.65-0.5,1.24-1.05,1.78-1.64
				c0.54-0.59,1.02-1.22,1.47-1.87c0.72-1.06,1.32-2.18,1.83-3.33c0.17,3.25,2.54,5.37,4.02,4.87c4.23-1.45,1.49-5.22,1.49-5.22
				s3.08,3.5,5.42-0.3C35.53,148.92,33.46,145.57,29.48,145.19z"/>
			<path class="st15" d="M26.93,146.49c1.77-0.74,2.24-2.57,1.6-3.12c-1.61-1.41-2.53,0.63-2.53,0.63s0.71-2.12-1.43-2.18
				c-0.84-0.02-1.74,1.64-0.94,3.38c-1.52-1.16-3.34-0.66-3.51,0.17c-0.41,2.1,1.81,1.87,1.81,1.87s-2.19,0.44-1.17,2.32
				c0.37,0.69,3.21-0.57,3.45-1.12c0.08,1.56,1.14,3.43,1.85,3.19c2.03-0.69,1.53-3.08,1.53-3.08s0.66,2.26,1.78,0.44
				C29.83,148.28,28.84,146.67,26.93,146.49z"/>
		</g>
		<path class="st14" d="M51.27,201.92c-1.26,0-1.26,1.95,0,1.95C52.53,203.88,52.53,201.92,51.27,201.92z"/>
		<path class="st14" d="M55.63,192.33c-1.26,0-1.26,1.95,0,1.95C56.89,194.28,56.89,192.33,55.63,192.33z"/>
		<path class="st14" d="M68.28,215.91c-0.09,0-0.09,0.14,0,0.14C68.36,216.05,68.36,215.91,68.28,215.91z"/>
		<path class="st14" d="M80.48,202.43c-0.04,0-0.04,0.07,0,0.07C80.53,202.5,80.53,202.43,80.48,202.43z"/>
		<path class="st14" d="M71.29,216.62c-0.04-0.15-0.12-0.27-0.22-0.38c-0.06-0.05-0.12-0.09-0.18-0.14
			c-0.14-0.08-0.28-0.12-0.44-0.12l-0.44-0.04c-0.12,0-0.24,0.02-0.35,0.08c-0.11,0.04-0.21,0.1-0.29,0.19
			c-0.09,0.08-0.15,0.18-0.19,0.29c-0.06,0.11-0.08,0.22-0.08,0.35c0.01,0.08,0.02,0.16,0.03,0.24c0.04,0.15,0.12,0.29,0.23,0.4
			c0.06,0.05,0.12,0.09,0.18,0.14c0.14,0.08,0.29,0.12,0.46,0.12l0.44-0.04c0.12,0,0.23-0.02,0.33-0.07
			c0.11-0.04,0.2-0.09,0.28-0.18c0.08-0.08,0.14-0.17,0.18-0.28c0.05-0.1,0.08-0.21,0.07-0.33C71.31,216.78,71.3,216.7,71.29,216.62
			z"/>
		<path class="st14" d="M104.9,215.12c-1.67,0-1.68,2.6,0,2.6C106.57,217.72,106.58,215.12,104.9,215.12z"/>
		<path class="st14" d="M84.84,202.47c-1.67,0-1.68,2.6,0,2.6C86.52,205.07,86.52,202.47,84.84,202.47z"/>
		<path class="st14" d="M94.87,234.3c-1.67,0-1.68,2.6,0,2.6C96.55,236.9,96.55,234.3,94.87,234.3z"/>
		<path class="st14" d="M160.27,236.04c-1.67,0-1.68,2.6,0,2.6C161.95,238.65,161.95,236.04,160.27,236.04z"/>
		<path class="st14" d="M152.42,221.22c-1.67,0-1.68,2.6,0,2.6C154.1,223.82,154.1,221.22,152.42,221.22z"/>
		<path class="st14" d="M186.8,203.28c-0.29,0.37-0.59,0.75-0.88,1.12c-0.09-0.56-0.5-1.06-1.24-1.06c-1.67,0-1.68,2.6,0,2.6
			c0.89,0,1.3-0.74,1.25-1.43l0.94-1.17C186.92,203.3,186.84,203.23,186.8,203.28z"/>
		<path class="st14" d="M179.89,206.83c-1.67,0-1.68,2.6,0,2.6C181.57,209.43,181.57,206.83,179.89,206.83z"/>
		<path class="st14" d="M223.93,210.76c-1.67,0-1.68,2.6,0,2.6C225.6,213.36,225.61,210.76,223.93,210.76z"/>
		<path class="st14" d="M212.16,188.52c-1.67,0-1.68,2.6,0,2.6C213.83,191.12,213.83,188.52,212.16,188.52z"/>
		<path class="st14" d="M217.82,179.8c-1.67,0-1.68,2.6,0,2.6C219.5,182.4,219.5,179.8,217.82,179.8z"/>
		<path class="st14" d="M241.8,174.13c-1.67,0-1.68,2.6,0,2.6C243.48,176.73,243.48,174.13,241.8,174.13z"/>
		<path class="st14" d="M233.32,151.27l-0.07-0.17c-0.06-0.1-0.15-0.19-0.25-0.25c-0.42-0.31-0.84-0.63-1.27-0.94
			c-0.09-0.06-0.19-0.09-0.29-0.09c-0.1-0.02-0.21-0.02-0.31,0.01c-0.18,0.05-0.38,0.19-0.47,0.36c-0.1,0.18-0.14,0.4-0.08,0.6
			c0.06,0.19,0.18,0.36,0.36,0.47l1.35,0.8c0.15,0.09,0.36,0.12,0.54,0.07c0.16-0.04,0.34-0.17,0.42-0.32
			C233.34,151.64,233.38,151.45,233.32,151.27z"/>
		<path class="st14" d="M244.42,158.2c-0.86,0-0.86,1.33,0,1.33C245.28,159.53,245.28,158.2,244.42,158.2z"/>
		<path class="st14" d="M221.53,98.08c-0.03-0.14-0.07-0.27-0.1-0.41c-0.02-0.05-0.04-0.09-0.06-0.14
			c-0.04-0.07-0.09-0.12-0.15-0.16c-0.04-0.04-0.08-0.06-0.13-0.07c-0.07-0.04-0.14-0.05-0.22-0.05c-0.05,0.01-0.1,0.01-0.15,0.02
			c-0.05,0.02-0.09,0.04-0.14,0.06c-0.07,0.04-0.12,0.09-0.16,0.15c-0.05,0.06-0.08,0.12-0.1,0.2c-0.03,0.14-0.07,0.27-0.1,0.41
			c-0.03,0.12-0.03,0.24,0,0.36c0.03,0.11,0.09,0.21,0.17,0.3c0.05,0.04,0.09,0.07,0.14,0.11c0.11,0.06,0.22,0.09,0.34,0.09
			c0.09,0,0.18-0.02,0.26-0.06c0.08-0.03,0.16-0.07,0.22-0.14c0.08-0.08,0.14-0.18,0.17-0.3C221.56,98.32,221.56,98.2,221.53,98.08z
			"/>
		<path class="st14" d="M222.18,105.24c-1.67,0-1.68,2.6,0,2.6C223.86,107.84,223.86,105.24,222.18,105.24z"/>
		<path class="st14" d="M243.98,82.13c-1.67,0-1.68,2.6,0,2.6C245.66,84.74,245.66,82.13,243.98,82.13z"/>
		<path class="st14" d="M216.08,82.97c-0.04,0-0.04,0.07,0,0.07C216.12,83.03,216.12,82.97,216.08,82.97z"/>
		<path class="st14" d="M237.88,68.62c-1.67,0-1.68,2.6,0,2.6C239.55,71.22,239.56,68.62,237.88,68.62z"/>
		<path class="st14" d="M209.98,73.85c-1.67,0-1.68,2.6,0,2.6C211.65,76.45,211.65,73.85,209.98,73.85z"/>
		<path class="st14" d="M213.9,78.93c-1.3,0-1.31,2.03,0,2.03C215.21,80.96,215.21,78.93,213.9,78.93z"/>
		<path class="st20" d="M204.74,51.18c0.01,0,0.01-0.02,0-0.02"/>
		<path class="st14" d="M209.54,38.1c-1.67,0-1.68,2.6,0,2.6C211.21,40.7,211.22,38.1,209.54,38.1z"/>
		<path class="st14" d="M114.62,15.27c-0.27-0.45-0.53-0.9-0.8-1.35c-0.15-0.25-0.4-0.45-0.68-0.52c-0.15-0.05-0.3-0.05-0.45-0.02
			c-0.15,0.01-0.29,0.05-0.42,0.13c-0.24,0.16-0.46,0.39-0.52,0.68c-0.07,0.29-0.05,0.62,0.11,0.88c0.29,0.44,0.58,0.87,0.87,1.31
			c0.07,0.13,0.16,0.23,0.28,0.31c0.11,0.1,0.23,0.16,0.37,0.2c0.15,0.05,0.29,0.05,0.44,0.02c0.15-0.01,0.28-0.05,0.41-0.13
			c0.23-0.15,0.44-0.38,0.5-0.65C114.8,15.83,114.77,15.53,114.62,15.27z"/>
		<path class="st14" d="M102.28,31.99c-1.67,0-1.68,2.6,0,2.6C103.96,34.6,103.96,31.99,102.28,31.99z"/>
		<path class="st14" d="M96.18,18.48c-1.67,0-1.68,2.6,0,2.6C97.85,21.08,97.86,18.48,96.18,18.48z"/>
		<path class="st14" d="M110.13,33.3c-1.67,0-1.68,2.6,0,2.6C111.81,35.9,111.81,33.3,110.13,33.3z"/>
		<path class="st14" d="M77,47.69c-1.67,0-1.68,2.6,0,2.6C78.67,50.29,78.67,47.69,77,47.69z"/>
		<path class="st14" d="M65.22,35.05c-1.67,0-1.68,2.6,0,2.6C66.9,37.65,66.9,35.05,65.22,35.05z"/>
		<path class="st14" d="M70.46,47.25c-1.67,0-1.68,2.6,0,2.6C72.13,49.86,72.13,47.25,70.46,47.25z"/>
		<path class="st14" d="M44.73,89.11c-1.67,0-1.68,2.6,0,2.6C46.41,91.71,46.41,89.11,44.73,89.11z"/>
		<path class="st14" d="M49.53,85.13c-1.19,0-1.19,1.84,0,1.84C50.71,86.97,50.72,85.13,49.53,85.13z"/>
		<path class="st14" d="M24.22,85.5c-0.01-0.03-0.03-0.07-0.04-0.1c-0.03-0.05-0.06-0.09-0.11-0.12c-0.04-0.04-0.09-0.06-0.15-0.08
			c-0.14-0.02-0.28-0.05-0.42-0.07c-0.09-0.02-0.18-0.02-0.27,0c-0.09,0.02-0.16,0.07-0.22,0.13c-0.03,0.03-0.05,0.07-0.08,0.1
			c-0.05,0.08-0.07,0.16-0.07,0.25c0,0.07,0.01,0.13,0.04,0.19c0.02,0.06,0.05,0.12,0.1,0.16c0.06,0.06,0.14,0.11,0.22,0.13
			c0.09,0.02,0.18,0.02,0.27,0c0.14-0.02,0.28-0.05,0.42-0.07c0.03-0.01,0.07-0.03,0.1-0.04c0.05-0.03,0.09-0.06,0.12-0.11
			c0.03-0.03,0.05-0.06,0.06-0.09c0.03-0.05,0.04-0.11,0.04-0.17C24.23,85.58,24.22,85.54,24.22,85.5z"/>
		<path class="st14" d="M18.57,131.84c-1.67,0-1.68,2.6,0,2.6C20.25,134.44,20.25,131.84,18.57,131.84z"/>
		<path class="st14" d="M19.78,128.16c-0.04-0.14-0.11-0.27-0.22-0.37c-0.2-0.24-0.4-0.47-0.6-0.71c-0.1-0.11-0.19-0.23-0.29-0.34
			c-0.1-0.12-0.22-0.23-0.33-0.34c-0.19-0.18-0.44-0.29-0.7-0.29c-0.14-0.01-0.26,0.02-0.38,0.09c-0.12,0.04-0.23,0.11-0.32,0.21
			c-0.17,0.19-0.3,0.44-0.29,0.7c0.01,0.26,0.1,0.52,0.29,0.7c0.11,0.11,0.22,0.22,0.34,0.31l0.37,0.29
			c0.24,0.19,0.49,0.38,0.73,0.57c0.08,0.08,0.17,0.14,0.27,0.17c0.1,0.05,0.21,0.08,0.32,0.07c0.21,0,0.45-0.09,0.59-0.25
			c0.15-0.16,0.26-0.37,0.25-0.59C19.8,128.31,19.79,128.23,19.78,128.16z"/>
		<path class="st14" d="M42.12,148.69c-0.18,0-0.18,0.29,0,0.29C42.3,148.98,42.3,148.69,42.12,148.69z"/>
		<path class="st14" d="M41.24,160.18c-1.67,0-1.68,2.6,0,2.6C42.92,162.78,42.92,160.18,41.24,160.18z"/>
		<path class="st14" d="M45.6,152.33c-1.67,0-1.68,2.6,0,2.6C47.28,154.93,47.28,152.33,45.6,152.33z"/>
		<path class="st14" d="M22.5,164.97c-1.67,0-1.68,2.6,0,2.6C24.17,167.58,24.17,164.97,22.5,164.97z"/>
		<path class="st14" d="M39.94,152.77c-1.67,0-1.68,2.6,0,2.6C41.61,155.37,41.61,152.77,39.94,152.77z"/>
		<path class="st20" d="M46.48,202.04c0.01,0,0.01-0.02,0-0.02"/>
		<path class="st14" d="M56.94,205.96c-1.67,0-1.68,2.6,0,2.6C58.61,208.56,58.62,205.96,56.94,205.96z"/>
		<path class="st14" d="M60.43,190.7c-1.67,0-1.68,2.6,0,2.6C62.1,193.3,62.1,190.7,60.43,190.7z"/>
		<path class="st14" d="M43.42,202.04c-1.67,0-1.68,2.6,0,2.6C45.1,204.64,45.1,202.04,43.42,202.04z"/>
		<path class="st14" d="M223.06,151.89c-1.67,0-1.68,2.6,0,2.6C224.73,154.5,224.73,151.89,223.06,151.89z"/>
		<path class="st19" d="M50.84,198.98c-1.67,0-1.68,2.6,0,2.6C52.51,201.58,52.51,198.98,50.84,198.98z"/>
		<path class="st19" d="M50.84,207.7c-1.67,0-1.68,2.6,0,2.6C52.51,210.3,52.51,207.7,50.84,207.7z"/>
		<path class="st19" d="M72.64,214.68c-1.67,0-1.68,2.6,0,2.6C74.31,217.28,74.31,214.68,72.64,214.68z"/>
		<path class="st19" d="M83.97,203.78c-1.67,0-1.68,2.6,0,2.6C85.65,206.38,85.65,203.78,83.97,203.78z"/>
		<path class="st19" d="M100.1,215.55c-1.67,0-1.68,2.6,0,2.6C101.78,218.15,101.78,215.55,100.1,215.55z"/>
		<path class="st19" d="M89.2,230.38c-1.67,0-1.68,2.6,0,2.6C90.88,232.98,90.88,230.38,89.2,230.38z"/>
		<path class="st19" d="M103.59,232.56c-1.67,0-1.68,2.6,0,2.6C105.27,235.16,105.27,232.56,103.59,232.56z"/>
		<path class="st19" d="M155.91,233.86c-1.67,0-1.68,2.6,0,2.6C157.59,236.47,157.59,233.86,155.91,233.86z"/>
		<path class="st19" d="M150.24,226.45c-1.67,0-1.68,2.6,0,2.6C151.92,229.05,151.92,226.45,150.24,226.45z"/>
		<path class="st19" d="M174.66,206.83c-1.67,0-1.68,2.6,0,2.6C176.33,209.43,176.34,206.83,174.66,206.83z"/>
		<path class="st19" d="M180.33,212.94c-1.67,0-1.68,2.6,0,2.6C182,215.54,182.01,212.94,180.33,212.94z"/>
		<path class="st19" d="M213.9,217.73c-1.67,0-1.68,2.6,0,2.6C215.57,220.33,215.58,217.73,213.9,217.73z"/>
		<path class="st19" d="M211.72,187.21c-1.67,0-1.68,2.6,0,2.6C213.39,189.81,213.4,187.21,211.72,187.21z"/>
		<path class="st19" d="M223.06,177.18c-1.67,0-1.68,2.6,0,2.6C224.73,179.78,224.73,177.18,223.06,177.18z"/>
		<path class="st19" d="M234.39,178.93c-1.67,0-1.68,2.6,0,2.6C236.07,181.53,236.07,178.93,234.39,178.93z"/>
		<path class="st19" d="M241.8,179.8c-1.67,0-1.68,2.6,0,2.6C243.48,182.4,243.48,179.8,241.8,179.8z"/>
		<path class="st19" d="M231.78,186.78c-1.67,0-1.68,2.6,0,2.6C233.45,189.38,233.45,186.78,231.78,186.78z"/>
		<path class="st19" d="M229.08,149.93c-0.04-0.14-0.11-0.26-0.21-0.36c-0.06-0.04-0.11-0.09-0.17-0.13
			c-0.13-0.07-0.27-0.11-0.41-0.11c-0.29-0.02-0.58-0.05-0.87-0.07c-0.12,0-0.24,0.02-0.34,0.08c-0.11,0.04-0.21,0.1-0.29,0.18
			c-0.09,0.08-0.15,0.18-0.18,0.29c-0.06,0.11-0.08,0.22-0.08,0.34c0.01,0.08,0.02,0.16,0.03,0.24c0.04,0.15,0.12,0.28,0.23,0.39
			c0.06,0.05,0.12,0.09,0.18,0.14c0.14,0.08,0.29,0.12,0.45,0.12c0.29-0.02,0.58-0.05,0.87-0.07c0.11,0,0.22-0.02,0.32-0.07
			c0.1-0.03,0.19-0.09,0.26-0.17c0.08-0.07,0.14-0.16,0.17-0.26c0.05-0.1,0.07-0.2,0.07-0.32C229.1,150.07,229.09,150,229.08,149.93
			z"/>
		<path class="st19" d="M243.55,154.95c-1.67,0-1.68,2.6,0,2.6C245.22,157.55,245.23,154.95,243.55,154.95z"/>
		<path class="st19" d="M226.98,114.83c-1.67,0-1.68,2.6,0,2.6C228.65,117.44,228.66,114.83,226.98,114.83z"/>
		<path class="st19" d="M224.36,99.57c-1.67,0-1.68,2.6,0,2.6C226.04,102.18,226.04,99.57,224.36,99.57z"/>
		<path class="st19" d="M235.7,88.24c-1.67,0-1.68,2.6,0,2.6C237.37,90.84,237.38,88.24,235.7,88.24z"/>
		<path class="st19" d="M223.49,88.67c-1.67,0-1.68,2.6,0,2.6C225.17,91.28,225.17,88.67,223.49,88.67z"/>
		<path class="st19" d="M237.01,72.54c-1.67,0-1.68,2.6,0,2.6C238.68,75.14,238.69,72.54,237.01,72.54z"/>
		<path class="st19" d="M240.93,79.52c-1.67,0-1.68,2.6,0,2.6C242.61,82.12,242.61,79.52,240.93,79.52z"/>
		<path class="st19" d="M213.46,74.29c-1.67,0-1.68,2.6,0,2.6C215.14,76.89,215.14,74.29,213.46,74.29z"/>
		<path class="st19" d="M197.77,64.26c-1.67,0-1.68,2.6,0,2.6C199.44,66.86,199.45,64.26,197.77,64.26z"/>
		<path class="st19" d="M203,49c-1.67,0-1.68,2.6,0,2.6C204.67,51.6,204.68,49,203,49z"/>
		<path class="st19" d="M207.8,52.64c-0.91,0-0.91,1.41,0,1.41C208.71,54.06,208.71,52.64,207.8,52.64z"/>
		<path class="st19" d="M210.85,38.1c-1.67,0-1.68,2.6,0,2.6C212.52,40.7,212.53,38.1,210.85,38.1z"/>
		<path class="st19" d="M111.88,32.87c-1.67,0-1.68,2.6,0,2.6C113.55,35.47,113.55,32.87,111.88,32.87z"/>
		<path class="st19" d="M100.41,28.85c-0.02-0.07-0.08-0.15-0.15-0.19c-0.15-0.08-0.35-0.04-0.43,0.11
			c-0.16,0.28-0.32,0.56-0.48,0.85c-0.05,0.08-0.06,0.19-0.04,0.28c0.02,0.09,0.09,0.18,0.17,0.22c0.09,0.05,0.19,0.07,0.28,0.04
			c0.09-0.03,0.18-0.08,0.22-0.17l0.39-0.9C100.41,29.01,100.43,28.94,100.41,28.85z"/>
		<path class="st19" d="M107.95,16.73c-1.67,0-1.68,2.6,0,2.6C109.63,19.34,109.63,16.73,107.95,16.73z"/>
		<path class="st19" d="M77,43.33c-1.67,0-1.68,2.6,0,2.6C78.67,45.93,78.67,43.33,77,43.33z"/>
		<path class="st19" d="M72.2,50.74c-1.67,0-1.68,2.6,0,2.6C73.87,53.34,73.88,50.74,72.2,50.74z"/>
		<path class="st19" d="M63.92,42.46c-1.67,0-1.68,2.6,0,2.6C65.59,45.06,65.59,42.46,63.92,42.46z"/>
		<path class="st19" d="M48.22,86.93c-1.67,0-1.68,2.6,0,2.6C49.89,89.53,49.9,86.93,48.22,86.93z"/>
		<path class="st19" d="M32.09,86.93c-1.67,0-1.68,2.6,0,2.6C33.76,89.53,33.76,86.93,32.09,86.93z"/>
		<path class="st19" d="M25.55,81.7c-1.67,0-1.68,2.6,0,2.6C27.22,84.3,27.22,81.7,25.55,81.7z"/>
		<path class="st19" d="M25.05,94.61c-0.02-0.05-0.04-0.09-0.08-0.13c-0.05-0.05-0.11-0.09-0.18-0.11c-0.07-0.02-0.15-0.02-0.22,0
			c-0.14,0.02-0.28,0.04-0.42,0.06c-0.03,0.01-0.06,0.02-0.08,0.04c-0.04,0.02-0.07,0.05-0.1,0.09c-0.02,0.02-0.04,0.05-0.04,0.08
			c-0.02,0.04-0.03,0.09-0.03,0.13c0,0.03,0.01,0.06,0.01,0.09c0.01,0.03,0.02,0.06,0.04,0.08c0.02,0.04,0.05,0.07,0.09,0.1
			c0.03,0.03,0.07,0.05,0.12,0.06c0.14,0.02,0.28,0.04,0.42,0.06c0.07,0.02,0.15,0.02,0.22,0c0.07-0.02,0.13-0.05,0.18-0.11
			c0.07-0.08,0.12-0.18,0.12-0.29C25.09,94.71,25.08,94.66,25.05,94.61z"/>
		<path class="st19" d="M44.73,81.7c-1.67,0-1.68,2.6,0,2.6C46.41,84.3,46.41,81.7,44.73,81.7z"/>
		<path class="st19" d="M16.83,129.66c-1.67,0-1.68,2.6,0,2.6C18.5,132.26,18.5,129.66,16.83,129.66z"/>
		<path class="st19" d="M24.68,146.66c-1.67,0-1.68,2.6,0,2.6C26.35,149.26,26.35,146.66,24.68,146.66z"/>
		<path class="st19" d="M38.19,146.66c-1.67,0-1.68,2.6,0,2.6C39.87,149.26,39.87,146.66,38.19,146.66z"/>
		<path class="st19" d="M26.64,165.22c-0.03-0.11-0.09-0.21-0.17-0.3c-0.16-0.13-0.32-0.26-0.48-0.39c-0.06-0.06-0.12-0.1-0.2-0.13
			c-0.07-0.04-0.15-0.06-0.24-0.05c-0.08,0-0.16,0.01-0.24,0.05c-0.08,0.02-0.14,0.07-0.2,0.13c-0.03,0.04-0.06,0.08-0.1,0.12
			c-0.06,0.1-0.08,0.2-0.08,0.31c0.01,0.05,0.01,0.11,0.02,0.16c0.03,0.1,0.08,0.19,0.16,0.27c0.13,0.16,0.26,0.32,0.39,0.48
			c0.06,0.07,0.13,0.11,0.22,0.14c0.08,0.04,0.17,0.06,0.26,0.06c0.09,0,0.18-0.02,0.26-0.06c0.08-0.03,0.16-0.07,0.22-0.14
			c0.04-0.05,0.07-0.09,0.11-0.14c0.06-0.11,0.09-0.22,0.09-0.34L26.64,165.22z"/>
		<path class="st19" d="M43.42,159.31c-1.67,0-1.68,2.6,0,2.6C45.1,161.91,45.1,159.31,43.42,159.31z"/>
		<path class="st19" d="M28.16,172.39c-1.67,0-1.68,2.6,0,2.6C29.84,174.99,29.84,172.39,28.16,172.39z"/>
		<path class="st19" d="M54.76,188.33c-0.79,0-0.79,1.23,0,1.23C55.55,189.56,55.55,188.33,54.76,188.33z"/>
		<path class="st19" d="M80.92,226.02c-1.67,0-1.68,2.6,0,2.6C82.59,228.62,82.6,226.02,80.92,226.02z"/>
	</g>
</g>
</svg>
